<svg width="2283" height="813" viewBox="0 0 2283 813" fill="none" xmlns="http://www.w3.org/2000/svg">
<g clip-path="url(#clip0_2024_12)">
<path d="M210.967 781.335C215.152 783.696 213.505 793.621 208.708 793.335C169.887 791.019 141.931 782.652 124.842 768.234C103.21 750.034 92.3942 713.634 92.3942 659.033V512.843C92.3942 479.966 87.6224 456.188 78.0788 441.51C70.0747 429.2 54.4625 419.161 31.2423 411.394C27.3662 410.097 27.3339 404.113 31.1921 402.764C53.3385 395.02 68.6493 385.039 77.1245 372.819C87.3043 357.554 92.3942 334.657 92.3942 304.127V142.967C92.3942 92.4757 105.755 57.8365 132.477 39.0491C150.166 27.2604 176.962 20.1989 212.865 17.8645C217.6 17.5567 218.95 25.7605 214.661 27.7896C200.293 34.5868 189.441 43.3303 182.104 54.0203C170.015 71.0463 163.971 96.2919 163.971 129.757V290.037C163.971 324.676 158.245 351.096 146.793 369.296C137.963 383.674 122.35 394.727 99.9534 402.454C95.9698 403.828 96.0123 410.358 100.007 411.699C124.058 419.775 140.29 432.061 148.701 448.555C158.881 467.93 163.971 496.111 163.971 533.099V681.93C163.971 730.517 179.636 763.652 210.967 781.335Z" fill="#2566FA"/>
<path d="M835.833 781.335C831.648 783.696 833.295 793.621 838.092 793.335C876.913 791.019 904.868 782.652 921.957 768.234C943.59 750.034 954.406 713.634 954.406 659.033V512.843C954.406 479.966 959.177 456.188 968.721 441.51C976.725 429.2 992.337 419.161 1015.56 411.394C1019.43 410.097 1019.47 404.113 1015.61 402.764C993.461 395.02 978.151 385.039 969.675 372.819C959.496 357.554 954.406 334.657 954.406 304.127V142.967C954.406 92.4757 941.045 57.8365 914.323 39.0491C896.634 27.2604 869.838 20.1989 833.935 17.8645C829.2 17.5567 827.85 25.7605 832.139 27.7896C846.507 34.5868 857.359 43.3303 864.696 54.0203C876.785 71.0463 882.829 96.2919 882.829 129.757V290.037C882.829 324.676 888.555 351.096 900.007 369.296C908.837 383.674 924.45 394.727 946.846 402.454C950.83 403.828 950.787 410.358 946.793 411.699C922.742 419.775 906.51 432.061 898.099 448.555C887.919 467.93 882.829 496.111 882.829 533.099V681.93C882.829 730.517 867.164 763.652 835.833 781.335Z" fill="#2566FA"/>
<path d="M522 89C533.046 89 542 97.9543 542 109V702C542 713.046 533.046 722 522 722H256C244.954 722 236 713.046 236 702V109C236 97.9543 244.954 89 256 89H522ZM334 158C325.716 158 319 164.716 319 173V631C319 639.284 325.716 646 334 646H443C451.284 646 458 639.284 458 631V173C458 164.716 451.284 158 443 158H334Z" fill="#237505"/>
<path d="M724 99C724 93.4772 728.477 89 734 89H795C800.523 89 805 93.4772 805 99V712C805 717.523 800.523 722 795 722H655C649.477 722 645 717.523 645 712V167C645 161.477 649.477 157 655 157H714C719.523 157 724 152.523 724 147V99Z" fill="#FE1602"/>
<path d="M1132.75 264.22C1124.47 264.22 1116.42 262.687 1108.6 259.62C1100.93 256.4 1093.96 251.723 1087.67 245.59C1081.54 239.303 1076.63 231.56 1072.95 222.36C1069.42 213.16 1067.66 202.503 1067.66 190.39C1067.66 178.737 1069.5 168.31 1073.18 159.11C1076.86 149.91 1081.77 142.167 1087.9 135.88C1094.03 129.44 1100.93 124.61 1108.6 121.39C1116.42 118.017 1124.47 116.33 1132.75 116.33C1141.03 116.33 1149 117.94 1156.67 121.16C1164.34 124.227 1171.24 128.903 1177.37 135.19C1183.66 141.477 1188.56 149.22 1192.09 158.42C1195.77 167.62 1197.61 178.277 1197.61 190.39C1197.61 202.043 1195.77 212.47 1192.09 221.67C1188.56 230.87 1183.73 238.613 1177.6 244.9C1171.47 251.187 1164.49 256.017 1156.67 259.39C1149 262.61 1141.03 264.22 1132.75 264.22ZM1132.75 253.41C1142.26 253.41 1149.92 250.42 1155.75 244.44C1161.73 238.46 1166.1 230.64 1168.86 220.98C1171.62 211.32 1173 201.123 1173 190.39C1173 182.263 1172.23 174.443 1170.7 166.93C1169.17 159.417 1166.71 152.747 1163.34 146.92C1160.12 140.94 1155.98 136.187 1150.92 132.66C1145.86 129.133 1139.8 127.37 1132.75 127.37C1125.7 127.37 1119.56 129.133 1114.35 132.66C1109.29 136.187 1105.07 140.94 1101.7 146.92C1098.48 152.747 1096.1 159.417 1094.57 166.93C1093.04 174.443 1092.27 182.263 1092.27 190.39C1092.27 201.123 1093.65 211.32 1096.41 220.98C1099.17 230.64 1103.54 238.46 1109.52 244.44C1115.5 250.42 1123.24 253.41 1132.75 253.41ZM1212.66 261V253.18L1235.89 249.04H1241.87L1265.56 253.18V261H1212.66ZM1228.53 261C1228.99 246.28 1229.22 231.483 1229.22 216.61V124.15L1212.43 122.08V114.49L1246.7 105.06L1249.69 106.9L1249 136.8V216.61C1249 231.483 1249.23 246.28 1249.69 261H1228.53ZM1278.06 261V253.18L1300.6 249.04H1306.81L1327.97 253.18V261H1278.06ZM1293.24 261C1293.39 257.78 1293.47 253.563 1293.47 248.35C1293.62 242.983 1293.7 237.463 1293.7 231.79C1293.85 225.963 1293.93 220.903 1293.93 216.61V206.72C1293.93 200.893 1293.85 196.063 1293.7 192.23C1293.7 188.397 1293.55 184.333 1293.24 180.04L1276.68 178.2V170.61L1310.49 157.73L1313.71 159.8L1313.25 188.78V216.61C1313.25 220.903 1313.25 225.963 1313.25 231.79C1313.25 237.463 1313.25 242.983 1313.25 248.35C1313.4 253.563 1313.56 257.78 1313.71 261H1293.24ZM1303.36 134.96C1299.22 134.96 1295.77 133.657 1293.01 131.05C1290.25 128.443 1288.87 125.147 1288.87 121.16C1288.87 117.02 1290.25 113.723 1293.01 111.27C1295.77 108.663 1299.22 107.36 1303.36 107.36C1307.35 107.36 1310.8 108.663 1313.71 111.27C1316.62 113.723 1318.08 117.02 1318.08 121.16C1318.08 125.147 1316.62 128.443 1313.71 131.05C1310.8 133.657 1307.35 134.96 1303.36 134.96ZM1484.45 261C1484.61 257.78 1484.68 253.563 1484.68 248.35C1484.84 243.137 1484.91 237.693 1484.91 232.02C1485.07 226.193 1485.14 221.057 1485.14 216.61V197.98C1485.14 188.473 1483.76 182.033 1481 178.66C1478.24 175.133 1473.87 173.37 1467.89 173.37C1463.29 173.37 1458.62 174.52 1453.86 176.82C1449.26 178.967 1444.13 182.723 1438.45 188.09L1434.77 180.73H1436.38C1442.21 172.91 1448.57 167.16 1455.47 163.48C1462.53 159.647 1469.73 157.73 1477.09 157.73C1485.83 157.73 1492.58 160.643 1497.33 166.47C1502.09 172.143 1504.46 181.573 1504.46 194.76V216.61C1504.46 221.057 1504.46 226.193 1504.46 232.02C1504.62 237.693 1504.69 243.137 1504.69 248.35C1504.85 253.563 1505 257.78 1505.15 261H1484.45ZM1342.54 261V253.18L1365.31 249.04H1371.52L1392.45 253.18V261H1342.54ZM1357.72 261C1357.88 257.78 1357.95 253.563 1357.95 248.35C1358.11 242.983 1358.18 237.463 1358.18 231.79C1358.18 225.963 1358.18 220.903 1358.18 216.61V206.26C1358.18 200.433 1358.18 195.68 1358.18 192C1358.18 188.32 1358.03 184.333 1357.72 180.04L1341.16 178.2V170.61L1371.98 157.73L1375.43 159.8L1377.73 184.18V216.61C1377.73 220.903 1377.73 225.963 1377.73 231.79C1377.89 237.463 1377.96 242.983 1377.96 248.35C1378.12 253.563 1378.27 257.78 1378.42 261H1357.72ZM1406.02 261V253.18L1428.79 249.04H1435L1455.93 253.18V261H1406.02ZM1421.2 261C1421.36 257.78 1421.43 253.563 1421.43 248.35C1421.59 243.137 1421.66 237.693 1421.66 232.02C1421.66 226.193 1421.66 221.057 1421.66 216.61V198.44C1421.66 188.933 1420.36 182.417 1417.75 178.89C1415.15 175.21 1410.85 173.37 1404.87 173.37C1399.81 173.37 1394.98 174.597 1390.38 177.05C1385.78 179.503 1380.72 183.183 1375.2 188.09L1371.98 180.27H1374.05C1379.27 173.677 1385.4 168.31 1392.45 164.17C1399.51 159.877 1406.64 157.73 1413.84 157.73C1423.04 157.73 1429.87 160.797 1434.31 166.93C1438.91 172.91 1441.21 182.723 1441.21 196.37V216.61C1441.21 221.057 1441.21 226.193 1441.21 232.02C1441.37 237.693 1441.44 243.137 1441.44 248.35C1441.6 253.563 1441.75 257.78 1441.9 261H1421.2ZM1469.5 261V253.18L1492.04 249.04H1498.25L1519.41 253.18V261H1469.5ZM1532.32 311.14V303.32L1555.55 299.18H1562.45L1587.29 303.32V311.14H1532.32ZM1548.65 311.14C1548.8 303.473 1548.88 295.883 1548.88 288.37C1549.03 281.01 1549.11 273.65 1549.11 266.29V206.26C1549.11 200.433 1549.03 195.68 1548.88 192C1548.88 188.32 1548.8 184.333 1548.65 180.04L1532.32 178.2V170.61L1562.91 157.73L1566.36 159.8L1567.74 177.51L1568.66 178.43V244.44L1567.97 245.82V266.06C1567.97 280.627 1568.2 295.653 1568.66 311.14H1548.65ZM1596.26 263.53C1590.28 263.53 1584.45 262.15 1578.78 259.39C1573.26 256.63 1567.97 251.34 1562.91 243.52H1558.54L1560.38 231.79C1565.74 238.537 1570.88 243.52 1575.79 246.74C1580.85 249.807 1585.98 251.34 1591.2 251.34C1598.86 251.34 1605.38 248.197 1610.75 241.91C1616.27 235.47 1619.03 225.503 1619.03 212.01C1619.03 198.517 1616.57 188.243 1611.67 181.19C1606.91 173.983 1600.78 170.38 1593.27 170.38C1588.97 170.38 1584.14 171.837 1578.78 174.75C1573.56 177.51 1567.35 182.34 1560.15 189.24L1558.31 178.43H1563.14C1568.66 171.223 1574.41 166.01 1580.39 162.79C1586.52 159.417 1592.88 157.73 1599.48 157.73C1606.99 157.73 1613.81 159.8 1619.95 163.94C1626.08 168.08 1630.91 174.137 1634.44 182.11C1638.12 189.93 1639.96 199.36 1639.96 210.4C1639.96 221.287 1637.96 230.717 1633.98 238.69C1630.14 246.663 1624.93 252.797 1618.34 257.09C1611.74 261.383 1604.38 263.53 1596.26 263.53ZM1656.3 261V253.18L1678.84 249.04H1685.05L1706.21 253.18V261H1656.3ZM1671.48 261C1671.64 257.78 1671.71 253.563 1671.71 248.35C1671.87 242.983 1671.94 237.463 1671.94 231.79C1672.1 225.963 1672.17 220.903 1672.17 216.61V206.72C1672.17 200.893 1672.1 196.063 1671.94 192.23C1671.94 188.397 1671.79 184.333 1671.48 180.04L1654.92 178.2V170.61L1688.73 157.73L1691.95 159.8L1691.49 188.78V216.61C1691.49 220.903 1691.49 225.963 1691.49 231.79C1691.49 237.463 1691.49 242.983 1691.49 248.35C1691.65 253.563 1691.8 257.78 1691.95 261H1671.48ZM1681.6 134.96C1677.46 134.96 1674.01 133.657 1671.25 131.05C1668.49 128.443 1667.11 125.147 1667.11 121.16C1667.11 117.02 1668.49 113.723 1671.25 111.27C1674.01 108.663 1677.46 107.36 1681.6 107.36C1685.59 107.36 1689.04 108.663 1691.95 111.27C1694.87 113.723 1696.32 117.02 1696.32 121.16C1696.32 125.147 1694.87 128.443 1691.95 131.05C1689.04 133.657 1685.59 134.96 1681.6 134.96ZM1750 263.53C1742.18 263.53 1735.51 261.383 1729.99 257.09C1724.62 252.797 1721.94 246.203 1721.94 237.31C1721.94 233.17 1722.86 229.337 1724.7 225.81C1726.69 222.13 1730.22 218.603 1735.28 215.23C1740.49 211.857 1747.93 208.483 1757.59 205.11C1762.03 203.577 1767.32 201.967 1773.46 200.28C1779.59 198.593 1785.26 197.213 1790.48 196.14V203.96C1785.72 205.033 1780.59 206.413 1775.07 208.1C1769.7 209.787 1765.48 211.243 1762.42 212.47C1753.52 215.843 1747.85 219.447 1745.4 223.28C1743.1 226.96 1741.95 230.563 1741.95 234.09C1741.95 239.61 1743.48 243.597 1746.55 246.05C1749.77 248.503 1753.68 249.73 1758.28 249.73C1760.73 249.73 1763.03 249.347 1765.18 248.58C1767.32 247.813 1770.01 246.357 1773.23 244.21C1776.45 242.063 1780.89 238.843 1786.57 234.55L1789.33 245.36H1782.89C1776.75 251.647 1771.39 256.247 1766.79 259.16C1762.34 262.073 1756.74 263.53 1750 263.53ZM1800.6 263.3C1794.62 263.3 1789.79 261.383 1786.11 257.55C1782.58 253.717 1780.74 248.58 1780.59 242.14V192.92C1780.59 182.8 1779.05 176.053 1775.99 172.68C1773.07 169.153 1768.09 167.39 1761.04 167.39C1758.58 167.39 1755.75 167.62 1752.53 168.08C1749.46 168.54 1745.93 169.537 1741.95 171.07L1751.38 164.17L1746.55 181.88C1744.71 189.24 1740.87 192.92 1735.05 192.92C1728.91 192.92 1725.46 190.083 1724.7 184.41C1726.54 176.283 1731.21 169.843 1738.73 165.09C1746.24 160.183 1755.59 157.73 1766.79 157.73C1778.13 157.73 1786.49 160.567 1791.86 166.24C1797.22 171.76 1799.91 181.343 1799.91 194.99V240.07C1799.91 244.363 1800.52 247.43 1801.75 249.27C1803.13 250.957 1805.04 251.8 1807.5 251.8C1810.41 251.8 1813.02 250.267 1815.32 247.2L1819.69 251.8C1817.23 256.093 1814.4 259.083 1811.18 260.77C1808.11 262.457 1804.58 263.3 1800.6 263.3ZM1873.21 263.53C1864.62 263.53 1857.03 261.383 1850.44 257.09C1844 252.797 1838.94 246.74 1835.26 238.92C1831.73 231.1 1829.97 221.977 1829.97 211.55C1829.97 200.663 1831.96 191.233 1835.95 183.26C1839.93 175.133 1845.38 168.847 1852.28 164.4C1859.18 159.953 1866.84 157.73 1875.28 157.73C1881.1 157.73 1886.39 159.033 1891.15 161.64C1896.05 164.093 1900.88 168.463 1905.64 174.75H1909.32L1907.25 185.56C1901.42 179.733 1896.28 175.747 1891.84 173.6C1887.54 171.453 1883.33 170.38 1879.19 170.38C1871.67 170.38 1865.08 173.677 1859.41 180.27C1853.73 186.71 1850.9 196.983 1850.9 211.09C1850.9 224.89 1853.58 235.01 1858.95 241.45C1864.47 247.89 1871.29 251.11 1879.42 251.11C1884.78 251.11 1889.54 249.807 1893.68 247.2C1897.82 244.44 1902.19 240.07 1906.79 234.09L1908.63 244.67H1905.87C1901.88 250.803 1897.28 255.48 1892.07 258.7C1886.85 261.92 1880.57 263.53 1873.21 263.53ZM1904.26 263.07L1901.96 242.14V178.89L1902.88 176.13V124.15L1884.94 122.08V114.49L1919.44 105.06L1922.43 106.9L1921.51 136.8V250.65L1938.07 253.18V261L1904.26 263.07ZM1978.87 263.53C1971.05 263.53 1964.38 261.383 1958.86 257.09C1953.5 252.797 1950.81 246.203 1950.81 237.31C1950.81 233.17 1951.73 229.337 1953.57 225.81C1955.57 222.13 1959.09 218.603 1964.15 215.23C1969.37 211.857 1976.8 208.483 1986.46 205.11C1990.91 203.577 1996.2 201.967 2002.33 200.28C2008.47 198.593 2014.14 197.213 2019.35 196.14V203.96C2014.6 205.033 2009.46 206.413 2003.94 208.1C1998.58 209.787 1994.36 211.243 1991.29 212.47C1982.4 215.843 1976.73 219.447 1974.27 223.28C1971.97 226.96 1970.82 230.563 1970.82 234.09C1970.82 239.61 1972.36 243.597 1975.42 246.05C1978.64 248.503 1982.55 249.73 1987.15 249.73C1989.61 249.73 1991.91 249.347 1994.05 248.58C1996.2 247.813 1998.88 246.357 2002.1 244.21C2005.32 242.063 2009.77 238.843 2015.44 234.55L2018.2 245.36H2011.76C2005.63 251.647 2000.26 256.247 1995.66 259.16C1991.22 262.073 1985.62 263.53 1978.87 263.53ZM2029.47 263.3C2023.49 263.3 2018.66 261.383 2014.98 257.55C2011.46 253.717 2009.62 248.58 2009.46 242.14V192.92C2009.46 182.8 2007.93 176.053 2004.86 172.68C2001.95 169.153 1996.97 167.39 1989.91 167.39C1987.46 167.39 1984.62 167.62 1981.4 168.08C1978.34 168.54 1974.81 169.537 1970.82 171.07L1980.25 164.17L1975.42 181.88C1973.58 189.24 1969.75 192.92 1963.92 192.92C1957.79 192.92 1954.34 190.083 1953.57 184.41C1955.41 176.283 1960.09 169.843 1967.6 165.09C1975.12 160.183 1984.47 157.73 1995.66 157.73C2007.01 157.73 2015.37 160.567 2020.73 166.24C2026.1 171.76 2028.78 181.343 2028.78 194.99V240.07C2028.78 244.363 2029.4 247.43 2030.62 249.27C2032 250.957 2033.92 251.8 2036.37 251.8C2039.29 251.8 2041.89 250.267 2044.19 247.2L2048.56 251.8C2046.11 256.093 2043.27 259.083 2040.05 260.77C2036.99 262.457 2033.46 263.3 2029.47 263.3ZM1066.97 491V482.26L1095.03 479.04H1097.33V491H1066.97ZM1085.83 491C1086.14 480.42 1086.29 469.61 1086.29 458.57C1086.44 447.53 1086.52 436.413 1086.52 425.22V415.56C1086.52 404.673 1086.44 393.71 1086.29 382.67C1086.29 371.63 1086.14 360.667 1085.83 349.78H1108.6C1108.45 360.513 1108.29 371.4 1108.14 382.44C1108.14 393.327 1108.14 404.367 1108.14 415.56V422.46C1108.14 434.88 1108.14 446.687 1108.14 457.88C1108.29 469.073 1108.45 480.113 1108.6 491H1085.83ZM1097.33 491V480.88H1120.79C1133.98 480.88 1143.79 478.427 1150.23 473.52C1156.82 468.613 1160.12 461.56 1160.12 452.36C1160.12 442.547 1156.82 435.187 1150.23 430.28C1143.79 425.373 1133.44 422.92 1119.18 422.92H1097.33V413.03H1118.72C1130.99 413.03 1139.96 410.883 1145.63 406.59C1151.3 402.143 1154.14 395.167 1154.14 385.66C1154.14 376.153 1151.46 369.483 1146.09 365.65C1140.72 361.817 1132.83 359.9 1122.4 359.9H1097.33V349.78H1129.3C1144.33 349.78 1155.75 353 1163.57 359.44C1171.54 365.88 1175.53 374.16 1175.53 384.28C1175.53 392.407 1172.46 399.69 1166.33 406.13C1160.2 412.57 1149.85 416.71 1135.28 418.55V416.71C1152.15 417.937 1164.26 421.847 1171.62 428.44C1178.98 435.033 1182.66 443.007 1182.66 452.36C1182.66 458.647 1180.74 464.78 1176.91 470.76C1173.23 476.74 1167.17 481.647 1158.74 485.48C1150.46 489.16 1139.34 491 1125.39 491H1097.33ZM1066.97 358.75V349.78H1097.33V361.74H1095.03L1066.97 358.75ZM1249.83 493.53C1241.25 493.53 1233.2 491.613 1225.68 487.78C1218.17 483.793 1212.11 477.89 1207.51 470.07C1202.91 462.25 1200.61 452.59 1200.61 441.09C1200.61 429.437 1202.91 419.7 1207.51 411.88C1212.27 403.907 1218.4 397.927 1225.91 393.94C1233.43 389.8 1241.4 387.73 1249.83 387.73C1258.11 387.73 1266.01 389.8 1273.52 393.94C1281.04 397.927 1287.09 403.907 1291.69 411.88C1296.45 419.7 1298.82 429.437 1298.82 441.09C1298.82 452.59 1296.45 462.25 1291.69 470.07C1287.09 477.89 1281.04 483.793 1273.52 487.78C1266.16 491.613 1258.27 493.53 1249.83 493.53ZM1249.83 484.1C1258.42 484.1 1265.09 480.573 1269.84 473.52C1274.75 466.313 1277.2 455.503 1277.2 441.09C1277.2 426.83 1274.75 416.02 1269.84 408.66C1265.09 401.147 1258.42 397.39 1249.83 397.39C1240.94 397.39 1234.12 401.147 1229.36 408.66C1224.76 416.02 1222.46 426.83 1222.46 441.09C1222.46 469.763 1231.59 484.1 1249.83 484.1ZM1313.28 491V483.18L1336.51 479.04H1342.49L1366.18 483.18V491H1313.28ZM1329.15 491C1329.61 476.28 1329.84 461.483 1329.84 446.61V354.15L1313.05 352.08V344.49L1347.32 335.06L1350.31 336.9L1349.62 366.8V446.61C1349.62 461.483 1349.85 476.28 1350.31 491H1329.15ZM1378.68 491V483.18L1401.22 479.04H1407.43L1428.59 483.18V491H1378.68ZM1393.86 491C1394.02 487.78 1394.09 483.563 1394.09 478.35C1394.25 472.983 1394.32 467.463 1394.32 461.79C1394.48 455.963 1394.55 450.903 1394.55 446.61V436.72C1394.55 430.893 1394.48 426.063 1394.32 422.23C1394.32 418.397 1394.17 414.333 1393.86 410.04L1377.3 408.2V400.61L1411.11 387.73L1414.33 389.8L1413.87 418.78V446.61C1413.87 450.903 1413.87 455.963 1413.87 461.79C1413.87 467.463 1413.87 472.983 1413.87 478.35C1414.03 483.563 1414.18 487.78 1414.33 491H1393.86ZM1403.98 364.96C1399.84 364.96 1396.39 363.657 1393.63 361.05C1390.87 358.443 1389.49 355.147 1389.49 351.16C1389.49 347.02 1390.87 343.723 1393.63 341.27C1396.39 338.663 1399.84 337.36 1403.98 337.36C1407.97 337.36 1411.42 338.663 1414.33 341.27C1417.25 343.723 1418.7 347.02 1418.7 351.16C1418.7 355.147 1417.25 358.443 1414.33 361.05C1411.42 363.657 1407.97 364.96 1403.98 364.96ZM1484.8 491.92L1442.02 390.49H1464.56L1496.3 473.75H1491.93L1521.14 390.49H1533.1L1494.46 491.92H1484.8ZM1435.12 398.77V390.49H1487.1V398.77L1462.26 402.45H1455.36L1435.12 398.77ZM1500.21 398.77V390.49H1540.46V398.77L1525.05 402.22H1520.91L1500.21 398.77ZM1549.61 491V483.18L1572.15 479.04H1578.36L1599.52 483.18V491H1549.61ZM1564.79 491C1564.95 487.78 1565.02 483.563 1565.02 478.35C1565.18 472.983 1565.25 467.463 1565.25 461.79C1565.41 455.963 1565.48 450.903 1565.48 446.61V436.72C1565.48 430.893 1565.41 426.063 1565.25 422.23C1565.25 418.397 1565.1 414.333 1564.79 410.04L1548.23 408.2V400.61L1582.04 387.73L1585.26 389.8L1584.8 418.78V446.61C1584.8 450.903 1584.8 455.963 1584.8 461.79C1584.8 467.463 1584.8 472.983 1584.8 478.35C1584.96 483.563 1585.11 487.78 1585.26 491H1564.79ZM1574.91 364.96C1570.77 364.96 1567.32 363.657 1564.56 361.05C1561.8 358.443 1560.42 355.147 1560.42 351.16C1560.42 347.02 1561.8 343.723 1564.56 341.27C1567.32 338.663 1570.77 337.36 1574.91 337.36C1578.9 337.36 1582.35 338.663 1585.26 341.27C1588.18 343.723 1589.63 347.02 1589.63 351.16C1589.63 355.147 1588.18 358.443 1585.26 361.05C1582.35 363.657 1578.9 364.96 1574.91 364.96ZM1643.31 493.53C1635.49 493.53 1628.82 491.383 1623.3 487.09C1617.93 482.797 1615.25 476.203 1615.25 467.31C1615.25 463.17 1616.17 459.337 1618.01 455.81C1620 452.13 1623.53 448.603 1628.59 445.23C1633.8 441.857 1641.24 438.483 1650.9 435.11C1655.34 433.577 1660.63 431.967 1666.77 430.28C1672.9 428.593 1678.57 427.213 1683.79 426.14V433.96C1679.03 435.033 1673.9 436.413 1668.38 438.1C1663.01 439.787 1658.79 441.243 1655.73 442.47C1646.83 445.843 1641.16 449.447 1638.71 453.28C1636.41 456.96 1635.26 460.563 1635.26 464.09C1635.26 469.61 1636.79 473.597 1639.86 476.05C1643.08 478.503 1646.99 479.73 1651.59 479.73C1654.04 479.73 1656.34 479.347 1658.49 478.58C1660.63 477.813 1663.32 476.357 1666.54 474.21C1669.76 472.063 1674.2 468.843 1679.88 464.55L1682.64 475.36H1676.2C1670.06 481.647 1664.7 486.247 1660.1 489.16C1655.65 492.073 1650.05 493.53 1643.31 493.53ZM1693.91 493.3C1687.93 493.3 1683.1 491.383 1679.42 487.55C1675.89 483.717 1674.05 478.58 1673.9 472.14V422.92C1673.9 412.8 1672.36 406.053 1669.3 402.68C1666.38 399.153 1661.4 397.39 1654.35 397.39C1651.89 397.39 1649.06 397.62 1645.84 398.08C1642.77 398.54 1639.24 399.537 1635.26 401.07L1644.69 394.17L1639.86 411.88C1638.02 419.24 1634.18 422.92 1628.36 422.92C1622.22 422.92 1618.77 420.083 1618.01 414.41C1619.85 406.283 1624.52 399.843 1632.04 395.09C1639.55 390.183 1648.9 387.73 1660.1 387.73C1671.44 387.73 1679.8 390.567 1685.17 396.24C1690.53 401.76 1693.22 411.343 1693.22 424.99V470.07C1693.22 474.363 1693.83 477.43 1695.06 479.27C1696.44 480.957 1698.35 481.8 1700.81 481.8C1703.72 481.8 1706.33 480.267 1708.63 477.2L1713 481.8C1710.54 486.093 1707.71 489.083 1704.49 490.77C1701.42 492.457 1697.89 493.3 1693.91 493.3ZM1801.48 491C1801.63 487.78 1801.71 483.563 1801.71 478.35C1801.86 473.137 1801.94 467.693 1801.94 462.02C1802.09 456.193 1802.17 451.057 1802.17 446.61V428.21C1802.17 418.703 1800.87 412.187 1798.26 408.66C1795.65 405.133 1791.44 403.37 1785.61 403.37C1780.4 403.37 1775.41 404.52 1770.66 406.82C1765.91 409.12 1760.62 412.877 1754.79 418.09L1752.49 409.35H1754.33C1759.7 402.757 1765.91 397.543 1772.96 393.71C1780.17 389.723 1787.3 387.73 1794.35 387.73C1803.4 387.73 1810.22 390.797 1814.82 396.93C1819.57 402.91 1821.95 412.723 1821.95 426.37V446.61C1821.95 451.057 1821.95 456.193 1821.95 462.02C1822.1 467.693 1822.18 473.137 1822.18 478.35C1822.33 483.563 1822.49 487.78 1822.64 491H1801.48ZM1722.36 491V483.18L1745.13 479.04H1751.34L1772.27 483.18V491H1722.36ZM1737.54 491C1737.69 487.78 1737.77 483.563 1737.77 478.35C1737.92 472.983 1738 467.463 1738 461.79C1738 455.963 1738 450.903 1738 446.61V436.26C1738 430.433 1738 425.68 1738 422C1738 418.32 1737.85 414.333 1737.54 410.04L1720.98 408.2V400.61L1751.8 387.73L1755.25 389.8L1757.55 414.18V446.61C1757.55 450.903 1757.55 455.963 1757.55 461.79C1757.7 467.463 1757.78 472.983 1757.78 478.35C1757.93 483.563 1758.09 487.78 1758.24 491H1737.54ZM1786.76 491V483.18L1809.53 479.04H1815.51L1836.44 483.18V491H1786.76ZM1879.82 493.53C1872 493.53 1865.33 491.383 1859.81 487.09C1854.44 482.797 1851.76 476.203 1851.76 467.31C1851.76 463.17 1852.68 459.337 1854.52 455.81C1856.51 452.13 1860.04 448.603 1865.1 445.23C1870.31 441.857 1877.75 438.483 1887.41 435.11C1891.86 433.577 1897.15 431.967 1903.28 430.28C1909.41 428.593 1915.09 427.213 1920.3 426.14V433.96C1915.55 435.033 1910.41 436.413 1904.89 438.1C1899.52 439.787 1895.31 441.243 1892.24 442.47C1883.35 445.843 1877.67 449.447 1875.22 453.28C1872.92 456.96 1871.77 460.563 1871.77 464.09C1871.77 469.61 1873.3 473.597 1876.37 476.05C1879.59 478.503 1883.5 479.73 1888.1 479.73C1890.55 479.73 1892.85 479.347 1895 478.58C1897.15 477.813 1899.83 476.357 1903.05 474.21C1906.27 472.063 1910.72 468.843 1916.39 464.55L1919.15 475.36H1912.71C1906.58 481.647 1901.21 486.247 1896.61 489.16C1892.16 492.073 1886.57 493.53 1879.82 493.53ZM1930.42 493.3C1924.44 493.3 1919.61 491.383 1915.93 487.55C1912.4 483.717 1910.56 478.58 1910.41 472.14V422.92C1910.41 412.8 1908.88 406.053 1905.81 402.68C1902.9 399.153 1897.91 397.39 1890.86 397.39C1888.41 397.39 1885.57 397.62 1882.35 398.08C1879.28 398.54 1875.76 399.537 1871.77 401.07L1881.2 394.17L1876.37 411.88C1874.53 419.24 1870.7 422.92 1864.87 422.92C1858.74 422.92 1855.29 420.083 1854.52 414.41C1856.36 406.283 1861.04 399.843 1868.55 395.09C1876.06 390.183 1885.42 387.73 1896.61 387.73C1907.96 387.73 1916.31 390.567 1921.68 396.24C1927.05 401.76 1929.73 411.343 1929.73 424.99V470.07C1929.73 474.363 1930.34 477.43 1931.57 479.27C1932.95 480.957 1934.87 481.8 1937.32 481.8C1940.23 481.8 1942.84 480.267 1945.14 477.2L1949.51 481.8C1947.06 486.093 1944.22 489.083 1941 490.77C1937.93 492.457 1934.41 493.3 1930.42 493.3ZM2078.95 493.53C2070.36 493.53 2062.77 491.383 2056.18 487.09C2049.74 482.797 2044.68 476.74 2041 468.92C2037.47 461.1 2035.71 451.977 2035.71 441.55C2035.71 430.663 2037.7 421.233 2041.69 413.26C2045.68 405.133 2051.12 398.847 2058.02 394.4C2064.92 389.953 2072.59 387.73 2081.02 387.73C2086.85 387.73 2092.14 389.033 2096.89 391.64C2101.8 394.093 2106.63 398.463 2111.38 404.75H2115.06L2112.99 415.56C2107.16 409.733 2102.03 405.747 2097.58 403.6C2093.29 401.453 2089.07 400.38 2084.93 400.38C2077.42 400.38 2070.82 403.677 2065.15 410.27C2059.48 416.71 2056.64 426.983 2056.64 441.09C2056.64 454.89 2059.32 465.01 2064.69 471.45C2070.21 477.89 2077.03 481.11 2085.16 481.11C2090.53 481.11 2095.28 479.807 2099.42 477.2C2103.56 474.44 2107.93 470.07 2112.53 464.09L2114.37 474.67H2111.61C2107.62 480.803 2103.02 485.48 2097.81 488.7C2092.6 491.92 2086.31 493.53 2078.95 493.53ZM2110 493.07L2107.7 472.14V408.89L2108.62 406.13V354.15L2090.68 352.08V344.49L2125.18 335.06L2128.17 336.9L2127.25 366.8V480.65L2143.81 483.18V491L2110 493.07ZM2204.17 493.53C2189.75 493.53 2178.18 489.007 2169.44 479.96C2160.7 470.76 2156.33 458.033 2156.33 441.78C2156.33 430.74 2158.55 421.233 2163 413.26C2167.6 405.133 2173.65 398.847 2181.17 394.4C2188.68 389.953 2196.81 387.73 2205.55 387.73C2213.21 387.73 2220.04 389.417 2226.02 392.79C2232 396.01 2236.67 400.687 2240.05 406.82C2243.57 412.8 2245.34 420.083 2245.34 428.67C2245.34 431.123 2245.26 433.347 2245.11 435.34C2244.95 437.333 2244.65 439.097 2244.19 440.63H2165.3V431.2H2213.83C2218.89 431.2 2222.26 430.203 2223.95 428.21C2225.63 426.063 2226.48 423.303 2226.48 419.93C2226.48 413.797 2224.33 408.507 2220.04 404.06C2215.9 399.613 2210.68 397.39 2204.4 397.39C2200.26 397.39 2196.04 398.77 2191.75 401.53C2187.61 404.137 2184.08 408.507 2181.17 414.64C2178.41 420.62 2177.03 428.67 2177.03 438.79C2177.03 452.13 2180.09 462.25 2186.23 469.15C2192.51 476.05 2200.72 479.5 2210.84 479.5C2217.43 479.5 2222.95 478.197 2227.4 475.59C2232 472.83 2236.14 469.303 2239.82 465.01L2245.11 469.38C2241.27 476.893 2235.91 482.797 2229.01 487.09C2222.26 491.383 2213.98 493.53 2204.17 493.53ZM1066.97 721V712.26L1095.03 709.04H1099.63L1127.69 712.26V721H1066.97ZM1085.83 721C1086.14 710.42 1086.29 699.687 1086.29 688.8C1086.44 677.76 1086.52 666.643 1086.52 655.45V645.33C1086.52 634.443 1086.44 623.557 1086.29 612.67C1086.29 601.63 1086.14 590.667 1085.83 579.78H1108.83C1108.52 590.513 1108.29 601.4 1108.14 612.44C1108.14 623.327 1108.14 634.29 1108.14 645.33V655.45C1108.14 666.337 1108.14 677.3 1108.14 688.34C1108.29 699.227 1108.52 710.113 1108.83 721H1085.83ZM1066.97 588.75V579.78H1127.69V588.75L1099.63 591.74H1095.03L1066.97 588.75ZM1224.01 721C1224.16 717.78 1224.24 713.563 1224.24 708.35C1224.39 703.137 1224.47 697.693 1224.47 692.02C1224.62 686.193 1224.7 681.057 1224.7 676.61V658.21C1224.7 648.703 1223.39 642.187 1220.79 638.66C1218.18 635.133 1213.96 633.37 1208.14 633.37C1202.92 633.37 1197.94 634.52 1193.19 636.82C1188.43 639.12 1183.14 642.877 1177.32 648.09L1175.02 639.35H1176.86C1182.22 632.757 1188.43 627.543 1195.49 623.71C1202.69 619.723 1209.82 617.73 1216.88 617.73C1225.92 617.73 1232.75 620.797 1237.35 626.93C1242.1 632.91 1244.48 642.723 1244.48 656.37V676.61C1244.48 681.057 1244.48 686.193 1244.48 692.02C1244.63 697.693 1244.71 703.137 1244.71 708.35C1244.86 713.563 1245.01 717.78 1245.17 721H1224.01ZM1144.89 721V713.18L1167.66 709.04H1173.87L1194.8 713.18V721H1144.89ZM1160.07 721C1160.22 717.78 1160.3 713.563 1160.3 708.35C1160.45 702.983 1160.53 697.463 1160.53 691.79C1160.53 685.963 1160.53 680.903 1160.53 676.61V666.26C1160.53 660.433 1160.53 655.68 1160.53 652C1160.53 648.32 1160.37 644.333 1160.07 640.04L1143.51 638.2V630.61L1174.33 617.73L1177.78 619.8L1180.08 644.18V676.61C1180.08 680.903 1180.08 685.963 1180.08 691.79C1180.23 697.463 1180.31 702.983 1180.31 708.35C1180.46 713.563 1180.61 717.78 1180.77 721H1160.07ZM1209.29 721V713.18L1232.06 709.04H1238.04L1258.97 713.18V721H1209.29ZM1272.45 721V713.18L1295.91 709.04H1302.81L1327.88 713.18V721H1272.45ZM1288.55 721C1288.7 713.64 1288.78 706.28 1288.78 698.92C1288.93 691.56 1289.01 684.123 1289.01 676.61V631.99H1271.99V622.56L1296.14 619.34L1289.01 623.02L1289.24 621.18C1290.31 609.833 1291.92 600.633 1294.07 593.58C1296.22 586.527 1299.97 580.393 1305.34 575.18C1309.94 570.58 1314.77 567.36 1319.83 565.52C1325.04 563.68 1330.1 562.76 1335.01 562.76C1340.07 562.76 1344.52 563.68 1348.35 565.52C1352.18 567.36 1354.64 570.427 1355.71 574.72C1355.56 577.633 1354.33 580.087 1352.03 582.08C1349.88 583.92 1346.82 584.84 1342.83 584.84C1337.62 584.84 1332.4 582.387 1327.19 577.48L1317.76 569.66L1335.93 565.29L1340.3 571.73C1339.23 570.963 1337.92 570.35 1336.39 569.89C1334.86 569.43 1333.48 569.2 1332.25 569.2C1327.5 569.2 1323.05 571.27 1318.91 575.41C1314.77 579.397 1311.78 585.683 1309.94 594.27C1308.25 602.857 1307.79 614.433 1308.56 629V676.61C1308.56 691.483 1308.79 706.28 1309.25 721H1288.55ZM1298.9 631.99V620.49H1336.62V631.99H1298.9ZM1398.3 723.53C1389.71 723.53 1381.66 721.613 1374.15 717.78C1366.64 713.793 1360.58 707.89 1355.98 700.07C1351.38 692.25 1349.08 682.59 1349.08 671.09C1349.08 659.437 1351.38 649.7 1355.98 641.88C1360.73 633.907 1366.87 627.927 1374.38 623.94C1381.89 619.8 1389.87 617.73 1398.3 617.73C1406.58 617.73 1414.48 619.8 1421.99 623.94C1429.5 627.927 1435.56 633.907 1440.16 641.88C1444.91 649.7 1447.29 659.437 1447.29 671.09C1447.29 682.59 1444.91 692.25 1440.16 700.07C1435.56 707.89 1429.5 713.793 1421.99 717.78C1414.63 721.613 1406.73 723.53 1398.3 723.53ZM1398.3 714.1C1406.89 714.1 1413.56 710.573 1418.31 703.52C1423.22 696.313 1425.67 685.503 1425.67 671.09C1425.67 656.83 1423.22 646.02 1418.31 638.66C1413.56 631.147 1406.89 627.39 1398.3 627.39C1389.41 627.39 1382.58 631.147 1377.83 638.66C1373.23 646.02 1370.93 656.83 1370.93 671.09C1370.93 699.763 1380.05 714.1 1398.3 714.1ZM1464.74 721V713.18L1487.74 709.04H1494.87L1517.41 713.18V721H1464.74ZM1479.69 721C1479.84 717.78 1479.92 713.563 1479.92 708.35C1480.07 702.983 1480.15 697.463 1480.15 691.79C1480.15 685.963 1480.15 680.903 1480.15 676.61V666.26C1480.15 660.433 1480.15 655.68 1480.15 652C1480.15 648.32 1479.99 644.333 1479.69 640.04L1463.13 638.2V630.61L1493.95 617.73L1497.4 619.8L1499.7 646.25V676.61C1499.7 680.903 1499.7 685.963 1499.7 691.79C1499.85 697.463 1499.93 702.983 1499.93 708.35C1500.08 713.563 1500.23 717.78 1500.39 721H1479.69ZM1499.24 662.58L1496.02 647.86H1498.78C1501.84 638.353 1506.29 630.993 1512.12 625.78C1517.94 620.413 1523.92 617.73 1530.06 617.73C1533.28 617.73 1536.34 618.497 1539.26 620.03C1542.32 621.41 1544.39 623.403 1545.47 626.01C1545.47 636.59 1541.25 641.88 1532.82 641.88C1528.06 641.88 1523.62 639.963 1519.48 636.13L1513.73 630.84L1523.85 629.46C1517.71 632.833 1512.65 637.203 1508.67 642.57C1504.83 647.937 1501.69 654.607 1499.24 662.58ZM1696.49 721C1696.64 717.78 1696.72 713.563 1696.72 708.35C1696.87 703.137 1696.95 697.693 1696.95 692.02C1697.1 686.193 1697.18 681.057 1697.18 676.61V657.98C1697.18 648.473 1695.8 642.033 1693.04 638.66C1690.28 635.133 1685.91 633.37 1679.93 633.37C1675.33 633.37 1670.65 634.52 1665.9 636.82C1661.3 638.967 1656.16 642.723 1650.49 648.09L1646.81 640.73H1648.42C1654.24 632.91 1660.61 627.16 1667.51 623.48C1674.56 619.647 1681.77 617.73 1689.13 617.73C1697.87 617.73 1704.61 620.643 1709.37 626.47C1714.12 632.143 1716.5 641.573 1716.5 654.76V676.61C1716.5 681.057 1716.5 686.193 1716.5 692.02C1716.65 697.693 1716.73 703.137 1716.73 708.35C1716.88 713.563 1717.03 717.78 1717.19 721H1696.49ZM1554.58 721V713.18L1577.35 709.04H1583.56L1604.49 713.18V721H1554.58ZM1569.76 721C1569.91 717.78 1569.99 713.563 1569.99 708.35C1570.14 702.983 1570.22 697.463 1570.22 691.79C1570.22 685.963 1570.22 680.903 1570.22 676.61V666.26C1570.22 660.433 1570.22 655.68 1570.22 652C1570.22 648.32 1570.06 644.333 1569.76 640.04L1553.2 638.2V630.61L1584.02 617.73L1587.47 619.8L1589.77 644.18V676.61C1589.77 680.903 1589.77 685.963 1589.77 691.79C1589.92 697.463 1590 702.983 1590 708.35C1590.15 713.563 1590.3 717.78 1590.46 721H1569.76ZM1618.06 721V713.18L1640.83 709.04H1647.04L1667.97 713.18V721H1618.06ZM1633.24 721C1633.39 717.78 1633.47 713.563 1633.47 708.35C1633.62 703.137 1633.7 697.693 1633.7 692.02C1633.7 686.193 1633.7 681.057 1633.7 676.61V658.44C1633.7 648.933 1632.39 642.417 1629.79 638.89C1627.18 635.21 1622.89 633.37 1616.91 633.37C1611.85 633.37 1607.02 634.597 1602.42 637.05C1597.82 639.503 1592.76 643.183 1587.24 648.09L1584.02 640.27H1586.09C1591.3 633.677 1597.43 628.31 1604.49 624.17C1611.54 619.877 1618.67 617.73 1625.88 617.73C1635.08 617.73 1641.9 620.797 1646.35 626.93C1650.95 632.91 1653.25 642.723 1653.25 656.37V676.61C1653.25 681.057 1653.25 686.193 1653.25 692.02C1653.4 697.693 1653.48 703.137 1653.48 708.35C1653.63 713.563 1653.78 717.78 1653.94 721H1633.24ZM1681.54 721V713.18L1704.08 709.04H1710.29L1731.45 713.18V721H1681.54ZM1774.48 723.53C1766.66 723.53 1759.99 721.383 1754.47 717.09C1749.1 712.797 1746.42 706.203 1746.42 697.31C1746.42 693.17 1747.34 689.337 1749.18 685.81C1751.17 682.13 1754.7 678.603 1759.76 675.23C1764.97 671.857 1772.41 668.483 1782.07 665.11C1786.52 663.577 1791.81 661.967 1797.94 660.28C1804.07 658.593 1809.75 657.213 1814.96 656.14V663.96C1810.21 665.033 1805.07 666.413 1799.55 668.1C1794.18 669.787 1789.97 671.243 1786.9 672.47C1778.01 675.843 1772.33 679.447 1769.88 683.28C1767.58 686.96 1766.43 690.563 1766.43 694.09C1766.43 699.61 1767.96 703.597 1771.03 706.05C1774.25 708.503 1778.16 709.73 1782.76 709.73C1785.21 709.73 1787.51 709.347 1789.66 708.58C1791.81 707.813 1794.49 706.357 1797.71 704.21C1800.93 702.063 1805.38 698.843 1811.05 694.55L1813.81 705.36H1807.37C1801.24 711.647 1795.87 716.247 1791.27 719.16C1786.82 722.073 1781.23 723.53 1774.48 723.53ZM1825.08 723.3C1819.1 723.3 1814.27 721.383 1810.59 717.55C1807.06 713.717 1805.22 708.58 1805.07 702.14V652.92C1805.07 642.8 1803.54 636.053 1800.47 632.68C1797.56 629.153 1792.57 627.39 1785.52 627.39C1783.07 627.39 1780.23 627.62 1777.01 628.08C1773.94 628.54 1770.42 629.537 1766.43 631.07L1775.86 624.17L1771.03 641.88C1769.19 649.24 1765.36 652.92 1759.53 652.92C1753.4 652.92 1749.95 650.083 1749.18 644.41C1751.02 636.283 1755.7 629.843 1763.21 625.09C1770.72 620.183 1780.08 617.73 1791.27 617.73C1802.62 617.73 1810.97 620.567 1816.34 626.24C1821.71 631.76 1824.39 641.343 1824.39 654.99V700.07C1824.39 704.363 1825 707.43 1826.23 709.27C1827.61 710.957 1829.53 711.8 1831.98 711.8C1834.89 711.8 1837.5 710.267 1839.8 707.2L1844.17 711.8C1841.72 716.093 1838.88 719.083 1835.66 720.77C1832.59 722.457 1829.07 723.3 1825.08 723.3ZM1783.22 599.1C1788.74 589.747 1794.87 579.933 1801.62 569.66C1803.77 566.133 1805.84 563.68 1807.83 562.3C1809.82 560.92 1811.82 560.23 1813.81 560.23C1815.96 560.23 1817.87 560.92 1819.56 562.3C1821.25 563.68 1822.09 565.827 1822.09 568.74C1822.09 570.427 1821.55 572.267 1820.48 574.26C1819.41 576.1 1817.34 578.323 1814.27 580.93C1809.82 584.917 1805.53 588.75 1801.39 592.43C1797.25 596.11 1793.11 599.79 1788.97 603.47L1783.22 599.1ZM1888.95 723.53C1881.44 723.53 1875.38 721.613 1870.78 717.78C1866.33 713.793 1864.11 707.583 1864.11 699.15C1864.11 696.543 1864.11 693.937 1864.11 691.33C1864.26 688.57 1864.34 685.12 1864.34 680.98V631.99H1847.32V622.56L1873.31 619.11L1864.34 626.24L1871.93 591.51H1885.5L1884.35 624.63L1884.12 628.77V696.85C1884.12 702.217 1885.19 706.127 1887.34 708.58C1889.49 711.033 1892.25 712.26 1895.62 712.26C1899.76 712.26 1904.44 710.343 1909.65 706.51L1914.48 712.26C1909.11 719.773 1900.6 723.53 1888.95 723.53ZM1874.46 631.99V620.49H1912.18V631.99H1874.46ZM1922.01 721V713.18L1944.55 709.04H1950.76L1971.92 713.18V721H1922.01ZM1937.19 721C1937.35 717.78 1937.42 713.563 1937.42 708.35C1937.58 702.983 1937.65 697.463 1937.65 691.79C1937.81 685.963 1937.88 680.903 1937.88 676.61V666.72C1937.88 660.893 1937.81 656.063 1937.65 652.23C1937.65 648.397 1937.5 644.333 1937.19 640.04L1920.63 638.2V630.61L1954.44 617.73L1957.66 619.8L1957.2 648.78V676.61C1957.2 680.903 1957.2 685.963 1957.2 691.79C1957.2 697.463 1957.2 702.983 1957.2 708.35C1957.36 713.563 1957.51 717.78 1957.66 721H1937.19ZM1947.31 594.96C1943.17 594.96 1939.72 593.657 1936.96 591.05C1934.2 588.443 1932.82 585.147 1932.82 581.16C1932.82 577.02 1934.2 573.723 1936.96 571.27C1939.72 568.663 1943.17 567.36 1947.31 567.36C1951.3 567.36 1954.75 568.663 1957.66 571.27C1960.58 573.723 1962.03 577.02 1962.03 581.16C1962.03 585.147 1960.58 588.443 1957.66 591.05C1954.75 593.657 1951.3 594.96 1947.31 594.96ZM2035.03 723.53C2020.62 723.53 2008.96 718.93 2000.07 709.73C1991.33 700.377 1986.96 687.42 1986.96 670.86C1986.96 659.667 1989.26 650.16 1993.86 642.34C1998.46 634.367 2004.52 628.31 2012.03 624.17C2019.7 619.877 2027.9 617.73 2036.64 617.73C2046.45 617.73 2054.89 620.413 2061.94 625.78C2068.99 630.993 2073.13 637.587 2074.36 645.56C2073.29 651.08 2069.84 653.84 2064.01 653.84C2060.48 653.84 2057.8 652.843 2055.96 650.85C2054.12 648.857 2052.89 646.097 2052.28 642.57L2047.22 624.63L2057.8 632.68C2054.43 630.687 2050.98 629.307 2047.45 628.54C2044.08 627.773 2040.86 627.39 2037.79 627.39C2029.2 627.39 2022 630.917 2016.17 637.97C2010.34 644.87 2007.43 655.143 2007.43 668.79C2007.43 681.823 2010.5 691.867 2016.63 698.92C2022.92 705.973 2030.97 709.5 2040.78 709.5C2046.61 709.5 2052.05 708.12 2057.11 705.36C2062.17 702.6 2066.23 698.767 2069.3 693.86L2074.82 697.08C2068.53 714.713 2055.27 723.53 2035.03 723.53ZM2119.25 723.53C2111.43 723.53 2104.76 721.383 2099.24 717.09C2093.88 712.797 2091.19 706.203 2091.19 697.31C2091.19 693.17 2092.11 689.337 2093.95 685.81C2095.95 682.13 2099.47 678.603 2104.53 675.23C2109.75 671.857 2117.18 668.483 2126.84 665.11C2131.29 663.577 2136.58 661.967 2142.71 660.28C2148.85 658.593 2154.52 657.213 2159.73 656.14V663.96C2154.98 665.033 2149.84 666.413 2144.32 668.1C2138.96 669.787 2134.74 671.243 2131.67 672.47C2122.78 675.843 2117.11 679.447 2114.65 683.28C2112.35 686.96 2111.2 690.563 2111.2 694.09C2111.2 699.61 2112.74 703.597 2115.8 706.05C2119.02 708.503 2122.93 709.73 2127.53 709.73C2129.99 709.73 2132.29 709.347 2134.43 708.58C2136.58 707.813 2139.26 706.357 2142.48 704.21C2145.7 702.063 2150.15 698.843 2155.82 694.55L2158.58 705.36H2152.14C2146.01 711.647 2140.64 716.247 2136.04 719.16C2131.6 722.073 2126 723.53 2119.25 723.53ZM2169.85 723.3C2163.87 723.3 2159.04 721.383 2155.36 717.55C2151.84 713.717 2150 708.58 2149.84 702.14V652.92C2149.84 642.8 2148.31 636.053 2145.24 632.68C2142.33 629.153 2137.35 627.39 2130.29 627.39C2127.84 627.39 2125 627.62 2121.78 628.08C2118.72 628.54 2115.19 629.537 2111.2 631.07L2120.63 624.17L2115.8 641.88C2113.96 649.24 2110.13 652.92 2104.3 652.92C2098.17 652.92 2094.72 650.083 2093.95 644.41C2095.79 636.283 2100.47 629.843 2107.98 625.09C2115.5 620.183 2124.85 617.73 2136.04 617.73C2147.39 617.73 2155.75 620.567 2161.11 626.24C2166.48 631.76 2169.16 641.343 2169.16 654.99V700.07C2169.16 704.363 2169.78 707.43 2171 709.27C2172.38 710.957 2174.3 711.8 2176.75 711.8C2179.67 711.8 2182.27 710.267 2184.57 707.2L2188.94 711.8C2186.49 716.093 2183.65 719.083 2180.43 720.77C2177.37 722.457 2173.84 723.3 2169.85 723.3Z" fill="#020202"/>
</g>
<defs>
<clipPath id="clip0_2024_12">
<rect width="2283" height="813" fill="white"/>
</clipPath>
</defs>
</svg>
