<svg width="3373" height="1001" viewBox="0 0 3373 1001" fill="none" xmlns="http://www.w3.org/2000/svg">
<g clip-path="url(#clip0_71_5688)">
<rect width="3373" height="1001" fill="#F8B931"/>
<path d="M3080.98 648.802L3172.28 445.898H3209.38L3300.98 648.802H3261.56L3183.01 465.899H3198.08L3119.82 648.802H3080.98ZM3123.01 601.844L3133.15 572.278H3242.72L3252.86 601.844H3123.01Z" fill="#FDFCFB"/>
<path d="M3017.11 648.802V445.898H3054.79V648.802H3017.11Z" fill="#FDFCFB"/>
<path d="M2870.19 648.802L2781.49 445.898H2822.36L2901.49 629.381H2878.01L2958.01 445.898H2995.7L2907.29 648.802H2870.19Z" fill="#FDFCFB"/>
<path d="M2719.04 648.802V445.898H2756.72V648.802H2719.04Z" fill="#FDFCFB"/>
<path d="M2545.52 648.802V445.898H2583.2V616.917H2689.29V648.802H2545.52Z" fill="#FDFCFB"/>
<path d="M2396.59 651.701C2380.74 651.701 2366.15 649.092 2352.82 643.875C2339.48 638.657 2327.89 631.411 2318.03 622.135C2308.18 612.666 2300.54 601.651 2295.13 589.091C2289.72 576.337 2287.02 562.423 2287.02 547.35C2287.02 532.278 2289.72 518.461 2295.13 505.9C2300.54 493.146 2308.18 482.131 2318.03 472.856C2327.89 463.387 2339.48 456.044 2352.82 450.826C2366.15 445.609 2380.64 443 2396.3 443C2412.14 443 2426.63 445.609 2439.78 450.826C2453.11 456.044 2464.7 463.387 2474.56 472.856C2484.41 482.131 2492.05 493.146 2497.46 505.9C2502.87 518.461 2505.57 532.278 2505.57 547.35C2505.57 562.423 2502.87 576.337 2497.46 589.091C2492.05 601.845 2484.41 612.859 2474.56 622.135C2464.7 631.411 2453.11 638.657 2439.78 643.875C2426.63 649.092 2412.24 651.701 2396.59 651.701ZM2396.3 618.657C2406.54 618.657 2416.01 616.917 2424.7 613.439C2433.4 609.961 2440.93 605.033 2447.31 598.656C2453.69 592.086 2458.62 584.549 2462.09 576.047C2465.77 567.351 2467.6 557.785 2467.6 547.35C2467.6 536.915 2465.77 527.447 2462.09 518.944C2458.62 510.248 2453.69 502.712 2447.31 496.335C2440.93 489.764 2433.4 484.74 2424.7 481.262C2416.01 477.783 2406.54 476.044 2396.3 476.044C2386.05 476.044 2376.59 477.783 2367.89 481.262C2359.39 484.74 2351.85 489.764 2345.28 496.335C2338.9 502.712 2333.88 510.248 2330.21 518.944C2326.73 527.447 2324.99 536.915 2324.99 547.35C2324.99 557.592 2326.73 567.061 2330.21 575.757C2333.88 584.453 2338.9 592.086 2345.28 598.656C2351.66 605.033 2359.19 609.961 2367.89 613.439C2376.59 616.917 2386.05 618.657 2396.3 618.657Z" fill="#FDFCFB"/>
<path d="M2081 648.802V445.898H2176.07C2200.42 445.898 2218.97 450.729 2231.73 460.392C2244.48 469.86 2250.86 482.614 2250.86 498.653C2250.86 509.475 2248.35 518.751 2243.32 526.48C2238.3 534.017 2231.54 539.91 2223.03 544.162C2214.72 548.22 2205.64 550.249 2195.79 550.249L2201 539.814C2212.4 539.814 2222.65 541.939 2231.73 546.191C2240.81 550.249 2247.96 556.239 2253.18 564.162C2258.59 572.085 2261.29 581.94 2261.29 593.728C2261.29 611.12 2254.63 624.647 2241.29 634.309C2227.96 643.971 2208.15 648.802 2181.87 648.802H2081ZM2118.68 619.236H2179.55C2193.66 619.236 2204.48 616.917 2212.02 612.279C2219.55 607.642 2223.32 600.202 2223.32 589.96C2223.32 579.911 2219.55 572.568 2212.02 567.93C2204.48 563.099 2193.66 560.684 2179.55 560.684H2115.78V531.408H2172.02C2185.16 531.408 2195.21 529.089 2202.16 524.451C2209.31 519.813 2212.89 512.857 2212.89 503.581C2212.89 494.112 2209.31 487.059 2202.16 482.421C2195.21 477.783 2185.16 475.464 2172.02 475.464H2118.68V619.236Z" fill="#FDFCFB"/>
<path d="M1873.24 653.701C1857.39 653.701 1842.22 651.479 1827.73 647.034C1813.24 642.396 1801.74 636.502 1793.24 629.352L1806.28 600.076C1814.4 606.453 1824.44 611.767 1836.43 616.019C1848.41 620.27 1860.68 622.396 1873.24 622.396C1883.87 622.396 1892.47 621.236 1899.04 618.917C1905.61 616.598 1910.44 613.507 1913.53 609.642C1916.62 605.584 1918.17 601.043 1918.17 596.018C1918.17 589.835 1915.94 584.907 1911.5 581.235C1907.06 577.37 1901.26 574.375 1894.11 572.25C1887.15 569.931 1879.33 567.805 1870.63 565.873C1862.13 563.94 1853.53 561.718 1844.83 559.206C1836.33 556.5 1828.5 553.119 1821.35 549.061C1814.4 544.809 1808.7 539.205 1804.25 532.249C1799.81 525.292 1797.58 516.403 1797.58 505.581C1797.58 494.566 1800.48 484.518 1806.28 475.436C1812.27 466.16 1821.26 458.817 1833.24 453.406C1845.41 447.802 1860.77 445 1879.33 445C1891.5 445 1903.58 446.546 1915.56 449.638C1927.54 452.73 1937.97 457.174 1946.86 462.971L1934.98 492.248C1925.9 486.837 1916.52 482.875 1906.86 480.363C1897.2 477.658 1887.92 476.305 1879.04 476.305C1868.6 476.305 1860.1 477.561 1853.53 480.073C1847.15 482.585 1842.42 485.871 1839.32 489.929C1836.43 493.987 1834.98 498.625 1834.98 503.842C1834.98 510.026 1837.1 515.05 1841.35 518.915C1845.8 522.586 1851.5 525.485 1858.46 527.611C1865.61 529.736 1873.53 531.862 1882.22 533.988C1890.92 535.92 1899.52 538.142 1908.02 540.655C1916.72 543.167 1924.54 546.452 1931.5 550.51C1938.65 554.568 1944.35 560.075 1948.6 567.032C1953.05 573.989 1955.27 582.781 1955.27 593.409C1955.27 604.231 1952.27 614.28 1946.28 623.555C1940.49 632.638 1931.5 639.981 1919.33 645.585C1907.15 650.995 1891.79 653.701 1873.24 653.701Z" fill="#FDFCFB"/>
<path d="M1564.53 650.803L1655.83 447.899H1692.94L1784.53 650.803H1745.11L1666.56 467.899H1681.63L1603.37 650.803H1564.53ZM1606.56 603.845L1616.7 574.279H1726.27L1736.42 603.845H1606.56Z" fill="#FDFCFB"/>
<path d="M1381.21 650.803V447.899H1464.69C1482.66 447.899 1498.02 450.798 1510.77 456.595C1523.72 462.392 1533.67 470.701 1540.63 481.523C1547.59 492.344 1551.07 505.195 1551.07 520.075C1551.07 534.954 1547.59 547.805 1540.63 558.626C1533.67 569.255 1523.72 577.467 1510.77 583.265C1498.02 588.869 1482.66 591.671 1464.69 591.671H1402.08L1418.89 574.569V650.803H1381.21ZM1513.96 650.803L1462.66 577.177H1502.95L1554.54 650.803H1513.96ZM1418.89 578.627L1402.08 560.655H1462.95C1479.57 560.655 1492.03 557.08 1500.34 549.93C1508.84 542.781 1513.09 532.829 1513.09 520.075C1513.09 507.127 1508.84 497.176 1500.34 490.219C1492.03 483.262 1479.57 479.784 1462.95 479.784H1402.08L1418.89 461.233V578.627Z" fill="#FDFCFB"/>
<path d="M1160.7 650.803V447.899H1255.77C1280.12 447.899 1298.67 452.73 1311.42 462.392C1324.18 471.861 1330.55 484.615 1330.55 500.654C1330.55 511.475 1328.04 520.751 1323.02 528.481C1317.99 536.017 1311.23 541.911 1302.73 546.162C1294.42 550.22 1285.34 552.249 1275.48 552.249L1280.7 541.814C1292.1 541.814 1302.34 543.94 1311.42 548.191C1320.51 552.249 1327.66 558.24 1332.87 566.163C1338.28 574.086 1340.99 583.941 1340.99 595.729C1340.99 613.12 1334.32 626.647 1320.99 636.309C1307.66 645.971 1287.85 650.803 1261.57 650.803H1160.7ZM1198.38 621.237H1259.25C1273.36 621.237 1284.18 618.918 1291.71 614.28C1299.25 609.642 1303.02 602.202 1303.02 591.96C1303.02 581.912 1299.25 574.569 1291.71 569.931C1284.18 565.1 1273.36 562.684 1259.25 562.684H1195.48V533.408H1251.71C1264.85 533.408 1274.9 531.089 1281.86 526.452C1289.01 521.814 1292.58 514.857 1292.58 505.582C1292.58 496.113 1289.01 489.059 1281.86 484.422C1274.9 479.784 1264.85 477.465 1251.71 477.465H1198.38V621.237Z" fill="#FDFCFB"/>
<path d="M1001.29 532.249H1102.17V563.264H1001.29V532.249ZM1004.19 619.208H1118.69V650.803H966.51V447.899H1114.63V479.494H1004.19V619.208Z" fill="#FDFCFB"/>
<path d="M746 650.803V447.899H841.075C865.423 447.899 883.974 452.73 896.728 462.392C909.482 471.861 915.859 484.615 915.859 500.654C915.859 511.475 913.347 520.751 908.323 528.481C903.299 536.017 896.535 541.911 888.033 546.162C879.723 550.22 870.641 552.249 860.785 552.249L866.003 541.814C877.404 541.814 887.646 543.94 896.728 548.191C905.811 552.249 912.961 558.24 918.178 566.163C923.589 574.086 926.294 583.941 926.294 595.729C926.294 613.12 919.628 626.647 906.294 636.309C892.96 645.971 873.153 650.803 846.872 650.803H746ZM783.682 621.237H844.553C858.66 621.237 869.481 618.918 877.018 614.28C884.554 609.642 888.322 602.202 888.322 591.96C888.322 581.912 884.554 574.569 877.018 569.931C869.481 565.1 858.66 562.684 844.553 562.684H780.783V533.408H837.017C850.157 533.408 860.206 531.089 867.162 526.452C874.312 521.814 877.887 514.857 877.887 505.582C877.887 496.113 874.312 489.059 867.162 484.422C860.206 479.784 850.157 477.465 837.017 477.465H783.682V621.237Z" fill="#FDFCFB"/>
<rect x="538" y="284" width="13" height="11" fill="#007A33"/>
<ellipse cx="404.5" cy="815.5" rx="256.5" ry="27.5" fill="black" fill-opacity="0.34"/>
<path d="M554 291C588.792 284.592 585.444 259.919 661 309.5C624.843 329.479 594.812 347.93 554 291Z" fill="#F9E300"/>
<path d="M552 291C618.151 294.203 635.049 301.906 649.5 318C613.343 331.557 592.812 329.63 552 291Z" fill="#007A33"/>
<path d="M543.5 283C559 244.5 594.89 224.913 616.5 224C613 271.5 576.5 289.5 543.5 283Z" fill="#D52B1E"/>
<path d="M545 283C562 241.5 578.769 235.134 600 231C593.063 268.987 558 283 545 283Z" fill="#AE1A0E"/>
<path fill-rule="evenodd" clip-rule="evenodd" d="M307 297C336 252 408.274 225.531 452 233C450.39 241.708 448.233 241.976 440 247.5C458.981 241.354 470.081 241.333 496.5 239.5C488.138 256.141 483.873 261.253 466 264.5C579.316 279.917 682.967 419.284 560.5 489.5C558.458 490.67 556.472 491.817 554.54 492.939C628.645 545.713 636.304 611.99 573.5 623L539 797C468.833 848.097 401.266 849.823 251.5 825L206 707.5V590C206.039 589.978 219.781 582.284 241.921 570.978L219.5 472.5C219.57 472.344 278.017 341.973 307 297Z" fill="#936632"/>
<path d="M95.5 275.5C142 139 224 129.855 307.5 252L228 335L116.5 635C116.5 635 49 412 95.5 275.5Z" fill="#6D351B"/>
<path d="M572 640C612.513 672.879 601.291 715.682 551.519 757.4C560.927 751.295 572.201 747 582.5 747C605.972 747 628.5 762 631 782C631 796.126 621.051 810.79 587.878 818.001C587.753 818.166 587.628 818.333 587.5 818.5L585.225 818.554C583.54 818.887 581.799 819.204 580 819.5C577.504 819.5 574.98 819.274 572.461 818.855L503 820.5L572 640Z" fill="#936632"/>
<path d="M436 516C461.927 516.945 476.339 509.963 502 495C521.806 495.079 531.613 495.086 546 495L544.5 540C530.5 550 520.113 553.08 497 547C469 559 466.151 562.481 432.5 550.5C429.432 527.233 430.761 533.358 436 516Z" fill="#FCFCF7"/>
<path d="M529 414C552.761 391.712 563.579 378.807 553.5 351C495.684 343.515 472.699 348.656 444.5 370.5C455.473 389.212 469.462 399.091 529 414Z" fill="#6A341B"/>
<path d="M572 640C567.881 690.79 551.5 715 530 758.5C508.5 802 519 820 519 820H497.5C505.642 794.193 501.81 782.429 479 766.5C530.425 729.482 545.48 697.434 572 640Z" fill="#784F26"/>
<path fill-rule="evenodd" clip-rule="evenodd" d="M182 165.5C130.667 318.824 76.766 447.215 122 609C141.636 498.695 165.273 424.744 201.388 364.226C189.867 358.639 182 347.425 182 334.5C182 315.998 198.118 301 218 301C226.693 301 234.665 303.867 240.886 308.64C259.22 286.619 280.069 265.585 304 244L323 278.5C190 458.5 152 660 223.5 803C50.5005 714.5 -0.499405 251.5 182 165.5Z" fill="#4C280E"/>
<path d="M277 358C277 358 321 331.5 305 329.5C289 327.5 203.5 605.5 334.5 627V642.5C339.364 627.823 244 669 235.5 723.5C227 778 268 825 296 831.5C324 838 252.5 835.5 226.5 804.5C208.136 766.489 199.941 742.396 192.5 702C186.959 627.382 188.725 581.495 212.5 482.5C246.532 403.44 257.057 382.502 277 358Z" fill="#754C24"/>
<path d="M564.531 557.152C551.254 562.843 542 575.633 542 590.5C542 610.658 559.013 627 580 627C581.169 627 582.326 626.946 583.468 626.847C578.742 628.872 573.509 630 568 630C547.013 630 530 613.658 530 593.5C530 574.465 545.17 558.835 564.531 557.152Z" fill="#865723"/>
<path d="M369.5 438.5H377.5C375.827 480.093 383 506 420 515C377.5 515 360.5 493 369.5 438.5Z" fill="#826026"/>
<ellipse opacity="0.9" cx="290" cy="324.5" rx="40" ry="33.5" fill="#A77A36"/>
<path d="M330.5 289.5L517.5 275L562 306.5C448.371 286.232 382.698 299.296 284.5 362L267.5 367L330.5 289.5Z" fill="#826229"/>
<path d="M308 298C313.972 277.487 387.5 215.5 452.083 233.679C449.687 242.744 447.069 243.582 438.001 248.999C461.253 240.787 473.416 239.424 494.001 241C492.055 254.502 485.221 263.19 464 265.5C633.977 286.774 680.476 505.98 498 495.5" stroke="black" stroke-width="6"/>
<path d="M381 436C352.57 556.489 541.604 534.714 528.496 413.84M528.496 413.84C528.496 413.84 443.497 394.5 445.997 371C448.497 347.5 542.997 344.5 552.996 351C562.994 357.501 556.24 395.634 528.496 413.84Z" stroke="black" stroke-width="6"/>
<path d="M320.177 310.529C278.5 249 214.5 332 278.5 357" stroke="black" stroke-width="6"/>
<g filter="url(#filter0_d_71_5688)">
<path d="M339.217 550.498C337.72 551.207 337.081 552.996 337.79 554.493C338.499 555.99 340.288 556.629 341.785 555.92L340.501 553.209L339.217 550.498ZM260 516.999L257.01 516.756C254.441 548.35 266.358 581.52 285.998 603.856C305.669 626.227 333.607 638.181 362.68 625.759L361.501 623L360.322 620.241C334.395 631.319 309.082 621.023 290.503 599.894C271.893 578.729 260.559 547.149 262.99 517.242L260 516.999ZM361.501 623L362.68 625.759C377.018 619.632 385.629 610.686 389.556 600.753C393.47 590.854 392.585 580.34 388.622 571.334C380.785 553.524 360.193 540.563 339.217 550.498L340.501 553.209L341.785 555.92C358.81 547.856 376.218 558.041 383.13 573.751C386.542 581.505 387.22 590.345 383.977 598.547C380.747 606.715 373.484 614.618 360.322 620.241L361.501 623Z" fill="black"/>
</g>
<path d="M309.43 323.686C293.03 295.678 254.5 327.5 294.5 347" stroke="black" stroke-width="6"/>
<path d="M275.501 357.044C136.5 568.499 189.41 819.718 264.057 828.527C338.704 837.337 423.125 850.675 485.057 825.027C546.989 799.379 431.499 695 366.001 794.999" stroke="black" stroke-width="6"/>
<path d="M234.256 724.522C322 552 487.499 680 409.502 757.5" stroke="#010101" stroke-width="6"/>
<path d="M545.998 761C599.998 729 615.5 663.5 570.998 637.5" stroke="#010101" stroke-width="6"/>
<path d="M495 818.5C702.499 839.998 630.5 723.5 562 749.5" stroke="#010101" stroke-width="6"/>
<path d="M475.76 764.156C501.5 764.156 572.5 670.5 572.5 625.5" stroke="black" stroke-width="6"/>
<path d="M546.5 492C565.551 504.721 580.161 538.947 580.5 562.5" stroke="black" stroke-width="6"/>
<path d="M582.5 560.5C530 549.5 528.998 639.496 586.998 621.496C644.999 603.497 608.967 517.817 549.5 492.501" stroke="black" stroke-width="6" stroke-linecap="round"/>
<path d="M433.926 514.734C433.926 514.734 428.59 542.875 433.926 552C439.262 561.124 489.704 554.439 494 548.5C498.296 542.56 498.5 495.5 498.5 495.5" stroke="black" stroke-width="6"/>
<path d="M544 492.5C544 492.5 546.332 521.396 544 535.5C541.669 549.605 503.847 554.688 499.621 548.5C495.394 542.312 499.621 492.919 499.621 492.919" stroke="black" stroke-width="6"/>
<path d="M323.5 278.5C100.022 -112.768 -72.5 625 234.5 809.999" stroke="black" stroke-width="6"/>
<path d="M376.5 286.127C376.5 286.127 368.5 282 357.5 287.5C346.5 293 349.5 306.127 349.5 306.127C354.762 294.401 360.773 290.084 376.5 286.127Z" fill="#352314"/>
<path d="M349.72 306.586C353.77 290.638 375.502 285.58 377.502 287.499C374.993 282.501 345.331 282.186 349.72 306.586Z" stroke="#110000" stroke-width="6"/>
<circle cx="380" cy="345" r="24" fill="#00020B" stroke="#1D0500" stroke-width="6"/>
<circle cx="506" cy="320" r="19" fill="#00020B" stroke="#1D0500" stroke-width="6"/>
<circle cx="371.5" cy="333.5" r="13.5" fill="#D9D9D9"/>
<circle cx="498" cy="312" r="11" fill="#D9D9D9"/>
<circle cx="411.5" cy="457.5" r="4.5" fill="#160D0C"/>
<circle cx="442.5" cy="452.5" r="4.5" fill="#160D0C"/>
<circle cx="465.5" cy="461.5" r="4.5" fill="#160D0C"/>
<circle cx="547.5" cy="437.5" r="4.5" fill="#160D0C"/>
<circle cx="575.5" cy="441.5" r="4.5" fill="#160D0C"/>
<circle cx="555.5" cy="456.5" r="4.5" fill="#160D0C"/>
<circle cx="542.5" cy="474.5" r="4.5" fill="#160D0C"/>
<circle cx="466.5" cy="484.5" r="4.5" fill="#160D0C"/>
<circle cx="432.5" cy="479.5" r="4.5" fill="#160D0C"/>
<path d="M439.463 799.602C438.579 798.201 438.997 796.348 440.398 795.464C441.799 794.579 443.652 794.997 444.536 796.398L442 798L439.463 799.602ZM443 837L440.16 836.034C445.659 819.872 444.795 808.044 439.463 799.602L442 798L444.536 796.398C451.205 806.956 451.657 820.872 445.84 837.966L443 837Z" fill="black"/>
<path d="M469.127 798.362C468.651 796.775 469.551 795.103 471.138 794.627C472.725 794.15 474.397 795.051 474.874 796.638L472 797.5L469.127 798.362ZM472 830L469.062 829.395C470.8 820.95 471.496 815.582 471.438 811.164C471.381 806.816 470.592 803.246 469.127 798.362L472 797.5L474.874 796.638C476.408 801.754 477.37 805.934 477.437 811.086C477.504 816.168 476.7 822.05 474.939 830.605L472 830Z" fill="black"/>
<path d="M131.697 312.602C169.657 269.086 193.113 252.974 237.5 234C193.526 258.57 170.047 275.297 131.697 312.602Z" stroke="black" stroke-width="4"/>
<path d="M116.859 421.251C154.819 377.735 223.113 308.474 267.5 289.5C223.526 314.07 155.209 383.946 116.859 421.251Z" stroke="black" stroke-width="4"/>
<path d="M122.929 525.353C160.888 481.837 207.5 410.5 255 389.5C201 424 161.279 488.048 122.929 525.353Z" stroke="black" stroke-width="4"/>
<path d="M143.468 611.33C181.428 567.814 178.5 555 199.5 540C185.5 549 181.818 574.025 143.468 611.33Z" stroke="black" stroke-width="4"/>
<path d="M202 227.842C241.079 270.355 237 258.5 263.5 301C226.5 250.715 234.863 270.061 202 227.842Z" stroke="black" stroke-width="4"/>
<path d="M167.5 282C206.58 324.513 227.5 347 254 389.5C217 339.215 200.363 324.218 167.5 282Z" stroke="black" stroke-width="4"/>
<path d="M130 524.615C169.079 567.128 165 550 191.5 592.5C154.5 542.215 162.863 566.833 130 524.615Z" stroke="black" stroke-width="4"/>
<path d="M133 345.615C179.5 384 204 405.978 226.5 450.5C195 398.5 174.5 391 133 345.615Z" stroke="black" stroke-width="4"/>
<path d="M119 413C174.724 459.725 203 507.5 205 514.5C207 521.5 161.008 442.232 119 413Z" stroke="black" stroke-width="4"/>
<path d="M518 410.5C515.241 398.35 489.03 378.546 484 378.5C490.473 381.284 512.314 401.777 509 408.5" stroke="black" stroke-width="2"/>
<path d="M528 412C524.239 402.193 528.35 377.172 530.5 373C527.155 379.717 527.363 403.827 534 408" stroke="black" stroke-width="2"/>
<path d="M369.5 435.5C374.373 435.577 379.54 435.431 383.964 436.37" stroke="black" stroke-width="6"/>
<path d="M487 379C504.235 390.675 512.872 397.228 517.5 409L510 407C503.815 394.192 497.843 388.687 487 379Z" fill="black"/>
<path d="M527.5 413.5V389.5C529.085 398.991 530.096 403.551 532.5 408L527.5 413.5Z" fill="black"/>
<path d="M308.854 291.767C308.949 291.593 309.099 291.448 309.276 291.357C383.051 253.089 410.384 246.445 493.632 248.491C493.865 248.497 494.096 248.584 494.272 248.737L550.461 297.784C551.211 298.438 550.607 299.664 549.621 299.529C430.321 283.169 373.216 304.393 272.133 362.69C271.256 363.195 270.234 362.247 270.721 361.36L308.854 291.767Z" fill="#D52B1E"/>
<path d="M297.364 318.222C297.453 318.076 297.58 317.955 297.729 317.871C371.029 276.65 427.213 261.472 511.178 266.481C511.385 266.493 511.587 266.57 511.749 266.701L550.18 297.723C550.97 298.361 550.373 299.632 549.367 299.494C430.366 283.217 373.265 304.389 272.453 362.505C271.554 363.023 270.521 362.018 271.063 361.133L297.364 318.222Z" fill="#F9E300"/>
<path d="M288.873 334.69C288.957 334.565 289.068 334.46 289.198 334.383C369.676 286.952 449.05 267.188 524.763 279.462C524.919 279.487 525.066 279.549 525.193 279.642L549.781 297.644C550.621 298.258 550.034 299.585 549.004 299.445C430.367 283.276 373.275 304.407 272.751 362.334C271.834 362.862 270.793 361.811 271.38 360.93L288.873 334.69Z" fill="#007A33"/>
<path d="M614.896 219.744C615.944 238.405 613.725 251.325 605.613 261.173C596.755 271.927 580.354 279.666 551.148 286.276L544.051 281.206C547.045 276.415 549.487 272.127 551.72 268.289C554.338 263.79 556.655 259.939 559.312 256.431C564.526 249.548 571.192 243.79 584.264 237.721C597.654 231.503 602.941 228.778 606.661 226.236C608.534 224.957 609.99 223.737 611.767 222.273C612.663 221.535 613.669 220.71 614.896 219.744Z" stroke="black" stroke-width="6"/>
<path d="M661.142 306.314C641.284 326.604 621.501 330.732 603.503 326.555C584.269 322.09 566.508 308.007 552.547 292.202L552.547 290.181C563.913 284.994 572.763 281.85 581.523 280.359C590.697 278.797 599.952 279.015 612.093 280.805C623.002 282.413 631.749 288.731 640.45 295.022C644.709 298.103 649.021 301.213 653.417 303.448C655.892 304.706 658.46 305.722 661.142 306.314Z" stroke="black" stroke-width="6"/>
<path d="M547.188 284.788C549.59 286.68 551.15 288.996 551.81 291.107C552.474 293.232 552.173 294.885 551.348 295.933C550.94 296.451 550.744 296.429 550.732 296.429C550.585 296.44 550.17 296.393 549.331 295.92C548.515 295.46 547.562 294.751 546.393 293.809C545.303 292.932 543.909 291.756 542.546 290.682C541.183 289.608 539.713 288.529 538.605 287.676C537.415 286.76 536.502 286 535.864 285.314C535.208 284.609 535.065 284.217 535.041 284.071C535.039 284.062 534.967 283.878 535.378 283.356C536.203 282.308 537.74 281.629 539.961 281.776C542.168 281.922 544.785 282.896 547.188 284.788Z" stroke="black" stroke-width="5"/>
<path opacity="0.5" d="M312.5 292L337 280.5L296 348.5L277.5 356L312.5 292Z" fill="black"/>
<path d="M398.471 257.24C424.498 251.153 451.759 249.979 493.036 250.978L545.073 296.398C487.668 288.916 444.503 290.332 403.435 300.689C362.54 311.003 323.884 330.145 275.476 357.884L310.825 293.369C347.461 274.379 372.423 263.332 398.471 257.24Z" stroke="black" stroke-width="5"/>
<path d="M549.553 369.805C546.662 373.066 545.506 368.194 541.725 364.841C537.944 361.488 532.969 360.924 535.861 357.663C538.753 354.402 544.162 354.476 547.943 357.829C551.724 361.182 552.445 366.543 549.553 369.805Z" fill="#7F4731"/>
<path d="M467 363.684C471.12 366.611 499 357.198 526 360.684C531.316 361.37 535.436 358.611 531.316 355.684C520.5 347.998 469.525 360.131 467 363.684Z" fill="#6F3D26"/>
</g>
<defs>
<filter id="filter0_d_71_5688" x="252.664" y="516.755" width="143.418" height="122.012" filterUnits="userSpaceOnUse" color-interpolation-filters="sRGB">
<feFlood flood-opacity="0" result="BackgroundImageFix"/>
<feColorMatrix in="SourceAlpha" type="matrix" values="0 0 0 0 0 0 0 0 0 0 0 0 0 0 0 0 0 0 127 0" result="hardAlpha"/>
<feOffset dy="4"/>
<feGaussianBlur stdDeviation="2"/>
<feComposite in2="hardAlpha" operator="out"/>
<feColorMatrix type="matrix" values="0 0 0 0 0 0 0 0 0 0 0 0 0 0 0 0 0 0 0.25 0"/>
<feBlend mode="normal" in2="BackgroundImageFix" result="effect1_dropShadow_71_5688"/>
<feBlend mode="normal" in="SourceGraphic" in2="effect1_dropShadow_71_5688" result="shape"/>
</filter>
<clipPath id="clip0_71_5688">
<rect width="3373" height="1001" fill="white"/>
</clipPath>
</defs>
</svg>
