<svg width="702" height="816" viewBox="0 0 702 816" fill="none" xmlns="http://www.w3.org/2000/svg">
<g clip-path="url(#clip0_264_4602)">
<path d="M571.892 292.021L685 320L677.5 358C677.5 358 649.761 356.807 638 355.5C634.318 355.091 620.907 347.173 618 346.5C618 346.5 602.054 336.38 590.5 334C579.981 331.833 563 334 563 334L571.892 292.021Z" fill="#1F652A"/>
<path d="M577.5 260.331C604.233 259.105 614.5 260.831 633 273.331C651.5 285.831 675.838 285.698 693.5 283.331L689 308.831C659.903 308.319 641.532 315.751 625 304C606.748 291.889 596.194 282.919 572 284.831L577.5 260.331Z" fill="#AE1A0E"/>
<path d="M571 284.5C597.733 283.274 608 285 626.5 297.5C645 310 669.338 309.867 687 307.5L682.5 333C653.403 332.488 637.032 332.251 620.5 320.5C602.248 308.39 589.694 307.088 565.5 309L571 284.5Z" fill="#E3B70B"/>
<path d="M578.205 259.469C589.752 259.157 598.708 259.084 607.764 261.157C617.085 263.291 626.609 267.725 639.125 276.719L639.21 276.78L639.304 276.829C649.479 282.163 657.674 284.325 665.642 284.827C673.551 285.325 681.189 284.176 690.105 283.008C691.103 282.877 691.941 283.762 691.749 284.761L677.752 357.544C662.099 358.125 650.798 357.555 640.92 355.516C630.813 353.43 622.116 349.795 611.712 344.18L611.706 344.177L609.879 343.216C600.853 338.541 593.454 335.793 585.898 334.423C578.386 333.06 570.798 333.075 561.414 333.832L578.205 259.469Z" stroke="black" stroke-width="3"/>
<rect x="481" y="165" width="13" height="11" fill="#007A33"/>
<ellipse cx="347.5" cy="696.5" rx="256.5" ry="27.5" fill="black" fill-opacity="0.34"/>
<path d="M497 172C531.792 165.592 528.444 140.919 604 190.5C567.843 210.479 537.812 228.93 497 172Z" fill="#F9E300"/>
<path d="M495 172C561.151 175.203 578.049 182.906 592.5 199C556.343 212.557 535.812 210.63 495 172Z" fill="#007A33"/>
<path d="M486.5 164C502 125.5 537.89 105.913 559.5 105C556 152.5 519.5 170.5 486.5 164Z" fill="#D52B1E"/>
<path d="M488 164C505 122.5 521.769 116.134 543 112C536.063 149.987 501 164 488 164Z" fill="#AE1A0E"/>
<path d="M250 178C279 133 351.274 106.531 395 114C393.39 122.708 391.233 122.976 383 128.5C401.981 122.354 413.081 122.333 439.5 120.5C431.138 137.141 426.873 142.253 409 145.5C522.316 160.917 625.967 300.285 503.5 370.5C501.249 371.79 499.066 373.052 496.949 374.284C545.137 434.003 526.897 459.441 516.5 504L482 678C411.833 729.097 344.266 730.823 194.5 706L149 588.5V471C149.033 470.982 162.865 463.543 185.04 452.5L162.5 353.5C162.57 353.344 221.017 222.973 250 178Z" fill="#936632"/>
<path d="M38.5001 156.5C85.0001 19.9999 167 10.8553 250.5 133L171 216L59.5001 516C59.5001 516 -7.99994 293 38.5001 156.5Z" fill="#6D351B"/>
<path d="M515 521C555.513 553.878 544.291 596.682 494.519 638.4C503.927 632.295 515.201 628 525.5 628C548.972 628 571.5 643 574 663C574 677.126 564.051 691.79 530.878 699.001C530.753 699.166 530.628 699.333 530.5 699.5L528.225 699.554C526.54 699.887 524.799 700.204 523 700.5C520.504 700.5 517.98 700.274 515.461 699.855L446 701.5L515 521Z" fill="#936632"/>
<path d="M379 397C404.927 397.945 419.339 390.963 445 376C464.806 376.079 474.613 376.086 489 376L487.5 421C473.5 431 463.113 434.08 440 428C412 440 409.151 443.481 375.5 431.5C372.432 408.233 373.761 414.358 379 397Z" fill="#FCFCF7"/>
<path d="M472 295C495.761 272.712 506.579 259.807 496.5 232C438.684 224.515 415.699 229.656 387.5 251.5C398.473 270.212 412.462 280.091 472 295Z" fill="#6A341B"/>
<path d="M515 521C510.881 571.79 494.5 596 473 639.5C451.5 683 462 701 462 701H440.5C448.642 675.193 444.81 663.429 422 647.5C473.425 610.482 488.48 578.434 515 521Z" fill="#784F26"/>
<path d="M125 46.5C73.6666 199.824 19.766 328.215 65.0005 490C84.6359 379.695 108.273 305.744 144.388 245.226C132.867 239.639 125 228.425 125 215.5C125 196.998 141.118 182 161 182C169.693 182 177.665 184.867 183.886 189.64C202.22 167.619 223.069 146.585 247 125L266 159.5C133 339.5 95.0005 541 166.5 684C-6.49949 595.5 -57.4994 132.5 125 46.5Z" fill="#4C280E"/>
<path d="M220 239C220 239 276.801 222.541 248 210.5C219.199 198.459 129.736 483.527 276 517L277.5 523.5C282.364 508.823 187 550 178.5 604.5C170 659 211 706 239 712.5C267 719 195.5 716.5 169.5 685.5C151.136 647.489 142.941 623.396 135.5 583C129.959 508.382 131.725 462.495 155.5 363.5C189.532 284.44 200.057 263.502 220 239Z" fill="#754C24"/>
<path d="M312.5 319.5H320.5C318.827 361.093 326 387 363 396C320.5 396 303.5 374 312.5 319.5Z" fill="#754C24"/>
<ellipse opacity="0.9" cx="233" cy="205.5" rx="40" ry="33.5" fill="#A77A36"/>
<path d="M273.5 170.5L460.5 156L505 187.5C391.371 167.232 325.698 180.296 227.5 243L210.5 248L273.5 170.5Z" fill="#826229"/>
<path d="M251 179C256.972 158.487 330.5 96.4999 395.083 114.679C392.687 123.744 390.069 124.582 381.001 129.999C404.253 121.787 416.416 120.424 437.001 122C435.055 135.502 428.221 144.19 407 146.5C576.977 167.774 623.476 386.98 441 376.5" stroke="black" stroke-width="6"/>
<path d="M324 317C295.57 437.489 484.604 415.714 471.496 294.84M471.496 294.84C471.496 294.84 386.497 275.5 388.997 252C391.497 228.5 485.997 225.5 495.996 232C505.994 238.501 499.24 276.634 471.496 294.84Z" stroke="black" stroke-width="6"/>
<path d="M263.177 191.529C221.5 130 157.5 213 221.5 238" stroke="black" stroke-width="6"/>
<path d="M252.43 204.686C236.03 176.678 197.5 208.5 237.5 228" stroke="black" stroke-width="6"/>
<path d="M218.501 238.044C79.5004 449.499 132.41 700.718 207.057 709.527C281.704 718.337 366.125 731.675 428.057 706.027C489.989 680.379 374.499 576 309.001 675.999" stroke="black" stroke-width="6"/>
<path d="M177.256 605.522C265 433 430.499 561 352.502 638.5" stroke="#010101" stroke-width="6"/>
<path d="M488.998 642C542.998 610 558.5 544.5 513.998 518.5" stroke="#010101" stroke-width="6"/>
<path d="M438 699.5C645.499 720.998 573.5 604.5 505 630.5" stroke="#010101" stroke-width="6"/>
<path d="M418.76 645.156C444.5 645.156 515.5 551.5 515.5 506.5" stroke="black" stroke-width="6"/>
<path d="M489.5 373C500.5 378.5 504.5 382 514.5 404.5" stroke="black" stroke-width="6"/>
<path d="M376.926 395.734C376.926 395.734 371.59 423.876 376.926 433C382.262 442.124 432.704 435.44 437 429.5C441.296 423.56 441.5 376.5 441.5 376.5" stroke="black" stroke-width="6"/>
<path d="M487 373.5C487 373.5 489.332 402.396 487 416.5C484.669 430.605 446.847 435.688 442.621 429.5C438.394 423.312 442.621 373.919 442.621 373.919" stroke="black" stroke-width="6"/>
<path d="M266.5 159.5C43.0223 -231.768 -129.5 506 177.5 690.999" stroke="black" stroke-width="6"/>
<path d="M319.5 167.127C319.5 167.127 311.5 163 300.5 168.5C289.5 174 292.5 187.127 292.5 187.127C297.762 175.401 303.773 171.084 319.5 167.127Z" fill="#352314"/>
<path d="M292.72 187.586C296.77 171.638 318.502 166.58 320.502 168.499C317.993 163.501 288.331 163.186 292.72 187.586Z" stroke="#110000" stroke-width="6"/>
<circle cx="323" cy="226" r="24" fill="#00020B" stroke="#1D0500" stroke-width="6"/>
<circle cx="449" cy="201" r="19" fill="#00020B" stroke="#1D0500" stroke-width="6"/>
<circle cx="314.5" cy="214.5" r="13.5" fill="#D9D9D9"/>
<circle cx="441" cy="193" r="11" fill="#D9D9D9"/>
<circle cx="354.5" cy="338.5" r="4.5" fill="#160D0C"/>
<circle cx="385.5" cy="333.5" r="4.5" fill="#160D0C"/>
<circle cx="408.5" cy="342.5" r="4.5" fill="#160D0C"/>
<circle cx="490.5" cy="318.5" r="4.5" fill="#160D0C"/>
<circle cx="518.5" cy="322.5" r="4.5" fill="#160D0C"/>
<circle cx="498.5" cy="337.5" r="4.5" fill="#160D0C"/>
<circle cx="485.5" cy="355.5" r="4.5" fill="#160D0C"/>
<circle cx="409.5" cy="365.5" r="4.5" fill="#160D0C"/>
<circle cx="375.5" cy="360.5" r="4.5" fill="#160D0C"/>
<path d="M382.463 680.602C381.579 679.201 381.997 677.348 383.398 676.464C384.799 675.579 386.652 675.997 387.536 677.398L385 679L382.463 680.602ZM386 718L383.16 717.034C388.659 700.872 387.795 689.044 382.463 680.602L385 679L387.536 677.398C394.205 687.956 394.657 701.872 388.84 718.966L386 718Z" fill="black"/>
<path d="M412.127 679.362C411.651 677.775 412.551 676.103 414.138 675.627C415.725 675.15 417.397 676.051 417.874 677.638L415 678.5L412.127 679.362ZM415 711L412.062 710.395C413.8 701.95 414.496 696.582 414.438 692.164C414.381 687.816 413.592 684.246 412.127 679.362L415 678.5L417.874 677.638C419.408 682.754 420.37 686.934 420.437 692.086C420.504 697.168 419.7 703.05 417.939 711.605L415 711Z" fill="black"/>
<path d="M74.6971 193.602C112.657 150.086 136.113 133.974 180.5 115C136.526 139.57 113.047 156.297 74.6971 193.602Z" stroke="black" stroke-width="4"/>
<path d="M59.8593 302.251C97.8188 258.735 166.113 189.474 210.5 170.5C166.526 195.07 98.2092 264.946 59.8593 302.251Z" stroke="black" stroke-width="4"/>
<path d="M65.9287 406.353C103.888 362.837 150.5 291.5 198 270.5C144 305 104.279 369.048 65.9287 406.353Z" stroke="black" stroke-width="4"/>
<path d="M86.4685 492.33C124.428 448.814 121.5 436 142.5 421C128.5 430 124.818 455.025 86.4685 492.33Z" stroke="black" stroke-width="4"/>
<path d="M145 108.842C184.079 151.355 180 139.5 206.5 182C169.5 131.715 177.863 151.061 145 108.842Z" stroke="black" stroke-width="4"/>
<path d="M110.5 163C149.58 205.513 170.5 228 197 270.5C160 220.215 143.363 205.218 110.5 163Z" stroke="black" stroke-width="4"/>
<path d="M72.9999 405.615C112.079 448.128 108 431 134.5 473.5C97.5 423.215 105.863 447.833 72.9999 405.615Z" stroke="black" stroke-width="4"/>
<path d="M76.0001 226.615C122.5 265 147 286.978 169.5 331.5C138 279.5 117.5 272 76.0001 226.615Z" stroke="black" stroke-width="4"/>
<path d="M62 294C117.724 340.725 146 388.5 148 395.5C150 402.5 104.008 323.232 62 294Z" stroke="black" stroke-width="4"/>
<path d="M461 291.5C458.241 279.349 432.03 259.546 427 259.5C433.473 262.283 455.314 282.777 452 289.5" stroke="black" stroke-width="2"/>
<path d="M471 293C467.239 283.193 471.35 258.172 473.5 254C470.155 260.717 470.363 284.827 477 289" stroke="black" stroke-width="2"/>
<path d="M312.5 316.5C317.373 316.577 322.54 316.431 326.964 317.37" stroke="black" stroke-width="6"/>
<path d="M430 260C447.235 271.675 455.872 278.228 460.5 290L453 288C446.815 275.192 440.843 269.687 430 260Z" fill="black"/>
<path d="M470.5 294.5V270.5C472.085 279.991 473.096 284.551 475.5 289L470.5 294.5Z" fill="black"/>
<path d="M251.854 172.767C251.949 172.593 252.099 172.448 252.276 172.357C326.051 134.089 353.384 127.445 436.632 129.491C436.865 129.497 437.096 129.584 437.272 129.737L493.461 178.784C494.211 179.438 493.607 180.664 492.621 180.529C373.321 164.169 316.216 185.393 215.133 243.69C214.256 244.195 213.234 243.247 213.721 242.36L251.854 172.767Z" fill="#D52B1E"/>
<path d="M240.364 199.222C240.453 199.076 240.58 198.955 240.729 198.871C314.029 157.65 370.213 142.472 454.178 147.481C454.385 147.493 454.587 147.57 454.749 147.701L493.18 178.723C493.97 179.361 493.373 180.632 492.367 180.494C373.366 164.217 316.265 185.389 215.453 243.505C214.554 244.023 213.521 243.018 214.063 242.133L240.364 199.222Z" fill="#F9E300"/>
<path d="M231.873 215.69C231.957 215.565 232.068 215.46 232.198 215.383C312.676 167.952 392.05 148.188 467.763 160.462C467.919 160.487 468.066 160.549 468.193 160.642L492.781 178.644C493.621 179.258 493.034 180.585 492.004 180.445C373.367 164.276 316.275 185.407 215.751 243.334C214.834 243.862 213.793 242.811 214.38 241.93L231.873 215.69Z" fill="#007A33"/>
<path d="M557.896 100.744C558.944 119.405 556.725 132.325 548.613 142.173C539.755 152.927 523.354 160.666 494.148 167.276L487.051 162.206C490.045 157.415 492.487 153.127 494.72 149.289C497.338 144.79 499.655 140.939 502.312 137.431C507.526 130.548 514.192 124.79 527.264 118.721C540.654 112.503 545.941 109.778 549.661 107.236C551.534 105.957 552.99 104.737 554.767 103.273C555.663 102.535 556.669 101.71 557.896 100.744Z" stroke="black" stroke-width="6"/>
<path d="M604.142 187.314C584.284 207.604 564.501 211.732 546.503 207.555C527.269 203.09 509.508 189.007 495.547 173.202L495.547 171.181C506.913 165.994 515.763 162.85 524.523 161.359C533.697 159.797 542.952 160.015 555.093 161.805C566.002 163.413 574.749 169.731 583.45 176.022C587.709 179.103 592.021 182.213 596.417 184.448C598.892 185.706 601.46 186.722 604.142 187.314Z" stroke="black" stroke-width="6"/>
<path d="M490.188 165.788C492.59 167.68 494.15 169.996 494.81 172.107C495.474 174.232 495.173 175.885 494.348 176.933C493.94 177.451 493.744 177.429 493.732 177.429C493.585 177.44 493.17 177.393 492.331 176.92C491.515 176.46 490.562 175.751 489.393 174.809C488.303 173.932 486.909 172.756 485.546 171.682C484.183 170.608 482.713 169.529 481.605 168.676C480.415 167.76 479.502 167 478.864 166.314C478.208 165.609 478.065 165.217 478.041 165.071C478.039 165.062 477.967 164.878 478.378 164.356C479.203 163.308 480.74 162.629 482.961 162.776C485.168 162.922 487.785 163.896 490.188 165.788Z" stroke="black" stroke-width="5"/>
<path opacity="0.5" d="M255.5 173L280 161.5L239 229.5L220.5 237L255.5 173Z" fill="black"/>
<g opacity="0.5">
<path d="M575.5 260H581C586.911 288.509 580.334 303.991 578.5 332.5C568.771 332.151 567.461 332.837 558.5 334.5L575.5 260Z" fill="black" fill-opacity="0.67"/>
<path d="M584 259H583C587.222 285.276 585.693 303.633 581 328C585.368 305.693 591.192 285.221 584 259Z" fill="black" fill-opacity="0.67"/>
</g>
<path d="M341.471 138.24C367.498 132.153 394.759 130.979 436.036 131.978L488.073 177.398C430.668 169.916 387.503 171.332 346.435 181.689C305.54 192.003 266.884 211.145 218.476 238.884L253.825 174.369C290.461 155.379 315.423 144.332 341.471 138.24Z" stroke="black" stroke-width="5"/>
<path d="M492.553 250.805C489.662 254.066 488.506 249.194 484.725 245.841C480.944 242.488 475.969 241.924 478.861 238.663C481.753 235.402 487.162 235.476 490.943 238.829C494.724 242.182 495.445 247.543 492.553 250.805Z" fill="#7F4731"/>
<path d="M410 244.684C414.12 247.611 442 238.198 469 241.684C474.316 242.37 478.436 239.611 474.316 236.684C463.5 228.998 412.525 241.131 410 244.684Z" fill="#6F3D26"/>
<path d="M348 491C347.558 494.623 346.938 496.766 344.5 501C341.538 517.914 333.394 520.654 314.5 521L307 520.5L322.5 515C336.283 513.785 338.49 508.639 340 497.5L342 491H348Z" fill="black"/>
<path d="M287.499 432.999C326 444.5 345 463.5 344.999 491" stroke="black" stroke-width="6"/>
<path d="M193.195 405C193.708 456.782 236.5 518.001 281 520" stroke="black" stroke-width="6"/>
<path d="M325.5 473.5C339.48 480.413 344.497 489.226 345.5 496L341 502C337.835 488.732 333.648 483.079 325.5 473.5Z" fill="black"/>
<path d="M306 488C321.54 494.871 323.092 509.204 322.5 516L308.5 520C318.095 518.231 323.505 506.012 306 488Z" fill="black"/>
<path d="M503.138 487.893C509.277 493.508 512.785 496.486 520.5 498L515 502.5C509.397 499.728 507.007 495.9 503.138 487.893Z" fill="black"/>
<path d="M509.5 454C503 438.727 501.047 428.66 506.5 411.5H510.5C505.785 426.321 506.285 435.921 509.5 454Z" fill="black"/>
<path d="M572 433.95C572 452.658 564.24 476 548.5 476C532.76 476 520 460.834 520 442.126C520 423.418 537.76 406.5 553.5 406.5C569.24 406.5 572 415.242 572 433.95Z" fill="#936632"/>
<path d="M542.865 423.34C548.13 441.292 548.111 465.623 534.749 469.541C521.388 473.459 513.764 468.952 508.5 451C503.236 433.048 506.076 405.522 519.438 401.604C532.799 397.687 537.601 405.388 542.865 423.34Z" fill="#936632"/>
<path d="M570.336 464.672C560.51 480.591 541.646 496.378 528.252 488.11C514.858 479.843 511.966 460.235 521.792 444.316C531.619 428.396 555.618 423.329 569.012 431.596C582.406 439.864 580.163 448.752 570.336 464.672Z" fill="#936632"/>
<path d="M543.432 502.728C525.463 507.933 510.309 494.83 505.93 479.712C501.55 464.593 512.567 448.118 530.537 442.912C548.506 437.707 569.697 450.059 574.077 465.178C578.456 480.296 561.402 497.523 543.432 502.728Z" fill="#936632"/>
<path d="M572.844 457.532C575.502 462.037 577 467.12 577 472.5C577 491.002 559.315 506 537.5 506C531.598 506 525.999 504.9 520.97 502.932L522.079 498.79C526.362 500.213 531.065 501 536 501C555.882 501 572 488.24 572 472.5C572 468.521 570.969 464.734 569.108 461.294C570.594 459.958 571.833 458.806 572.844 457.532Z" fill="black"/>
<path d="M569.487 429.781C576.873 432.868 582 439.641 582 447.5C582 454.947 577.397 461.416 570.632 464.701C570.213 463.472 569.692 462.312 569.085 461.232C573.308 458.206 576 453.626 576 448.5C576 442.747 572.609 437.682 567.469 434.729C568.372 433.204 569.059 431.541 569.487 429.781Z" fill="black"/>
<path d="M534.844 431.108C535.269 432.482 535.847 433.786 536.556 435H535V438.434C534.216 437.295 533.531 436.079 532.962 434.799C533.664 433.676 534.295 432.442 534.844 431.108ZM553 403C565.15 403 575 413.074 575 425.5C575 430.029 573.69 434.245 571.438 437.775C570.313 436.634 569.011 435.627 567.569 434.787C569.114 432.057 570 428.885 570 425.5C570 415.283 561.941 407 552 407C545.645 407 540.058 410.385 536.855 415.497C536.642 414.049 536.311 412.668 535.875 411.375C539.908 406.267 546.081 403 553 403Z" fill="black"/>
<path d="M523.5 397C533.717 397 541 407.934 541 421.465C541 425.635 540.212 429.562 538.824 433H535V439.525C531.708 443.524 527.319 445.965 522.5 445.965C520.11 445.965 517.88 445.366 515.867 444.276L515.578 440.52C516.795 441.241 518.111 441.746 519.5 442C527.378 443.44 534.565 436.27 536.649 424.865C538.734 413.461 534.039 403.047 526.161 401.607C519.57 400.402 512.84 405.862 509.597 414.357C507.267 419.341 505.736 423.3 505.501 427.53C505.172 425.602 505 423.582 505 421.5C505 407.969 513.283 397 523.5 397Z" fill="black"/>
<path d="M539 451C545.295 451 550.972 452.744 554.982 455.537L553.033 459.925C549.734 457.532 544.674 456 539 456C529.059 456 521 460.701 521 466.5C521 472.299 529.059 477 539 477C539.168 477 539.335 476.995 539.502 476.992L539.5 477L546.642 479.101C544.261 479.682 541.687 480 539 480C526.85 480 517 473.508 517 465.5C517 457.492 526.85 451 539 451Z" fill="black"/>
<path d="M515.5 440.5L524.5 445H527.5C524.914 446.904 523 453 529.5 452.5L519.5 460C520.062 452.59 519.32 449.179 516 444.5L515.5 440.5Z" fill="black"/>
<path d="M560.998 431.95C546.654 431.85 539.65 432.55 534.998 439.5L534.498 433L537.998 428.5C551.98 425.316 555.171 427.744 560.998 431.95Z" fill="black"/>
<path d="M522.059 473.323C524.297 475.189 526.303 476.296 527.836 476.961C528.64 477.309 529.309 477.533 529.805 477.681C529.703 478.092 529.57 478.634 529.407 479.29C529.01 480.885 528.444 483.156 527.765 485.878C526.405 491.322 524.592 498.567 522.78 505.809C520.968 513.05 519.155 520.287 517.796 525.713C517.116 528.427 516.549 530.688 516.153 532.27C515.971 532.997 515.824 533.58 515.719 533.999L506.292 534L522.059 473.323Z" fill="#782C2C" stroke="black" stroke-width="2"/>
<path d="M575.715 244.161C576.455 244.054 577.278 244.304 578.113 244.85C578.942 245.392 579.691 246.168 580.229 246.927C580.496 247.304 580.698 247.659 580.83 247.957C580.955 248.239 580.989 248.41 580.995 248.478C580.993 248.493 580.99 248.518 580.985 248.553C580.971 248.646 580.948 248.778 580.917 248.951C580.855 249.296 580.762 249.783 580.64 250.406C580.395 251.65 580.036 253.419 579.578 255.64C578.663 260.08 577.355 266.317 575.785 273.746C572.645 288.604 568.457 308.228 564.27 327.791C560.083 347.353 555.896 366.852 552.756 381.462C551.186 388.766 549.878 394.849 548.962 399.104C548.504 401.232 548.144 402.904 547.898 404.043C547.785 404.567 547.697 404.979 547.634 405.271C544.055 406.731 542.056 407.98 539.3 410.027C538.769 409.109 538.197 408.129 537.655 407.391C537.319 406.934 536.919 406.463 536.47 406.159C536.525 405.987 536.586 405.802 536.646 405.604C536.99 404.458 537.435 402.781 537.965 400.659C539.026 396.409 540.44 390.318 542.095 382.989C545.405 368.328 549.681 348.683 554.016 328.846C558.351 309.006 562.745 288.974 566.289 273.529C568.061 265.806 569.62 259.237 570.852 254.416C571.468 252.004 572 250.038 572.435 248.587C572.653 247.862 572.844 247.275 573.005 246.831C573.175 246.363 573.29 246.12 573.345 246.033C574.174 244.719 575.011 244.263 575.715 244.161Z" fill="#782C2C" stroke="black" stroke-width="2"/>
</g>
<defs>
<clipPath id="clip0_264_4602">
<rect width="702" height="816" fill="white"/>
</clipPath>
</defs>
</svg>
