<svg width="708" height="816" viewBox="0 0 708 816" fill="none" xmlns="http://www.w3.org/2000/svg">
<g clip-path="url(#clip0_264_4477)">
<path d="M580.892 312.021L694 340L686.5 378C686.5 378 658.761 376.807 647 375.5C643.318 375.091 629.907 367.173 627 366.5C627 366.5 611.054 356.38 599.5 354C588.981 351.833 572 354 572 354L580.892 312.021Z" fill="#1F652A"/>
<path d="M586.5 280.331C613.233 279.105 623.5 280.831 642 293.331C660.5 305.831 684.838 305.698 702.5 303.331L698 328.831C668.903 328.319 650.532 335.751 634 324C615.748 311.889 605.194 302.919 581 304.831L586.5 280.331Z" fill="#AE1A0E"/>
<path d="M580 304.5C606.733 303.274 617 305 635.5 317.5C654 330 678.338 329.867 696 327.5L691.5 353C662.403 352.488 646.032 352.251 629.5 340.5C611.248 328.39 598.694 327.088 574.5 329L580 304.5Z" fill="#E3B70B"/>
<path d="M587.205 279.469C598.752 279.157 607.708 279.084 616.764 281.157C626.085 283.291 635.609 287.725 648.125 296.719L648.21 296.78L648.304 296.829C658.479 302.163 666.674 304.325 674.642 304.827C682.551 305.325 690.189 304.176 699.105 303.008C700.103 302.877 700.941 303.762 700.749 304.761L686.752 377.544C671.099 378.125 659.798 377.555 649.92 375.516C639.813 373.43 631.116 369.795 620.712 364.18L620.706 364.177L618.879 363.216C609.853 358.541 602.454 355.793 594.898 354.423C587.386 353.06 579.798 353.075 570.414 353.832L587.205 279.469Z" stroke="black" stroke-width="3"/>
<ellipse cx="356.5" cy="716.5" rx="256.5" ry="27.5" fill="black" fill-opacity="0.34"/>
<path d="M259 198C288 153 360.274 126.531 404 134C402.39 142.708 400.233 142.976 392 148.5C410.981 142.354 422.081 142.333 448.5 140.5C440.138 157.141 435.873 162.253 418 165.5C531.316 180.917 634.967 320.285 512.5 390.5C510.249 391.79 508.066 393.052 505.949 394.284C554.137 454.003 535.897 479.441 525.5 524L491 698C420.833 749.097 353.266 750.823 203.5 726L158 608.5V491C158.033 490.982 171.865 483.543 194.04 472.5L171.5 373.5C171.57 373.344 230.017 242.973 259 198Z" fill="#936632"/>
<path d="M47.5 176.5C94 39.9999 176 30.8554 259.5 153L180 236L68.5 536C68.5 536 0.999998 313 47.5 176.5Z" fill="#6D351B"/>
<path d="M524 541C564.513 573.878 553.291 616.682 503.519 658.4C512.927 652.295 524.201 648 534.5 648C557.972 648 580.5 663 583 683C583 697.126 573.051 711.79 539.878 719.001C539.753 719.166 539.628 719.333 539.5 719.5L537.225 719.554C535.54 719.887 533.799 720.204 532 720.5C529.504 720.5 526.98 720.274 524.461 719.855L455 721.5L524 541Z" fill="#936632"/>
<path d="M388 417C413.927 417.945 428.339 410.963 454 396C473.806 396.079 483.613 396.086 498 396L496.5 441C482.5 451 472.113 454.08 449 448C421 460 418.151 463.481 384.5 451.5C381.432 428.233 382.761 434.358 388 417Z" fill="#FCFCF7"/>
<path d="M481 315C504.761 292.712 515.579 279.807 505.5 252C447.684 244.515 424.699 249.656 396.5 271.5C407.473 290.212 421.462 300.091 481 315Z" fill="#6A341B"/>
<path d="M524 541C519.881 591.79 503.5 616 482 659.5C460.5 703 471 721 471 721H449.5C457.642 695.193 453.81 683.429 431 667.5C482.425 630.482 497.48 598.434 524 541Z" fill="#784F26"/>
<path d="M134 66.5C82.6666 219.824 28.766 348.215 74.0005 510C93.6359 399.695 117.273 325.744 153.388 265.226C141.867 259.639 134 248.425 134 235.5C134 216.998 150.118 202 170 202C178.693 202 186.665 204.867 192.886 209.64C211.22 187.619 232.069 166.585 256 145L275 179.5C142 359.5 104 561 175.5 704C2.50051 615.5 -48.4994 152.5 134 66.5Z" fill="#4C280E"/>
<path d="M229 259C229 259 285.801 242.541 257 230.5C228.199 218.459 138.736 503.527 285 537L286.5 543.5C291.364 528.823 196 570 187.5 624.5C179 679 220 726 248 732.5C276 739 204.5 736.5 178.5 705.5C160.136 667.489 151.941 643.396 144.5 603C138.959 528.382 140.725 482.495 164.5 383.5C198.532 304.44 209.057 283.502 229 259Z" fill="#754C24"/>
<path d="M321.5 339.5H329.5C327.827 381.093 335 407 372 416C329.5 416 312.5 394 321.5 339.5Z" fill="#754C24"/>
<ellipse opacity="0.9" cx="242" cy="225.5" rx="40" ry="33.5" fill="#A77A36"/>
<path d="M260 199C265.972 178.487 339.5 116.5 404.083 134.679C401.687 143.744 399.069 144.582 390.001 149.999C413.253 141.787 425.416 140.424 446.001 142C444.055 155.502 437.221 164.19 416 166.5C585.977 187.774 632.476 406.98 450 396.5" stroke="black" stroke-width="6"/>
<path d="M333 337C304.57 457.489 493.604 435.714 480.496 314.84M480.496 314.84C480.496 314.84 395.497 295.5 397.997 272C400.497 248.5 494.997 245.5 504.996 252C514.994 258.501 508.24 296.634 480.496 314.84Z" stroke="black" stroke-width="6"/>
<path d="M272.177 211.529C230.5 150 166.5 233 230.5 258" stroke="black" stroke-width="6"/>
<path d="M261.43 224.686C245.03 196.678 206.5 228.5 246.5 248" stroke="black" stroke-width="6"/>
<path d="M227.501 258.044C88.5004 469.499 141.41 720.718 216.057 729.527C290.704 738.337 375.125 751.675 437.057 726.027C498.989 700.379 383.499 596 318.001 695.999" stroke="black" stroke-width="6"/>
<path d="M186.256 625.522C274 453 439.499 581 361.502 658.5" stroke="#010101" stroke-width="6"/>
<path d="M497.998 662C551.998 630 567.5 564.5 522.998 538.5" stroke="#010101" stroke-width="6"/>
<path d="M447 719.5C654.499 740.998 582.5 624.5 514 650.5" stroke="#010101" stroke-width="6"/>
<path d="M427.76 665.156C453.5 665.156 524.5 571.5 524.5 526.5" stroke="black" stroke-width="6"/>
<path d="M498.5 393C509.5 398.5 513.5 402 523.5 424.5" stroke="black" stroke-width="6"/>
<path d="M385.926 415.734C385.926 415.734 380.59 443.876 385.926 453C391.262 462.124 441.704 455.44 446 449.5C450.296 443.56 450.5 396.5 450.5 396.5" stroke="black" stroke-width="6"/>
<path d="M496 393.5C496 393.5 498.332 422.396 496 436.5C493.669 450.605 455.847 455.688 451.621 449.5C447.394 443.312 451.621 393.919 451.621 393.919" stroke="black" stroke-width="6"/>
<path d="M275.5 179.5C52.0223 -211.768 -120.5 526 186.5 710.999" stroke="black" stroke-width="6"/>
<path d="M328.5 187.127C328.5 187.127 320.5 183 309.5 188.5C298.5 194 301.5 207.127 301.5 207.127C306.762 195.401 312.773 191.084 328.5 187.127Z" fill="#352314"/>
<path d="M301.72 207.586C305.77 191.638 327.502 186.58 329.502 188.499C326.993 183.501 297.331 183.186 301.72 207.586Z" stroke="#110000" stroke-width="6"/>
<circle cx="332" cy="246" r="24" fill="#00020B" stroke="#1D0500" stroke-width="6"/>
<circle cx="458" cy="221" r="19" fill="#00020B" stroke="#1D0500" stroke-width="6"/>
<circle cx="323.5" cy="234.5" r="13.5" fill="#D9D9D9"/>
<circle cx="450" cy="213" r="11" fill="#D9D9D9"/>
<circle cx="363.5" cy="358.5" r="4.5" fill="#160D0C"/>
<circle cx="394.5" cy="353.5" r="4.5" fill="#160D0C"/>
<circle cx="417.5" cy="362.5" r="4.5" fill="#160D0C"/>
<circle cx="499.5" cy="338.5" r="4.5" fill="#160D0C"/>
<circle cx="527.5" cy="342.5" r="4.5" fill="#160D0C"/>
<circle cx="507.5" cy="357.5" r="4.5" fill="#160D0C"/>
<circle cx="494.5" cy="375.5" r="4.5" fill="#160D0C"/>
<circle cx="418.5" cy="385.5" r="4.5" fill="#160D0C"/>
<circle cx="384.5" cy="380.5" r="4.5" fill="#160D0C"/>
<path d="M391.463 700.602C390.579 699.201 390.997 697.348 392.398 696.464C393.799 695.579 395.652 695.997 396.536 697.398L394 699L391.463 700.602ZM395 738L392.16 737.034C397.659 720.872 396.795 709.044 391.463 700.602L394 699L396.536 697.398C403.205 707.956 403.657 721.872 397.84 738.966L395 738Z" fill="black"/>
<path d="M421.127 699.362C420.651 697.775 421.551 696.103 423.138 695.627C424.725 695.15 426.397 696.051 426.874 697.638L424 698.5L421.127 699.362ZM424 731L421.062 730.395C422.8 721.95 423.496 716.582 423.438 712.164C423.381 707.816 422.592 704.246 421.127 699.362L424 698.5L426.874 697.638C428.408 702.754 429.37 706.934 429.437 712.086C429.504 717.168 428.7 723.05 426.939 731.605L424 731Z" fill="black"/>
<path d="M83.6971 213.602C121.657 170.086 145.113 153.974 189.5 135C145.526 159.57 122.047 176.297 83.6971 213.602Z" stroke="black" stroke-width="4"/>
<path d="M68.8593 322.251C106.819 278.735 175.113 209.474 219.5 190.5C175.526 215.07 107.209 284.946 68.8593 322.251Z" stroke="black" stroke-width="4"/>
<path d="M74.9287 426.353C112.888 382.837 159.5 311.5 207 290.5C153 325 113.279 389.048 74.9287 426.353Z" stroke="black" stroke-width="4"/>
<path d="M95.4685 512.33C133.428 468.814 130.5 456 151.5 441C137.5 450 133.818 475.025 95.4685 512.33Z" stroke="black" stroke-width="4"/>
<path d="M154 128.842C193.079 171.355 189 159.5 215.5 202C178.5 151.715 186.863 171.061 154 128.842Z" stroke="black" stroke-width="4"/>
<path d="M119.5 183C158.58 225.513 179.5 248 206 290.5C169 240.215 152.363 225.218 119.5 183Z" stroke="black" stroke-width="4"/>
<path d="M81.9999 425.615C121.079 468.128 117 451 143.5 493.5C106.5 443.215 114.863 467.833 81.9999 425.615Z" stroke="black" stroke-width="4"/>
<path d="M85.0001 246.615C131.5 285 156 306.978 178.5 351.5C147 299.5 126.5 292 85.0001 246.615Z" stroke="black" stroke-width="4"/>
<path d="M71 314C126.724 360.725 155 408.5 157 415.5C159 422.5 113.008 343.232 71 314Z" stroke="black" stroke-width="4"/>
<path d="M470 311.5C467.241 299.349 441.03 279.546 436 279.5C442.473 282.283 464.314 302.777 461 309.5" stroke="black" stroke-width="2"/>
<path d="M480 313C476.239 303.193 480.35 278.172 482.5 274C479.155 280.717 479.363 304.827 486 309" stroke="black" stroke-width="2"/>
<path d="M321.5 336.5C326.373 336.577 331.54 336.431 335.964 337.37" stroke="black" stroke-width="6"/>
<path d="M439 280C456.235 291.675 464.872 298.228 469.5 310L462 308C455.815 295.192 449.843 289.687 439 280Z" fill="black"/>
<path d="M479.5 314.5V290.5C481.085 299.991 482.096 304.551 484.5 309L479.5 314.5Z" fill="black"/>
<g opacity="0.5">
<path d="M584.5 280H590C595.911 308.509 589.334 323.991 587.5 352.5C577.771 352.151 576.461 352.837 567.5 354.5L584.5 280Z" fill="black" fill-opacity="0.67"/>
<path d="M593 279H592C596.222 305.276 594.693 323.633 590 348C594.368 325.693 600.192 305.221 593 279Z" fill="black" fill-opacity="0.67"/>
</g>
<path d="M501.553 270.805C498.662 274.066 497.506 269.194 493.725 265.841C489.944 262.488 484.969 261.924 487.861 258.663C490.753 255.402 496.162 255.476 499.943 258.829C503.724 262.182 504.445 267.543 501.553 270.805Z" fill="#7F4731"/>
<path d="M419 264.684C423.12 267.611 451 258.198 478 261.684C483.316 262.37 487.436 259.611 483.316 256.684C472.5 248.998 421.525 261.131 419 264.684Z" fill="#6F3D26"/>
<path d="M357 511C356.558 514.623 355.938 516.766 353.5 521C350.538 537.914 342.394 540.654 323.5 541L316 540.5L331.5 535C345.283 533.785 347.49 528.639 349 517.5L351 511H357Z" fill="black"/>
<path d="M296.499 452.999C335 464.5 354 483.5 353.999 511" stroke="black" stroke-width="6"/>
<path d="M202.195 425C202.708 476.782 245.5 538.001 290 540" stroke="black" stroke-width="6"/>
<path d="M334.5 493.5C348.48 500.413 353.497 509.226 354.5 516L350 522C346.835 508.732 342.648 503.079 334.5 493.5Z" fill="black"/>
<path d="M315 508C330.54 514.871 332.092 529.204 331.5 536L317.5 540C327.095 538.231 332.505 526.012 315 508Z" fill="black"/>
<path d="M512.138 507.893C518.277 513.508 521.785 516.486 529.5 518L524 522.5C518.397 519.728 516.007 515.9 512.138 507.893Z" fill="black"/>
<path d="M518.5 474C512 458.727 510.047 448.66 515.5 431.5H519.5C514.785 446.321 515.285 455.921 518.5 474Z" fill="black"/>
<path d="M581 453.95C581 472.658 573.24 496 557.5 496C541.76 496 529 480.834 529 462.126C529 443.418 546.76 426.5 562.5 426.5C578.24 426.5 581 435.242 581 453.95Z" fill="#936632"/>
<path d="M551.865 443.34C557.13 461.292 557.111 485.623 543.749 489.541C530.388 493.459 522.764 488.952 517.5 471C512.236 453.048 515.076 425.522 528.438 421.604C541.799 417.687 546.601 425.388 551.865 443.34Z" fill="#936632"/>
<path d="M579.336 484.672C569.51 500.591 550.646 516.378 537.252 508.11C523.858 499.843 520.966 480.235 530.792 464.316C540.619 448.396 564.618 443.329 578.012 451.596C591.406 459.864 589.163 468.752 579.336 484.672Z" fill="#936632"/>
<path d="M552.432 522.728C534.463 527.933 519.309 514.83 514.93 499.712C510.55 484.593 521.567 468.118 539.537 462.912C557.506 457.707 578.697 470.059 583.077 485.178C587.456 500.296 570.402 517.523 552.432 522.728Z" fill="#936632"/>
<path d="M581.844 477.532C584.502 482.037 586 487.12 586 492.5C586 511.002 568.315 526 546.5 526C540.598 526 534.999 524.9 529.97 522.932L531.079 518.79C535.362 520.213 540.065 521 545 521C564.882 521 581 508.24 581 492.5C581 488.521 579.969 484.734 578.108 481.294C579.594 479.958 580.833 478.806 581.844 477.532Z" fill="black"/>
<path d="M578.487 449.781C585.873 452.868 591 459.641 591 467.5C591 474.947 586.397 481.416 579.632 484.701C579.213 483.472 578.692 482.312 578.085 481.232C582.308 478.206 585 473.626 585 468.5C585 462.747 581.609 457.682 576.469 454.729C577.372 453.204 578.059 451.541 578.487 449.781Z" fill="black"/>
<path d="M543.844 451.108C544.269 452.482 544.847 453.786 545.556 455H544V458.434C543.216 457.295 542.531 456.079 541.962 454.799C542.664 453.676 543.295 452.442 543.844 451.108ZM562 423C574.15 423 584 433.074 584 445.5C584 450.029 582.69 454.245 580.438 457.775C579.313 456.634 578.011 455.627 576.569 454.787C578.114 452.057 579 448.885 579 445.5C579 435.283 570.941 427 561 427C554.645 427 549.058 430.385 545.855 435.497C545.642 434.049 545.311 432.668 544.875 431.375C548.908 426.267 555.081 423 562 423Z" fill="black"/>
<path d="M532.5 417C542.717 417 550 427.934 550 441.465C550 445.635 549.212 449.562 547.824 453H544V459.525C540.708 463.524 536.319 465.965 531.5 465.965C529.11 465.965 526.88 465.366 524.867 464.276L524.578 460.52C525.795 461.241 527.111 461.746 528.5 462C536.378 463.44 543.565 456.27 545.649 444.865C547.734 433.461 543.039 423.047 535.161 421.607C528.57 420.402 521.84 425.862 518.597 434.357C516.267 439.341 514.736 443.3 514.501 447.53C514.172 445.602 514 443.582 514 441.5C514 427.969 522.283 417 532.5 417Z" fill="black"/>
<path d="M548 471C554.295 471 559.972 472.744 563.982 475.537L562.033 479.925C558.734 477.532 553.674 476 548 476C538.059 476 530 480.701 530 486.5C530 492.299 538.059 497 548 497C548.168 497 548.335 496.995 548.502 496.992L548.5 497L555.642 499.101C553.261 499.682 550.687 500 548 500C535.85 500 526 493.508 526 485.5C526 477.492 535.85 471 548 471Z" fill="black"/>
<path d="M524.5 460.5L533.5 465H536.5C533.914 466.904 532 473 538.5 472.5L528.5 480C529.062 472.59 528.32 469.179 525 464.5L524.5 460.5Z" fill="black"/>
<path d="M569.998 451.95C555.654 451.85 548.65 452.55 543.998 459.5L543.498 453L546.998 448.5C560.98 445.316 564.171 447.744 569.998 451.95Z" fill="black"/>
<path d="M531.059 493.323C533.297 495.189 535.303 496.296 536.836 496.961C537.64 497.309 538.309 497.533 538.805 497.681C538.703 498.092 538.57 498.634 538.407 499.29C538.01 500.885 537.444 503.156 536.765 505.878C535.405 511.322 533.592 518.567 531.78 525.809C529.968 533.05 528.155 540.287 526.796 545.713C526.116 548.427 525.549 550.688 525.153 552.27C524.971 552.997 524.824 553.58 524.719 553.999L515.292 554L531.059 493.323Z" fill="#782C2C" stroke="black" stroke-width="2"/>
<path d="M584.715 264.161C585.455 264.054 586.278 264.304 587.113 264.85C587.942 265.392 588.691 266.168 589.229 266.927C589.496 267.304 589.698 267.659 589.83 267.957C589.955 268.239 589.989 268.41 589.995 268.478C589.993 268.493 589.99 268.518 589.985 268.553C589.971 268.646 589.948 268.778 589.917 268.951C589.855 269.296 589.762 269.783 589.64 270.406C589.395 271.65 589.036 273.419 588.578 275.64C587.663 280.08 586.355 286.317 584.785 293.746C581.645 308.604 577.457 328.228 573.27 347.791C569.083 367.353 564.896 386.852 561.756 401.462C560.186 408.766 558.878 414.849 557.962 419.104C557.504 421.232 557.144 422.904 556.898 424.043C556.785 424.567 556.697 424.979 556.634 425.271C553.055 426.731 551.056 427.98 548.3 430.027C547.769 429.109 547.197 428.129 546.655 427.391C546.319 426.934 545.919 426.463 545.47 426.159C545.525 425.987 545.586 425.802 545.646 425.604C545.99 424.458 546.435 422.781 546.965 420.659C548.026 416.409 549.44 410.318 551.095 402.989C554.405 388.328 558.681 368.683 563.016 348.846C567.351 329.006 571.745 308.974 575.289 293.529C577.061 285.806 578.62 279.237 579.852 274.416C580.468 272.004 581 270.038 581.435 268.587C581.653 267.862 581.844 267.275 582.005 266.831C582.175 266.363 582.29 266.12 582.345 266.033C583.174 264.719 584.011 264.263 584.715 264.161Z" fill="#782C2C" stroke="black" stroke-width="2"/>
</g>
<defs>
<clipPath id="clip0_264_4477">
<rect width="708" height="816" fill="white"/>
</clipPath>
</defs>
</svg>
