<svg width="703" height="1005" viewBox="0 0 703 1005" fill="none" xmlns="http://www.w3.org/2000/svg">
<g clip-path="url(#clip0_264_2656)">
<path d="M82.6971 344.611C120.657 301.095 144.113 284.983 188.5 266.009C144.526 290.579 121.047 307.306 82.6971 344.611Z" stroke="black" stroke-width="4"/>
<ellipse cx="355.5" cy="847.509" rx="256.5" ry="27.5" fill="black" fill-opacity="0.34"/>
<path d="M258 329.009C290.161 287.909 359.274 257.54 403 265.009C401.39 273.717 399.233 273.984 391 279.509C409.981 273.363 421.081 273.342 447.5 271.509C439.138 288.149 433.373 288.762 415.5 292.009C528.816 307.425 633.967 451.293 511.5 521.509C509.458 522.679 507.472 523.826 505.54 524.948C579.644 577.721 587.304 643.999 524.5 655.009L490 829.009C419.833 880.105 352.266 881.831 202.5 857.009L157 739.509V622.009C157 622.009 170.75 614.309 192.921 602.987L170.5 504.509C168.589 502.15 225.839 370.108 258 329.009Z" fill="#936632"/>
<path d="M46.5 307.509C93 171.009 175 161.864 258.5 284.009L179 367.009L67.5 667.009C67.5 667.009 -1.90735e-06 444.009 46.5 307.509Z" fill="#6D351B"/>
<path d="M523 672.009C563.513 704.887 552.291 747.691 502.519 789.409C511.927 783.304 523.201 779.009 533.5 779.009C556.972 779.009 579.5 794.009 582 814.009C582 828.135 572.051 842.798 538.878 850.01C538.753 850.175 538.628 850.342 538.5 850.509L536.225 850.562C534.54 850.896 532.799 851.212 531 851.509C528.504 851.509 525.98 851.283 523.461 850.864L454 852.509L523 672.009Z" fill="#936632"/>
<path d="M387 548.009C412.927 548.954 427.339 541.972 453 527.009C472.806 527.088 482.613 527.095 497 527.009L495.5 572.009C481.5 582.009 471.113 585.088 448 579.009C420 591.009 417.151 594.49 383.5 582.509C380.432 559.242 381.761 565.367 387 548.009Z" fill="#FCFCF7"/>
<path d="M480 446.009C503.761 423.72 514.579 410.815 504.5 383.009C446.684 375.524 423.699 380.665 395.5 402.509C406.473 421.221 420.462 431.099 480 446.009Z" fill="#6A341B"/>
<path d="M523 672.009C518.881 722.799 502.5 747.009 481 790.509C459.5 834.009 470 852.009 470 852.009H448.5C456.642 826.202 452.81 814.438 430 798.509C481.425 761.491 496.48 729.443 523 672.009Z" fill="#784F26"/>
<path d="M133 197.509C81.6666 350.833 27.766 479.223 73.0005 641.009C92.6359 530.704 116.273 456.753 152.388 396.234C140.867 390.648 133 379.434 133 366.509C133 348.007 149.118 333.009 169 333.009C177.693 333.009 185.665 335.875 191.886 340.648C210.22 318.628 231.069 297.593 255 276.009L274 310.509C141 490.509 103 692.009 174.5 835.009C1.50051 746.509 -49.4994 283.509 133 197.509Z" fill="#4C280E"/>
<path d="M236.5 371.508C236.5 379.009 245.5 375.509 245.5 375.509C245.5 375.509 154.5 637.509 285.5 659.009V674.509C290.364 659.832 195 701.009 186.5 755.509C178 810.009 219 857.009 247 863.509C275 870.009 203.5 867.509 177.5 836.509C159.136 798.497 150.941 774.405 143.5 734.009C137.959 659.391 139.725 613.504 163.5 514.509C197.532 435.449 236.5 364.008 236.5 371.508Z" fill="#754C24"/>
<path d="M515.531 589.161C502.254 594.852 493 607.642 493 622.509C493 642.667 510.013 659.009 531 659.009C532.169 659.009 533.326 658.955 534.468 658.855C529.742 660.881 524.509 662.009 519 662.009C498.013 662.009 481 645.667 481 625.509C481 606.474 496.17 590.844 515.531 589.161Z" fill="#865723"/>
<path d="M320.5 470.509H328.5C326.827 512.102 334 538.009 371 547.009C328.5 547.009 311.5 525.009 320.5 470.509Z" fill="#826026"/>
<path d="M425.5 295.541C438.616 291.764 443.421 283.974 445.001 273.008C424.416 271.432 412.253 272.795 389.001 281.008C398.069 275.591 400.687 274.752 403.083 265.688C338.5 247.508 264.972 309.496 259 330.008" stroke="black" stroke-width="6"/>
<path d="M270.5 351.009C250.5 351.009 251.792 387.009 235.5 387.009C219.208 387.009 206 374.92 206 360.009C202.5 347.009 208.208 325.009 224.5 325.009C240.792 325.009 262 333.009 270.5 351.009Z" fill="#754C24"/>
<path d="M498.5 328.622C594.392 394.486 596.443 535.977 449 527.509" stroke="black" stroke-width="6"/>
<path d="M332 468.009C303.57 588.497 492.604 566.723 479.496 445.849M479.496 445.849C479.496 445.849 394.497 426.509 396.997 403.009C399.497 379.509 493.997 376.509 503.996 383.009C513.994 389.51 507.24 427.643 479.496 445.849Z" stroke="black" stroke-width="6"/>
<g filter="url(#filter0_d_264_2656)">
<path d="M290.217 582.506C288.72 583.216 288.081 585.004 288.79 586.502C289.499 587.999 291.288 588.638 292.785 587.929L291.501 585.218L290.217 582.506ZM211 549.008L208.01 548.764C205.441 580.359 217.358 613.529 236.998 635.865C256.669 658.236 284.607 670.189 313.68 657.767L312.501 655.009L311.322 652.25C285.395 663.328 260.082 653.031 241.503 631.903C222.893 610.738 211.559 579.157 213.99 549.251L211 549.008ZM312.501 655.009L313.68 657.767C328.018 651.641 336.629 642.695 340.556 632.762C344.47 622.863 343.585 612.348 339.622 603.343C331.785 585.533 311.193 572.571 290.217 582.506L291.501 585.218L292.785 587.929C309.81 579.865 327.218 590.049 334.13 605.759C337.542 613.514 338.22 622.353 334.977 630.556C331.747 638.724 324.484 646.626 311.322 652.25L312.501 655.009Z" fill="black"/>
</g>
<path d="M260.43 355.695C244.03 327.687 205.5 359.509 245.5 379.009" stroke="black" stroke-width="6"/>
<path d="M226.501 389.053C87.5004 600.508 140.41 851.727 215.057 860.536C289.704 869.346 374.125 882.684 436.057 857.036C497.989 831.388 382.499 727.009 317.001 827.008" stroke="black" stroke-width="6"/>
<path d="M185.256 756.531C273 584.009 438.499 712.008 360.502 789.509" stroke="#010101" stroke-width="6"/>
<path d="M496.998 793.008C550.998 761.008 566.5 695.509 521.998 669.508" stroke="#010101" stroke-width="6"/>
<path d="M446 850.509C653.499 872.007 581.5 755.508 513 781.509" stroke="#010101" stroke-width="6"/>
<path d="M426.76 796.165C452.5 796.165 523.5 702.509 523.5 657.509" stroke="black" stroke-width="6"/>
<path d="M497.5 524.009C516.551 536.73 531.161 570.956 531.5 594.509" stroke="black" stroke-width="6"/>
<path d="M533.5 592.508C481 581.508 479.998 671.504 537.998 653.505C595.999 635.505 559.967 549.825 500.5 524.509" stroke="black" stroke-width="6" stroke-linecap="round"/>
<path d="M384.926 546.742C384.926 546.742 379.59 574.884 384.926 584.009C390.262 593.133 440.704 586.448 445 580.509C449.296 574.569 449.5 527.509 449.5 527.509" stroke="black" stroke-width="6"/>
<path d="M495 524.509C495 524.509 497.332 553.404 495 567.509C492.669 581.613 454.847 586.696 450.621 580.509C446.394 574.321 450.621 524.928 450.621 524.928" stroke="black" stroke-width="6"/>
<path d="M274.5 310.509C51.0223 -80.7591 -121.5 657.009 185.5 842.008" stroke="black" stroke-width="6"/>
<path d="M300.72 350.594C304.77 334.646 326.502 329.588 328.502 331.508C325.993 326.509 296.331 326.194 300.72 350.594Z" stroke="#110000" stroke-width="6"/>
<circle cx="331" cy="377.009" r="24" fill="#00020B" stroke="#1D0500" stroke-width="6"/>
<circle cx="457" cy="352.009" r="19" fill="#00020B" stroke="#1D0500" stroke-width="6"/>
<circle cx="322.5" cy="365.509" r="13.5" fill="#D9D9D9"/>
<circle cx="449" cy="344.009" r="11" fill="#D9D9D9"/>
<circle cx="362.5" cy="489.509" r="4.5" fill="#160D0C"/>
<circle cx="393.5" cy="484.509" r="4.5" fill="#160D0C"/>
<circle cx="416.5" cy="493.509" r="4.5" fill="#160D0C"/>
<circle cx="498.5" cy="469.509" r="4.5" fill="#160D0C"/>
<circle cx="526.5" cy="473.509" r="4.5" fill="#160D0C"/>
<circle cx="506.5" cy="488.509" r="4.5" fill="#160D0C"/>
<circle cx="493.5" cy="506.509" r="4.5" fill="#160D0C"/>
<circle cx="417.5" cy="516.509" r="4.5" fill="#160D0C"/>
<circle cx="383.5" cy="511.509" r="4.5" fill="#160D0C"/>
<path d="M390.463 831.611C389.579 830.21 389.997 828.357 391.398 827.472C392.799 826.587 394.652 827.006 395.536 828.407L393 830.009L390.463 831.611ZM394 869.009L391.16 868.042C396.659 851.88 395.795 840.052 390.463 831.611L393 830.009L395.536 828.407C402.205 838.965 402.657 852.88 396.84 869.975L394 869.009Z" fill="black"/>
<path d="M420.127 830.371C419.651 828.784 420.551 827.111 422.138 826.635C423.725 826.159 425.397 827.06 425.874 828.646L423 829.509L420.127 830.371ZM423 862.009L420.062 861.404C421.8 852.958 422.496 847.59 422.438 843.173C422.381 838.825 421.592 835.255 420.127 830.371L423 829.509L425.874 828.646C427.408 833.762 428.37 837.942 428.437 843.094C428.504 848.177 427.7 854.059 425.939 862.613L423 862.009Z" fill="black"/>
<path d="M67.8593 453.26C105.819 409.744 174.113 340.483 218.5 321.509C174.526 346.079 106.209 415.955 67.8593 453.26Z" stroke="black" stroke-width="4"/>
<path d="M73.9287 557.362C111.888 513.846 158.5 442.509 206 421.509C152 456.008 112.279 520.057 73.9287 557.362Z" stroke="black" stroke-width="4"/>
<path d="M94.4685 643.339C132.428 599.823 129.5 587.009 150.5 572.009C136.5 581.009 132.818 606.034 94.4685 643.339Z" stroke="black" stroke-width="4"/>
<path d="M153 259.851C192.079 302.364 188 290.509 214.5 333.009C177.5 282.724 185.863 302.069 153 259.851Z" stroke="black" stroke-width="4"/>
<path d="M118.5 314.009C157.58 356.522 178.5 379.009 205 421.509C168 371.224 151.363 356.227 118.5 314.009Z" stroke="black" stroke-width="4"/>
<path d="M80.9999 556.624C120.079 599.137 116 582.009 142.5 624.509C105.5 574.224 113.863 598.842 80.9999 556.624Z" stroke="black" stroke-width="4"/>
<path d="M84.0001 377.624C130.5 416.009 155 437.987 177.5 482.509C146 430.509 125.5 423.009 84.0001 377.624Z" stroke="black" stroke-width="4"/>
<path d="M70 445.009C125.724 491.734 154 539.509 156 546.509C158 553.509 112.008 474.241 70 445.009Z" stroke="black" stroke-width="4"/>
<path d="M469 442.509C466.241 430.358 440.03 410.554 435 410.509C441.473 413.292 463.314 433.785 460 440.509" stroke="black" stroke-width="2"/>
<path d="M479 444.009C475.239 434.202 479.35 409.18 481.5 405.009C478.155 411.726 478.363 435.836 485 440.009" stroke="black" stroke-width="2"/>
<path d="M320.5 467.509C325.373 467.586 330.54 467.44 334.964 468.379" stroke="black" stroke-width="6"/>
<path d="M438 411.009C455.235 422.684 463.872 429.237 468.5 441.009L461 439.009C454.815 426.201 448.843 420.696 438 411.009Z" fill="black"/>
<path d="M478.5 445.509V421.509C480.085 431 481.096 435.56 483.5 440.009L478.5 445.509Z" fill="black"/>
<path d="M500.553 401.813C497.662 405.075 496.506 400.203 492.725 396.85C488.944 393.497 483.969 392.933 486.861 389.672C489.753 386.41 495.162 386.485 498.943 389.838C502.724 393.19 503.445 398.552 500.553 401.813Z" fill="#7F4731"/>
<path d="M418 395.692C422.12 398.62 450 389.207 477 392.693C482.316 393.379 486.436 390.62 482.316 387.693C471.5 380.007 420.525 392.139 418 395.692Z" fill="#6F3D26"/>
<path d="M271.177 342.537C229.5 281.009 165.5 364.009 229.5 389.009" stroke="black" stroke-width="6"/>
<path d="M358.844 45.8225C363.326 36.3101 363.97 22.7352 372.469 22.5986C380.968 22.4619 378.119 44.2893 380.052 58.4803C382.268 74.7426 382.233 100.451 382.233 100.451L357.236 100.856L345.165 96.5509C345.165 96.5509 350.099 64.384 358.844 45.8225Z" fill="#D58D1D"/>
<path d="M344.641 95.1021C348.044 89.0881 358.114 85.0903 359.525 87.8179C360.936 90.5454 362.073 90.777 363.573 90.7527C365.073 90.7284 365.653 88.9646 369.024 87.6639C374.251 85.6467 376.711 91.8317 381.636 94.5023C381.636 94.5023 384.96 205.416 384.956 269.074L360.219 274.829C335.418 213.073 341.238 101.116 344.641 95.1021Z" fill="#FAAA2F"/>
<path d="M341.106 154.626C342.678 158.637 356.079 144.417 361.9 141.788C367.722 139.158 383.363 156.386 383.057 153.946C385.411 204.094 385.296 228.213 384.953 270.844L360.226 274.829C348.084 226.798 342.771 200.217 341.106 154.626Z" fill="#8E1A15"/>
<path d="M343.762 195.1C346.631 186.995 359.029 211.473 364.226 192.754C370.016 194.176 366.873 201.777 374.782 196.108C378.38 202.094 379.424 197.457 384.042 196.666L385.277 272.83L360.165 275.414C360.165 275.414 340.893 203.205 343.762 195.1Z" fill="#D01F17"/>
<path d="M423.009 51.9168C428.983 43.6033 431.836 30.8373 440.243 32.0409C448.65 33.2445 442.275 53.487 441.866 67.2415C441.397 83.0035 437.165 107.366 437.165 107.366L412.437 103.829L401.231 97.8548C401.231 97.8548 411.351 68.1389 423.009 51.9168Z" fill="#D58D1D"/>
<path d="M400.951 96.3995C405.29 91.2329 415.877 89.0231 416.824 91.8298C417.771 94.6365 418.855 95.0344 420.339 95.2466C421.822 95.4588 422.683 93.878 426.22 93.1738C431.707 92.0818 433.124 98.3302 437.547 101.634C437.547 101.634 422.717 207.287 412.32 267.626L386.976 269.2C372.59 206.774 396.611 101.566 400.951 96.3995Z" fill="#FAAA2F"/>
<path d="M387.744 152.266C388.64 156.314 404.183 144.938 410.356 143.359C416.528 141.78 429.147 160.563 429.244 158.203C423.378 206.106 419.326 228.949 412.028 269.303L386.982 269.202C382.846 221.77 381.943 195.741 387.744 152.266Z" fill="#8E1A15"/>
<path d="M383.759 191.034C387.904 183.856 396.165 208.837 404.33 192.034C409.811 194.28 405.477 200.94 414.2 196.845C416.778 203.042 418.56 198.842 423.245 198.822L412.108 270.697L386.913 269.193C386.913 269.193 379.613 198.212 383.759 191.034Z" fill="#D01F17"/>
<path d="M383.436 219.216C388.522 221.419 390.959 219.725 395.135 215.489C400.763 217.308 404.053 217.822 410.834 215.306C412.834 220.77 415.272 221.276 419.988 221.472L412.257 271.362L386.815 269.18L383.436 219.216Z" fill="#3882A6"/>
<path d="M423.009 51.9168C428.983 43.6033 431.836 30.8373 440.243 32.0409C448.65 33.2445 442.275 53.487 441.866 67.2415C441.397 83.0035 437.165 107.366 437.165 107.366L412.437 103.829L401.231 97.8548C401.231 97.8548 411.351 68.1389 423.009 51.9168Z" fill="#D58D1D"/>
<path d="M400.951 96.3995C405.29 91.2329 415.877 89.0231 416.824 91.8298C417.771 94.6365 418.855 95.0344 420.339 95.2466C421.822 95.4588 422.683 93.878 426.22 93.1738C431.707 92.0818 433.124 98.3302 437.547 101.634C437.547 101.634 422.717 207.287 412.32 267.626L386.976 269.2C372.59 206.774 396.611 101.566 400.951 96.3995Z" fill="#FAAA2F"/>
<path d="M387.744 152.266C388.64 156.314 404.183 144.938 410.356 143.359C416.528 141.78 429.147 160.563 429.244 158.203C423.378 206.106 419.326 228.949 412.028 269.303L386.982 269.202C382.846 221.77 381.943 195.741 387.744 152.266Z" fill="#8E1A15"/>
<path d="M383.759 191.034C387.904 183.856 396.165 208.837 404.33 192.034C409.811 194.28 405.477 200.94 414.2 196.845C416.778 203.042 418.56 198.842 423.245 198.822L412.108 270.697L386.913 269.193C386.913 269.193 379.613 198.212 383.759 191.034Z" fill="#D01F17"/>
<path d="M383.287 220.173C388.345 222.556 390.822 220.612 395.089 215.785C400.698 217.729 403.987 218.248 410.834 215.306C412.736 221.403 415.171 221.928 419.896 222.065L411.2 278.186L385.729 276.182L383.287 220.173Z" fill="#3882A6"/>
<path d="M389 277.509C384.69 251.752 382.192 203.256 387.466 161.025C396.249 90.6904 430.208 31.1081 440.342 32.2763C450.477 33.4445 436.309 96.402 427.526 166.736C422.457 207.328 416.537 253.081 411 277.509" stroke="black" stroke-width="5"/>
<path d="M474.348 67.8876C480.96 60.5143 485.033 48.5344 492.995 50.5663C500.957 52.5983 492.718 71.4015 490.893 84.5861C488.802 99.6949 482.196 122.683 482.196 122.683L458.777 116.71L448.618 109.799C448.618 109.799 461.446 82.2752 474.348 67.8876Z" fill="#D58D1D"/>
<path d="M448.5 109.371C453.212 104.853 463.627 103.83 464.246 106.627C464.865 109.425 465.866 109.92 467.271 110.279C468.676 110.637 469.669 109.206 473.145 108.897C478.536 108.417 479.249 114.574 483.161 118.211C483.161 118.211 457.902 218.271 441.622 275.215L417.078 274.092C409.734 212.563 443.789 113.888 448.5 109.371Z" fill="#FAAA2F"/>
<path d="M429.983 161.722C430.424 165.708 446.56 156.384 452.662 155.508C458.764 154.631 468.948 174.006 469.287 171.747C458.661 217.203 452.386 238.749 441.166 276.797L417.084 274.095C418.039 228.051 419.88 202.926 429.983 161.722Z" fill="#8E1A15"/>
<path d="M422.116 198.589C426.85 192.117 432.198 217 441.8 201.69C446.84 204.42 441.978 210.374 450.795 207.344C452.63 213.571 454.782 209.717 459.291 210.186L441.098 278.147L417.018 274.079C417.018 274.079 417.381 205.06 422.116 198.589Z" fill="#D01F17"/>
<path d="M418.873 225.657C423.536 228.305 426.057 226.929 430.515 223.29C435.74 225.625 438.852 226.461 445.636 224.747C446.992 230.21 449.284 230.95 453.801 231.629L441.173 278.802L416.925 274.057L418.873 225.657Z" fill="#3882A6"/>
<path d="M448.5 109.371C453.212 104.853 463.627 103.83 464.246 106.627C464.865 109.425 465.866 109.92 467.271 110.279C468.676 110.637 469.669 109.206 473.145 108.897C478.536 108.417 479.249 114.574 483.161 118.211C483.161 118.211 457.902 218.271 441.622 275.215L417.078 274.092C409.734 212.563 443.789 113.888 448.5 109.371Z" fill="#FAAA2F"/>
<path d="M429.983 161.722C430.424 165.708 446.56 156.384 452.662 155.508C458.764 154.631 468.948 174.006 469.287 171.747C458.661 217.203 452.386 238.749 441.166 276.797L417.084 274.095C418.039 228.051 419.88 202.926 429.983 161.722Z" fill="#8E1A15"/>
<path d="M422.116 198.589C426.85 192.117 432.198 217 441.8 201.69C446.84 204.42 441.978 210.374 450.795 207.344C452.63 213.571 454.782 209.717 459.291 210.186L441.098 278.147L417.018 274.079C417.018 274.079 417.381 205.06 422.116 198.589Z" fill="#D01F17"/>
<path d="M418.735 226.173C423.372 228.918 425.929 227.407 430.472 223.45C435.679 225.852 438.79 226.691 445.636 224.747C446.901 230.551 449.19 231.301 453.715 231.949L440.188 282.481L415.914 277.832L418.735 226.173Z" fill="#3882A6"/>
<path d="M495.83 113.488C501.144 109.629 511.659 110.039 511.89 112.915C512.122 115.791 513.051 116.422 514.401 116.973C515.752 117.524 516.937 116.233 520.442 116.402C525.878 116.665 523.755 121.407 527.15 125.573C527.15 125.573 490.207 223.413 466.155 277.98L441.862 273.487C443.015 211.1 490.515 117.347 495.83 113.488Z" fill="#FAAA2F"/>
<path d="M470.181 163.167C470.072 167.204 487.427 160.121 493.625 160.085C499.824 160.049 507.302 180.776 507.95 178.569C491.11 222.453 481.895 243.084 465.483 279.497L441.867 273.492C449.156 227.693 454.446 202.882 470.181 163.167Z" fill="#8E1A15"/>
<path d="M457.271 198.862C462.877 193.057 464.78 218.613 476.451 204.661C481.094 208.077 475.432 213.348 484.632 211.537C485.603 218.001 488.276 214.452 492.703 215.539L465.229 280.833L441.804 273.467C441.804 273.467 451.664 204.667 457.271 198.862Z" fill="#D01F17"/>
<path d="M450.315 225.419C454.596 228.701 457.296 227.675 462.237 224.657C467.12 227.705 470.105 228.966 477.098 228.188C477.697 233.824 479.878 234.877 484.284 236.175L465.214 281.497L441.714 273.432L450.315 225.419Z" fill="#3882A6"/>
<path d="M519.054 81.2522C526.655 74.8056 528.191 68.2502 535.842 71.3712C543.493 74.4923 536.983 83.7256 535.125 97.1943C533.029 112.387 525.328 131.421 525.328 131.421L504.919 123.217L495.751 114.927C495.751 114.927 504.223 93.8314 519.054 81.2522Z" fill="#D58D1D"/>
<path d="M495.83 113.488C501.144 109.629 511.659 110.039 511.89 112.915C512.122 115.791 513.051 116.422 514.401 116.973C515.752 117.524 516.937 116.233 520.442 116.402C525.878 116.665 523.892 120.41 527.288 124.576C527.288 124.576 490.207 223.413 466.155 277.98L441.862 273.487C443.015 211.1 490.515 117.347 495.83 113.488Z" fill="#FAAA2F"/>
<path d="M472.769 164.017C472.558 168.012 488.989 160.553 494.791 160.355C500.592 160.157 507.029 180.459 507.696 178.259C490.751 222.101 481.57 242.746 465.229 279.187L443.292 273.867C451.351 228.382 456.972 203.707 472.769 164.017Z" fill="#8E1A15"/>
<path d="M457.271 198.862C462.877 193.057 464.78 218.613 476.451 204.661C481.094 208.077 475.432 213.348 484.632 211.537C485.603 218.001 488.276 214.452 492.703 215.539L465.229 280.833L441.804 273.467C441.804 273.467 451.664 204.667 457.271 198.862Z" fill="#D01F17"/>
<path d="M449.844 226.537C454.036 230.03 456.86 228.712 462.091 225.003C466.913 228.196 469.895 229.463 477.098 228.187C477.386 234.563 479.557 235.639 483.992 236.868L461.855 289.478L438.268 281.621L449.844 226.537Z" fill="#3882A6"/>
<path d="M535.805 134.481C535.829 118.103 551.953 133.639 551.745 136.472C551.537 139.304 552.358 140.066 553.607 140.815C554.856 141.565 556.222 140.498 559.656 141.219C564.982 142.336 562.166 146.61 564.885 151.199C564.885 151.199 513.568 240.452 481.543 289.683L458.247 281.461C476.221 241.384 535.782 150.859 535.805 134.481Z" fill="#FAAA2F"/>
<path d="M507.5 176.506C506.779 180.413 520.432 178.481 526.555 179.429C532.679 180.378 536.913 201.714 537.889 199.671C514.604 239.662 502.377 258.256 480.65 291.05L459 285.508C489 223.008 493 209.508 507.5 176.506Z" fill="#8E1A15"/>
<path d="M491.672 215.49C497.574 210.429 493.518 234.343 506.216 222.066C509.294 225.532 503.464 230.094 511.45 228.971C510.828 235.05 513.814 231.909 517.226 233.193L480.196 292.31L462.496 284.013C462.496 284.013 485.77 220.552 491.672 215.49Z" fill="#D01F17"/>
<path d="M483.5 233.006C487.227 236.875 480.437 239.373 485.771 237.223C490.128 240.961 492.883 242.661 499.904 243.014C499.639 248.589 501.632 249.958 505.783 251.919L480.08 292.953L458.11 281.384L483.5 233.006Z" fill="#3882A6"/>
<path d="M563.623 106.827C572.104 101.766 574.615 95.6364 581.693 99.8845C588.771 104.133 580.944 112.076 577.065 124.875C572.689 139.312 562.199 156.594 562.199 156.594L543.299 145.38L535.509 135.866C535.509 135.866 547.074 116.702 563.623 106.827Z" fill="#D58D1D"/>
<path d="M526.5 140.629C530.771 133.756 556.139 134.1 555.693 136.825C555.246 139.551 555.87 140.202 556.858 140.803C557.846 141.403 559.105 140.258 561.948 140.629C566.357 141.204 563.896 144.616 565.764 148.748C565.764 148.748 513.415 239.702 481.571 289.7L462.602 284C478.711 230.302 522.229 147.502 526.5 140.629Z" fill="#FAAA2F"/>
<path d="M508.945 182.305C508.014 186.086 524.315 180.811 529.619 181.268C534.924 181.725 537.012 201.774 538.025 199.754C514.525 239.615 502.368 258.251 480.786 291.133L461.851 283.626C477.585 241.211 487.256 218.34 508.945 182.305Z" fill="#8E1A15"/>
<path d="M491.579 215.435C497.488 210.377 493.46 234.308 506.17 222.039C509.262 225.513 503.424 230.07 511.429 228.958C510.815 235.042 513.804 231.903 517.227 233.193L480.196 292.309L462.438 283.978C462.438 283.978 485.671 220.492 491.579 215.435Z" fill="#D01F17"/>
<path d="M480.678 240.827C483.302 244.164 485.786 243.215 490.635 240.354C493.815 243.473 495.919 244.787 501.849 244.182C500.831 249.755 502.334 250.844 505.591 252.227L477.871 296.482L457.5 287.506L480.678 240.827Z" fill="#3882A6"/>
<path d="M480.201 291.05C494.356 271.623 513.319 240.388 533.138 206.539C567.478 147.888 589.324 103.932 580.685 99.06C573.155 94.8136 543.337 117.705 513 163.005" stroke="black" stroke-width="5"/>
<path d="M577.554 162.301C583.84 160.581 593.558 164.611 592.804 167.349C592.05 170.087 592.708 170.994 593.787 171.971C594.867 172.949 596.414 172.168 599.643 173.541C604.65 175.672 601.058 179.318 602.834 184.347C602.834 184.347 535.165 261.938 494.192 304.015L472.935 291.427C495.083 234.17 571.269 164.021 577.554 162.301Z" fill="#FAAA2F"/>
<path d="M536.735 199.305C535.269 202.998 553.931 202.479 559.754 204.598C565.577 206.718 565.588 228.47 566.941 226.655C536.336 261.364 520.731 277.23 493.05 305.183L472.939 291.432C495.237 251.637 508.574 230.545 536.735 199.305Z" fill="#8E1A15"/>
<path d="M512.579 227.811C519.795 224.393 512.949 248.672 528.602 239.83C531.801 244.6 524.713 247.505 533.949 249.026C532.676 255.337 536.381 252.986 540.164 255.528L492.361 306.33L472.888 291.387C472.888 291.387 505.363 231.228 512.579 227.811Z" fill="#D01F17"/>
<path d="M497.091 249.939C499.996 254.458 502.874 254.448 508.525 253.374C512.073 257.887 514.445 260.089 521.264 261.799C519.922 267.216 521.611 268.947 525.303 271.676L492.122 306.939L472.816 291.324L497.091 249.939Z" fill="#3882A6"/>
<path d="M610.211 140.574C619.514 137.256 623.167 131.731 629.285 137.272C635.404 142.814 626.183 149.086 619.893 160.888C612.798 174.201 599.152 189.118 599.152 189.118L582.79 174.448L576.995 163.603C576.995 163.603 592.06 147.049 610.211 140.574Z" fill="#D58D1D"/>
<path d="M577.554 162.301C583.84 160.581 593.558 164.611 592.804 167.349C592.05 170.087 592.708 170.994 593.787 171.971C594.867 172.949 596.414 172.168 599.643 173.541C604.65 175.672 601.524 178.443 603.3 183.473C603.3 183.473 535.165 261.938 494.192 304.015L472.935 291.427C495.083 234.17 571.269 164.021 577.554 162.301Z" fill="#FAAA2F"/>
<path d="M536.735 199.305C535.269 202.998 553.931 202.479 559.754 204.598C565.577 206.718 565.588 228.47 566.941 226.655C536.336 261.364 520.731 277.23 493.05 305.183L472.939 291.432C495.237 251.637 508.574 230.545 536.735 199.305Z" fill="#8E1A15"/>
<path d="M512.579 227.811C519.795 224.393 512.949 248.672 528.602 239.83C531.801 244.6 524.713 247.505 533.949 249.026C532.676 255.337 536.381 252.986 540.164 255.528L492.361 306.33L472.888 291.387C472.888 291.387 505.363 231.228 512.579 227.811Z" fill="#D01F17"/>
<path d="M272 315.008L293 305.009L325 290.509L350 284.509L371 281.509L400 279.009L433.5 281.509L469 290.509L505.5 317.008L509 336.009L474.5 315.008L453.5 304.008L431.5 299.008L409 299.008L385 299.008L347 307.508L303.5 324.008L274.5 342.508L257 334.009L272 315.008Z" fill="#FAAA2F"/>
<path d="M498.61 248.325C501.469 252.893 504.409 252.816 510.208 251.585C513.726 256.131 516.096 258.334 523.022 259.931C521.521 265.516 523.206 267.252 526.912 269.966L492.166 306.892L472.815 291.324L498.61 248.325Z" fill="#3882A6"/>
<path d="M473 293.509C483.446 270.773 504.714 236.628 531.778 206.086C576.852 155.217 620.928 129.814 628.457 136.27C635.985 142.726 606.021 181.604 560.946 232.473C534.933 261.83 510.266 288.788 492.609 305.097" stroke="black" stroke-width="5"/>
<path d="M441.5 283.01C443.51 257.653 452.907 210.045 467.851 171.382C492.738 106.988 525.429 67.216 534.719 70.7111C544.009 74.2062 529.202 121.838 504.315 186.231C489.952 223.394 467.991 265.732 457 287.51" stroke="black" stroke-width="5"/>
<path d="M601.503 204.206C607.719 203.59 616.825 208.843 615.888 211.266C614.95 213.688 615.519 214.631 616.49 215.707C617.462 216.782 619.019 216.298 622.042 218.076C626.73 220.833 622.975 223.654 624.314 228.596C624.314 228.596 552.916 290.022 510.056 322.666L490.424 307.675C516.204 258.016 595.286 204.822 601.503 204.206Z" fill="#FAAA2F"/>
<path d="M559.175 232.168C557.477 235.365 575.587 237.792 581.065 240.666C586.543 243.539 584.908 263.718 586.356 262.246C554.093 289.671 537.781 301.956 508.861 323.57L490.428 307.68C515.031 274.241 529.542 256.756 559.175 232.168Z" fill="#8E1A15"/>
<path d="M533.628 254.844C540.874 252.799 532.407 274.253 548.233 268.492C550.971 273.415 543.887 275.005 552.715 277.855C551.005 283.511 554.771 281.908 558.241 284.855L508.107 324.528L490.382 307.631C490.382 307.631 526.381 256.89 533.628 254.844Z" fill="#D01F17"/>
<path d="M516.956 272.956C519.426 277.601 522.214 278.04 527.767 277.925C530.861 282.664 532.992 285.077 539.465 287.726C537.756 292.541 539.261 294.41 542.629 297.517L507.83 325.055L490.317 307.561L516.956 272.956Z" fill="#3882A6"/>
<path d="M634.77 189.142C644.029 187.514 647.985 182.959 653.49 189.053C658.996 195.147 649.593 199.528 642.609 209.495C634.731 220.738 620.388 232.448 620.388 232.448L605.653 216.289L600.862 205.326C600.862 205.326 616.704 192.319 634.77 189.142Z" fill="#D58D1D"/>
<path d="M601.503 204.206C607.719 203.59 616.825 208.843 615.888 211.266C614.95 213.688 615.519 214.631 616.49 215.707C617.462 216.782 619.019 216.298 622.042 218.076C626.73 220.833 623.492 222.916 624.832 227.858C624.832 227.858 552.916 290.022 510.056 322.666L490.424 307.675C516.204 258.016 595.286 204.822 601.503 204.206Z" fill="#FAAA2F"/>
<path d="M559.175 232.168C557.477 235.365 575.587 237.792 581.065 240.666C586.543 243.539 584.908 263.718 586.356 262.246C554.093 289.671 537.781 301.956 508.861 323.57L490.428 307.68C515.031 274.241 529.542 256.756 559.175 232.168Z" fill="#8E1A15"/>
<path d="M533.628 254.844C540.874 252.799 532.407 274.253 548.233 268.492C550.971 273.415 543.887 275.005 552.715 277.855C551.005 283.511 554.771 281.908 558.241 284.855L508.107 324.528L490.382 307.631C490.382 307.631 526.381 256.89 533.628 254.844Z" fill="#D01F17"/>
<path d="M520.386 270.241C522.754 274.967 525.683 275.294 531.571 274.914C534.595 279.708 536.723 282.123 543.438 284.581C541.37 289.681 542.863 291.558 546.265 294.639L507.931 324.974L490.317 307.56L520.386 270.241Z" fill="#3882A6"/>
<path d="M490 308.509C501.836 289.048 525.344 261.797 553.862 237.684C601.359 197.525 645.962 180.831 652.763 187.994C659.565 195.156 627.608 226.549 580.111 266.708C552.699 289.885 526.773 311.046 508.441 323.422" stroke="black" stroke-width="5"/>
<path d="M236.567 140.597C230.792 137.314 219.907 138.661 219.86 141.486C219.812 144.311 218.89 145.011 217.526 145.669C216.161 146.328 214.845 145.176 211.218 145.657C205.593 146.403 208.115 150.836 204.871 155.204C204.871 155.204 249.772 247.273 278.394 298.311L303.306 291.741C297.926 231.014 242.342 143.881 236.567 140.597Z" fill="#FAAA2F"/>
<path d="M266.518 186.724C266.902 190.65 248.415 185.308 241.979 185.832C235.543 186.355 229.172 207.239 228.351 205.145C248.771 246.417 259.718 265.703 279.193 299.728L303.301 291.745C292.665 247.745 285.511 224.03 266.518 186.724Z" fill="#8E1A15"/>
<path d="M282.31 220.366C276.102 215.211 275.841 240.301 262.792 227.748C258.202 231.498 264.432 236.127 254.763 235.19C254.188 241.581 251.175 238.361 246.654 239.82L279.546 301.009L303.364 291.715C303.364 291.715 288.518 225.521 282.31 220.366Z" fill="#D01F17"/>
<path d="M291.31 245.633C287.087 249.219 284.216 248.462 278.885 245.964C274.022 249.376 271.009 250.875 263.698 250.747C263.454 256.296 261.261 257.52 256.776 259.182L279.607 301.655L303.456 291.673L291.31 245.633Z" fill="#3882A6"/>
<path d="M210.302 111.258C201.981 105.658 199.948 99.404 192.216 103.137C184.484 106.87 191.86 115.286 194.691 128.251C197.885 142.876 207.154 160.741 207.154 160.741L227.786 150.902L236.746 141.993C236.746 141.993 226.539 122.187 210.302 111.258Z" fill="#D58D1D"/>
<path d="M236.567 140.597C230.792 137.314 219.907 138.661 219.86 141.486C219.812 144.311 218.89 145.011 217.526 145.669C216.161 146.328 214.845 145.176 211.218 145.657C205.593 146.403 207.906 149.876 204.661 154.244C204.661 154.244 249.772 247.273 278.394 298.311L303.306 291.741C297.926 231.014 242.342 143.881 236.567 140.597Z" fill="#FAAA2F"/>
<path d="M266.518 186.724C266.902 190.65 248.415 185.308 241.979 185.832C235.543 186.355 229.172 207.239 228.351 205.145C248.771 246.417 259.718 265.703 279.193 299.728L303.301 291.745C292.665 247.745 285.511 224.03 266.518 186.724Z" fill="#8E1A15"/>
<path d="M282.31 220.366C276.102 215.211 275.841 240.301 262.792 227.748C258.202 231.498 264.432 236.127 254.763 235.19C254.188 241.581 251.175 238.361 246.654 239.82L279.546 301.009L303.364 291.715C303.364 291.715 288.518 225.521 282.31 220.366Z" fill="#D01F17"/>
<path d="M292.631 248.09C288.45 251.755 285.52 250.889 280.05 248.132C275.216 251.598 272.204 253.099 264.793 252.784C264.699 258.612 262.51 259.844 258.011 261.48L282.312 306.689L306.204 296.785L292.631 248.09Z" fill="#3882A6"/>
<path d="M303 293.509C299.214 268.966 287.589 230.875 269.487 194.522C239.34 133.978 202.744 98.144 193.337 102.389C183.93 106.634 202.49 151.743 232.637 212.287C250.036 247.229 266.791 279.517 279.658 299.761" stroke="black" stroke-width="5"/>
<path d="M206.843 175.288C200.85 173.003 190.209 175.633 190.408 178.24C190.606 180.846 189.756 181.608 188.465 182.388C187.173 183.169 185.772 182.277 182.229 183.182C176.735 184.587 179.613 188.346 176.786 192.781C176.786 192.781 229.16 271.793 261.881 315.117L284.996 302.563C274.405 247.352 212.836 177.573 206.843 175.288Z" fill="#FAAA2F"/>
<path d="M240.451 213.92C241.172 217.485 222.437 214.929 216.121 216.233C209.806 217.537 205.323 237.573 204.33 235.751C228.097 271.133 240.591 287.486 262.794 316.319L284.997 302.563C270.664 263.421 262.463 245.834 240.451 213.92Z" fill="#8E1A15"/>
<path d="M258.981 242.87C252.397 238.918 254.319 262.046 240.332 252.159C236.121 256.196 242.68 259.662 233.043 260.034C233.03 265.99 229.773 263.411 225.431 265.331L263.254 317.453L284.997 302.563C284.997 302.563 265.564 246.822 258.981 242.87Z" fill="#D01F17"/>
<path d="M270.07 264.979C266.208 268.819 263.304 268.489 257.819 266.87C253.309 270.632 250.461 272.397 243.225 273.212C243.466 278.352 241.405 279.758 237.116 281.861L263.37 318.04L285.488 302.054L270.07 264.979Z" fill="#3882A6"/>
<path d="M178.336 151.637C169.626 147.544 167.073 142.047 159.756 146.471C152.439 150.894 160.459 157.699 164.384 169.272C168.811 182.325 179.523 197.586 179.523 197.586L199.06 185.894L207.141 176.55C207.141 176.55 195.332 159.623 178.336 151.637Z" fill="#D58D1D"/>
<path d="M206.843 175.288C200.85 173.003 190.209 175.633 190.408 178.24C190.606 180.846 189.756 181.608 188.464 182.388C187.173 183.169 185.772 182.277 182.229 183.183C176.735 184.588 179.322 187.489 176.495 191.924C176.495 191.924 229.16 271.793 261.88 315.117L284.996 302.563C274.405 247.352 212.835 177.573 206.843 175.288Z" fill="#FAAA2F"/>
<path d="M240.451 213.92C241.172 217.485 222.437 214.929 216.121 216.233C209.806 217.537 205.323 237.573 204.33 235.751C228.097 271.133 240.591 287.486 262.794 316.319L284.497 302.57C270.164 263.428 262.463 245.834 240.451 213.92Z" fill="#8E1A15"/>
<path d="M258.981 242.87C252.397 238.918 254.319 262.046 240.332 252.159C236.121 256.196 242.68 259.662 233.043 260.034C233.03 265.99 229.773 263.411 225.431 265.331L263.254 317.453L284.988 302.062C284.988 302.062 265.564 246.822 258.981 242.87Z" fill="#D01F17"/>
<path d="M264.984 252.512C264.984 260.511 262.806 267.802 257.111 265.894C252.645 269.717 249.799 271.484 242.411 272.091C242.877 277.54 240.823 278.956 236.513 281.03L264.984 320.265L287.021 304.654C287.021 304.654 264.984 244.513 264.984 252.512Z" fill="#3882A6"/>
<path d="M286.501 306.012C280.627 283.905 265.11 251.869 244.063 220.719C209.008 168.84 169.728 140.53 160.799 145.639C151.871 150.748 174.132 189.899 209.187 241.778C229.417 271.719 248.781 299.299 263.256 316.29" stroke="black" stroke-width="5"/>
<path d="M166.074 204.232C159.698 203.533 150.065 208.762 150.915 211.234C151.764 213.706 151.133 214.658 150.08 215.739C149.028 216.82 147.447 216.31 144.247 218.081C139.285 220.826 143.018 223.737 141.401 228.742C141.401 228.742 212.012 291.987 254.603 325.656L275.548 310.659C251.372 259.906 172.449 204.931 166.074 204.232Z" fill="#FAAA2F"/>
<path d="M208.34 233.138C209.936 236.406 191.162 238.658 185.38 241.513C179.598 244.367 180.315 264.887 178.893 263.374C210.817 291.616 227.033 304.289 255.79 326.588L275.544 310.663C251.801 276.402 237.69 258.467 208.34 233.138Z" fill="#8E1A15"/>
<path d="M233.573 256.477C226.206 254.314 233.899 276.209 217.87 270.169C214.814 275.138 222.035 276.837 212.803 279.629C214.293 285.395 210.491 283.722 206.774 286.675L256.521 327.571L275.594 310.614C275.594 310.614 240.94 258.641 233.573 256.477Z" fill="#D01F17"/>
<path d="M249.88 275.074C247.112 279.764 244.219 280.177 238.503 279.994C235.088 284.772 232.777 287.198 225.981 289.813C227.511 294.725 225.871 296.606 222.251 299.723L256.782 328.109L275.665 310.544L249.88 275.074Z" fill="#3882A6"/>
<path d="M132.522 188.537C123.061 186.774 119.205 182.099 113.24 188.225C107.276 194.351 116.753 198.913 123.47 209.121C131.047 220.636 145.262 232.701 145.262 232.701L161.218 216.459L166.68 205.378C166.68 205.378 150.984 191.977 132.522 188.537Z" fill="#D58D1D"/>
<path d="M166.074 204.232C159.698 203.533 150.065 208.762 150.915 211.234C151.764 213.706 151.133 214.658 150.08 215.739C149.028 216.82 147.447 216.31 144.247 218.081C139.285 220.826 142.521 222.981 140.904 227.986C140.904 227.986 212.012 291.987 254.604 325.656L275.548 310.659C251.372 259.906 172.449 204.931 166.074 204.232Z" fill="#FAAA2F"/>
<path d="M208.34 233.138C209.936 236.406 191.162 238.658 185.38 241.513C179.598 244.367 180.315 264.887 178.893 263.374C210.817 291.616 227.033 304.289 255.79 326.588L275.544 310.663C251.801 276.402 237.69 258.467 208.34 233.138Z" fill="#8E1A15"/>
<path d="M233.573 256.477C226.206 254.314 233.899 276.209 217.87 270.169C214.814 275.138 222.035 276.837 212.803 279.629C214.293 285.395 210.491 283.722 206.774 286.675L256.521 327.571L275.594 310.614C275.594 310.614 240.94 258.641 233.573 256.477Z" fill="#D01F17"/>
<path d="M247.316 272.965C244.624 277.718 241.625 278.044 235.659 277.656C232.296 282.477 229.988 284.905 223.011 287.371C224.809 292.504 223.177 294.391 219.533 297.488L256.706 328.047L275.665 310.544L247.316 272.965Z" fill="#3882A6"/>
<path d="M274.755 311.477C263.495 291.566 241.774 263.639 213.55 238.806C166.542 197.447 121.391 179.961 114.04 187.157C106.688 194.353 138.106 226.622 185.114 267.981C212.243 291.85 237.937 313.655 256.23 326.444" stroke="black" stroke-width="5"/>
<path d="M131.135 239.735C124.761 240.442 116.498 247.644 117.866 249.872C119.233 252.099 118.825 253.166 118.033 254.45C117.241 255.735 115.587 255.581 112.85 258.006C108.606 261.767 112.883 263.794 112.395 269.031C112.395 269.031 199.084 309.576 247.987 333.156L261.168 319.752C226.514 275.486 137.509 239.028 131.135 239.735Z" fill="#FAAA2F"/>
<path d="M178.684 258.737C180.954 261.579 163.122 267.867 158.101 271.913C153.079 275.959 158.25 295.83 156.533 294.663C193.843 315.271 218.094 319.611 251.02 335.108L261.165 319.757C230.528 291.492 212.848 277.063 178.684 258.737Z" fill="#8E1A15"/>
<path d="M208.396 276.018C200.734 275.512 213.013 295.205 196.054 292.802C194.154 298.318 201.572 298.403 193.17 303.138C195.88 308.442 191.805 307.637 188.82 311.329L251.519 335.1L261.203 319.698C261.203 319.698 216.058 276.524 208.396 276.018Z" fill="#D01F17"/>
<path d="M228.363 290.614C226.683 295.795 223.95 296.828 218.332 297.896C216.039 303.303 214.313 306.174 208.249 310.207C210.813 314.668 211.234 314.466 208.38 318.297L251.011 334.608L261.257 319.614L228.363 290.614Z" fill="#3882A6"/>
<path d="M94.9699 231.727C85.3521 232.068 80.5698 228.346 76.0831 235.624C71.5965 242.903 81.8403 245.29 90.62 253.789C100.524 263.377 117.026 272.054 117.026 272.054L129.06 252.726L131.976 240.721C131.976 240.721 113.737 231.062 94.9699 231.727Z" fill="#D58D1D"/>
<path d="M131.135 239.735C124.761 240.442 116.498 247.644 117.866 249.872C119.233 252.099 118.825 253.166 118.033 254.45C117.241 255.735 115.587 255.581 112.85 258.006C108.606 261.767 112.233 263.165 111.745 268.402C115.78 275.528 206.785 320.098 249.995 333.624L261.168 319.752C226.514 275.486 137.509 239.028 131.135 239.735Z" fill="#FAAA2F"/>
<path d="M178.684 258.737C180.954 261.579 163.122 267.867 158.101 271.913C153.079 275.959 158.25 295.83 156.533 294.663C193.843 315.271 218.094 319.611 251.02 335.108L261.165 319.757C230.528 291.492 212.848 277.063 178.684 258.737Z" fill="#8E1A15"/>
<path d="M208.396 276.018C200.734 275.512 213.013 295.205 196.054 292.802C194.154 298.318 201.572 298.403 193.17 303.138C195.88 308.442 191.805 307.637 188.82 311.329L252.019 335.092L261.203 319.698C261.203 319.698 216.058 276.524 208.396 276.018Z" fill="#D01F17"/>
<path d="M224.318 288.567C222.758 293.809 219.858 294.758 213.846 295.626C211.636 301.075 209.913 303.948 203.566 307.837C206.551 312.511 206.996 312.321 204.104 316.132L252.503 334.083L261.243 319.607L224.318 288.567Z" fill="#3882A6"/>
<path d="M262.5 322.009C247.172 305.03 217.96 281.22 185.003 263.134C130.114 233.011 82.2373 225.783 76.6307 234.408C71.024 243.032 108.718 267.681 163.607 297.804C194.28 313.512 249.763 332.016 272.5 344.008" stroke="black" stroke-width="5"/>
<path d="M634.323 249.023C640.436 250.309 647.537 258.061 645.913 260.088C644.29 262.116 644.548 263.186 645.15 264.504C645.753 265.823 647.383 265.83 649.73 268.436C653.37 272.477 648.94 274.036 648.728 279.152C648.728 279.152 562.144 316.219 511.441 334.437L497.237 314.229C536.777 274.642 628.21 247.738 634.323 249.023Z" fill="#FAAA2F"/>
<path d="M585.539 262.937C582.957 265.474 599.494 273.243 603.852 277.634C608.211 282.024 600.573 300.773 602.397 299.806C563.372 316.239 544.117 323.04 510.03 334.939L497.239 314.235C530.772 289.76 549.876 277.457 585.539 262.937Z" fill="#8E1A15"/>
<path d="M554.347 276.865C561.873 277.097 547.337 295.005 564.164 294.278C565.291 299.797 558.057 299.18 565.617 304.557C562.283 309.435 566.356 309.04 568.778 312.896L509.023 335.625L497.21 314.174C497.21 314.174 546.821 276.633 554.347 276.865Z" fill="#D01F17"/>
<path d="M532.994 289.114C533.951 294.287 536.477 295.545 541.806 297.109C543.33 302.559 544.634 305.502 550.009 309.978C546.929 314.055 547.801 316.29 550.077 320.267L508.599 336.044L497.169 314.088L532.994 289.114Z" fill="#3882A6"/>
<path d="M670.583 244.68C679.902 245.916 685.046 242.764 688.46 250.233C691.875 257.703 681.588 259.048 671.927 266.448C661.028 274.796 643.824 281.642 643.824 281.642L634.641 261.795L633.375 249.898C633.375 249.898 652.398 242.267 670.583 244.68Z" fill="#D58D1D"/>
<path d="M634.323 249.023C640.436 250.309 647.537 258.061 645.913 260.088C644.29 262.116 644.548 263.186 645.15 264.504C645.753 265.823 647.383 265.83 649.73 268.436C653.37 272.477 649.655 273.488 649.444 278.604C649.444 278.604 562.144 316.219 511.441 334.437L497.237 314.229C536.777 274.642 628.21 247.738 634.323 249.023Z" fill="#FAAA2F"/>
<path d="M585.539 262.937C582.957 265.474 599.494 273.243 603.852 277.634C608.211 282.024 600.573 300.773 602.397 299.806C563.372 316.239 544.117 323.04 510.03 334.939L497.239 314.235C530.772 289.76 549.876 277.457 585.539 262.937Z" fill="#8E1A15"/>
<path d="M554.347 276.865C561.873 277.097 547.337 295.005 564.164 294.278C565.291 299.797 558.057 299.18 565.617 304.557C562.283 309.435 566.356 309.04 568.778 312.896L509.023 335.625L497.21 314.174C497.21 314.174 546.821 276.633 554.347 276.865Z" fill="#D01F17"/>
<path d="M536.824 287.657C537.667 292.874 540.351 294.072 546.055 295.493C547.5 300.973 548.801 303.917 554.446 308.29C550.965 312.52 551.824 314.759 554.137 318.723L508.712 336.001L497.169 314.087L536.824 287.657Z" fill="#3882A6"/>
<path d="M497.69 315.226C514.838 300.233 544.354 281 578.811 266.597C636.198 242.61 683.758 240.126 688.086 249.004C692.415 257.883 652.486 278.192 595.098 302.179C561.978 316.023 529.208 329.23 508 335.51" stroke="black" stroke-width="5"/>
<path d="M244.942 84.9329C237.554 78.3378 232.179 66.8831 224.49 69.7849C216.802 72.6867 227.075 90.461 230.349 103.362C234.102 118.146 243.215 140.26 243.215 140.26L265.828 131.729L275.158 123.735C275.158 123.735 259.36 97.802 244.942 84.9329Z" fill="#D58D1D"/>
<path d="M275.117 122.303C269.934 118.336 259.47 118.472 259.165 121.321C258.86 124.17 257.919 124.774 256.563 125.286C255.206 125.797 254.061 124.486 250.572 124.563C245.161 124.684 245.134 130.882 241.65 134.93C241.65 134.93 277.842 231.574 300.332 286.363L324.601 282.528C325.081 220.563 280.301 126.27 275.117 122.303Z" fill="#FAAA2F"/>
<path d="M299.322 172.279C299.325 176.289 282.256 168.812 276.094 168.617C269.933 168.422 261.958 188.806 261.371 186.598C276.97 230.597 285.593 251.314 300.961 287.885L324.596 282.53C318.543 236.876 313.93 212.11 299.322 172.279Z" fill="#8E1A15"/>
<path d="M311.227 208.047C305.804 202.14 303.247 227.462 292.007 213.311C287.301 216.583 292.793 221.961 283.695 219.927C282.561 226.319 279.995 222.727 275.566 223.692L301.178 289.219L324.659 282.508C324.659 282.508 316.649 213.954 311.227 208.047Z" fill="#D01F17"/>
<path d="M317.45 234.589C313.108 237.737 310.45 236.649 305.617 233.526C300.683 236.426 297.683 237.602 290.75 236.65C290.008 242.23 287.812 243.219 283.398 244.395L301.176 289.878L324.749 282.475L317.45 234.589Z" fill="#3882A6"/>
<path d="M244.942 84.9329C237.554 78.3378 232.179 66.8831 224.49 69.7849C216.802 72.6867 227.075 90.461 230.349 103.362C234.102 118.146 243.215 140.26 243.215 140.26L265.828 131.729L275.158 123.735C275.158 123.735 259.36 97.802 244.942 84.9329Z" fill="#D58D1D"/>
<path d="M275.117 122.303C269.934 118.336 259.47 118.472 259.165 121.321C258.86 124.17 257.919 124.774 256.563 125.286C255.206 125.797 254.061 124.486 250.572 124.563C245.161 124.684 245.134 130.882 241.65 134.93C241.65 134.93 277.842 231.574 300.332 286.363L324.601 282.528C325.081 220.563 280.301 126.27 275.117 122.303Z" fill="#FAAA2F"/>
<path d="M299.322 172.279C299.325 176.289 282.256 168.812 276.094 168.617C269.933 168.422 261.958 188.806 261.371 186.598C276.97 230.597 285.593 251.314 300.961 287.885L324.596 282.53C318.543 236.876 313.93 212.11 299.322 172.279Z" fill="#8E1A15"/>
<path d="M311.227 208.047C305.804 202.14 303.247 227.462 292.007 213.311C287.301 216.583 292.793 221.961 283.695 219.927C282.561 226.319 279.995 222.727 275.566 223.692L301.178 289.219L324.659 282.508C324.659 282.508 316.649 213.954 311.227 208.047Z" fill="#D01F17"/>
<path d="M317.753 235.366C313.469 238.66 310.732 237.37 305.711 233.767C300.817 236.768 297.818 237.948 290.75 236.65C290.209 242.744 288.019 243.749 283.587 244.876L303.342 295.418L326.972 288.159L317.753 235.366Z" fill="#3882A6"/>
<path d="M326 288.509C324.662 263.284 315.273 219.257 301.424 180.489C278.359 115.924 233.773 66.7967 224.446 70.0276C215.119 73.2586 241.72 129.728 264.785 194.294C278.096 231.557 293.64 274.107 304 296.009" stroke="black" stroke-width="5"/>
<path d="M288.148 63.6712C281.202 56.151 276.809 43.8298 268.612 46.0529C260.415 48.276 269.219 67.5865 271.308 81.1876C273.702 96.7738 280.882 120.435 280.882 120.435L304.991 113.9L315.383 106.6C315.383 106.6 301.703 78.3453 288.148 63.6712Z" fill="#D58D1D"/>
<path d="M315.499 106.12C310.56 101.523 299.782 100.625 299.185 103.527C298.589 106.428 297.562 106.956 296.115 107.348C294.669 107.74 293.621 106.276 290.024 106.01C284.445 105.598 283.803 111.972 279.817 115.793C279.817 115.793 307.461 218.838 325.162 277.452L350.508 275.913C357.149 212.196 320.437 110.717 315.499 106.12Z" fill="#FAAA2F"/>
<path d="M335.441 159.953C335.046 164.08 318.229 154.69 311.909 153.878C305.59 153.066 295.364 173.251 294.979 170.921C306.661 217.747 313.477 239.923 325.657 279.081L350.502 275.917C348.805 228.335 346.517 202.391 335.441 159.953Z" fill="#8E1A15"/>
<path d="M344.139 197.942C339.147 191.325 334.004 217.129 323.845 201.451C318.68 204.35 323.796 210.431 314.638 207.434C312.837 213.899 310.554 209.949 305.902 210.502L325.749 280.475L350.57 275.899C350.57 275.899 349.131 204.558 344.139 197.942Z" fill="#D01F17"/>
<path d="M348.139 226.69C343.405 229.653 340.718 228.056 335.912 223.857C330.579 226.458 327.377 227.375 320.237 225.343C319.073 231.552 316.72 232.369 312.049 233.09L327.338 286.991L352.366 281.865L360.205 278.994L354.916 253.974L348.139 226.69Z" fill="#3882A6"/>
<path d="M357 281.509C355 255.509 347.189 209.879 336.788 168.611C319.467 99.8792 278.474 44.8989 268.558 47.2981C258.643 49.6973 280.406 110.449 297.727 179.18C307.724 218.847 321.516 263.942 330 287.509" stroke="black" stroke-width="5"/>
<path d="M251 334.511C310.5 266.508 476.571 252.628 509.5 334.51" stroke="black" stroke-width="5"/>
<path d="M348.247 224.489C353.642 226.01 355.755 223.759 359.145 218.46C365.009 219.474 368.343 219.469 374.598 215.59C377.511 221.169 380.001 221.302 384.687 220.711L385.64 278.086L360.171 280.052L348.247 224.489Z" fill="#3882A6"/>
<path d="M362.5 280.509C353.871 254.764 344.293 207.892 342.319 163.665C339.032 90.0064 362.41 23.2782 372.607 22.8231C382.804 22.3681 379.526 89.3308 382.813 162.99C384.71 205.5 385.812 253.021 384.5 279.009" stroke="black" stroke-width="5"/>
<path d="M417.323 278.756C415.875 253.463 419.21 210.717 428.708 170.524C444.526 103.584 483.439 49.6258 493.066 51.8032C502.694 53.9807 482.468 113.246 466.65 180.186C457.521 218.819 447.21 260.264 439.324 283.255" stroke="black" stroke-width="5"/>
<path d="M270.5 342.509C344.185 291.846 435.5 280.009 508 336.009" stroke="black" stroke-width="5"/>
</g>
<defs>
<filter id="filter0_d_264_2656" x="203.664" y="548.764" width="143.418" height="122.011" filterUnits="userSpaceOnUse" color-interpolation-filters="sRGB">
<feFlood flood-opacity="0" result="BackgroundImageFix"/>
<feColorMatrix in="SourceAlpha" type="matrix" values="0 0 0 0 0 0 0 0 0 0 0 0 0 0 0 0 0 0 127 0" result="hardAlpha"/>
<feOffset dy="4"/>
<feGaussianBlur stdDeviation="2"/>
<feComposite in2="hardAlpha" operator="out"/>
<feColorMatrix type="matrix" values="0 0 0 0 0 0 0 0 0 0 0 0 0 0 0 0 0 0 0.25 0"/>
<feBlend mode="normal" in2="BackgroundImageFix" result="effect1_dropShadow_264_2656"/>
<feBlend mode="normal" in="SourceGraphic" in2="effect1_dropShadow_264_2656" result="shape"/>
</filter>
<clipPath id="clip0_264_2656">
<rect width="703" height="1005" fill="white"/>
</clipPath>
</defs>
</svg>
