<svg width="680" height="438" viewBox="0 0 680 438" fill="none" xmlns="http://www.w3.org/2000/svg">
<path d="M229.522 341.548L250.522 331.549L282.522 317.049L307.522 311.049L328.522 308.049L357.522 305.549L391.022 308.049L426.522 317.049L463.022 343.548L471.522 365.048L451.522 348.549L432.522 339.549L411.022 330.548L389.022 325.548H366.522H342.522L304.522 334.048L261.022 350.548L232.022 369.048L214.522 360.549L229.522 341.548Z" fill="#FAAA2F"/>
<path d="M317.366 75.3625C321.847 65.8501 322.492 52.2753 330.991 52.1386C339.49 52.0019 336.64 73.8293 338.574 88.0204C340.789 104.283 340.754 129.991 340.754 129.991L315.758 130.396L303.686 126.091C303.686 126.091 308.621 93.9241 317.366 75.3625Z" fill="#D58D1D"/>
<path d="M303.163 124.642C306.566 118.628 316.635 114.63 318.047 117.358C319.458 120.085 320.595 120.317 322.095 120.293C323.595 120.268 324.175 118.505 327.545 117.204C332.773 115.187 335.232 121.372 340.158 124.042C340.158 124.042 343.482 234.956 343.478 298.614L318.741 304.369C293.94 242.613 299.76 130.656 303.163 124.642Z" fill="#FAAA2F"/>
<path d="M299.627 184.166C301.199 188.177 314.6 173.957 320.422 171.328C326.243 168.698 341.884 185.926 341.579 183.486C343.933 233.634 343.817 257.753 343.474 300.384L318.748 304.369C306.606 256.338 301.292 229.757 299.627 184.166Z" fill="#8E1A15"/>
<path d="M302.284 224.64C305.153 216.536 317.551 241.013 322.748 222.294C328.538 223.716 325.395 231.317 333.304 225.648C336.902 231.634 337.946 226.997 342.564 226.206L343.799 302.37L318.687 304.954C318.687 304.954 299.415 232.745 302.284 224.64Z" fill="#D01F17"/>
<path d="M229.022 372.052C292.118 319.882 392.208 302.868 468.022 365.051" stroke="black" stroke-width="5"/>
<path d="M381.531 81.4568C387.505 73.1433 390.358 60.3773 398.765 61.5809C407.172 62.7846 400.797 83.027 400.387 96.7816C399.918 112.544 395.686 136.906 395.686 136.906L370.959 133.369L359.752 127.395C359.752 127.395 369.873 97.679 381.531 81.4568Z" fill="#D58D1D"/>
<path d="M359.472 125.94C363.811 120.773 374.399 118.563 375.346 121.37C376.293 124.177 377.377 124.574 378.86 124.787C380.344 124.999 381.204 123.418 384.742 122.714C390.228 121.622 391.645 127.87 396.069 131.174C396.069 131.174 381.239 236.827 370.842 297.166L345.497 298.74C331.112 236.314 355.133 131.106 359.472 125.94Z" fill="#FAAA2F"/>
<path d="M346.266 181.807C347.162 185.854 362.705 174.478 368.878 172.899C375.05 171.32 387.668 190.103 387.766 187.743C381.9 235.646 377.848 258.489 370.549 298.843L345.504 298.742C341.367 251.31 340.465 225.281 346.266 181.807Z" fill="#8E1A15"/>
<path d="M342.28 220.574C346.426 213.396 354.687 238.377 362.851 221.574C368.333 223.82 363.999 230.48 372.721 226.385C375.3 232.582 377.082 228.382 381.767 228.362L370.629 300.237L345.435 298.733C345.435 298.733 338.135 227.752 342.28 220.574Z" fill="#D01F17"/>
<path d="M341.957 248.756C347.043 250.959 349.481 249.265 353.656 245.029C359.284 246.849 362.575 247.362 369.355 244.846C371.356 250.31 373.793 250.816 378.51 251.012L370.779 300.902L345.336 298.72L341.957 248.756Z" fill="#3882A6"/>
<path d="M381.531 81.4568C387.505 73.1433 390.358 60.3773 398.765 61.5809C407.172 62.7846 400.797 83.027 400.387 96.7816C399.918 112.544 395.686 136.906 395.686 136.906L370.959 133.369L359.752 127.395C359.752 127.395 369.873 97.679 381.531 81.4568Z" fill="#D58D1D"/>
<path d="M359.472 125.94C363.811 120.773 374.399 118.563 375.346 121.37C376.293 124.177 377.377 124.574 378.86 124.787C380.344 124.999 381.204 123.418 384.742 122.714C390.228 121.622 391.645 127.87 396.069 131.174C396.069 131.174 381.239 236.827 370.842 297.166L345.497 298.74C331.112 236.314 355.133 131.106 359.472 125.94Z" fill="#FAAA2F"/>
<path d="M346.266 181.807C347.162 185.854 362.705 174.478 368.878 172.899C375.05 171.32 387.668 190.103 387.766 187.743C381.9 235.646 377.848 258.489 370.549 298.843L345.504 298.742C341.367 251.31 340.465 225.281 346.266 181.807Z" fill="#8E1A15"/>
<path d="M342.28 220.574C346.426 213.396 354.687 238.377 362.851 221.574C368.333 223.82 363.999 230.48 372.721 226.385C375.3 232.582 377.082 228.382 381.767 228.362L370.629 300.237L345.435 298.733C345.435 298.733 338.135 227.752 342.28 220.574Z" fill="#D01F17"/>
<path d="M341.809 249.713C346.867 252.096 349.343 250.152 353.61 245.325C359.219 247.269 362.509 247.788 369.355 244.846C371.258 250.943 373.692 251.468 378.418 251.605L369.721 307.726L344.251 305.722L341.809 249.713Z" fill="#3882A6"/>
<path d="M347.522 307.049C343.212 281.292 340.714 232.796 345.987 190.565C354.77 120.23 388.73 60.6482 398.864 61.8163C408.998 62.9845 394.831 125.942 386.048 196.276C380.979 236.868 375.059 282.621 369.522 307.049" stroke="black" stroke-width="5"/>
<path d="M432.87 97.4276C439.482 90.0543 443.555 78.0745 451.517 80.1064C459.479 82.1383 451.24 100.942 449.415 114.126C447.324 129.235 440.718 152.223 440.718 152.223L417.299 146.25L407.14 139.339C407.14 139.339 419.967 111.815 432.87 97.4276Z" fill="#D58D1D"/>
<path d="M407.022 138.911C411.734 134.394 422.148 133.37 422.767 136.167C423.386 138.965 424.388 139.46 425.793 139.819C427.198 140.177 428.19 138.746 431.667 138.437C437.058 137.958 437.771 144.114 441.682 147.751C441.682 147.751 416.424 247.811 400.144 304.755L375.599 303.632C368.256 242.103 402.31 143.428 407.022 138.911Z" fill="#FAAA2F"/>
<path d="M388.505 191.262C388.946 195.248 405.081 185.924 411.184 185.048C417.286 184.171 427.47 203.546 427.809 201.287C417.182 246.743 410.908 268.289 399.688 306.337L375.606 303.635C376.561 257.591 378.401 232.466 388.505 191.262Z" fill="#8E1A15"/>
<path d="M380.638 228.129C385.372 221.657 390.72 246.54 400.322 231.23C405.362 233.96 400.499 239.914 409.317 236.884C411.152 243.111 413.304 239.257 417.813 239.726L399.62 307.687L375.54 303.619C375.54 303.619 375.903 234.6 380.638 228.129Z" fill="#D01F17"/>
<path d="M377.394 255.197C382.058 257.845 384.579 256.469 389.036 252.83C394.261 255.165 397.373 256.001 404.157 254.287C405.514 259.75 407.806 260.49 412.322 261.169L399.695 308.342L375.446 303.597L377.394 255.197Z" fill="#3882A6"/>
<path d="M407.022 138.911C411.734 134.394 422.148 133.37 422.767 136.167C423.386 138.965 424.388 139.46 425.793 139.819C427.198 140.177 428.19 138.746 431.667 138.437C437.058 137.958 437.771 144.114 441.682 147.751C441.682 147.751 416.424 247.811 400.144 304.755L375.599 303.632C368.256 242.103 402.31 143.428 407.022 138.911Z" fill="#FAAA2F"/>
<path d="M388.505 191.262C388.946 195.248 405.081 185.924 411.184 185.048C417.286 184.171 427.47 203.546 427.809 201.287C417.182 246.743 410.908 268.289 399.688 306.337L375.606 303.635C376.561 257.591 378.401 232.466 388.505 191.262Z" fill="#8E1A15"/>
<path d="M380.638 228.129C385.372 221.657 390.72 246.54 400.322 231.23C405.362 233.96 400.499 239.914 409.317 236.884C411.152 243.111 413.304 239.257 417.813 239.726L399.62 307.687L375.54 303.619C375.54 303.619 375.903 234.6 380.638 228.129Z" fill="#D01F17"/>
<path d="M377.256 255.713C381.894 258.458 384.451 256.947 388.993 252.99C394.2 255.392 397.312 256.231 404.157 254.287C405.422 260.091 407.711 260.841 412.237 261.489L398.71 312.021L374.436 307.372L377.256 255.713Z" fill="#3882A6"/>
<path d="M454.351 143.028C459.666 139.169 470.181 139.579 470.412 142.455C470.644 145.331 471.573 145.962 472.923 146.513C474.273 147.064 475.459 145.773 478.964 145.942C484.4 146.205 482.276 150.947 485.672 155.113C485.672 155.113 448.729 252.952 424.677 307.52L400.383 303.027C401.537 240.64 449.036 146.887 454.351 143.028Z" fill="#FAAA2F"/>
<path d="M428.702 192.707C428.593 196.744 445.948 189.661 452.147 189.625C458.346 189.589 465.823 210.316 466.472 208.109C449.632 251.993 440.417 272.624 424.005 309.037L400.389 303.032C407.678 257.233 412.968 232.422 428.702 192.707Z" fill="#8E1A15"/>
<path d="M415.793 228.402C421.399 222.597 423.302 248.154 434.973 234.201C439.616 237.617 433.954 242.888 443.154 241.077C444.125 247.541 446.798 243.993 451.225 245.079L423.751 310.373L400.326 303.007C400.326 303.007 410.186 234.207 415.793 228.402Z" fill="#D01F17"/>
<path d="M408.837 254.959C413.118 258.241 415.818 257.215 420.759 254.197C425.642 257.244 428.626 258.506 435.62 257.728C436.219 263.364 438.4 264.417 442.806 265.715L423.735 311.037L400.236 302.972L408.837 254.959Z" fill="#3882A6"/>
<path d="M477.576 110.792C485.177 104.346 486.712 97.7903 494.364 100.911C502.015 104.032 495.505 113.266 493.647 126.734C491.551 141.927 483.85 160.961 483.85 160.961L463.44 152.757L454.273 144.467C454.273 144.467 462.744 123.372 477.576 110.792Z" fill="#D58D1D"/>
<path d="M454.351 143.028C459.666 139.169 470.181 139.579 470.412 142.455C470.644 145.331 471.573 145.962 472.923 146.513C474.273 147.064 475.459 145.773 478.964 145.942C484.4 146.205 482.414 149.95 485.809 154.116C485.809 154.116 448.729 252.952 424.677 307.52L400.383 303.027C401.537 240.64 449.036 146.887 454.351 143.028Z" fill="#FAAA2F"/>
<path d="M431.291 193.557C431.08 197.552 447.511 190.093 453.313 189.895C459.114 189.697 465.551 209.999 466.218 207.799C449.273 251.641 440.092 272.286 423.751 308.727L401.814 303.407C409.873 257.922 415.494 233.247 431.291 193.557Z" fill="#8E1A15"/>
<path d="M415.793 228.402C421.399 222.597 423.302 248.154 434.973 234.201C439.616 237.617 433.954 242.888 443.154 241.077C444.125 247.541 446.798 243.993 451.225 245.079L423.751 310.373L400.326 303.007C400.326 303.007 410.186 234.207 415.793 228.402Z" fill="#D01F17"/>
<path d="M408.366 256.077C412.558 259.57 415.382 258.252 420.613 254.543C425.435 257.736 428.417 259.003 435.62 257.727C435.908 264.104 438.079 265.179 442.514 266.409L420.377 319.018L396.79 311.161L408.366 256.077Z" fill="#3882A6"/>
<path d="M494.327 164.022C494.35 147.644 510.475 163.18 510.267 166.013C510.058 168.845 510.88 169.607 512.129 170.356C513.378 171.106 514.744 170.039 518.178 170.76C523.504 171.878 520.688 176.151 523.406 180.74C523.406 180.74 472.09 269.993 440.065 319.224L416.769 311.002C434.743 270.925 494.304 180.4 494.327 164.022Z" fill="#FAAA2F"/>
<path d="M466.022 206.048C465.301 209.955 478.953 208.022 485.077 208.971C491.201 209.919 495.435 231.255 496.41 229.212C473.126 269.203 460.898 287.797 439.171 320.592L417.522 315.049C447.522 252.549 451.522 239.049 466.022 206.048Z" fill="#8E1A15"/>
<path d="M450.194 245.032C456.095 239.97 452.04 263.884 464.737 251.608C467.816 255.073 461.985 259.635 469.972 258.512C469.35 264.591 472.336 261.451 475.748 262.734L438.718 321.851L421.018 313.554C421.018 313.554 444.292 250.093 450.194 245.032Z" fill="#D01F17"/>
<path d="M442.022 262.547C445.749 266.417 438.958 268.915 444.293 266.765C448.65 270.502 451.404 272.202 458.425 272.556C458.161 278.13 460.154 279.5 464.305 281.461L438.602 322.495L416.631 310.925L442.022 262.547Z" fill="#3882A6"/>
<path d="M522.145 136.368C530.626 131.307 533.136 125.178 540.214 129.426C547.293 133.674 539.465 141.617 535.586 154.416C531.211 168.853 520.72 186.135 520.72 186.135L501.821 174.921L494.031 165.408C494.031 165.408 505.596 146.244 522.145 136.368Z" fill="#D58D1D"/>
<path d="M485.022 170.17C489.293 163.297 514.661 163.641 514.214 166.366C513.768 169.092 514.392 169.744 515.38 170.344C516.367 170.945 517.627 169.799 520.47 170.17C524.879 170.745 522.418 174.157 524.286 178.29C524.286 178.29 471.937 269.243 440.093 319.241L421.124 313.541C437.233 259.843 480.751 177.043 485.022 170.17Z" fill="#FAAA2F"/>
<path d="M467.467 211.847C466.535 215.627 482.836 210.352 488.141 210.81C493.446 211.267 495.534 231.315 496.547 229.295C473.047 269.156 460.89 287.793 439.308 320.674L420.373 313.167C436.107 270.752 445.778 247.881 467.467 211.847Z" fill="#8E1A15"/>
<path d="M450.101 244.976C456.01 239.918 451.982 263.849 464.692 251.58C467.784 255.054 461.946 259.611 469.95 258.499C469.337 264.583 472.326 261.444 475.748 262.734L438.718 321.851L420.96 313.52C420.96 313.52 444.192 250.034 450.101 244.976Z" fill="#D01F17"/>
<path d="M439.2 270.369C441.824 273.705 444.307 272.756 449.157 269.895C452.336 273.014 454.441 274.328 460.37 273.724C459.353 279.296 460.856 280.386 464.113 281.768L436.392 326.023L416.022 317.047L439.2 270.369Z" fill="#3882A6"/>
<path d="M438.723 320.591C452.877 301.164 471.84 269.93 491.659 236.08C526 177.429 547.845 133.473 539.207 128.601C531.677 124.355 501.858 147.246 471.522 192.547" stroke="black" stroke-width="5"/>
<path d="M536.076 191.841C542.361 190.12 552.08 194.15 551.326 196.888C550.571 199.627 551.229 200.533 552.309 201.511C553.389 202.489 554.936 201.707 558.165 203.081C563.172 205.212 559.58 208.857 561.356 213.886C561.356 213.886 493.687 291.478 452.713 333.555L431.457 320.966C453.604 263.71 529.791 193.561 536.076 191.841Z" fill="#FAAA2F"/>
<path d="M495.256 228.845C493.791 232.538 512.452 232.019 518.275 234.138C524.098 236.257 524.109 258.01 525.463 256.195C494.857 290.904 479.252 306.77 451.571 334.722L431.461 320.972C453.758 281.176 467.096 260.084 495.256 228.845Z" fill="#8E1A15"/>
<path d="M471.101 257.35C478.317 253.932 471.471 278.212 487.123 269.37C490.323 274.14 483.235 277.045 492.47 278.566C491.198 284.877 494.902 282.526 498.685 285.067L450.882 335.87L431.41 320.927C431.41 320.927 463.885 260.768 471.101 257.35Z" fill="#D01F17"/>
<path d="M455.613 279.478C458.518 283.998 461.395 283.987 467.046 282.914C470.594 287.426 472.967 289.629 479.785 291.339C478.443 296.755 480.132 298.486 483.824 301.216L450.643 336.478L431.337 320.864L455.613 279.478Z" fill="#3882A6"/>
<path d="M568.733 170.114C578.035 166.796 581.688 161.27 587.807 166.812C593.926 172.354 584.705 178.626 578.415 190.428C571.32 203.741 557.674 218.658 557.674 218.658L541.311 203.987L535.516 193.142C535.516 193.142 550.582 176.589 568.733 170.114Z" fill="#D58D1D"/>
<path d="M536.076 191.841C542.361 190.12 552.08 194.15 551.326 196.888C550.571 199.627 551.229 200.533 552.309 201.511C553.389 202.489 554.936 201.707 558.165 203.081C563.172 205.212 560.046 207.983 561.822 213.012C561.822 213.012 493.687 291.478 452.713 333.555L431.457 320.966C453.604 263.71 529.791 193.561 536.076 191.841Z" fill="#FAAA2F"/>
<path d="M495.256 228.845C493.791 232.538 512.452 232.019 518.275 234.138C524.098 236.257 524.109 258.01 525.463 256.195C494.857 290.904 479.252 306.77 451.571 334.722L431.461 320.972C453.758 281.176 467.096 260.084 495.256 228.845Z" fill="#8E1A15"/>
<path d="M471.101 257.35C478.317 253.932 471.471 278.212 487.123 269.37C490.323 274.14 483.235 277.045 492.47 278.566C491.198 284.877 494.902 282.526 498.685 285.067L450.882 335.87L431.41 320.927C431.41 320.927 463.885 260.768 471.101 257.35Z" fill="#D01F17"/>
<path d="M457.131 277.865C459.991 282.433 462.931 282.356 468.73 281.125C472.247 285.67 474.618 287.874 481.544 289.47C480.043 295.056 481.727 296.792 485.434 299.506L450.688 336.431L431.337 320.864L457.131 277.865Z" fill="#3882A6"/>
<path d="M431.522 323.049C441.968 300.313 463.235 266.168 490.299 235.625C535.374 184.757 579.45 159.354 586.978 165.81C594.507 172.266 564.543 211.144 519.468 262.012C493.454 291.37 468.788 318.328 451.131 334.637" stroke="black" stroke-width="5"/>
<path d="M400.021 312.549C402.031 287.193 411.429 239.585 426.372 200.921C451.26 136.528 483.951 96.7557 493.241 100.251C502.53 103.746 487.724 151.377 462.837 215.771C448.473 252.934 426.513 295.272 415.522 317.049" stroke="black" stroke-width="5"/>
<path d="M560.025 233.746C566.241 233.13 575.347 238.383 574.41 240.806C573.472 243.228 574.041 244.172 575.012 245.247C575.984 246.322 577.541 245.838 580.564 247.616C585.251 250.373 581.497 253.195 582.836 258.137C582.836 258.137 511.438 319.562 468.578 352.206L448.946 337.215C474.726 287.557 553.808 234.362 560.025 233.746Z" fill="#FAAA2F"/>
<path d="M517.697 261.708C515.999 264.905 534.109 267.332 539.587 270.206C545.065 273.079 543.43 293.259 544.878 291.786C512.615 319.211 496.303 331.496 467.383 353.11L448.95 337.22C473.553 303.781 488.064 286.296 517.697 261.708Z" fill="#8E1A15"/>
<path d="M492.15 284.384C499.396 282.339 490.929 303.793 506.755 298.032C509.493 302.955 502.409 304.545 511.237 307.395C509.527 313.051 513.293 311.448 516.763 314.395L466.629 354.068L448.904 337.171C448.904 337.171 484.903 286.43 492.15 284.384Z" fill="#D01F17"/>
<path d="M475.477 302.496C477.948 307.141 480.736 307.58 486.289 307.465C489.383 312.204 491.513 314.617 497.987 317.266C496.278 322.081 497.782 323.95 501.151 327.057L466.352 354.595L448.838 337.101L475.477 302.496Z" fill="#3882A6"/>
<path d="M593.292 218.682C602.551 217.054 606.507 212.498 612.012 218.593C617.518 224.687 608.115 229.068 601.131 239.035C593.253 250.278 578.91 261.988 578.91 261.988L564.175 245.829L559.384 234.866C559.384 234.866 575.226 221.859 593.292 218.682Z" fill="#D58D1D"/>
<path d="M560.025 233.746C566.241 233.13 575.347 238.383 574.41 240.806C573.472 243.228 574.041 244.172 575.012 245.247C575.984 246.322 577.541 245.838 580.564 247.616C585.251 250.373 582.014 252.456 583.354 257.398C583.354 257.398 511.438 319.562 468.578 352.206L448.946 337.215C474.726 287.557 553.808 234.362 560.025 233.746Z" fill="#FAAA2F"/>
<path d="M517.697 261.708C515.999 264.905 534.109 267.332 539.587 270.206C545.065 273.079 543.43 293.259 544.878 291.786C512.615 319.211 496.303 331.496 467.383 353.11L448.95 337.22C473.553 303.781 488.064 286.296 517.697 261.708Z" fill="#8E1A15"/>
<path d="M492.15 284.384C499.396 282.339 490.929 303.793 506.755 298.032C509.493 302.955 502.409 304.545 511.237 307.395C509.527 313.051 513.293 311.448 516.763 314.395L466.629 354.068L448.904 337.171C448.904 337.171 484.903 286.43 492.15 284.384Z" fill="#D01F17"/>
<path d="M478.907 299.781C481.276 304.507 484.205 304.834 490.093 304.454C493.117 309.249 495.245 311.664 501.959 314.122C499.891 319.221 501.385 321.098 504.787 324.179L466.453 354.514L448.838 337.101L478.907 299.781Z" fill="#3882A6"/>
<path d="M448.522 338.049C460.358 318.588 483.865 291.337 512.384 267.224C559.881 227.065 604.484 210.371 611.285 217.534C618.087 224.696 586.13 256.089 538.633 296.248C511.221 319.425 485.295 340.586 466.963 352.963" stroke="black" stroke-width="5"/>
<path d="M195.089 170.137C189.314 166.854 178.429 168.201 178.381 171.026C178.334 173.851 177.412 174.551 176.047 175.209C174.683 175.868 173.366 174.716 169.739 175.197C164.115 175.943 166.637 180.376 163.392 184.744C163.392 184.744 208.294 276.813 236.915 327.851L261.828 321.281C256.448 260.554 200.864 173.421 195.089 170.137Z" fill="#FAAA2F"/>
<path d="M225.04 216.264C225.424 220.19 206.937 214.848 200.501 215.372C194.065 215.895 187.694 236.779 186.872 234.685C207.293 275.957 218.24 295.243 237.715 329.268L261.822 321.285C251.187 277.285 244.033 253.57 225.04 216.264Z" fill="#8E1A15"/>
<path d="M240.832 249.906C234.624 244.751 234.363 269.841 221.314 257.289C216.723 261.038 222.954 265.667 213.284 264.73C212.71 271.121 209.697 267.901 205.175 269.36L238.067 330.549L261.886 321.255C261.886 321.255 247.04 255.061 240.832 249.906Z" fill="#D01F17"/>
<path d="M249.831 275.173C245.609 278.759 242.737 278.002 237.407 275.504C232.544 278.916 229.53 280.415 222.22 280.287C221.976 285.836 219.783 287.06 215.297 288.722L238.128 331.195L261.977 321.213L249.831 275.173Z" fill="#3882A6"/>
<path d="M168.823 140.798C160.502 135.198 158.469 128.944 150.738 132.677C143.006 136.41 150.381 144.826 153.213 157.791C156.407 172.416 165.676 190.281 165.676 190.281L186.308 180.442L195.267 171.533C195.267 171.533 185.06 151.727 168.823 140.798Z" fill="#D58D1D"/>
<path d="M195.089 170.137C189.314 166.854 178.429 168.201 178.381 171.026C178.334 173.851 177.412 174.551 176.047 175.209C174.683 175.868 173.366 174.716 169.739 175.197C164.115 175.943 166.427 179.416 163.183 183.784C163.183 183.784 208.294 276.813 236.915 327.851L261.828 321.281C256.448 260.554 200.864 173.421 195.089 170.137Z" fill="#FAAA2F"/>
<path d="M225.04 216.264C225.424 220.19 206.937 214.848 200.501 215.372C194.065 215.895 187.694 236.779 186.872 234.685C207.293 275.957 218.24 295.243 237.715 329.268L261.822 321.285C251.187 277.285 244.033 253.57 225.04 216.264Z" fill="#8E1A15"/>
<path d="M240.832 249.906C234.624 244.751 234.363 269.841 221.314 257.289C216.723 261.038 222.954 265.667 213.284 264.73C212.71 271.121 209.697 267.901 205.175 269.36L238.067 330.549L261.886 321.255C261.886 321.255 247.04 255.061 240.832 249.906Z" fill="#D01F17"/>
<path d="M251.152 277.63C246.972 281.295 244.042 280.429 238.572 277.672C233.738 281.138 230.726 282.639 223.315 282.324C223.22 288.152 221.032 289.384 216.533 291.02L240.834 336.229L264.725 326.325L251.152 277.63Z" fill="#3882A6"/>
<path d="M261.522 323.049C257.736 298.506 246.11 260.415 228.009 224.062C197.862 163.518 161.266 127.684 151.859 131.929C142.451 136.174 161.012 181.283 191.159 241.827C208.558 276.769 225.313 309.058 238.18 329.301" stroke="black" stroke-width="5"/>
<path d="M165.364 204.825C159.372 202.54 148.731 205.171 148.929 207.777C149.128 210.383 148.277 211.145 146.986 211.926C145.694 212.706 144.293 211.814 140.751 212.72C135.257 214.125 138.134 217.883 135.307 222.318C135.307 222.318 187.681 301.331 220.402 344.654L243.518 332.1C232.926 276.89 171.357 207.11 165.364 204.825Z" fill="#FAAA2F"/>
<path d="M198.973 243.458C199.693 247.023 180.958 244.466 174.643 245.77C168.327 247.074 163.845 267.111 162.851 265.289C186.618 300.67 199.112 317.024 221.315 345.856L243.518 332.101C229.185 292.958 220.984 275.371 198.973 243.458Z" fill="#8E1A15"/>
<path d="M217.502 272.408C210.919 268.456 212.84 291.584 198.853 281.696C194.642 285.733 201.202 289.199 191.564 289.571C191.551 295.527 188.294 292.949 183.952 294.869L221.775 346.991L243.518 332.1C243.518 332.1 224.085 276.36 217.502 272.408Z" fill="#D01F17"/>
<path d="M228.591 294.516C224.729 298.356 221.826 298.026 216.341 296.408C211.83 300.169 208.983 301.934 201.746 302.75C201.988 307.889 199.926 309.295 195.638 311.398L221.891 347.577L244.01 331.591L228.591 294.516Z" fill="#3882A6"/>
<path d="M136.857 181.174C128.147 177.081 125.595 171.585 118.277 176.008C110.96 180.432 118.981 187.237 122.905 198.809C127.332 211.863 138.045 227.124 138.045 227.124L157.581 215.432L165.662 206.087C165.662 206.087 153.854 189.16 136.857 181.174Z" fill="#D58D1D"/>
<path d="M165.364 204.825C159.372 202.541 148.731 205.171 148.929 207.777C149.128 210.383 148.277 211.145 146.986 211.926C145.694 212.706 144.293 211.814 140.751 212.72C135.257 214.125 137.844 217.026 135.016 221.461C135.016 221.461 187.681 301.331 220.402 344.654L243.518 332.1C232.926 276.89 171.357 207.11 165.364 204.825Z" fill="#FAAA2F"/>
<path d="M198.973 243.458C199.693 247.023 180.958 244.466 174.643 245.77C168.327 247.074 163.845 267.111 162.851 265.289C186.618 300.67 199.112 317.024 221.315 345.856L243.018 332.108C228.685 292.965 220.984 275.371 198.973 243.458Z" fill="#8E1A15"/>
<path d="M217.502 272.408C210.919 268.456 212.84 291.584 198.853 281.696C194.642 285.733 201.202 289.199 191.564 289.571C191.551 295.527 188.294 292.948 183.952 294.868L221.775 346.991L243.51 331.6C243.51 331.6 224.085 276.36 217.502 272.408Z" fill="#D01F17"/>
<path d="M223.505 282.05C223.505 290.049 221.327 297.339 215.632 295.432C211.166 299.254 208.32 301.021 200.932 301.628C201.399 307.078 199.344 308.493 195.035 310.568L223.505 349.802L245.542 334.192C245.542 334.192 223.505 274.05 223.505 282.05Z" fill="#3882A6"/>
<path d="M245.022 335.55C239.148 313.442 223.631 281.406 202.584 250.256C167.53 198.377 128.249 170.067 119.32 175.176C110.392 180.285 132.654 219.436 167.708 271.315C187.939 301.256 207.302 328.837 221.777 345.827" stroke="black" stroke-width="5"/>
<path d="M124.595 233.772C118.22 233.073 108.586 238.302 109.436 240.774C110.285 243.246 109.654 244.198 108.602 245.279C107.549 246.36 105.968 245.85 102.768 247.62C97.8066 250.366 101.539 253.277 99.9222 258.281C99.9222 258.281 170.534 321.527 213.125 355.196L234.07 340.199C209.893 289.445 130.97 234.471 124.595 233.772Z" fill="#FAAA2F"/>
<path d="M166.861 262.677C168.458 265.945 149.684 268.198 143.902 271.052C138.12 273.907 138.836 294.427 137.415 292.914C169.338 321.156 185.554 333.829 214.312 356.128L234.066 340.203C210.323 305.942 196.211 288.007 166.861 262.677Z" fill="#8E1A15"/>
<path d="M192.094 286.017C184.727 283.854 192.42 305.749 176.392 299.709C173.335 304.678 180.557 306.377 171.325 309.169C172.815 314.935 169.012 313.261 165.295 316.215L215.043 357.11L234.115 340.154C234.115 340.154 199.462 288.181 192.094 286.017Z" fill="#D01F17"/>
<path d="M208.402 304.613C205.633 309.303 202.74 309.716 197.025 309.534C193.609 314.312 191.299 316.738 184.502 319.353C186.032 324.265 184.392 326.146 180.773 329.262L215.303 357.649L234.186 340.084L208.402 304.613Z" fill="#3882A6"/>
<path d="M91.0437 218.077C81.5827 216.314 77.7263 211.639 71.7615 217.765C65.7968 223.891 75.2744 228.453 81.9913 238.661C89.5679 250.176 103.784 262.241 103.784 262.241L119.739 245.999L125.201 234.918C125.201 234.918 109.505 221.517 91.0437 218.077Z" fill="#D58D1D"/>
<path d="M124.595 233.772C118.22 233.073 108.586 238.302 109.436 240.774C110.285 243.246 109.654 244.198 108.602 245.279C107.549 246.36 105.968 245.85 102.768 247.62C97.8066 250.366 101.042 252.52 99.4248 257.525C99.4248 257.525 170.534 321.527 213.125 355.196L234.07 340.199C209.893 289.445 130.97 234.471 124.595 233.772Z" fill="#FAAA2F"/>
<path d="M166.861 262.677C168.458 265.945 149.684 268.198 143.902 271.052C138.12 273.907 138.836 294.427 137.415 292.914C169.338 321.156 185.554 333.829 214.312 356.128L234.066 340.203C210.323 305.942 196.211 288.007 166.861 262.677Z" fill="#8E1A15"/>
<path d="M192.094 286.017C184.727 283.854 192.42 305.749 176.392 299.709C173.335 304.678 180.557 306.377 171.325 309.169C172.815 314.935 169.012 313.261 165.295 316.215L215.043 357.11L234.115 340.154C234.115 340.154 199.462 288.181 192.094 286.017Z" fill="#D01F17"/>
<path d="M205.837 302.506C203.146 307.258 200.147 307.584 194.181 307.196C190.818 312.017 188.509 314.445 181.532 316.911C183.33 322.044 181.699 323.931 178.054 327.028L215.228 357.587L234.186 340.084L205.837 302.506Z" fill="#3882A6"/>
<path d="M233.277 341.017C222.016 321.106 200.296 293.179 172.071 268.345C125.064 226.987 79.9122 209.501 72.5611 216.697C65.2099 223.893 96.6278 256.162 143.635 297.521C170.764 321.39 196.459 343.194 214.752 355.984" stroke="black" stroke-width="5"/>
<path d="M89.6563 269.275C83.282 269.982 75.0194 277.185 76.3872 279.412C77.7549 281.64 77.3466 282.706 76.5546 283.99C75.7627 285.275 74.1087 285.122 71.3717 287.546C67.1272 291.307 71.4046 293.335 70.9168 298.572C70.9168 298.572 157.605 339.116 206.509 362.696L219.69 349.292C185.036 305.026 96.0306 268.569 89.6563 269.275Z" fill="#FAAA2F"/>
<path d="M137.205 288.277C139.476 291.119 121.643 297.407 116.622 301.453C111.601 305.499 116.771 325.37 115.054 324.203C152.364 344.811 176.616 349.151 209.541 364.648L219.687 349.297C189.049 321.032 171.369 306.603 137.205 288.277Z" fill="#8E1A15"/>
<path d="M166.917 305.558C159.256 305.052 171.535 324.745 154.575 322.343C152.675 327.858 160.093 327.943 151.691 332.679C154.402 337.982 150.326 337.177 147.342 340.869L210.041 364.64L219.725 349.239C219.725 349.239 174.579 306.065 166.917 305.558Z" fill="#D01F17"/>
<path d="M186.885 320.154C185.205 325.335 182.471 326.368 176.853 327.436C174.561 332.843 172.834 335.714 166.771 339.747C169.334 344.208 169.756 344.006 166.902 347.837L209.533 364.148L219.778 349.154L186.885 320.154Z" fill="#3882A6"/>
<path d="M53.4914 261.267C43.8736 261.608 39.0913 257.886 34.6046 265.164C30.1179 272.443 40.3618 274.83 49.1415 283.329C59.045 292.917 75.5479 301.595 75.5479 301.595L87.5812 282.266L90.4977 270.262C90.4977 270.262 72.2587 260.603 53.4914 261.267Z" fill="#D58D1D"/>
<path d="M89.6563 269.275C83.282 269.982 75.0194 277.185 76.3872 279.412C77.7549 281.64 77.3466 282.706 76.5546 283.99C75.7627 285.275 74.1087 285.122 71.3717 287.546C67.1272 291.307 70.7543 292.705 70.2665 297.942C74.3012 305.068 165.306 349.638 208.517 363.164L219.69 349.292C185.036 305.026 96.0306 268.569 89.6563 269.275Z" fill="#FAAA2F"/>
<path d="M137.205 288.277C139.476 291.119 121.643 297.407 116.622 301.453C111.601 305.499 116.771 325.37 115.054 324.203C152.364 344.811 176.616 349.151 209.541 364.648L219.687 349.297C189.049 321.032 171.369 306.603 137.205 288.277Z" fill="#8E1A15"/>
<path d="M166.917 305.558C159.256 305.052 171.535 324.745 154.575 322.343C152.675 327.858 160.093 327.943 151.691 332.679C154.402 337.982 150.326 337.177 147.342 340.869L210.541 364.632L219.725 349.239C219.725 349.239 174.579 306.065 166.917 305.558Z" fill="#D01F17"/>
<path d="M182.84 318.107C181.28 323.349 178.38 324.298 172.368 325.166C170.158 330.615 168.435 333.488 162.088 337.377C165.073 342.051 165.518 341.861 162.625 345.672L211.025 363.623L219.765 349.147L182.84 318.107Z" fill="#3882A6"/>
<path d="M221.022 351.549C205.693 334.57 176.482 310.76 143.525 292.674C88.6355 262.551 40.7588 255.323 35.1521 263.948C29.5455 272.572 67.2396 297.221 122.129 327.344C152.801 343.052 208.285 361.556 231.022 373.548" stroke="black" stroke-width="5"/>
<path d="M592.845 278.563C598.958 279.848 606.059 287.6 604.435 289.628C602.812 291.655 603.069 292.726 603.672 294.044C604.275 295.362 605.905 295.37 608.252 297.976C611.892 302.016 607.462 303.576 607.25 308.692C607.25 308.692 520.666 345.759 469.963 363.977L455.759 343.769C495.299 304.182 586.731 277.278 592.845 278.563Z" fill="#FAAA2F"/>
<path d="M544.061 292.477C541.478 295.014 558.016 302.783 562.374 307.173C566.732 311.564 559.095 330.313 560.919 329.345C521.893 345.779 502.639 352.58 468.552 364.479L455.761 343.775C489.294 319.3 508.398 306.997 544.061 292.477Z" fill="#8E1A15"/>
<path d="M512.869 306.405C520.394 306.637 505.859 324.545 522.685 323.818C523.813 329.337 516.579 328.719 524.139 334.096C520.805 338.975 524.878 338.58 527.3 342.436L467.544 365.165L455.732 343.714C455.732 343.714 505.343 306.173 512.869 306.405Z" fill="#D01F17"/>
<path d="M491.516 318.653C492.473 323.827 494.998 325.085 500.328 326.648C501.852 332.099 503.156 335.041 508.531 339.517C505.451 343.594 506.323 345.829 508.599 349.807L467.121 365.584L455.69 343.627L491.516 318.653Z" fill="#3882A6"/>
<path d="M629.105 274.22C638.424 275.456 643.568 272.304 646.982 279.773C650.396 287.242 640.11 288.588 630.448 295.988C619.55 304.336 602.346 311.182 602.346 311.182L593.163 291.335L591.897 279.438C591.897 279.438 610.92 271.807 629.105 274.22Z" fill="#D58D1D"/>
<path d="M592.845 278.563C598.958 279.848 606.059 287.6 604.435 289.628C602.812 291.655 603.069 292.726 603.672 294.044C604.275 295.362 605.905 295.37 608.252 297.976C611.892 302.016 608.177 303.028 607.966 308.144C607.966 308.144 520.666 345.759 469.963 363.977L455.759 343.769C495.299 304.182 586.731 277.278 592.845 278.563Z" fill="#FAAA2F"/>
<path d="M544.061 292.477C541.478 295.014 558.016 302.783 562.374 307.173C566.732 311.564 559.095 330.313 560.919 329.345C521.893 345.779 502.639 352.58 468.552 364.479L455.761 343.775C489.294 319.3 508.398 306.997 544.061 292.477Z" fill="#8E1A15"/>
<path d="M512.869 306.405C520.394 306.637 505.859 324.545 522.685 323.818C523.813 329.337 516.579 328.719 524.139 334.096C520.805 338.975 524.878 338.58 527.3 342.436L467.544 365.165L455.732 343.714C455.732 343.714 505.343 306.173 512.869 306.405Z" fill="#D01F17"/>
<path d="M495.346 317.196C496.189 322.413 498.873 323.612 504.576 325.032C506.021 330.513 507.323 333.457 512.967 337.83C509.486 342.059 510.346 344.299 512.659 348.263L467.234 365.541L455.69 343.627L495.346 317.196Z" fill="#3882A6"/>
<path d="M456.211 344.766C473.36 329.773 502.875 310.54 537.332 296.137C594.72 272.149 642.28 269.666 646.608 278.544C650.936 287.423 611.007 307.731 553.62 331.719C520.5 345.563 487.73 358.77 466.522 365.05" stroke="black" stroke-width="5"/>
<path d="M203.464 114.473C196.075 107.878 190.7 96.4232 183.012 99.325C175.324 102.227 185.596 120.001 188.871 132.902C192.624 147.686 201.737 169.8 201.737 169.8L224.35 161.269L233.68 153.275C233.68 153.275 217.881 127.342 203.464 114.473Z" fill="#D58D1D"/>
<path d="M233.639 151.843C228.456 147.876 217.992 148.012 217.687 150.861C217.381 153.71 216.441 154.314 215.084 154.826C213.728 155.338 212.583 154.026 209.094 154.104C203.682 154.224 203.656 160.422 200.172 164.47C200.172 164.47 236.364 261.114 258.854 315.903L283.123 312.068C283.602 250.104 238.822 155.81 233.639 151.843Z" fill="#FAAA2F"/>
<path d="M257.844 201.819C257.847 205.829 240.778 198.352 234.616 198.157C228.454 197.962 220.48 218.346 219.893 216.138C235.491 260.137 244.115 280.854 259.483 317.425L283.117 312.07C277.065 266.416 272.451 241.65 257.844 201.819Z" fill="#8E1A15"/>
<path d="M269.749 237.587C264.326 231.68 261.769 257.002 250.529 242.851C245.823 246.123 251.315 251.501 242.217 249.467C241.083 255.859 238.517 252.267 234.088 253.232L259.7 318.759L283.181 312.048C283.181 312.048 275.171 243.494 269.749 237.587Z" fill="#D01F17"/>
<path d="M275.971 264.129C271.63 267.277 268.972 266.189 264.139 263.066C259.205 265.967 256.205 267.142 249.272 266.19C248.53 271.77 246.334 272.76 241.92 273.935L259.698 319.418L283.271 312.015L275.971 264.129Z" fill="#3882A6"/>
<path d="M203.464 114.473C196.075 107.878 190.7 96.4232 183.012 99.325C175.324 102.227 185.596 120.001 188.871 132.902C192.624 147.686 201.737 169.8 201.737 169.8L224.35 161.269L233.68 153.275C233.68 153.275 217.881 127.342 203.464 114.473Z" fill="#D58D1D"/>
<path d="M233.639 151.843C228.456 147.876 217.992 148.012 217.687 150.861C217.381 153.71 216.441 154.314 215.084 154.826C213.728 155.338 212.583 154.026 209.094 154.104C203.682 154.224 203.656 160.422 200.172 164.47C200.172 164.47 236.364 261.114 258.854 315.903L283.123 312.068C283.602 250.104 238.822 155.81 233.639 151.843Z" fill="#FAAA2F"/>
<path d="M257.844 201.819C257.847 205.829 240.778 198.352 234.616 198.157C228.454 197.962 220.48 218.346 219.893 216.138C235.491 260.137 244.115 280.854 259.483 317.425L283.117 312.07C277.065 266.416 272.451 241.65 257.844 201.819Z" fill="#8E1A15"/>
<path d="M269.749 237.587C264.326 231.68 261.769 257.002 250.529 242.851C245.823 246.123 251.315 251.501 242.217 249.467C241.083 255.859 238.517 252.267 234.088 253.232L259.7 318.759L283.181 312.048C283.181 312.048 275.171 243.494 269.749 237.587Z" fill="#D01F17"/>
<path d="M276.275 264.906C271.991 268.2 269.254 266.91 264.233 263.307C259.338 266.308 256.34 267.488 249.272 266.19C248.731 272.284 246.541 273.289 242.108 274.416L261.864 324.958L285.493 317.7L276.275 264.906Z" fill="#3882A6"/>
<path d="M284.522 318.049C283.184 292.824 273.794 248.797 259.946 210.029C236.881 145.464 192.295 96.3367 182.968 99.5677C173.641 102.799 200.242 159.269 223.307 223.834C236.618 261.097 252.162 303.647 262.522 325.549" stroke="black" stroke-width="5"/>
<path d="M246.67 93.2112C239.723 85.691 235.33 73.3699 227.133 75.593C218.937 77.8161 227.74 97.1265 229.829 110.728C232.223 126.314 239.404 149.975 239.404 149.975L263.513 143.44L273.904 136.14C273.904 136.14 260.225 107.885 246.67 93.2112Z" fill="#D58D1D"/>
<path d="M274.02 135.66C269.082 131.063 258.304 130.165 257.707 133.067C257.111 135.968 256.084 136.496 254.637 136.888C253.19 137.28 252.143 135.816 248.546 135.55C242.967 135.138 242.325 141.512 238.339 145.333C238.339 145.333 265.983 248.378 283.683 306.992L309.03 305.453C315.671 241.736 278.959 140.257 274.02 135.66Z" fill="#FAAA2F"/>
<path d="M293.963 189.493C293.568 193.62 276.75 184.23 270.431 183.418C264.112 182.606 253.886 202.791 253.501 200.461C265.182 247.287 271.998 269.463 284.179 308.621L309.024 305.457C307.327 257.875 305.038 231.931 293.963 189.493Z" fill="#8E1A15"/>
<path d="M302.661 227.482C297.668 220.865 292.525 246.669 282.367 230.991C277.201 233.89 282.317 239.971 273.159 236.974C271.358 243.439 269.076 239.489 264.423 240.042L284.271 310.015L309.092 305.44C309.092 305.44 307.653 234.098 302.661 227.482Z" fill="#D01F17"/>
<path d="M306.661 256.23C301.927 259.193 299.24 257.596 294.434 253.397C289.101 255.998 285.899 256.915 278.758 254.883C277.595 261.092 275.242 261.909 270.571 262.63L285.859 316.531L310.887 311.405L318.727 308.534L313.437 283.514L306.661 256.23Z" fill="#3882A6"/>
<path d="M315.522 311.049C313.522 285.049 305.711 239.419 295.31 198.151C277.989 129.419 236.996 74.439 227.08 76.8382C217.165 79.2373 238.928 139.989 256.249 208.72C266.246 248.387 280.038 293.482 288.522 317.049" stroke="black" stroke-width="5"/>
<path d="M209.522 364.051C269.022 296.048 435.092 282.168 468.022 364.05" stroke="black" stroke-width="5"/>
<path d="M306.769 254.029C312.164 255.55 314.277 253.3 317.667 248C323.531 249.014 326.865 249.009 333.12 245.13C336.033 250.709 338.523 250.842 343.209 250.251L344.162 307.626L318.693 309.592L306.769 254.029Z" fill="#3882A6"/>
<path d="M321.022 310.049C312.393 284.304 302.815 237.432 300.841 193.205C297.554 119.546 320.932 52.8183 331.129 52.3632C341.326 51.9081 338.048 118.871 341.335 192.53C343.232 235.04 344.334 282.561 343.022 308.549" stroke="black" stroke-width="5"/>
<path d="M375.845 308.296C374.397 283.003 377.732 240.257 387.229 200.064C403.048 133.124 441.96 79.1658 451.588 81.3433C461.215 83.5207 440.99 142.786 425.172 209.726C416.043 248.359 405.732 289.804 397.845 312.795" stroke="black" stroke-width="5"/>
<path d="M317.366 75.3625C321.847 65.8501 322.492 52.2753 330.991 52.1386C339.49 52.0019 336.64 73.8293 338.574 88.0204C340.789 104.283 340.754 129.991 340.754 129.991L315.758 130.396L303.686 126.091C303.686 126.091 308.621 93.9241 317.366 75.3625Z" fill="#D58D1D"/>
<path d="M303.163 124.642C306.566 118.628 316.635 114.63 318.047 117.358C319.458 120.085 320.595 120.317 322.095 120.293C323.595 120.268 324.175 118.505 327.545 117.204C332.773 115.187 335.232 121.372 340.158 124.042C340.158 124.042 343.482 234.956 343.478 298.614L318.741 304.369C293.94 242.613 299.76 130.656 303.163 124.642Z" fill="#FAAA2F"/>
<path d="M299.627 184.166C301.199 188.177 314.6 173.957 320.422 171.328C326.243 168.698 341.884 185.926 341.579 183.486C343.933 233.634 343.817 257.753 343.474 300.384L318.748 304.369C306.606 256.338 301.292 229.757 299.627 184.166Z" fill="#8E1A15"/>
<path d="M302.284 224.64C305.153 216.536 317.551 241.013 322.748 222.294C328.538 223.716 325.395 231.317 333.304 225.648C336.902 231.634 337.946 226.997 342.564 226.206L343.799 302.37L318.687 304.954C318.687 304.954 299.415 232.745 302.284 224.64Z" fill="#D01F17"/>
<path d="M229.022 372.048C293.022 318.549 399.086 304.275 468.522 365.55" stroke="black" stroke-width="5"/>
<path d="M381.531 81.4568C387.505 73.1433 390.358 60.3773 398.765 61.5809C407.172 62.7846 400.797 83.027 400.387 96.7816C399.918 112.544 395.686 136.906 395.686 136.906L370.959 133.369L359.752 127.395C359.752 127.395 369.873 97.679 381.531 81.4568Z" fill="#D58D1D"/>
<path d="M359.472 125.94C363.811 120.773 374.399 118.563 375.346 121.37C376.293 124.177 377.377 124.574 378.86 124.787C380.344 124.999 381.204 123.418 384.742 122.714C390.228 121.622 391.645 127.87 396.069 131.174C396.069 131.174 381.239 236.827 370.842 297.166L345.497 298.74C331.112 236.314 355.133 131.106 359.472 125.94Z" fill="#FAAA2F"/>
<path d="M346.266 181.807C347.162 185.854 362.705 174.478 368.878 172.899C375.05 171.32 387.668 190.103 387.766 187.743C381.9 235.646 377.848 258.489 370.549 298.843L345.504 298.742C341.367 251.31 340.465 225.281 346.266 181.807Z" fill="#8E1A15"/>
<path d="M342.28 220.574C346.426 213.396 354.687 238.377 362.851 221.574C368.333 223.82 363.999 230.48 372.721 226.385C375.3 232.582 377.082 228.382 381.767 228.362L370.629 300.237L345.435 298.733C345.435 298.733 338.135 227.752 342.28 220.574Z" fill="#D01F17"/>
<path d="M341.957 248.756C347.043 250.959 349.481 249.265 353.656 245.029C359.284 246.849 362.575 247.362 369.355 244.846C371.356 250.31 373.793 250.816 378.51 251.012L370.779 300.902L345.336 298.72L341.957 248.756Z" fill="#3882A6"/>
<path d="M381.531 81.4568C387.505 73.1433 390.358 60.3773 398.765 61.5809C407.172 62.7846 400.797 83.027 400.387 96.7816C399.918 112.544 395.686 136.906 395.686 136.906L370.959 133.369L359.752 127.395C359.752 127.395 369.873 97.679 381.531 81.4568Z" fill="#D58D1D"/>
<path d="M359.472 125.94C363.811 120.773 374.399 118.563 375.346 121.37C376.293 124.177 377.377 124.574 378.86 124.787C380.344 124.999 381.204 123.418 384.742 122.714C390.228 121.622 391.645 127.87 396.069 131.174C396.069 131.174 381.239 236.827 370.842 297.166L345.497 298.74C331.112 236.314 355.133 131.106 359.472 125.94Z" fill="#FAAA2F"/>
<path d="M346.266 181.807C347.162 185.854 362.705 174.478 368.878 172.899C375.05 171.32 387.668 190.103 387.766 187.743C381.9 235.646 377.848 258.489 370.549 298.843L345.504 298.742C341.367 251.31 340.465 225.281 346.266 181.807Z" fill="#8E1A15"/>
<path d="M342.28 220.574C346.426 213.396 354.687 238.377 362.851 221.574C368.333 223.82 363.999 230.48 372.721 226.385C375.3 232.582 377.082 228.382 381.767 228.362L370.629 300.237L345.435 298.733C345.435 298.733 338.135 227.752 342.28 220.574Z" fill="#D01F17"/>
<path d="M341.809 249.713C346.867 252.096 349.343 250.152 353.61 245.325C359.219 247.269 362.509 247.788 369.355 244.846C371.258 250.943 373.692 251.468 378.418 251.605L369.721 307.726L344.251 305.722L341.809 249.713Z" fill="#3882A6"/>
<path d="M347.522 307.049C343.212 281.292 340.714 232.796 345.987 190.565C354.77 120.23 388.73 60.6482 398.864 61.8163C408.998 62.9845 394.831 125.942 386.048 196.276C380.979 236.868 375.059 282.621 369.522 307.049" stroke="black" stroke-width="5"/>
<path d="M432.87 97.4276C439.482 90.0543 443.555 78.0745 451.517 80.1064C459.479 82.1383 451.24 100.942 449.415 114.126C447.324 129.235 440.718 152.223 440.718 152.223L417.299 146.25L407.14 139.339C407.14 139.339 419.967 111.815 432.87 97.4276Z" fill="#D58D1D"/>
<path d="M407.022 138.911C411.734 134.394 422.148 133.37 422.767 136.167C423.386 138.965 424.388 139.46 425.793 139.819C427.198 140.177 428.19 138.746 431.667 138.437C437.058 137.958 437.771 144.114 441.682 147.751C441.682 147.751 416.424 247.811 400.144 304.755L375.599 303.632C368.256 242.103 402.31 143.428 407.022 138.911Z" fill="#FAAA2F"/>
<path d="M388.505 191.262C388.946 195.248 405.081 185.924 411.184 185.048C417.286 184.171 427.47 203.546 427.809 201.287C417.182 246.743 410.908 268.289 399.688 306.337L375.606 303.635C376.561 257.591 378.401 232.466 388.505 191.262Z" fill="#8E1A15"/>
<path d="M380.638 228.129C385.372 221.657 390.72 246.54 400.322 231.23C405.362 233.96 400.499 239.914 409.317 236.884C411.152 243.111 413.304 239.257 417.813 239.726L399.62 307.687L375.54 303.619C375.54 303.619 375.903 234.6 380.638 228.129Z" fill="#D01F17"/>
<path d="M377.394 255.197C382.058 257.845 384.579 256.469 389.036 252.83C394.261 255.165 397.373 256.001 404.157 254.287C405.514 259.75 407.806 260.49 412.322 261.169L399.695 308.342L375.446 303.597L377.394 255.197Z" fill="#3882A6"/>
<path d="M407.022 138.911C411.734 134.394 422.148 133.37 422.767 136.167C423.386 138.965 424.388 139.46 425.793 139.819C427.198 140.177 428.19 138.746 431.667 138.437C437.058 137.958 437.771 144.114 441.682 147.751C441.682 147.751 416.424 247.811 400.144 304.755L375.599 303.632C368.256 242.103 402.31 143.428 407.022 138.911Z" fill="#FAAA2F"/>
<path d="M388.505 191.262C388.946 195.248 405.081 185.924 411.184 185.048C417.286 184.171 427.47 203.546 427.809 201.287C417.182 246.743 410.908 268.289 399.688 306.337L375.606 303.635C376.561 257.591 378.401 232.466 388.505 191.262Z" fill="#8E1A15"/>
<path d="M380.638 228.129C385.372 221.657 390.72 246.54 400.322 231.23C405.362 233.96 400.499 239.914 409.317 236.884C411.152 243.111 413.304 239.257 417.813 239.726L399.62 307.687L375.54 303.619C375.54 303.619 375.903 234.6 380.638 228.129Z" fill="#D01F17"/>
<path d="M377.256 255.713C381.894 258.458 384.451 256.947 388.993 252.99C394.2 255.392 397.312 256.231 404.157 254.287C405.422 260.091 407.711 260.841 412.237 261.489L398.71 312.021L374.436 307.372L377.256 255.713Z" fill="#3882A6"/>
<path d="M454.351 143.028C459.666 139.169 470.181 139.579 470.412 142.455C470.644 145.331 471.573 145.962 472.923 146.513C474.273 147.064 475.459 145.773 478.964 145.942C484.4 146.205 482.276 150.947 485.672 155.113C485.672 155.113 448.729 252.952 424.677 307.52L400.383 303.027C401.537 240.64 449.036 146.887 454.351 143.028Z" fill="#FAAA2F"/>
<path d="M428.702 192.707C428.593 196.744 445.948 189.661 452.147 189.625C458.346 189.589 465.823 210.316 466.472 208.109C449.632 251.993 440.417 272.624 424.005 309.037L400.389 303.032C407.678 257.233 412.968 232.422 428.702 192.707Z" fill="#8E1A15"/>
<path d="M415.793 228.402C421.399 222.597 423.302 248.154 434.973 234.201C439.616 237.617 433.954 242.888 443.154 241.077C444.125 247.541 446.798 243.993 451.225 245.079L423.751 310.373L400.326 303.007C400.326 303.007 410.186 234.207 415.793 228.402Z" fill="#D01F17"/>
<path d="M408.837 254.959C413.118 258.241 415.818 257.215 420.759 254.197C425.642 257.244 428.626 258.506 435.62 257.728C436.219 263.364 438.4 264.417 442.806 265.715L423.735 311.037L400.236 302.972L408.837 254.959Z" fill="#3882A6"/>
<path d="M477.576 110.792C485.177 104.346 486.712 97.7903 494.364 100.911C502.015 104.032 495.505 113.266 493.647 126.734C491.551 141.927 483.85 160.961 483.85 160.961L463.44 152.757L454.273 144.467C454.273 144.467 462.744 123.372 477.576 110.792Z" fill="#D58D1D"/>
<path d="M454.351 143.028C459.666 139.169 470.181 139.579 470.412 142.455C470.644 145.331 471.573 145.962 472.923 146.513C474.273 147.064 475.459 145.773 478.964 145.942C484.4 146.205 482.414 149.95 485.809 154.116C485.809 154.116 448.729 252.952 424.677 307.52L400.383 303.027C401.537 240.64 449.036 146.887 454.351 143.028Z" fill="#FAAA2F"/>
<path d="M431.291 193.557C431.08 197.552 447.511 190.093 453.313 189.895C459.114 189.697 465.551 209.999 466.218 207.799C449.273 251.641 440.092 272.286 423.751 308.727L401.814 303.407C409.873 257.922 415.494 233.247 431.291 193.557Z" fill="#8E1A15"/>
<path d="M415.793 228.402C421.399 222.597 423.302 248.154 434.973 234.201C439.616 237.617 433.954 242.888 443.154 241.077C444.125 247.541 446.798 243.993 451.225 245.079L423.751 310.373L400.326 303.007C400.326 303.007 410.186 234.207 415.793 228.402Z" fill="#D01F17"/>
<path d="M408.366 256.077C412.558 259.57 415.382 258.252 420.613 254.543C425.435 257.736 428.417 259.003 435.62 257.727C435.908 264.104 438.079 265.179 442.514 266.409L420.377 319.018L396.79 311.161L408.366 256.077Z" fill="#3882A6"/>
<path d="M494.327 164.021C494.35 147.643 510.475 163.179 510.267 166.012C510.058 168.844 510.88 169.606 512.129 170.355C513.378 171.105 514.744 170.038 518.178 170.759C523.504 171.877 520.688 176.15 523.406 180.739C523.406 180.739 472.09 269.992 440.065 319.223L416.769 311.001C434.743 270.924 494.304 180.399 494.327 164.021Z" fill="#FAAA2F"/>
<path d="M466.022 206.047C465.301 209.954 478.953 208.021 485.077 208.97C491.201 209.918 495.435 231.254 496.41 229.211C473.126 269.202 460.898 287.796 439.171 320.591L417.522 315.048C447.522 252.548 451.522 239.048 466.022 206.047Z" fill="#8E1A15"/>
<path d="M450.194 245.031C456.095 239.969 452.04 263.883 464.737 251.607C467.816 255.072 461.985 259.634 469.972 258.511C469.35 264.59 472.336 261.45 475.748 262.733L438.718 321.85L421.018 313.554C421.018 313.554 444.292 250.092 450.194 245.031Z" fill="#D01F17"/>
<path d="M442.022 262.546C445.749 266.416 438.958 268.914 444.293 266.764C448.65 270.501 451.404 272.201 458.425 272.555C458.161 278.129 460.154 279.499 464.305 281.459L438.602 322.493L416.631 310.924L442.022 262.546Z" fill="#3882A6"/>
<path d="M522.145 136.367C530.626 131.306 533.136 125.177 540.214 129.425C547.293 133.673 539.465 141.616 535.586 154.415C531.211 168.852 520.72 186.134 520.72 186.134L501.821 174.92L494.031 165.407C494.031 165.407 505.596 146.243 522.145 136.367Z" fill="#D58D1D"/>
<path d="M485.022 170.169C489.293 163.296 514.661 163.64 514.214 166.366C513.768 169.091 514.392 169.743 515.38 170.343C516.367 170.944 517.627 169.798 520.47 170.169C524.879 170.744 522.418 174.156 524.286 178.289C524.286 178.289 471.937 269.242 440.093 319.241L421.124 313.54C437.233 259.842 480.751 177.042 485.022 170.169Z" fill="#FAAA2F"/>
<path d="M467.467 211.845C466.535 215.626 482.836 210.351 488.141 210.808C493.446 211.265 495.534 231.314 496.547 229.294C473.047 269.155 460.89 287.791 439.308 320.673L420.373 313.166C436.107 270.751 445.778 247.88 467.467 211.845Z" fill="#8E1A15"/>
<path d="M450.101 244.975C456.01 239.917 451.982 263.848 464.692 251.579C467.784 255.053 461.946 259.61 469.95 258.498C469.337 264.582 472.326 261.443 475.748 262.733L438.718 321.85L420.96 313.519C420.96 313.519 444.192 250.033 450.101 244.975Z" fill="#D01F17"/>
<path d="M439.2 270.368C441.824 273.704 444.307 272.755 449.157 269.894C452.336 273.013 454.441 274.327 460.37 273.723C459.353 279.295 460.856 280.385 464.113 281.767L436.392 326.022L416.022 317.046L439.2 270.368Z" fill="#3882A6"/>
<path d="M438.723 320.59C452.877 301.163 471.84 269.929 491.659 236.079C526 177.428 547.846 133.472 539.207 128.6C531.677 124.354 501.859 147.245 471.522 192.546" stroke="black" stroke-width="5"/>
<path d="M536.076 191.841C542.361 190.12 552.08 194.15 551.326 196.888C550.571 199.627 551.229 200.533 552.309 201.511C553.389 202.489 554.936 201.707 558.165 203.081C563.172 205.212 559.58 208.857 561.356 213.886C561.356 213.886 493.687 291.478 452.713 333.555L431.457 320.966C453.604 263.71 529.791 193.561 536.076 191.841Z" fill="#FAAA2F"/>
<path d="M495.256 228.845C493.791 232.538 512.452 232.019 518.275 234.138C524.098 236.257 524.109 258.01 525.463 256.195C494.857 290.904 479.252 306.77 451.571 334.722L431.461 320.972C453.758 281.176 467.096 260.084 495.256 228.845Z" fill="#8E1A15"/>
<path d="M471.101 257.35C478.317 253.932 471.471 278.212 487.123 269.37C490.323 274.14 483.235 277.045 492.47 278.566C491.198 284.877 494.902 282.526 498.685 285.067L450.882 335.87L431.41 320.927C431.41 320.927 463.885 260.768 471.101 257.35Z" fill="#D01F17"/>
<path d="M455.613 279.478C458.518 283.998 461.395 283.987 467.046 282.914C470.594 287.426 472.967 289.629 479.785 291.339C478.443 296.755 480.132 298.486 483.824 301.216L450.643 336.478L431.337 320.864L455.613 279.478Z" fill="#3882A6"/>
<path d="M568.733 170.114C578.035 166.796 581.688 161.27 587.807 166.812C593.926 172.354 584.705 178.626 578.415 190.428C571.32 203.741 557.674 218.658 557.674 218.658L541.311 203.987L535.516 193.142C535.516 193.142 550.582 176.589 568.733 170.114Z" fill="#D58D1D"/>
<path d="M536.076 191.841C542.361 190.12 552.08 194.15 551.326 196.888C550.571 199.627 551.229 200.533 552.309 201.511C553.389 202.489 554.936 201.707 558.165 203.081C563.172 205.212 560.046 207.983 561.822 213.012C561.822 213.012 493.687 291.478 452.713 333.555L431.457 320.966C453.604 263.71 529.791 193.561 536.076 191.841Z" fill="#FAAA2F"/>
<path d="M495.256 228.845C493.791 232.538 512.452 232.019 518.275 234.138C524.098 236.257 524.109 258.01 525.463 256.195C494.857 290.904 479.252 306.77 451.571 334.722L431.461 320.972C453.758 281.176 467.096 260.084 495.256 228.845Z" fill="#8E1A15"/>
<path d="M471.101 257.35C478.317 253.932 471.471 278.212 487.123 269.37C490.323 274.14 483.235 277.045 492.47 278.566C491.198 284.877 494.902 282.526 498.685 285.067L450.882 335.87L431.41 320.927C431.41 320.927 463.885 260.768 471.101 257.35Z" fill="#D01F17"/>
<path d="M457.131 277.865C459.991 282.433 462.931 282.356 468.73 281.125C472.247 285.67 474.618 287.874 481.544 289.47C480.043 295.056 481.727 296.792 485.434 299.506L450.688 336.431L431.337 320.864L457.131 277.865Z" fill="#3882A6"/>
<path d="M431.522 323.049C441.968 300.313 463.235 266.168 490.299 235.625C535.374 184.757 579.45 159.354 586.978 165.81C594.507 172.266 564.543 211.144 519.468 262.012C493.454 291.37 468.788 318.328 451.131 334.637" stroke="black" stroke-width="5"/>
<path d="M400.021 312.549C402.031 287.193 411.429 239.585 426.372 200.921C451.26 136.528 483.951 96.7557 493.241 100.251C502.53 103.746 487.724 151.377 462.837 215.771C448.473 252.934 426.513 295.272 415.522 317.049" stroke="black" stroke-width="5"/>
<path d="M560.025 233.746C566.241 233.13 575.347 238.383 574.41 240.806C573.472 243.228 574.041 244.172 575.012 245.247C575.984 246.322 577.541 245.838 580.564 247.616C585.251 250.373 581.497 253.195 582.836 258.137C582.836 258.137 511.438 319.562 468.578 352.206L448.946 337.215C474.726 287.557 553.808 234.362 560.025 233.746Z" fill="#FAAA2F"/>
<path d="M517.697 261.708C515.999 264.905 534.109 267.332 539.587 270.206C545.065 273.079 543.43 293.259 544.878 291.786C512.615 319.211 496.303 331.496 467.383 353.11L448.95 337.22C473.553 303.781 488.064 286.296 517.697 261.708Z" fill="#8E1A15"/>
<path d="M492.15 284.384C499.396 282.339 490.929 303.793 506.755 298.032C509.493 302.955 502.409 304.545 511.237 307.395C509.527 313.051 513.293 311.448 516.763 314.395L466.629 354.068L448.904 337.171C448.904 337.171 484.903 286.43 492.15 284.384Z" fill="#D01F17"/>
<path d="M475.477 302.496C477.948 307.141 480.736 307.58 486.289 307.465C489.383 312.204 491.513 314.617 497.987 317.266C496.278 322.081 497.782 323.95 501.151 327.057L466.352 354.595L448.838 337.101L475.477 302.496Z" fill="#3882A6"/>
<path d="M593.292 218.682C602.551 217.054 606.507 212.498 612.012 218.593C617.518 224.687 608.115 229.068 601.131 239.035C593.253 250.278 578.91 261.988 578.91 261.988L564.175 245.829L559.384 234.866C559.384 234.866 575.226 221.859 593.292 218.682Z" fill="#D58D1D"/>
<path d="M560.025 233.746C566.241 233.13 575.347 238.383 574.41 240.806C573.472 243.228 574.041 244.172 575.012 245.247C575.984 246.322 577.541 245.838 580.564 247.616C585.251 250.373 582.014 252.456 583.354 257.398C583.354 257.398 511.438 319.562 468.578 352.206L448.946 337.215C474.726 287.557 553.808 234.362 560.025 233.746Z" fill="#FAAA2F"/>
<path d="M517.697 261.708C515.999 264.905 534.109 267.332 539.587 270.206C545.065 273.079 543.43 293.259 544.878 291.786C512.615 319.211 496.303 331.496 467.383 353.11L448.95 337.22C473.553 303.781 488.064 286.296 517.697 261.708Z" fill="#8E1A15"/>
<path d="M492.15 284.384C499.396 282.339 490.929 303.793 506.755 298.032C509.493 302.955 502.409 304.545 511.237 307.395C509.527 313.051 513.293 311.448 516.763 314.395L466.629 354.068L448.904 337.171C448.904 337.171 484.903 286.43 492.15 284.384Z" fill="#D01F17"/>
<path d="M478.907 299.781C481.276 304.507 484.205 304.834 490.093 304.454C493.117 309.249 495.245 311.664 501.959 314.122C499.891 319.221 501.385 321.098 504.787 324.179L466.453 354.514L448.838 337.101L478.907 299.781Z" fill="#3882A6"/>
<path d="M448.522 338.049C460.358 318.588 483.865 291.337 512.384 267.224C559.881 227.065 604.484 210.371 611.285 217.534C618.087 224.696 586.13 256.089 538.633 296.248C511.221 319.425 485.295 340.586 466.963 352.963" stroke="black" stroke-width="5"/>
<path d="M195.089 170.137C189.314 166.854 178.429 168.201 178.381 171.026C178.334 173.851 177.412 174.551 176.047 175.209C174.683 175.868 173.366 174.716 169.739 175.197C164.115 175.943 166.637 180.376 163.392 184.744C163.392 184.744 208.294 276.813 236.915 327.851L261.828 321.281C256.448 260.554 200.864 173.421 195.089 170.137Z" fill="#FAAA2F"/>
<path d="M225.04 216.264C225.424 220.19 206.937 214.848 200.501 215.372C194.065 215.895 187.694 236.779 186.872 234.685C207.293 275.957 218.24 295.243 237.715 329.268L261.822 321.285C251.187 277.285 244.033 253.57 225.04 216.264Z" fill="#8E1A15"/>
<path d="M240.832 249.906C234.624 244.751 234.363 269.841 221.314 257.289C216.723 261.038 222.954 265.667 213.284 264.73C212.71 271.121 209.697 267.901 205.175 269.36L238.067 330.549L261.886 321.255C261.886 321.255 247.04 255.061 240.832 249.906Z" fill="#D01F17"/>
<path d="M249.831 275.173C245.609 278.759 242.737 278.002 237.407 275.504C232.544 278.916 229.53 280.415 222.22 280.287C221.976 285.836 219.783 287.06 215.297 288.722L238.128 331.195L261.977 321.213L249.831 275.173Z" fill="#3882A6"/>
<path d="M168.823 140.798C160.502 135.198 158.469 128.944 150.738 132.677C143.006 136.41 150.381 144.826 153.213 157.791C156.407 172.416 165.676 190.281 165.676 190.281L186.308 180.442L195.267 171.533C195.267 171.533 185.06 151.727 168.823 140.798Z" fill="#D58D1D"/>
<path d="M195.089 170.137C189.314 166.854 178.429 168.201 178.381 171.026C178.334 173.851 177.412 174.551 176.047 175.209C174.683 175.868 173.366 174.716 169.739 175.197C164.115 175.943 166.427 179.416 163.183 183.784C163.183 183.784 208.294 276.813 236.915 327.851L261.828 321.281C256.448 260.554 200.864 173.421 195.089 170.137Z" fill="#FAAA2F"/>
<path d="M225.04 216.264C225.424 220.19 206.937 214.848 200.501 215.372C194.065 215.895 187.694 236.779 186.872 234.685C207.293 275.957 218.24 295.243 237.715 329.268L261.822 321.285C251.187 277.285 244.033 253.57 225.04 216.264Z" fill="#8E1A15"/>
<path d="M240.832 249.906C234.624 244.751 234.363 269.841 221.314 257.289C216.723 261.038 222.954 265.667 213.284 264.73C212.71 271.121 209.697 267.901 205.175 269.36L238.067 330.549L261.886 321.255C261.886 321.255 247.04 255.061 240.832 249.906Z" fill="#D01F17"/>
<path d="M251.152 277.63C246.972 281.295 244.042 280.429 238.572 277.672C233.738 281.138 230.726 282.639 223.315 282.324C223.22 288.152 221.032 289.384 216.533 291.02L240.834 336.229L264.725 326.325L251.152 277.63Z" fill="#3882A6"/>
<path d="M261.522 323.049C257.736 298.506 246.11 260.415 228.009 224.062C197.862 163.518 161.266 127.684 151.859 131.929C142.451 136.174 161.012 181.283 191.159 241.827C208.558 276.769 225.313 309.058 238.18 329.301" stroke="black" stroke-width="5"/>
<path d="M165.364 204.826C159.372 202.541 148.731 205.172 148.929 207.778C149.128 210.384 148.277 211.146 146.986 211.927C145.694 212.707 144.293 211.815 140.751 212.721C135.257 214.126 138.134 217.884 135.307 222.319C135.307 222.319 187.681 301.332 220.402 344.655L243.518 332.101C232.926 276.891 171.357 207.111 165.364 204.826Z" fill="#FAAA2F"/>
<path d="M198.973 243.459C199.693 247.024 180.958 244.467 174.643 245.771C168.327 247.075 163.845 267.112 162.851 265.289C186.618 300.671 199.112 317.025 221.315 345.857L243.518 332.101C229.185 292.959 220.984 275.372 198.973 243.459Z" fill="#8E1A15"/>
<path d="M217.502 272.408C210.919 268.456 212.84 291.585 198.853 281.697C194.642 285.734 201.202 289.2 191.564 289.572C191.551 295.528 188.294 292.949 183.952 294.869L221.775 346.992L243.518 332.101C243.518 332.101 224.085 276.361 217.502 272.408Z" fill="#D01F17"/>
<path d="M228.591 294.517C224.729 298.357 221.826 298.027 216.341 296.409C211.83 300.17 208.983 301.935 201.746 302.751C201.988 307.89 199.926 309.296 195.638 311.399L221.891 347.578L244.01 331.592L228.591 294.517Z" fill="#3882A6"/>
<path d="M136.857 181.175C128.147 177.082 125.595 171.586 118.277 176.009C110.96 180.432 118.981 187.237 122.905 198.81C127.332 211.864 138.045 227.124 138.045 227.124L157.581 215.433L165.662 206.088C165.662 206.088 153.854 189.161 136.857 181.175Z" fill="#D58D1D"/>
<path d="M165.364 204.826C159.372 202.541 148.731 205.171 148.929 207.778C149.128 210.384 148.277 211.146 146.986 211.926C145.694 212.707 144.293 211.815 140.751 212.721C135.257 214.126 137.844 217.027 135.016 221.462C135.016 221.462 187.681 301.331 220.402 344.655L243.518 332.101C232.926 276.89 171.357 207.111 165.364 204.826Z" fill="#FAAA2F"/>
<path d="M198.973 243.459C199.693 247.024 180.958 244.467 174.643 245.771C168.327 247.075 163.845 267.112 162.851 265.289C186.618 300.671 199.112 317.025 221.315 345.857L243.018 332.109C228.685 292.966 220.984 275.372 198.973 243.459Z" fill="#8E1A15"/>
<path d="M217.502 272.409C210.919 268.457 212.84 291.585 198.853 281.697C194.642 285.734 201.202 289.2 191.564 289.572C191.551 295.528 188.294 292.949 183.952 294.869L221.775 346.992L243.51 331.601C243.51 331.601 224.085 276.361 217.502 272.409Z" fill="#D01F17"/>
<path d="M223.505 282.05C223.505 290.049 221.327 297.34 215.632 295.432C211.166 299.255 208.32 301.022 200.932 301.629C201.399 307.078 199.344 308.494 195.035 310.568L223.505 349.803L245.542 334.192C245.542 334.192 223.505 274.051 223.505 282.05Z" fill="#3882A6"/>
<path d="M245.022 335.551C239.148 313.443 223.631 281.407 202.584 250.257C167.53 198.378 128.249 170.068 119.32 175.177C110.392 180.286 132.654 219.437 167.708 271.316C187.939 301.257 207.302 328.838 221.777 345.828" stroke="black" stroke-width="5"/>
<path d="M124.595 233.772C118.22 233.073 108.586 238.302 109.436 240.774C110.285 243.246 109.654 244.198 108.602 245.279C107.549 246.36 105.968 245.85 102.768 247.62C97.8066 250.366 101.539 253.277 99.9222 258.281C99.9222 258.281 170.534 321.527 213.125 355.196L234.07 340.199C209.893 289.445 130.97 234.471 124.595 233.772Z" fill="#FAAA2F"/>
<path d="M166.861 262.678C168.458 265.946 149.684 268.198 143.902 271.053C138.12 273.907 138.836 294.427 137.415 292.914C169.338 321.156 185.554 333.829 214.312 356.128L234.066 340.203C210.323 305.942 196.211 288.007 166.861 262.678Z" fill="#8E1A15"/>
<path d="M192.094 286.017C184.727 283.854 192.42 305.749 176.392 299.709C173.335 304.678 180.557 306.377 171.325 309.169C172.815 314.935 169.012 313.261 165.295 316.215L215.043 357.11L234.115 340.154C234.115 340.154 199.462 288.181 192.094 286.017Z" fill="#D01F17"/>
<path d="M208.402 304.613C205.633 309.303 202.74 309.716 197.025 309.534C193.609 314.312 191.299 316.738 184.502 319.353C186.032 324.265 184.392 326.146 180.773 329.262L215.303 357.649L234.186 340.084L208.402 304.613Z" fill="#3882A6"/>
<path d="M91.0437 218.077C81.5827 216.314 77.7263 211.639 71.7615 217.765C65.7968 223.891 75.2744 228.453 81.9913 238.661C89.5679 250.176 103.784 262.241 103.784 262.241L119.739 245.999L125.201 234.918C125.201 234.918 109.505 221.517 91.0437 218.077Z" fill="#D58D1D"/>
<path d="M124.595 233.772C118.22 233.073 108.586 238.302 109.436 240.774C110.285 243.246 109.654 244.198 108.602 245.279C107.549 246.36 105.968 245.85 102.768 247.62C97.8066 250.366 101.042 252.52 99.4248 257.525C99.4248 257.525 170.534 321.527 213.125 355.196L234.07 340.199C209.893 289.445 130.97 234.471 124.595 233.772Z" fill="#FAAA2F"/>
<path d="M166.861 262.678C168.458 265.946 149.684 268.198 143.902 271.053C138.12 273.907 138.836 294.427 137.415 292.914C169.338 321.156 185.554 333.829 214.312 356.128L234.066 340.203C210.323 305.942 196.211 288.007 166.861 262.678Z" fill="#8E1A15"/>
<path d="M192.094 286.017C184.727 283.854 192.42 305.749 176.392 299.709C173.335 304.678 180.557 306.377 171.325 309.169C172.815 314.935 169.012 313.261 165.295 316.215L215.043 357.11L234.115 340.154C234.115 340.154 199.462 288.181 192.094 286.017Z" fill="#D01F17"/>
<path d="M205.837 302.506C203.146 307.258 200.147 307.584 194.181 307.196C190.818 312.017 188.509 314.445 181.532 316.911C183.33 322.044 181.699 323.931 178.054 327.028L215.228 357.587L234.186 340.084L205.837 302.506Z" fill="#3882A6"/>
<path d="M233.277 341.017C222.016 321.106 200.296 293.179 172.071 268.345C125.064 226.987 79.9122 209.501 72.5611 216.697C65.2099 223.893 96.6278 256.162 143.635 297.521C170.764 321.39 196.459 343.194 214.752 355.984" stroke="black" stroke-width="5"/>
<path d="M89.6563 269.275C83.282 269.982 75.0194 277.184 76.3872 279.412C77.7549 281.639 77.3466 282.706 76.5546 283.99C75.7627 285.274 74.1087 285.121 71.3717 287.546C67.1272 291.307 71.4046 293.334 70.9168 298.571C70.9168 298.571 157.605 339.116 206.509 362.696L219.69 349.292C185.036 305.026 96.0306 268.568 89.6563 269.275Z" fill="#FAAA2F"/>
<path d="M137.205 288.277C139.476 291.118 121.643 297.407 116.622 301.453C111.601 305.499 116.771 325.37 115.054 324.203C152.364 344.811 176.616 349.15 209.541 364.648L219.687 349.297C189.049 321.032 171.369 306.603 137.205 288.277Z" fill="#8E1A15"/>
<path d="M166.917 305.558C159.256 305.052 171.535 324.745 154.575 322.342C152.675 327.858 160.093 327.943 151.691 332.679C154.402 337.982 150.326 337.177 147.342 340.869L210.041 364.64L219.725 349.239C219.725 349.239 174.579 306.064 166.917 305.558Z" fill="#D01F17"/>
<path d="M186.885 320.154C185.205 325.335 182.471 326.368 176.853 327.436C174.561 332.843 172.834 335.714 166.771 339.747C169.334 344.207 169.756 344.006 166.902 347.836L209.533 364.147L219.778 349.154L186.885 320.154Z" fill="#3882A6"/>
<path d="M53.4914 261.267C43.8736 261.608 39.0913 257.885 34.6046 265.164C30.1179 272.443 40.3618 274.83 49.1415 283.329C59.045 292.916 75.5479 301.594 75.5479 301.594L87.5812 282.266L90.4977 270.261C90.4977 270.261 72.2587 260.602 53.4914 261.267Z" fill="#D58D1D"/>
<path d="M89.6563 269.275C83.282 269.982 75.0194 277.184 76.3872 279.412C77.7549 281.639 77.3466 282.706 76.5546 283.99C75.7627 285.274 74.1087 285.121 71.3717 287.546C67.1272 291.307 70.7543 292.705 70.2665 297.942C74.3012 305.068 165.306 349.638 208.517 363.164L219.69 349.292C185.036 305.026 96.0306 268.568 89.6563 269.275Z" fill="#FAAA2F"/>
<path d="M137.205 288.277C139.476 291.118 121.643 297.407 116.622 301.453C111.601 305.499 116.771 325.37 115.054 324.203C152.364 344.811 176.616 349.15 209.541 364.648L219.687 349.297C189.049 321.032 171.369 306.603 137.205 288.277Z" fill="#8E1A15"/>
<path d="M166.917 305.558C159.256 305.052 171.535 324.745 154.575 322.342C152.675 327.858 160.093 327.943 151.691 332.679C154.402 337.982 150.326 337.177 147.342 340.869L210.541 364.632L219.725 349.239C219.725 349.239 174.579 306.064 166.917 305.558Z" fill="#D01F17"/>
<path d="M182.84 318.107C181.28 323.348 178.38 324.298 172.368 325.166C170.158 330.615 168.435 333.488 162.088 337.377C165.073 342.051 165.518 341.861 162.625 345.672L211.025 363.623L219.765 349.147L182.84 318.107Z" fill="#3882A6"/>
<path d="M221.022 351.549C205.693 334.57 176.482 310.76 143.525 292.673C88.6355 262.551 40.7588 255.323 35.1521 263.947C29.5455 272.572 67.2396 297.221 122.129 327.344C152.801 343.051 208.285 361.556 231.022 373.548" stroke="black" stroke-width="5"/>
<path d="M592.845 278.563C598.958 279.849 606.059 287.601 604.435 289.628C602.812 291.656 603.069 292.726 603.672 294.045C604.275 295.363 605.905 295.37 608.252 297.976C611.892 302.017 607.462 303.576 607.25 308.692C607.25 308.692 520.666 345.759 469.963 363.977L455.759 343.769C495.299 304.182 586.731 277.278 592.845 278.563Z" fill="#FAAA2F"/>
<path d="M544.061 292.477C541.478 295.014 558.016 302.783 562.374 307.174C566.732 311.564 559.095 330.313 560.919 329.346C521.893 345.779 502.639 352.58 468.552 364.479L455.761 343.775C489.294 319.3 508.398 306.997 544.061 292.477Z" fill="#8E1A15"/>
<path d="M512.869 306.405C520.394 306.637 505.859 324.545 522.685 323.818C523.813 329.337 516.579 328.72 524.139 334.097C520.805 338.975 524.878 338.58 527.3 342.436L467.544 365.165L455.732 343.714C455.732 343.714 505.343 306.173 512.869 306.405Z" fill="#D01F17"/>
<path d="M491.516 318.654C492.473 323.827 494.998 325.085 500.328 326.649C501.852 332.099 503.156 335.042 508.531 339.518C505.451 343.595 506.323 345.83 508.599 349.807L467.121 365.584L455.69 343.628L491.516 318.654Z" fill="#3882A6"/>
<path d="M629.105 274.22C638.424 275.457 643.568 272.304 646.982 279.773C650.396 287.243 640.11 288.588 630.448 295.989C619.55 304.337 602.346 311.182 602.346 311.182L593.163 291.335L591.897 279.439C591.897 279.439 610.92 271.807 629.105 274.22Z" fill="#D58D1D"/>
<path d="M592.845 278.563C598.958 279.849 606.059 287.601 604.435 289.628C602.812 291.656 603.069 292.726 603.672 294.045C604.275 295.363 605.905 295.37 608.252 297.976C611.892 302.017 608.177 303.028 607.966 308.144C607.966 308.144 520.666 345.759 469.963 363.977L455.759 343.769C495.299 304.182 586.731 277.278 592.845 278.563Z" fill="#FAAA2F"/>
<path d="M544.061 292.477C541.478 295.014 558.016 302.783 562.374 307.174C566.732 311.564 559.095 330.313 560.919 329.346C521.893 345.779 502.639 352.58 468.552 364.479L455.761 343.775C489.294 319.3 508.398 306.997 544.061 292.477Z" fill="#8E1A15"/>
<path d="M512.869 306.405C520.394 306.637 505.859 324.545 522.685 323.818C523.813 329.337 516.579 328.72 524.139 334.097C520.805 338.975 524.878 338.58 527.3 342.436L467.544 365.165L455.732 343.714C455.732 343.714 505.343 306.173 512.869 306.405Z" fill="#D01F17"/>
<path d="M495.346 317.197C496.189 322.414 498.873 323.612 504.576 325.033C506.021 330.513 507.323 333.457 512.967 337.83C509.486 342.06 510.346 344.299 512.659 348.263L467.234 365.541L455.69 343.628L495.346 317.197Z" fill="#3882A6"/>
<path d="M456.211 344.766C473.36 329.774 502.875 310.54 537.332 296.137C594.72 272.15 642.28 269.666 646.608 278.544C650.936 287.423 611.007 307.732 553.62 331.719C520.5 345.563 487.73 358.77 466.522 365.05" stroke="black" stroke-width="5"/>
<path d="M203.464 114.473C196.075 107.878 190.7 96.4232 183.012 99.325C175.324 102.227 185.596 120.001 188.871 132.902C192.624 147.686 201.737 169.8 201.737 169.8L224.35 161.269L233.68 153.275C233.68 153.275 217.881 127.342 203.464 114.473Z" fill="#D58D1D"/>
<path d="M233.639 151.843C228.456 147.876 217.992 148.012 217.687 150.861C217.381 153.71 216.441 154.314 215.084 154.826C213.728 155.338 212.583 154.026 209.094 154.104C203.682 154.224 203.656 160.422 200.172 164.47C200.172 164.47 236.364 261.114 258.854 315.903L283.123 312.068C283.602 250.104 238.822 155.81 233.639 151.843Z" fill="#FAAA2F"/>
<path d="M257.844 201.819C257.847 205.829 240.778 198.352 234.616 198.157C228.454 197.962 220.48 218.346 219.893 216.138C235.491 260.137 244.115 280.854 259.483 317.425L283.117 312.07C277.065 266.416 272.451 241.65 257.844 201.819Z" fill="#8E1A15"/>
<path d="M269.749 237.587C264.326 231.68 261.769 257.002 250.529 242.851C245.823 246.123 251.315 251.501 242.217 249.467C241.083 255.859 238.517 252.267 234.088 253.232L259.7 318.759L283.181 312.048C283.181 312.048 275.171 243.494 269.749 237.587Z" fill="#D01F17"/>
<path d="M275.971 264.129C271.63 267.277 268.972 266.189 264.139 263.066C259.205 265.967 256.205 267.142 249.272 266.19C248.53 271.77 246.334 272.76 241.92 273.935L259.698 319.418L283.271 312.015L275.971 264.129Z" fill="#3882A6"/>
<path d="M203.464 114.473C196.075 107.878 190.7 96.4232 183.012 99.325C175.324 102.227 185.596 120.001 188.871 132.902C192.624 147.686 201.737 169.8 201.737 169.8L224.35 161.269L233.68 153.275C233.68 153.275 217.881 127.342 203.464 114.473Z" fill="#D58D1D"/>
<path d="M233.639 151.843C228.456 147.876 217.992 148.012 217.687 150.861C217.381 153.71 216.441 154.314 215.084 154.826C213.728 155.338 212.583 154.026 209.094 154.104C203.682 154.224 203.656 160.422 200.172 164.47C200.172 164.47 236.364 261.114 258.854 315.903L283.123 312.068C283.602 250.104 238.822 155.81 233.639 151.843Z" fill="#FAAA2F"/>
<path d="M257.844 201.819C257.847 205.829 240.778 198.352 234.616 198.157C228.454 197.962 220.48 218.346 219.893 216.138C235.491 260.137 244.115 280.854 259.483 317.425L283.117 312.07C277.065 266.416 272.451 241.65 257.844 201.819Z" fill="#8E1A15"/>
<path d="M269.749 237.587C264.326 231.68 261.769 257.002 250.529 242.851C245.823 246.123 251.315 251.501 242.217 249.467C241.083 255.859 238.517 252.267 234.088 253.232L259.7 318.759L283.181 312.048C283.181 312.048 275.171 243.494 269.749 237.587Z" fill="#D01F17"/>
<path d="M276.275 264.906C271.991 268.2 269.254 266.91 264.233 263.307C259.338 266.308 256.34 267.488 249.272 266.19C248.731 272.284 246.541 273.289 242.108 274.416L261.864 324.958L285.493 317.7L276.275 264.906Z" fill="#3882A6"/>
<path d="M284.522 318.049C283.184 292.824 273.794 248.797 259.946 210.029C236.881 145.464 192.295 96.3367 182.968 99.5677C173.641 102.799 200.242 159.269 223.307 223.834C236.618 261.097 252.162 303.647 262.522 325.549" stroke="black" stroke-width="5"/>
<path d="M246.67 93.2112C239.723 85.691 235.33 73.3699 227.133 75.593C218.937 77.8161 227.74 97.1265 229.829 110.728C232.223 126.314 239.404 149.975 239.404 149.975L263.513 143.44L273.904 136.14C273.904 136.14 260.225 107.885 246.67 93.2112Z" fill="#D58D1D"/>
<path d="M274.02 135.66C269.082 131.063 258.304 130.165 257.707 133.067C257.111 135.968 256.084 136.496 254.637 136.888C253.19 137.28 252.143 135.816 248.546 135.55C242.967 135.138 242.325 141.512 238.339 145.333C238.339 145.333 265.983 248.378 283.683 306.992L309.03 305.453C315.671 241.736 278.959 140.257 274.02 135.66Z" fill="#FAAA2F"/>
<path d="M293.963 189.493C293.568 193.62 276.75 184.23 270.431 183.418C264.112 182.606 253.886 202.791 253.501 200.461C265.182 247.287 271.998 269.463 284.179 308.621L309.024 305.457C307.327 257.875 305.038 231.931 293.963 189.493Z" fill="#8E1A15"/>
<path d="M302.661 227.482C297.668 220.865 292.525 246.669 282.367 230.991C277.201 233.89 282.317 239.971 273.159 236.974C271.358 243.439 269.076 239.489 264.423 240.042L284.271 310.015L309.092 305.44C309.092 305.44 307.653 234.098 302.661 227.482Z" fill="#D01F17"/>
<path d="M306.661 256.23C301.927 259.193 299.24 257.596 294.434 253.397C289.101 255.998 285.899 256.915 278.758 254.883C277.595 261.092 275.242 261.909 270.571 262.63L285.859 316.531L310.887 311.405L318.727 308.534L313.437 283.514L306.661 256.23Z" fill="#3882A6"/>
<path d="M315.522 311.049C313.522 285.049 305.711 239.419 295.31 198.151C277.989 129.419 236.996 74.439 227.08 76.8382C217.165 79.2373 238.928 139.989 256.249 208.72C266.246 248.387 280.038 293.482 288.522 317.049" stroke="black" stroke-width="5"/>
<path d="M209.522 364.051C269.022 296.048 435.092 282.168 468.022 364.05" stroke="black" stroke-width="5"/>
<path d="M306.769 254.029C312.164 255.55 314.277 253.3 317.667 248C323.531 249.014 326.865 249.009 333.12 245.13C336.033 250.709 338.523 250.842 343.209 250.251L344.162 307.626L318.693 309.592L306.769 254.029Z" fill="#3882A6"/>
<path d="M321.022 310.049C312.393 284.304 302.815 237.432 300.841 193.205C297.554 119.546 320.932 52.8183 331.129 52.3632C341.326 51.9081 338.048 118.871 341.335 192.53C343.232 235.04 344.334 282.561 343.022 308.549" stroke="black" stroke-width="5"/>
<path d="M375.845 308.296C374.397 283.003 377.732 240.257 387.229 200.064C403.048 133.124 441.96 79.1658 451.588 81.3433C461.215 83.5207 440.99 142.786 425.172 209.726C416.043 248.359 405.732 289.804 397.845 312.795" stroke="black" stroke-width="5"/>
</svg>
