<svg width="680" height="816" viewBox="0 0 680 816" fill="none" xmlns="http://www.w3.org/2000/svg">
<g clip-path="url(#clip0_264_2557)">
<path d="M481.2 177.5H487.5V188L477 185.173L481.2 177.5Z" fill="#928772"/>
<ellipse cx="387.5" cy="729.499" rx="256.5" ry="27.5" fill="black" fill-opacity="0.34"/>
<path d="M487.5 188.5C490.015 179.206 485.842 175.005 470 169L465.5 168L503.5 161.5L535 155L565 151L596 150L616 151L635 157.5L637 168L622.5 178.5C612.826 191.655 590.64 192.425 578.5 202C553 213.5 555.287 208.747 538 217C509 194 518.533 199.287 487.5 188.5Z" fill="#C1B398"/>
<path d="M289.844 210.628C318.844 165.628 391.118 139.159 434.844 146.628C433.234 155.336 431.076 155.604 422.844 161.128C441.825 154.982 452.925 154.961 479.344 153.128C482.344 172.128 485.216 179.381 467.344 182.628C573.228 204.713 658.467 339.444 543.344 403.128C541.267 404.277 539.25 405.401 537.293 406.502C611.482 459.286 619.174 525.613 556.344 536.628L521.844 710.628C451.677 761.724 384.11 763.451 234.344 738.628L188.844 621.128V503.628C188.882 503.606 202.625 495.912 224.765 484.606L202.344 386.128C202.414 385.972 260.861 255.601 289.844 210.628Z" fill="#936632"/>
<path d="M78.3438 189.128C124.844 52.6279 206.844 43.4833 290.344 165.628L210.844 248.628L99.3438 548.628C99.3438 548.628 31.8437 325.628 78.3438 189.128Z" fill="#6D351B"/>
<path d="M554.844 553.628C595.357 586.506 584.135 629.31 534.362 671.028C543.771 664.923 555.044 660.628 565.344 660.628C588.816 660.628 611.344 675.628 613.844 695.628C613.844 709.754 603.895 724.418 570.722 731.629C570.597 731.794 570.471 731.961 570.344 732.128L568.068 732.182C566.384 732.515 564.643 732.832 562.844 733.128C560.348 733.128 557.824 732.902 555.305 732.483L485.844 734.128L554.844 553.628Z" fill="#936632"/>
<path d="M419 430C444.927 430.945 459.339 423.962 485 409C504.806 409.078 514.613 409.086 529 409L527.5 454C513.5 464 503.113 467.079 480 461C452 473 449.151 476.481 415.5 464.5C412.432 441.233 413.761 447.358 419 430Z" fill="#FCFCF7"/>
<path d="M512 328C535.761 305.712 546.579 292.807 536.5 265C478.684 257.515 455.699 262.656 427.5 284.5C438.473 303.212 452.462 313.091 512 328Z" fill="#6A341B"/>
<path d="M555 553.999C550.881 604.79 534.5 628.999 513 672.499C491.5 715.999 502 733.999 502 733.999H480.5C488.642 708.193 484.81 696.428 462 680.499C513.425 643.481 528.48 611.433 555 553.999Z" fill="#784F26"/>
<path d="M165 79.5C113.667 232.824 59.766 361.215 105 523C124.636 412.695 148.273 338.744 184.388 278.226C172.867 272.639 165 261.425 165 248.5C165 229.998 181.118 215 201 215C209.693 215 217.665 217.867 223.886 222.64C242.22 200.619 263.069 179.585 287 158L306 192.5C173 372.5 135 574 206.5 717C33.5005 628.5 -17.4994 165.5 165 79.5Z" fill="#4C280E"/>
<path d="M260 272C260 272 304 245.5 288 243.5C272 241.5 186.5 519.5 317.5 541V556.5C322.364 541.823 227 583 218.5 637.5C210 692 251 739 279 745.5C307 752 235.5 749.5 209.5 718.5C191.136 680.489 182.941 656.396 175.5 616C169.959 541.382 171.725 495.495 195.5 396.5C229.532 317.44 240.057 296.502 260 272Z" fill="#754C24"/>
<path d="M547.531 471.152C534.254 476.842 525 489.632 525 504.499C525 524.658 542.013 540.999 563 540.999C564.169 540.999 565.326 540.945 566.468 540.846C561.742 542.871 556.509 543.999 551 543.999C530.013 543.999 513 527.658 513 507.499C513 488.464 528.17 472.835 547.531 471.152Z" fill="#865723"/>
<path d="M352.5 352.5H360.5C358.827 394.093 366 420 403 429C360.5 429 343.5 407 352.5 352.5Z" fill="#826026"/>
<ellipse opacity="0.9" cx="273" cy="238.5" rx="40" ry="33.5" fill="#A77A36"/>
<path d="M291 212C296.972 191.487 370.5 129.5 435.083 147.679C432.687 156.744 430.069 157.582 421.001 162.999C444.253 154.787 456.416 153.424 477.001 155" stroke="black" stroke-width="6"/>
<path d="M483.5 175C478.895 179.119 476.565 181.85 466 183" stroke="black" stroke-width="6"/>
<path d="M465 182.575C620.049 216.37 656.859 419.601 481 409.5" stroke="black" stroke-width="6"/>
<path d="M364 350C335.57 470.488 524.604 448.714 511.496 327.84M511.496 327.84C511.496 327.84 426.497 308.5 428.997 285C431.497 261.5 525.997 258.5 535.996 265C545.994 271.5 539.24 309.634 511.496 327.84Z" stroke="black" stroke-width="6"/>
<g filter="url(#filter0_d_264_2557)">
<path d="M322.217 464.497C320.72 465.206 320.081 466.995 320.79 468.492C321.499 469.99 323.288 470.629 324.785 469.919L323.501 467.208L322.217 464.497ZM243 430.998L240.01 430.755C237.441 462.349 249.358 495.52 268.998 517.855C288.669 540.227 316.607 552.18 345.68 539.758L344.501 536.999L343.322 534.24C317.395 545.319 292.082 535.022 273.503 513.893C254.893 492.728 243.559 461.148 245.99 431.241L243 430.998ZM344.501 536.999L345.68 539.758C360.018 533.631 368.629 524.685 372.556 514.752C376.47 504.853 375.585 494.339 371.622 485.333C363.785 467.523 343.193 454.562 322.217 464.497L323.501 467.208L324.785 469.919C341.81 461.856 359.218 472.04 366.13 487.75C369.542 495.504 370.22 504.344 366.977 512.546C363.747 520.714 356.484 528.617 343.322 534.24L344.501 536.999Z" fill="black"/>
</g>
<path d="M292.43 237.686C276.03 209.678 237.5 241.5 277.5 261" stroke="black" stroke-width="6"/>
<path d="M217.256 638.521C305 465.999 470.499 593.999 392.502 671.499" stroke="#010101" stroke-width="6"/>
<path d="M528.998 674.999C582.998 642.999 598.5 577.499 553.998 551.499" stroke="#010101" stroke-width="6"/>
<path d="M478 732.499C685.499 753.998 613.5 637.499 545 663.499" stroke="#010101" stroke-width="6"/>
<path d="M458.76 678.155C484.5 678.155 555.5 584.499 555.5 539.499" stroke="black" stroke-width="6"/>
<path d="M529.5 406C548.551 418.721 563.161 452.946 563.5 476.5" stroke="black" stroke-width="6"/>
<path d="M565.5 474.499C513 463.499 511.998 553.495 569.998 535.495C627.999 517.496 591.967 431.816 532.5 406.5" stroke="black" stroke-width="6" stroke-linecap="round"/>
<path d="M416.926 428.733C416.926 428.733 411.59 456.875 416.926 465.999C422.262 475.124 472.704 468.439 477 462.499C481.296 456.56 481.5 409.499 481.5 409.499" stroke="black" stroke-width="6"/>
<path d="M527 406.5C527 406.5 529.332 435.395 527 449.5C524.669 463.604 486.847 468.687 482.621 462.5C478.394 456.312 482.621 406.919 482.621 406.919" stroke="black" stroke-width="6"/>
<path d="M306.5 192.5C83.0223 -198.768 -89.5 539 217.5 723.999" stroke="black" stroke-width="6"/>
<path d="M359.5 200.127C359.5 200.127 351.5 196 340.5 201.5C329.5 207 332.5 220.127 332.5 220.127C337.762 208.401 343.773 204.084 359.5 200.127Z" fill="#352314"/>
<path d="M335.446 228.434C339.496 212.486 361.228 207.428 363.228 209.348C360.719 204.349 331.057 204.034 335.446 228.434Z" stroke="#110000" stroke-width="6"/>
<circle cx="363" cy="259" r="24" fill="#00020B" stroke="#1D0500" stroke-width="6"/>
<circle cx="489" cy="234" r="19" fill="#00020B" stroke="#1D0500" stroke-width="6"/>
<circle cx="354.5" cy="247.5" r="13.5" fill="#D9D9D9"/>
<circle cx="481" cy="226" r="11" fill="#D9D9D9"/>
<circle cx="394.5" cy="371.5" r="4.5" fill="#160D0C"/>
<circle cx="425.5" cy="366.5" r="4.5" fill="#160D0C"/>
<circle cx="448.5" cy="375.5" r="4.5" fill="#160D0C"/>
<circle cx="530.5" cy="351.5" r="4.5" fill="#160D0C"/>
<circle cx="558.5" cy="355.5" r="4.5" fill="#160D0C"/>
<circle cx="538.5" cy="370.5" r="4.5" fill="#160D0C"/>
<circle cx="525.5" cy="388.5" r="4.5" fill="#160D0C"/>
<circle cx="449.5" cy="398.5" r="4.5" fill="#160D0C"/>
<circle cx="415.5" cy="393.5" r="4.5" fill="#160D0C"/>
<path d="M422.463 713.601C421.579 712.2 421.997 710.348 423.398 709.463C424.799 708.578 426.652 708.996 427.536 710.397L425 711.999L422.463 713.601ZM426 750.999L423.16 750.033C428.659 733.871 427.795 722.043 422.463 713.601L425 711.999L427.536 710.397C434.205 720.956 434.657 734.871 428.84 751.966L426 750.999Z" fill="black"/>
<path d="M452.127 712.361C451.651 710.774 452.551 709.102 454.138 708.626C455.725 708.15 457.397 709.05 457.874 710.637L455 711.499L452.127 712.361ZM455 743.999L452.062 743.394C453.8 734.949 454.496 729.581 454.438 725.164C454.381 720.815 453.592 717.245 452.127 712.361L455 711.499L457.874 710.637C459.408 715.753 460.37 719.933 460.437 725.085C460.504 730.168 459.7 736.049 457.939 744.604L455 743.999Z" fill="black"/>
<path d="M114.697 226.602C152.657 183.086 176.113 166.974 220.5 148C176.526 172.57 153.047 189.297 114.697 226.602Z" stroke="black" stroke-width="4"/>
<path d="M99.8593 335.251C137.819 291.735 206.113 222.474 250.5 203.5C206.526 228.07 138.209 297.946 99.8593 335.251Z" stroke="black" stroke-width="4"/>
<path d="M105.929 439.353C143.888 395.837 190.5 324.499 238 303.499C184 337.999 144.279 402.048 105.929 439.353Z" stroke="black" stroke-width="4"/>
<path d="M126.468 525.329C164.428 481.813 161.5 468.999 182.5 453.999C168.5 462.999 164.818 488.024 126.468 525.329Z" stroke="black" stroke-width="4"/>
<path d="M185 141.842C224.079 184.355 220 172.5 246.5 215C209.5 164.715 217.863 184.061 185 141.842Z" stroke="black" stroke-width="4"/>
<path d="M150.5 196C189.58 238.513 210.5 261 237 303.5C200 253.215 183.363 238.218 150.5 196Z" stroke="black" stroke-width="4"/>
<path d="M113 438.614C152.079 481.127 148 463.999 174.5 506.499C137.5 456.214 145.863 480.832 113 438.614Z" stroke="black" stroke-width="4"/>
<path d="M116 259.615C162.5 298 187 319.978 209.5 364.5C178 312.5 157.5 305 116 259.615Z" stroke="black" stroke-width="4"/>
<path d="M102 327C157.724 373.725 186 421.5 188 428.5C190 435.5 144.008 356.232 102 327Z" stroke="black" stroke-width="4"/>
<path d="M259 270.498C241.5 296 247 292 230.5 317.999C180 327.499 120.498 320.999 120.498 306.499C114.745 285.732 200.5 244.002 238 235.5C279.5 220.002 194 225.998 259 270.498Z" fill="#C1B398"/>
<path d="M501 324.5C498.241 312.349 472.03 292.546 467 292.5C473.473 295.283 495.314 315.777 492 322.5" stroke="black" stroke-width="2"/>
<path d="M511 326C507.239 316.193 511.35 291.172 513.5 287C510.155 293.717 510.363 317.827 517 322" stroke="black" stroke-width="2"/>
<path d="M469.5 169L493 164V177.5L476 172.5L469.5 169Z" fill="#C1B398"/>
<path d="M352.5 349.5C357.373 349.577 362.54 349.431 366.964 350.37" stroke="black" stroke-width="6"/>
<path d="M470 293C487.235 304.675 495.872 311.228 500.5 323L493 321C486.815 308.192 480.843 302.687 470 293Z" fill="black"/>
<path d="M510.5 327.5V303.5C512.085 312.991 513.096 317.551 515.5 322L510.5 327.5Z" fill="black"/>
<path d="M532.553 283.805C529.662 287.066 528.506 282.194 524.725 278.841C520.944 275.488 515.969 274.924 518.861 271.663C521.753 268.402 527.162 268.476 530.943 271.829C534.724 275.182 535.445 280.543 532.553 283.805Z" fill="#7F4731"/>
<path d="M481 187.001C487 187.001 489.578 186.041 488.5 182.001C484.798 168.127 451.304 166.741 373.5 187.502C344.628 195.206 317.727 204.436 295.5 213.706" stroke="black" stroke-width="5"/>
<path d="M450 277.684C454.12 280.611 482 271.198 509 274.684C514.316 275.37 518.436 272.611 514.316 269.684C503.5 261.998 452.525 274.131 450 277.684Z" fill="#6F3D26"/>
<path d="M234.5 241.999C236.5 255.999 247.225 265.651 261.5 271" stroke="black" stroke-width="6"/>
<path d="M388 176.5L483.5 158L474.5 170C441.67 170.432 423.125 174.149 390 182L388 176.5Z" fill="#C1B398"/>
<path d="M258.501 271.044C119.5 482.499 172.41 733.718 247.057 742.527C321.703 751.337 406.125 764.675 468.057 739.027C529.989 713.379 414.499 609 349.001 708.999" stroke="black" stroke-width="6"/>
<path d="M401.5 56L426.5 56L441 59.5C461.181 79.8652 474.162 115.17 489 163C365.5 187 267 227 239 235C229.724 188.138 222.874 150.718 229.5 119.5C252.289 97.8444 284.841 80.4232 401.5 56Z" fill="#C1B398"/>
<path d="M230.5 319.502C172.643 325.318 126.297 323.076 121.68 306.924C113.141 277.05 215.064 234.355 361.5 192.5C507.936 150.645 622 138.504 635 159.001C648 179.499 553 215.5 538 215.5" stroke="black" stroke-width="5"/>
<path d="M238 234C238 234 220.52 153.23 228.998 123.002C237.476 92.7741 403.388 44.9897 434.998 59.0026C466.608 73.0154 488.5 163.5 488.5 163.5" stroke="black" stroke-width="5"/>
<path d="M231.5 198.503C322.259 144.324 375.218 123.935 475.5 116.503L481.5 137.503C382.267 143.628 328.338 165.98 235.5 221.503L231.5 198.503Z" fill="black"/>
<path d="M350 91.5023C362.5 87.5248 397.499 151.501 391.5 159.502C385.69 167.249 343.315 169.813 314.302 166.815C312.726 166.652 311.565 165.269 311.707 163.69C314.803 129.113 337.83 95.3753 350 91.5023ZM353.381 112.103C347.532 112.103 324.65 149.015 326.134 154.457C326.253 154.891 326.724 155.029 327.172 155.076C344.875 156.926 374.5 155.958 374.5 152.502C374.499 149.001 359.499 112.103 353.381 112.103Z" fill="black"/>
<path d="M255.2 130.543C244.037 134.74 253.902 199.32 262.595 201.591C270.985 203.781 302.67 182.024 321.904 163.718C323.055 162.622 323.12 160.814 322.029 159.658C300.852 137.229 266.032 126.471 255.2 130.543ZM264.047 146.924C268.236 143.664 304.629 156.709 306.797 161.415C306.983 161.817 306.698 162.212 306.378 162.518C294.656 173.723 272.873 189.584 270.983 187.155C269.066 184.691 259.65 150.349 264.047 146.924Z" fill="black"/>
<path d="M362.549 191.231C431.24 171.753 492.542 160.364 539.737 155.107C563.338 152.479 583.385 151.387 599.05 151.578C612.022 151.737 621.816 152.778 628.118 154.468C588.541 156.052 469.034 165.458 331.418 206.802C264.762 226.827 214.579 246.436 179.785 262.68C162.39 270.8 148.821 278.089 138.953 284.178C135.891 286.068 133.164 287.854 130.778 289.526C132.21 287.654 133.886 285.705 135.89 283.667C142.307 277.14 152.162 269.632 168.31 260.87C200.634 243.33 257.897 220.905 362.549 191.231Z" fill="#C1B398" stroke="black" stroke-width="4"/>
<path d="M316.486 157.999L336 166C330.607 182.816 329.163 187.343 319 203.999L286 214.499C299.473 192.087 306.097 180.85 316.486 157.999Z" fill="black"/>
<path d="M323.417 160.636L313.118 177.664C327.802 186.74 332.181 188.785 350.5 194.999L384.384 185.534C359.892 177.056 345.768 171.207 323.417 160.636Z" fill="black"/>
</g>
<defs>
<filter id="filter0_d_264_2557" x="235.664" y="430.755" width="143.418" height="122.011" filterUnits="userSpaceOnUse" color-interpolation-filters="sRGB">
<feFlood flood-opacity="0" result="BackgroundImageFix"/>
<feColorMatrix in="SourceAlpha" type="matrix" values="0 0 0 0 0 0 0 0 0 0 0 0 0 0 0 0 0 0 127 0" result="hardAlpha"/>
<feOffset dy="4"/>
<feGaussianBlur stdDeviation="2"/>
<feComposite in2="hardAlpha" operator="out"/>
<feColorMatrix type="matrix" values="0 0 0 0 0 0 0 0 0 0 0 0 0 0 0 0 0 0 0.25 0"/>
<feBlend mode="normal" in2="BackgroundImageFix" result="effect1_dropShadow_264_2557"/>
<feBlend mode="normal" in="SourceGraphic" in2="effect1_dropShadow_264_2557" result="shape"/>
</filter>
<clipPath id="clip0_264_2557">
<rect width="680" height="816" fill="white"/>
</clipPath>
</defs>
</svg>
