<svg width="680" height="356" viewBox="0 0 680 356" fill="none" xmlns="http://www.w3.org/2000/svg">
<path d="M249 191.647C254.972 171.134 328.5 109.147 393.083 127.326C390.687 136.391 388.069 137.23 379.001 142.647C402.253 134.434 414.416 133.071 435.001 134.647" stroke="black" stroke-width="6"/>
<path d="M317.5 179.774C317.5 179.774 309.5 175.647 298.5 181.147C287.5 186.647 290.5 199.774 290.5 199.774C295.762 188.049 301.773 183.732 317.5 179.774Z" fill="#352314"/>
<path d="M427.5 148.647L451 143.647V157.147L434 152.147L427.5 148.647Z" fill="#C1B398"/>
<path d="M322.126 170.629C370.062 158.115 423.714 146.387 471.332 139.08C518.978 131.77 560.502 128.9 584.232 134.051C584.715 134.156 585.086 134.311 585.341 134.48C585.602 134.652 585.706 134.812 585.736 134.912C585.757 134.984 585.756 135.072 585.651 135.197C585.529 135.341 585.274 135.521 584.809 135.678C579.211 137.571 565.247 139.987 545.971 142.971C526.738 145.948 502.209 149.493 475.632 153.635C422.449 161.924 360.823 172.641 315.854 186.166C249.329 206.173 191.732 229.448 150.554 246.866C129.957 255.578 113.487 262.817 102.044 267.458C96.3218 269.779 91.8806 271.44 88.8221 272.31C87.2867 272.746 86.1356 272.973 85.3596 272.995C84.9692 273.006 84.719 272.964 84.5735 272.905C84.4776 272.865 84.4465 272.829 84.4341 272.801C84.3756 272.244 84.6419 271.455 85.3927 270.407C86.1466 269.355 87.33 268.125 88.9357 266.732C92.1445 263.949 96.9711 260.576 103.22 256.751C115.713 249.106 133.828 239.694 155.893 229.64C200.021 209.533 259.907 186.872 322.126 170.629Z" fill="#E8D2AA" stroke="url(#paint0_radial_264_4898)"/>
<path d="M359.5 35.6475L384.5 35.6475L399 39.1475C419.181 59.5127 432.162 94.8171 447 142.647C323.5 166.647 225 206.647 197 214.647C187.724 167.786 180.874 130.365 187.5 99.1475C210.289 77.4918 242.841 60.0707 359.5 35.6475Z" fill="#C1B398"/>
<path d="M196 213.647C196 213.647 178.52 132.878 186.998 102.65C195.476 72.4218 361.388 24.6374 392.998 38.6503C424.608 52.6631 446.5 143.148 446.5 143.148" stroke="black" stroke-width="5"/>
<path d="M189.5 178.151C280.259 123.972 333.218 103.582 433.5 96.1508L439.5 117.151C340.267 123.276 286.338 145.627 193.5 201.151L189.5 178.151Z" fill="black"/>
<path d="M308 71.1499C320.5 67.1724 355.499 131.148 349.5 139.15C343.69 146.897 301.315 149.461 272.302 146.462C270.726 146.299 269.565 144.916 269.707 143.337C272.803 108.761 295.83 75.0229 308 71.1499ZM311.381 91.7505C305.532 91.7509 282.65 128.662 284.135 134.105C284.253 134.539 284.724 134.676 285.172 134.723C302.875 136.573 332.5 135.606 332.5 132.15C332.499 128.648 317.499 91.7505 311.381 91.7505Z" fill="black"/>
<path d="M213.2 110.19C202.037 114.387 211.902 178.969 220.595 181.238C228.986 183.429 260.671 161.672 279.904 143.366C281.055 142.27 281.121 140.462 280.03 139.306C258.853 116.876 224.031 106.118 213.2 110.19ZM222.047 126.571C226.235 123.311 262.631 136.358 264.798 141.063C264.983 141.465 264.698 141.859 264.378 142.165C252.656 153.37 230.873 169.232 228.983 166.803C227.067 164.341 217.649 129.996 222.047 126.571Z" fill="black"/>
<path d="M271.986 135.14L291.5 143.141C286.107 159.957 283.663 167.485 273.5 184.14L241 194.14C254.473 171.728 261.597 157.991 271.986 135.14Z" fill="black"/>
<path d="M283.022 134.529L272.723 151.557C287.407 160.633 294.005 164.678 312.324 170.892L343.989 159.427C319.497 150.949 305.373 145.1 283.022 134.529Z" fill="black"/>
<path d="M326.398 166.783C398.845 147 465.931 134.834 515.805 131.133C540.763 129.281 561.28 129.56 575.961 132.009C583.31 133.234 589.05 134.981 593.121 137.176C597.191 139.371 599.333 141.863 600.053 144.498C600.772 147.133 600.194 150.369 597.805 154.327C595.414 158.287 591.358 162.708 585.653 167.498C574.253 177.069 556.725 187.737 534.29 198.827C489.458 220.988 425.498 244.606 353.051 264.389C280.605 284.172 213.518 296.339 163.644 300.039C138.687 301.891 118.17 301.612 103.488 299.164C96.1397 297.938 90.3998 296.192 86.3285 293.997C82.2585 291.802 80.1166 289.309 79.397 286.674C78.6774 284.039 79.2552 280.804 81.645 276.845C84.0354 272.885 88.0912 268.464 93.7969 263.674C105.196 254.103 122.724 243.436 145.159 232.346C189.992 210.185 253.951 186.566 326.398 166.783Z" fill="#C1B398" stroke="black" stroke-width="5"/>
<path d="M597.5 140.5C602.364 157.778 491.194 200.432 347.191 240.971C203.187 281.511 82.5067 300.368 77.6427 283.091C72.7787 265.813 185.573 218.943 329.577 178.403C473.58 137.864 592.636 123.222 597.5 140.5Z" fill="#FFECC7"/>
<path d="M324.077 171.858C386.284 154.219 442.433 143.213 487.534 137.388C532.7 131.555 566.615 130.941 584.436 133.98C585.434 134.151 585.949 134.437 586.169 134.617C586.11 134.672 586.023 134.741 585.892 134.819C585.482 135.062 584.762 135.312 583.681 135.366C539.048 137.612 424.241 147.985 292.945 187.429C228.168 206.89 176.529 228.479 139.891 246.644C121.574 255.726 106.993 263.958 96.3882 270.647C92.9581 272.811 89.9384 274.818 87.3381 276.643C93.3727 268.182 104.62 257.461 127.871 244.323C161.525 225.307 220.155 201.325 324.077 171.858Z" fill="#C1B398" stroke="black" stroke-width="4"/>
<path d="M326.398 166.783C398.845 147 465.931 134.834 515.805 131.133C540.763 129.281 561.28 129.56 575.961 132.009C583.31 133.234 589.05 134.981 593.121 137.176C597.191 139.371 599.333 141.863 600.053 144.498C600.772 147.133 600.194 150.369 597.805 154.327C595.414 158.287 591.358 162.708 585.653 167.498C574.253 177.069 556.725 187.737 534.29 198.827C489.458 220.988 425.498 244.606 353.051 264.389C280.605 284.172 213.518 296.339 163.644 300.039C138.687 301.891 118.17 301.612 103.488 299.164C96.1397 297.938 90.3998 296.192 86.3285 293.997C82.2585 291.802 80.1166 289.309 79.397 286.674C78.6774 284.039 79.2552 280.804 81.645 276.845C84.0354 272.885 88.0912 268.464 93.7969 263.674C105.196 254.103 122.724 243.436 145.159 232.346C189.992 210.185 253.951 186.566 326.398 166.783Z" stroke="black" stroke-width="5"/>
<defs>
<radialGradient id="paint0_radial_264_4898" cx="0" cy="0" r="1" gradientUnits="userSpaceOnUse" gradientTransform="translate(332.109 189.1) rotate(-14.3362) scale(261.188 20.8907)">
<stop offset="0.298113"/>
<stop offset="0.519282" stop-color="#1E1B16"/>
<stop offset="0.740451" stop-color="#E8D2A9"/>
</radialGradient>
</defs>
</svg>
