<svg width="680" height="816" viewBox="0 0 680 816" fill="none" xmlns="http://www.w3.org/2000/svg">
<g clip-path="url(#clip0_264_4115)">
<ellipse cx="356.5" cy="710.5" rx="256.5" ry="27.5" fill="black" fill-opacity="0.34"/>
<path d="M259 192C288 147 360.274 120.531 404 128C402.39 136.708 400.233 136.976 392 142.5C410.981 136.354 422.081 136.333 448.5 134.5C440.138 151.141 435.873 156.253 418 159.5C531.316 174.917 634.967 314.285 512.5 384.5C510.458 385.671 508.472 386.817 506.54 387.939C580.645 440.713 588.304 506.99 525.5 518L491 692C420.833 743.097 353.266 744.823 203.5 720L158 602.5V485C158.039 484.978 171.781 477.284 193.921 465.978L171.5 367.5C171.57 367.344 230.017 236.973 259 192Z" fill="#936632"/>
<path d="M47.5 170.5C94 33.9999 176 24.8553 259.5 147L180 230L68.5 530C68.5 530 0.999998 307 47.5 170.5Z" fill="#6D351B"/>
<path d="M524 535C564.513 567.878 553.291 610.682 503.519 652.4C512.927 646.295 524.201 642 534.5 642C557.972 642 580.5 657 583 677C583 691.126 573.051 705.79 539.878 713.001C539.753 713.166 539.628 713.333 539.5 713.5L537.225 713.554C535.54 713.887 533.799 714.204 532 714.5C529.504 714.5 526.98 714.274 524.461 713.855L455 715.5L524 535Z" fill="#936632"/>
<path d="M388 411C413.927 411.945 428.339 404.963 454 390C473.806 390.079 483.613 390.086 498 390L496.5 435C482.5 445 472.113 448.08 449 442C421 454 418.151 457.481 384.5 445.5C381.432 422.233 382.761 428.358 388 411Z" fill="#FCFCF7"/>
<path d="M481 309C504.761 286.712 515.579 273.807 505.5 246C447.684 238.515 424.699 243.656 396.5 265.5C407.473 284.212 421.462 294.091 481 309Z" fill="#6A341B"/>
<path d="M524 535C519.881 585.79 503.5 610 482 653.5C460.5 697 471 715 471 715H449.5C457.642 689.193 453.81 677.429 431 661.5C482.425 624.482 497.48 592.434 524 535Z" fill="#784F26"/>
<path d="M134 60.5C82.6666 213.824 28.766 342.215 74.0005 504C93.6359 393.695 117.273 319.744 153.388 259.226C141.867 253.639 134 242.425 134 229.5C134 210.998 150.118 196 170 196C178.693 196 186.665 198.867 192.886 203.64C211.22 181.619 232.069 160.585 256 139L275 173.5C142 353.5 104 555 175.5 698C2.50051 609.5 -48.4994 146.5 134 60.5Z" fill="#4C280E"/>
<path d="M229 253C229 253 273 226.5 257 224.5C241 222.5 155.5 500.5 286.5 522V537.5C291.364 522.823 196 564 187.5 618.5C179 673 220 720 248 726.5C276 733 204.5 730.5 178.5 699.5C160.136 661.489 151.941 637.396 144.5 597C138.959 522.382 140.725 476.495 164.5 377.5C198.532 298.44 209.057 277.502 229 253Z" fill="#754C24"/>
<path d="M516.531 452.152C503.254 457.843 494 470.633 494 485.5C494 505.658 511.013 522 532 522C533.169 522 534.326 521.946 535.468 521.847C530.742 523.872 525.509 525 520 525C499.013 525 482 508.658 482 488.5C482 469.465 497.17 453.835 516.531 452.152Z" fill="#865723"/>
<path d="M321.5 333.5H329.5C327.827 375.093 335 401 372 410C329.5 410 312.5 388 321.5 333.5Z" fill="#826026"/>
<ellipse opacity="0.9" cx="242" cy="219.5" rx="40" ry="33.5" fill="#A77A36"/>
<path d="M260 193C265.972 172.487 339.5 110.5 404.083 128.679C401.687 137.744 399.069 138.582 390.001 143.999C413.253 135.787 425.416 134.424 446.001 136C444.055 149.502 437.221 158.19 416 160.5C585.977 181.774 632.476 400.98 450 390.5" stroke="black" stroke-width="6"/>
<path d="M333 331C304.57 451.489 493.604 429.714 480.496 308.84M480.496 308.84C480.496 308.84 395.497 289.5 397.997 266C400.497 242.5 494.997 239.5 504.996 246C514.994 252.501 508.24 290.634 480.496 308.84Z" stroke="black" stroke-width="6"/>
<path d="M272.177 205.529C230.5 144 166.5 227 230.5 252" stroke="black" stroke-width="6"/>
<g filter="url(#filter0_d_264_4115)">
<path d="M291.217 445.498C289.72 446.207 289.081 447.996 289.79 449.493C290.499 450.99 292.288 451.629 293.785 450.92L292.501 448.209L291.217 445.498ZM212 411.999L209.01 411.756C206.441 443.35 218.358 476.52 237.998 498.856C257.669 521.227 285.607 533.181 314.68 520.759L313.501 518L312.322 515.241C286.395 526.319 261.082 516.023 242.503 494.894C223.893 473.729 212.559 442.149 214.99 412.242L212 411.999ZM313.501 518L314.68 520.759C329.018 514.632 337.629 505.686 341.556 495.753C345.47 485.854 344.585 475.34 340.622 466.334C332.785 448.524 312.193 435.563 291.217 445.498L292.501 448.209L293.785 450.92C310.81 442.856 328.218 453.041 335.13 468.751C338.542 476.505 339.22 485.345 335.977 493.547C332.747 501.715 325.484 509.618 312.322 515.241L313.501 518Z" fill="black"/>
</g>
<path d="M261.43 218.686C245.03 190.678 206.5 222.5 246.5 242" stroke="black" stroke-width="6"/>
<path d="M227.501 252.044C88.5004 463.499 141.41 714.718 216.057 723.527C290.704 732.337 375.125 745.675 437.057 720.027C498.989 694.379 383.499 590 318.001 689.999" stroke="black" stroke-width="6"/>
<path d="M186.256 619.522C274 447 439.499 575 361.502 652.5" stroke="#010101" stroke-width="6"/>
<path d="M497.998 656C551.998 624 567.5 558.5 522.998 532.5" stroke="#010101" stroke-width="6"/>
<path d="M447 713.5C654.499 734.998 582.5 618.5 514 644.5" stroke="#010101" stroke-width="6"/>
<path d="M427.76 659.156C453.5 659.156 524.5 565.5 524.5 520.5" stroke="black" stroke-width="6"/>
<path d="M498.5 387C517.551 399.721 532.161 433.947 532.5 457.5" stroke="black" stroke-width="6"/>
<path d="M534.5 455.5C482 444.5 480.998 534.496 538.998 516.496C596.999 498.497 560.967 412.816 501.5 387.5" stroke="black" stroke-width="6" stroke-linecap="round"/>
<path d="M385.926 409.734C385.926 409.734 380.59 437.876 385.926 447C391.262 456.124 441.704 449.44 446 443.5C450.296 437.56 450.5 390.5 450.5 390.5" stroke="black" stroke-width="6"/>
<path d="M496 387.5C496 387.5 498.332 416.396 496 430.5C493.669 444.605 455.847 449.688 451.621 443.5C447.394 437.312 451.621 387.919 451.621 387.919" stroke="black" stroke-width="6"/>
<path d="M275.5 173.5C52.0223 -217.768 -120.5 520 186.5 704.999" stroke="black" stroke-width="6"/>
<path d="M328.5 181.127C328.5 181.127 320.5 177 309.5 182.5C298.5 188 301.5 201.127 301.5 201.127C306.762 189.401 312.773 185.084 328.5 181.127Z" fill="#352314"/>
<path d="M301.72 201.586C305.77 185.638 327.502 180.58 329.502 182.499C326.993 177.501 297.331 177.186 301.72 201.586Z" stroke="#110000" stroke-width="6"/>
<circle cx="332" cy="240" r="24" fill="#00020B" stroke="#1D0500" stroke-width="6"/>
<circle cx="458" cy="215" r="19" fill="#00020B" stroke="#1D0500" stroke-width="6"/>
<circle cx="323.5" cy="228.5" r="13.5" fill="#D9D9D9"/>
<circle cx="450" cy="207" r="11" fill="#D9D9D9"/>
<circle cx="363.5" cy="352.5" r="4.5" fill="#160D0C"/>
<circle cx="394.5" cy="347.5" r="4.5" fill="#160D0C"/>
<circle cx="417.5" cy="356.5" r="4.5" fill="#160D0C"/>
<circle cx="499.5" cy="332.5" r="4.5" fill="#160D0C"/>
<circle cx="527.5" cy="336.5" r="4.5" fill="#160D0C"/>
<circle cx="507.5" cy="351.5" r="4.5" fill="#160D0C"/>
<circle cx="494.5" cy="369.5" r="4.5" fill="#160D0C"/>
<circle cx="418.5" cy="379.5" r="4.5" fill="#160D0C"/>
<circle cx="384.5" cy="374.5" r="4.5" fill="#160D0C"/>
<path d="M391.463 694.602C390.579 693.201 390.997 691.348 392.398 690.464C393.799 689.579 395.652 689.997 396.536 691.398L394 693L391.463 694.602ZM395 732L392.16 731.034C397.659 714.872 396.795 703.044 391.463 694.602L394 693L396.536 691.398C403.205 701.956 403.657 715.872 397.84 732.966L395 732Z" fill="black"/>
<path d="M421.127 693.362C420.651 691.775 421.551 690.103 423.138 689.627C424.725 689.15 426.397 690.051 426.874 691.638L424 692.5L421.127 693.362ZM424 725L421.062 724.395C422.8 715.95 423.496 710.582 423.438 706.164C423.381 701.816 422.592 698.246 421.127 693.362L424 692.5L426.874 691.638C428.408 696.754 429.37 700.934 429.437 706.086C429.504 711.168 428.7 717.05 426.939 725.605L424 725Z" fill="black"/>
<path d="M83.6971 207.602C121.657 164.086 145.113 147.974 189.5 129C145.526 153.57 122.047 170.297 83.6971 207.602Z" stroke="black" stroke-width="4"/>
<path d="M68.8593 316.251C106.819 272.735 175.113 203.474 219.5 184.5C175.526 209.07 107.209 278.946 68.8593 316.251Z" stroke="black" stroke-width="4"/>
<path d="M74.9287 420.353C112.888 376.837 159.5 305.5 207 284.5C153 319 113.279 383.048 74.9287 420.353Z" stroke="black" stroke-width="4"/>
<path d="M95.4685 506.33C133.428 462.814 130.5 450 151.5 435C137.5 444 133.818 469.025 95.4685 506.33Z" stroke="black" stroke-width="4"/>
<path d="M154 122.842C193.079 165.355 189 153.5 215.5 196C178.5 145.715 186.863 165.061 154 122.842Z" stroke="black" stroke-width="4"/>
<path d="M119.5 177C158.58 219.513 179.5 242 206 284.5C169 234.215 152.363 219.218 119.5 177Z" stroke="black" stroke-width="4"/>
<path d="M81.9999 419.615C121.079 462.128 117 445 143.5 487.5C106.5 437.215 114.863 461.833 81.9999 419.615Z" stroke="black" stroke-width="4"/>
<path d="M85.0001 240.615C131.5 279 156 300.978 178.5 345.5C147 293.5 126.5 286 85.0001 240.615Z" stroke="black" stroke-width="4"/>
<path d="M71 308C126.724 354.725 155 402.5 157 409.5C159 416.5 113.008 337.232 71 308Z" stroke="black" stroke-width="4"/>
<path d="M470 305.5C467.241 293.349 441.03 273.546 436 273.5C442.473 276.283 464.314 296.777 461 303.5" stroke="black" stroke-width="2"/>
<path d="M480 307C476.239 297.193 480.35 272.172 482.5 268C479.155 274.717 479.363 298.827 486 303" stroke="black" stroke-width="2"/>
<path d="M321.5 330.5C326.373 330.577 331.54 330.431 335.964 331.37" stroke="black" stroke-width="6"/>
<path d="M439 274C456.235 285.675 464.872 292.228 469.5 304L462 302C455.815 289.192 449.843 283.687 439 274Z" fill="black"/>
<path d="M479.5 308.5V284.5C481.085 293.991 482.096 298.551 484.5 303L479.5 308.5Z" fill="black"/>
<path d="M501.553 264.805C498.662 268.066 497.506 263.194 493.725 259.841C489.944 256.488 484.969 255.924 487.861 252.663C490.753 249.402 496.162 249.476 499.943 252.829C503.724 256.182 504.445 261.543 501.553 264.805Z" fill="#7F4731"/>
<path d="M419 258.684C423.12 261.611 451 252.198 478 255.684C483.316 256.37 487.436 253.611 483.316 250.684C472.5 242.998 421.525 255.131 419 258.684Z" fill="#6F3D26"/>
</g>
<defs>
<filter id="filter0_d_264_4115" x="204.664" y="411.756" width="143.418" height="122.011" filterUnits="userSpaceOnUse" color-interpolation-filters="sRGB">
<feFlood flood-opacity="0" result="BackgroundImageFix"/>
<feColorMatrix in="SourceAlpha" type="matrix" values="0 0 0 0 0 0 0 0 0 0 0 0 0 0 0 0 0 0 127 0" result="hardAlpha"/>
<feOffset dy="4"/>
<feGaussianBlur stdDeviation="2"/>
<feComposite in2="hardAlpha" operator="out"/>
<feColorMatrix type="matrix" values="0 0 0 0 0 0 0 0 0 0 0 0 0 0 0 0 0 0 0.25 0"/>
<feBlend mode="normal" in2="BackgroundImageFix" result="effect1_dropShadow_264_4115"/>
<feBlend mode="normal" in="SourceGraphic" in2="effect1_dropShadow_264_4115" result="shape"/>
</filter>
<clipPath id="clip0_264_4115">
<rect width="680" height="816" fill="white"/>
</clipPath>
</defs>
</svg>
