<svg width="680" height="816" viewBox="0 0 680 816" fill="none" xmlns="http://www.w3.org/2000/svg">
<g clip-path="url(#clip0_264_2470)">
<rect x="521" y="182" width="13" height="11" fill="#007A33"/>
<ellipse cx="387.5" cy="713.5" rx="256.5" ry="27.5" fill="black" fill-opacity="0.34"/>
<path d="M537 189C571.792 182.592 568.444 157.919 644 207.5C607.843 227.479 577.812 245.93 537 189Z" fill="#F9E300"/>
<path d="M535 189C601.151 192.203 618.049 199.906 632.5 216C596.343 229.557 575.812 227.63 535 189Z" fill="#007A33"/>
<path d="M526.5 181C542 142.5 577.89 122.913 599.5 122C596 169.5 559.5 187.5 526.5 181Z" fill="#D52B1E"/>
<path d="M528 181C545 139.5 561.769 133.134 583 129C576.063 166.987 541 181 528 181Z" fill="#AE1A0E"/>
<path d="M290 195C319 150 391.274 123.531 435 131C433.39 139.708 431.233 139.976 423 145.5C441.981 139.354 453.081 139.333 479.5 137.5C471.138 154.141 466.873 159.253 449 162.5C562.316 177.917 665.967 317.285 543.5 387.5C541.458 388.671 539.472 389.817 537.54 390.939C611.645 443.713 619.304 509.99 556.5 521L522 695C451.833 746.097 384.266 747.823 234.5 723L189 605.5V488C189.039 487.978 202.781 480.284 224.921 468.978L202.5 370.5C202.57 370.344 261.017 239.973 290 195Z" fill="#936632"/>
<path d="M78.5 173.5C125 36.9999 207 27.8553 290.5 150L211 233L99.5 533C99.5 533 32 310 78.5 173.5Z" fill="#6D351B"/>
<path d="M555 538C595.513 570.878 584.291 613.682 534.519 655.4C543.927 649.295 555.201 645 565.5 645C588.972 645 611.5 660 614 680C614 694.126 604.051 708.79 570.878 716.001C570.753 716.166 570.628 716.333 570.5 716.5L568.225 716.554C566.54 716.887 564.799 717.204 563 717.5C560.504 717.5 557.98 717.274 555.461 716.855L486 718.5L555 538Z" fill="#936632"/>
<path d="M419 414C444.927 414.945 459.339 407.963 485 393C504.806 393.079 514.613 393.086 529 393L527.5 438C513.5 448 503.113 451.08 480 445C452 457 449.151 460.481 415.5 448.5C412.432 425.233 413.761 431.358 419 414Z" fill="#FCFCF7"/>
<path d="M512 312C535.761 289.712 546.579 276.807 536.5 249C478.684 241.515 455.699 246.656 427.5 268.5C438.473 287.212 452.462 297.091 512 312Z" fill="#6A341B"/>
<path d="M555 538C550.881 588.79 534.5 613 513 656.5C491.5 700 502 718 502 718H480.5C488.642 692.193 484.81 680.429 462 664.5C513.425 627.482 528.48 595.434 555 538Z" fill="#784F26"/>
<path d="M165 63.5C113.667 216.824 59.766 345.215 105 507C124.636 396.695 148.273 322.744 184.388 262.226C172.867 256.639 165 245.425 165 232.5C165 213.998 181.118 199 201 199C209.693 199 217.665 201.867 223.886 206.64C242.22 184.619 263.069 163.585 287 142L306 176.5C173 356.5 135 558 206.5 701C33.5005 612.5 -17.4994 149.5 165 63.5Z" fill="#4C280E"/>
<path d="M260 256C260 256 304 229.5 288 227.5C272 225.5 186.5 503.5 317.5 525V540.5C322.364 525.823 227 567 218.5 621.5C210 676 251 723 279 729.5C307 736 235.5 733.5 209.5 702.5C191.136 664.489 182.941 640.396 175.5 600C169.959 525.382 171.725 479.495 195.5 380.5C229.532 301.44 240.057 280.502 260 256Z" fill="#754C24"/>
<path d="M547.531 455.152C534.254 460.843 525 473.633 525 488.5C525 508.658 542.013 525 563 525C564.169 525 565.326 524.946 566.468 524.847C561.742 526.872 556.509 528 551 528C530.013 528 513 511.658 513 491.5C513 472.465 528.17 456.835 547.531 455.152Z" fill="#865723"/>
<path d="M352.5 336.5H360.5C358.827 378.093 366 404 403 413C360.5 413 343.5 391 352.5 336.5Z" fill="#826026"/>
<ellipse opacity="0.9" cx="273" cy="222.5" rx="40" ry="33.5" fill="#A77A36"/>
<path d="M313.5 187.5L500.5 173L545 204.5C431.371 184.232 365.698 197.296 267.5 260L250.5 265L313.5 187.5Z" fill="#826229"/>
<path d="M291 196C296.972 175.487 370.5 113.5 435.083 131.679C432.687 140.744 430.069 141.582 421.001 146.999C444.253 138.787 456.416 137.424 477.001 139C475.055 152.502 468.221 161.19 447 163.5C616.977 184.774 663.476 403.98 481 393.5" stroke="black" stroke-width="6"/>
<path d="M364 334C335.57 454.489 524.604 432.714 511.496 311.84M511.496 311.84C511.496 311.84 426.497 292.5 428.997 269C431.497 245.5 525.997 242.5 535.996 249C545.994 255.501 539.24 293.634 511.496 311.84Z" stroke="black" stroke-width="6"/>
<path d="M303.177 208.529C261.5 147 197.5 230 261.5 255" stroke="black" stroke-width="6"/>
<g filter="url(#filter0_d_264_2470)">
<path d="M322.217 448.498C320.72 449.207 320.081 450.996 320.79 452.493C321.499 453.99 323.288 454.629 324.785 453.92L323.501 451.209L322.217 448.498ZM243 414.999L240.01 414.756C237.441 446.35 249.358 479.52 268.998 501.856C288.669 524.227 316.607 536.181 345.68 523.759L344.501 521L343.322 518.241C317.395 529.319 292.082 519.023 273.503 497.894C254.893 476.729 243.559 445.149 245.99 415.242L243 414.999ZM344.501 521L345.68 523.759C360.018 517.632 368.629 508.686 372.556 498.753C376.47 488.854 375.585 478.34 371.622 469.334C363.785 451.524 343.193 438.563 322.217 448.498L323.501 451.209L324.785 453.92C341.81 445.856 359.218 456.041 366.13 471.751C369.542 479.505 370.22 488.345 366.977 496.547C363.747 504.715 356.484 512.618 343.322 518.241L344.501 521Z" fill="black"/>
</g>
<path d="M292.43 221.686C276.03 193.678 237.5 225.5 277.5 245" stroke="black" stroke-width="6"/>
<path d="M258.501 255.044C119.5 466.499 172.41 717.718 247.057 726.527C321.704 735.337 406.125 748.675 468.057 723.027C529.989 697.379 414.499 593 349.001 692.999" stroke="black" stroke-width="6"/>
<path d="M217.256 622.522C305 450 470.499 578 392.502 655.5" stroke="#010101" stroke-width="6"/>
<path d="M528.998 659C582.998 627 598.5 561.5 553.998 535.5" stroke="#010101" stroke-width="6"/>
<path d="M478 716.5C685.499 737.998 613.5 621.5 545 647.5" stroke="#010101" stroke-width="6"/>
<path d="M458.76 662.156C484.5 662.156 555.5 568.5 555.5 523.5" stroke="black" stroke-width="6"/>
<path d="M529.5 390C548.551 402.721 563.161 436.947 563.5 460.5" stroke="black" stroke-width="6"/>
<path d="M565.5 458.5C513 447.5 511.998 537.496 569.998 519.496C627.999 501.497 591.967 415.816 532.5 390.5" stroke="black" stroke-width="6" stroke-linecap="round"/>
<path d="M416.926 412.734C416.926 412.734 411.59 440.876 416.926 450C422.262 459.124 472.704 452.44 477 446.5C481.296 440.56 481.5 393.5 481.5 393.5" stroke="black" stroke-width="6"/>
<path d="M527 390.5C527 390.5 529.332 419.396 527 433.5C524.669 447.605 486.847 452.688 482.621 446.5C478.394 440.312 482.621 390.919 482.621 390.919" stroke="black" stroke-width="6"/>
<path d="M306.5 176.5C83.0223 -214.768 -89.5 523 217.5 707.999" stroke="black" stroke-width="6"/>
<path d="M359.5 184.127C359.5 184.127 351.5 180 340.5 185.5C329.5 191 332.5 204.127 332.5 204.127C337.762 192.401 343.773 188.084 359.5 184.127Z" fill="#352314"/>
<path d="M332.72 204.586C336.77 188.638 358.502 183.58 360.502 185.499C357.993 180.501 328.331 180.186 332.72 204.586Z" stroke="#110000" stroke-width="6"/>
<circle cx="363" cy="243" r="24" fill="#00020B" stroke="#1D0500" stroke-width="6"/>
<circle cx="489" cy="218" r="19" fill="#00020B" stroke="#1D0500" stroke-width="6"/>
<circle cx="354.5" cy="231.5" r="13.5" fill="#D9D9D9"/>
<circle cx="481" cy="210" r="11" fill="#D9D9D9"/>
<circle cx="394.5" cy="355.5" r="4.5" fill="#160D0C"/>
<circle cx="425.5" cy="350.5" r="4.5" fill="#160D0C"/>
<circle cx="448.5" cy="359.5" r="4.5" fill="#160D0C"/>
<circle cx="530.5" cy="335.5" r="4.5" fill="#160D0C"/>
<circle cx="558.5" cy="339.5" r="4.5" fill="#160D0C"/>
<circle cx="538.5" cy="354.5" r="4.5" fill="#160D0C"/>
<circle cx="525.5" cy="372.5" r="4.5" fill="#160D0C"/>
<circle cx="449.5" cy="382.5" r="4.5" fill="#160D0C"/>
<circle cx="415.5" cy="377.5" r="4.5" fill="#160D0C"/>
<path d="M422.463 697.602C421.579 696.201 421.997 694.348 423.398 693.464C424.799 692.579 426.652 692.997 427.536 694.398L425 696L422.463 697.602ZM426 735L423.16 734.034C428.659 717.872 427.795 706.044 422.463 697.602L425 696L427.536 694.398C434.205 704.956 434.657 718.872 428.84 735.966L426 735Z" fill="black"/>
<path d="M452.127 696.362C451.651 694.775 452.551 693.103 454.138 692.627C455.725 692.15 457.397 693.051 457.874 694.638L455 695.5L452.127 696.362ZM455 728L452.062 727.395C453.8 718.95 454.496 713.582 454.438 709.164C454.381 704.816 453.592 701.246 452.127 696.362L455 695.5L457.874 694.638C459.408 699.754 460.37 703.934 460.437 709.086C460.504 714.168 459.7 720.05 457.939 728.605L455 728Z" fill="black"/>
<path d="M114.697 210.602C152.657 167.086 176.113 150.974 220.5 132C176.526 156.57 153.047 173.297 114.697 210.602Z" stroke="black" stroke-width="4"/>
<path d="M99.8593 319.251C137.819 275.735 206.113 206.474 250.5 187.5C206.526 212.07 138.209 281.946 99.8593 319.251Z" stroke="black" stroke-width="4"/>
<path d="M105.929 423.353C143.888 379.837 190.5 308.5 238 287.5C184 322 144.279 386.048 105.929 423.353Z" stroke="black" stroke-width="4"/>
<path d="M126.468 509.33C164.428 465.814 161.5 453 182.5 438C168.5 447 164.818 472.025 126.468 509.33Z" stroke="black" stroke-width="4"/>
<path d="M185 125.842C224.079 168.355 220 156.5 246.5 199C209.5 148.715 217.863 168.061 185 125.842Z" stroke="black" stroke-width="4"/>
<path d="M150.5 180C189.58 222.513 210.5 245 237 287.5C200 237.215 183.363 222.218 150.5 180Z" stroke="black" stroke-width="4"/>
<path d="M113 422.615C152.079 465.128 148 448 174.5 490.5C137.5 440.215 145.863 464.833 113 422.615Z" stroke="black" stroke-width="4"/>
<path d="M116 243.615C162.5 282 187 303.978 209.5 348.5C178 296.5 157.5 289 116 243.615Z" stroke="black" stroke-width="4"/>
<path d="M102 311C157.724 357.725 186 405.5 188 412.5C190 419.5 144.008 340.232 102 311Z" stroke="black" stroke-width="4"/>
<path d="M501 308.5C498.241 296.349 472.03 276.546 467 276.5C473.473 279.283 495.314 299.777 492 306.5" stroke="black" stroke-width="2"/>
<path d="M511 310C507.239 300.193 511.35 275.172 513.5 271C510.155 277.717 510.363 301.827 517 306" stroke="black" stroke-width="2"/>
<path d="M352.5 333.5C357.373 333.577 362.54 333.431 366.964 334.37" stroke="black" stroke-width="6"/>
<path d="M470 277C487.235 288.675 495.872 295.228 500.5 307L493 305C486.815 292.192 480.843 286.687 470 277Z" fill="black"/>
<path d="M510.5 311.5V287.5C512.085 296.991 513.096 301.551 515.5 306L510.5 311.5Z" fill="black"/>
<path d="M291.854 189.767C291.949 189.593 292.099 189.448 292.276 189.357C366.051 151.089 393.384 144.445 476.632 146.491C476.865 146.497 477.096 146.584 477.272 146.737L533.461 195.784C534.211 196.438 533.607 197.664 532.621 197.529C413.321 181.169 356.216 202.393 255.133 260.69C254.256 261.195 253.234 260.247 253.721 259.36L291.854 189.767Z" fill="#D52B1E"/>
<path d="M280.364 216.222C280.453 216.076 280.58 215.955 280.729 215.871C354.029 174.65 410.213 159.472 494.178 164.481C494.385 164.493 494.587 164.57 494.749 164.701L533.18 195.723C533.97 196.361 533.373 197.632 532.367 197.494C413.366 181.217 356.265 202.389 255.453 260.505C254.554 261.023 253.521 260.018 254.063 259.133L280.364 216.222Z" fill="#F9E300"/>
<path d="M271.873 232.69C271.957 232.565 272.068 232.46 272.198 232.383C352.676 184.952 432.05 165.188 507.763 177.462C507.919 177.487 508.066 177.549 508.193 177.642L532.781 195.644C533.621 196.258 533.034 197.585 532.004 197.445C413.367 181.276 356.275 202.407 255.751 260.334C254.834 260.862 253.793 259.811 254.38 258.93L271.873 232.69Z" fill="#007A33"/>
<path d="M597.896 117.744C598.944 136.405 596.725 149.325 588.613 159.173C579.755 169.927 563.354 177.666 534.148 184.276L527.051 179.206C530.045 174.415 532.487 170.127 534.72 166.289C537.338 161.79 539.655 157.939 542.312 154.431C547.526 147.548 554.192 141.79 567.264 135.721C580.654 129.503 585.941 126.778 589.661 124.236C591.534 122.957 592.99 121.737 594.767 120.273C595.663 119.535 596.669 118.71 597.896 117.744Z" stroke="black" stroke-width="6"/>
<path d="M644.142 204.314C624.284 224.604 604.501 228.732 586.503 224.555C567.269 220.09 549.508 206.007 535.547 190.202L535.547 188.181C546.913 182.994 555.763 179.85 564.523 178.359C573.697 176.797 582.952 177.015 595.093 178.805C606.002 180.413 614.749 186.731 623.45 193.022C627.709 196.103 632.021 199.213 636.417 201.448C638.892 202.706 641.46 203.722 644.142 204.314Z" stroke="black" stroke-width="6"/>
<path d="M530.188 182.788C532.59 184.68 534.15 186.996 534.81 189.107C535.474 191.232 535.173 192.885 534.348 193.933C533.94 194.451 533.744 194.429 533.732 194.429C533.585 194.44 533.17 194.393 532.331 193.92C531.515 193.46 530.562 192.751 529.393 191.809C528.303 190.932 526.909 189.756 525.546 188.682C524.183 187.608 522.713 186.529 521.605 185.676C520.415 184.76 519.502 184 518.864 183.314C518.208 182.609 518.065 182.217 518.041 182.071C518.039 182.062 517.967 181.878 518.378 181.356C519.203 180.308 520.74 179.629 522.961 179.776C525.168 179.922 527.785 180.896 530.188 182.788Z" stroke="black" stroke-width="5"/>
<path opacity="0.5" d="M295.5 190L320 178.5L279 246.5L260.5 254L295.5 190Z" fill="black"/>
<path d="M381.471 155.24C407.498 149.153 434.759 147.979 476.036 148.978L528.073 194.398C470.668 186.916 427.503 188.332 386.435 198.689C345.54 209.003 306.884 228.145 258.476 255.884L293.825 191.369C330.461 172.379 355.423 161.332 381.471 155.24Z" stroke="black" stroke-width="5"/>
<path d="M532.553 267.805C529.662 271.066 528.506 266.194 524.725 262.841C520.944 259.488 515.969 258.924 518.861 255.663C521.753 252.402 527.162 252.476 530.943 255.829C534.724 259.182 535.445 264.543 532.553 267.805Z" fill="#7F4731"/>
<path d="M450 261.684C454.12 264.611 482 255.198 509 258.684C514.316 259.37 518.436 256.611 514.316 253.684C503.5 245.998 452.525 258.131 450 261.684Z" fill="#6F3D26"/>
</g>
<defs>
<filter id="filter0_d_264_2470" x="235.664" y="414.756" width="143.418" height="122.011" filterUnits="userSpaceOnUse" color-interpolation-filters="sRGB">
<feFlood flood-opacity="0" result="BackgroundImageFix"/>
<feColorMatrix in="SourceAlpha" type="matrix" values="0 0 0 0 0 0 0 0 0 0 0 0 0 0 0 0 0 0 127 0" result="hardAlpha"/>
<feOffset dy="4"/>
<feGaussianBlur stdDeviation="2"/>
<feComposite in2="hardAlpha" operator="out"/>
<feColorMatrix type="matrix" values="0 0 0 0 0 0 0 0 0 0 0 0 0 0 0 0 0 0 0.25 0"/>
<feBlend mode="normal" in2="BackgroundImageFix" result="effect1_dropShadow_264_2470"/>
<feBlend mode="normal" in="SourceGraphic" in2="effect1_dropShadow_264_2470" result="shape"/>
</filter>
<clipPath id="clip0_264_2470">
<rect width="680" height="816" fill="white"/>
</clipPath>
</defs>
</svg>
