<svg width="706" height="816" viewBox="0 0 706 816" fill="none" xmlns="http://www.w3.org/2000/svg">
<g clip-path="url(#clip0_264_4188)">
<path d="M498 454.5L509.5 452L533.5 440.5L554.5 422L570.5 398L575 370L573.5 355L565 336L559.5 317.5L563 302L571 298L577.5 300L583.5 306L588.5 315L592.5 324.5V335L588 343.5C594.379 341.026 596.815 340.327 598 341L606.5 346L621.5 332L632.5 310.5L650.5 300.5H661.5L668.5 310.5L671.5 322L667 335L671.5 342.5L673.5 355.5L671.5 368.5V384.5L653 412.5L639 454.5L614 500L584.5 533L553.5 558.5L536.5 510.5L524.5 488.5L511.5 468L498 454.5Z" fill="#936632"/>
<ellipse cx="364.5" cy="664.5" rx="256.5" ry="27.5" fill="black" fill-opacity="0.34"/>
<rect x="492" y="241" width="13" height="11" fill="#007A33"/>
<path d="M508 248C542.792 241.592 539.444 216.919 615 266.5C578.843 286.479 548.812 304.93 508 248Z" fill="#F9E300"/>
<path d="M551 556.5C587.75 544.74 647.813 463.297 647 415.5L634.5 421C632.635 468.178 573.046 544.907 551 556.5Z" fill="#754C24"/>
<path d="M506 248C572.151 251.203 589.049 258.906 603.5 275C567.343 288.557 546.812 286.63 506 248Z" fill="#007A33"/>
<path d="M497.5 240C513 201.5 548.89 181.913 570.5 181C567 228.5 530.5 246.5 497.5 240Z" fill="#D52B1E"/>
<path d="M499 240C516 198.5 532.769 192.134 554 188C547.063 225.987 512 240 499 240Z" fill="#AE1A0E"/>
<path d="M266.844 253.414C295.844 208.414 363.274 182.817 407 190.286C405.39 198.994 408.076 198.39 399.844 203.914C418.825 197.768 425.081 200.119 451.5 198.286C443.138 214.927 443.716 217.667 425.844 220.914C554 230.787 640.5 415.786 501.5 444.786C498.211 445.472 495.021 446.128 491.927 446.76C542.249 498.927 572.863 586.852 552.5 622.785L539.5 641.285C469.333 692.382 360.266 682.108 210.5 657.285C160.94 637.013 152.423 631.923 156 624L149 617.286L140 576.286L145 529.786L162.5 469.786L178 432.286C178.008 432.283 178.675 432.022 179.942 431.546L179.344 428.914C179.344 428.914 237.844 298.414 266.844 253.414Z" fill="#936632"/>
<path d="M549.5 561.5C606.63 521.427 633.761 476.017 649.835 414" stroke="black" stroke-width="5"/>
<path d="M500.5 455C583.5 423.999 584 369 564.5 333.5" stroke="black" stroke-width="5"/>
<path d="M59.2702 514.284C73.5935 503.007 133.666 480.498 137.5 438C139.182 419.35 134.7 408.2 125.5 391" stroke="black" stroke-width="5"/>
<path d="M43.6814 200.077C123.717 32.6582 209.181 133.077 262.181 208.577L187.525 290.205L89.1816 563.077C89.1816 563.077 -36.3546 367.496 43.6814 200.077Z" fill="#6D351B"/>
<path d="M343 448C374.315 460.159 393.279 464.769 443 448C449.175 498.755 439.958 516.765 403 532C350.83 518.338 345.594 494.683 343 448Z" fill="#070707"/>
<path d="M381 461C406.927 461.945 423.466 454.963 449.127 440C468.933 440.079 474.113 446.586 488.5 446.5V482C475.008 486.695 449.036 492.313 443.5 486C415.5 498 384.373 497.5 381 487C377.932 463.733 375.761 478.358 381 461Z" fill="#FCFCF7"/>
<path d="M349 494C367.845 484.564 376.466 486.338 387 507C386.681 500.153 385.786 496.327 384 489.5L404 497C413.637 501.005 419.497 505.412 419 525L398.5 531L377 527.5L359.5 512.5L349 494Z" fill="#B12527"/>
<path d="M483 371C506.761 348.712 525.079 333.807 515 306C457.184 298.515 426.699 305.656 398.5 327.5C409.473 346.212 423.462 356.091 483 371Z" fill="#6A341B"/>
<path d="M277 235.5C190.476 388.967 108.821 516.547 155.5 626.5C124.167 607.413 98.185 579.923 77.4692 547.414C96.4525 440.803 118.727 373.926 152.451 319.634C142.551 313.665 136 303.295 136 291.5C136 272.998 152.118 258 172 258C180.116 258 187.603 260.5 193.624 264.716C212.185 243.677 233.425 223.166 258 201L277 235.5ZM77.4692 547.414C77.4641 547.443 77.4596 547.471 77.4545 547.5C77.4363 547.435 77.418 547.37 77.3998 547.305C77.423 547.341 77.446 547.378 77.4692 547.414ZM144.5 106C93.1872 259.262 32.269 385.613 77.3998 547.305C-24.4465 387.335 1.17016 106 144.5 106Z" fill="#4C280E"/>
<path opacity="0.9" d="M263.5 269.5C263.5 288.002 254.5 281.5 244 313C221.909 313 204 300.002 204 281.5C204 262.998 221.909 248 244 248C266.091 248 263.5 250.998 263.5 269.5Z" fill="#A77A36"/>
<path d="M262 255C267.972 234.487 341.5 172.5 406.083 190.679C403.687 199.744 401.069 200.583 392.001 206C415.253 197.787 427.416 196.424 448.001 198C446.055 211.503 439.221 220.19 418 222.5C597.887 237.847 630.489 484.63 445.5 440" stroke="black" stroke-width="6"/>
<path d="M327 380C289.164 493.219 479.908 478.99 482.496 370.84M482.496 370.84C482.496 370.84 398.405 351.868 399.997 328C401.59 304.132 504.474 300.084 515.5 307C526.526 313.917 510.24 352.634 482.496 370.84Z" stroke="black" stroke-width="6"/>
<path d="M274.177 267.529C232.5 206 168.5 289 232.5 314" stroke="black" stroke-width="6"/>
<path d="M263.43 280.686C247.03 252.678 208.5 284.5 248.5 304" stroke="black" stroke-width="6"/>
<path d="M556 604.5C567.446 567.651 529.056 476.861 489.435 450.113L489.435 463.5C527.012 492.088 559.148 579.792 556 604.5Z" fill="#754C24"/>
<path d="M247.5 326C224.994 368.497 148.709 547.144 226 659L180.5 646.5L163 635L146.5 614L139 577L146.5 517L161.077 463.5L202 369.5L227.5 315.5L315 271L376.5 253L439.5 248L506.5 253C362.729 247.435 270.006 283.503 247.5 326Z" fill="#754C24"/>
<path d="M172.5 436C160.508 544.314 158.262 600.069 191 649.5L165.5 635L146 611.5L139 562L150 509L172.5 436Z" fill="#56381C"/>
<path d="M231.5 660.761C204.229 654.367 182.636 646.865 171 639.5C116.5 605 133.5 497 229.501 314.044" stroke="black" stroke-width="6"/>
<path d="M382 676C454.791 675.587 526.824 663.376 550 624" stroke="black" stroke-width="6"/>
<path d="M488.001 445.501C526.28 467.292 580 586 549 625.5" stroke="black" stroke-width="6"/>
<path d="M379.326 461.234C379.326 461.234 378.664 481.876 384 491C389.336 500.124 432.704 491.94 437 486C441.296 480.06 439.5 443 439.5 443" stroke="black" stroke-width="6"/>
<path d="M489.032 447C489.032 447 491.364 462.396 489.032 476.5C486.701 490.605 445.726 491.688 441.499 485.5C437.273 479.312 441.5 442 441.5 442" stroke="black" stroke-width="6"/>
<path d="M277.5 235.5C54.0223 -155.768 -118.5 451 163.5 634" stroke="black" stroke-width="6"/>
<path d="M330.5 243.127C330.5 243.127 322.5 239 311.5 244.5C300.5 250 303.5 263.127 303.5 263.127C308.762 251.401 314.773 247.084 330.5 243.127Z" fill="#352314"/>
<path d="M303.72 263.586C307.77 247.638 329.502 242.58 331.502 244.499C328.993 239.501 299.331 239.186 303.72 263.586Z" stroke="#110000" stroke-width="6"/>
<circle cx="334" cy="302" r="24" fill="#00020B" stroke="#1D0500" stroke-width="6"/>
<circle cx="460" cy="277" r="19" fill="#00020B" stroke="#1D0500" stroke-width="6"/>
<circle cx="325.5" cy="290.5" r="13.5" fill="#D9D9D9"/>
<circle cx="452" cy="269" r="11" fill="#D9D9D9"/>
<circle cx="359.5" cy="400.5" r="3.5" fill="#160D0C"/>
<circle cx="389.5" cy="397.5" r="3.5" fill="#160D0C"/>
<circle cx="411.5" cy="406.5" r="3.5" fill="#160D0C"/>
<circle cx="501.5" cy="390.5" r="3.5" fill="#160D0C"/>
<circle cx="527.5" cy="393.5" r="3.5" fill="#160D0C"/>
<circle cx="508.5" cy="407.5" r="3.5" fill="#160D0C"/>
<circle cx="493.5" cy="425.5" r="3.5" fill="#160D0C"/>
<circle cx="411.5" cy="429.5" r="3.5" fill="#160D0C"/>
<circle cx="378.5" cy="423.5" r="3.5" fill="#160D0C"/>
<path d="M85.6971 269.602C123.657 226.086 147.113 209.974 191.5 191C147.526 215.57 124.047 232.297 85.6971 269.602Z" stroke="black" stroke-width="4"/>
<path d="M70.8593 378.251C108.819 334.735 177.113 265.474 221.5 246.5C177.526 271.07 109.209 340.946 70.8593 378.251Z" stroke="black" stroke-width="4"/>
<path d="M76.9287 482.353C114.888 438.837 161.5 367.5 209 346.5C155 381 115.279 445.048 76.9287 482.353Z" stroke="black" stroke-width="4"/>
<path d="M97.4685 568.33C135.428 524.814 132.5 512 153.5 497C139.5 506 135.818 531.025 97.4685 568.33Z" stroke="black" stroke-width="4"/>
<path d="M156 184.842C195.079 227.355 191 215.5 217.5 258C180.5 207.715 188.863 227.061 156 184.842Z" stroke="black" stroke-width="4"/>
<path d="M121.5 239C160.58 281.513 181.5 304 208 346.5C171 296.215 154.363 281.218 121.5 239Z" stroke="black" stroke-width="4"/>
<path d="M83.9999 481.615C123.079 524.128 116 503.5 142.5 546C105.5 495.715 116.863 523.833 83.9999 481.615Z" stroke="black" stroke-width="4"/>
<path d="M87.0001 302.615C133.5 341 158 362.978 180.5 407.5C149 355.5 128.5 348 87.0001 302.615Z" stroke="black" stroke-width="4"/>
<path d="M73 370C128.724 416.725 157 464.5 159 471.5C161 478.5 115.008 399.232 73 370Z" stroke="black" stroke-width="4"/>
<path d="M472 367.5C469.241 355.35 443.03 335.546 438 335.5C444.473 338.284 466.314 358.777 463 365.5" stroke="black" stroke-width="2"/>
<path d="M482 369C478.239 359.193 482.35 334.172 484.5 330C481.155 336.717 481.363 360.827 488 365" stroke="black" stroke-width="2"/>
<path d="M441 336C458.235 347.675 466.872 354.228 471.5 366L464 364C457.815 351.192 451.843 345.687 441 336Z" fill="black"/>
<path d="M481.5 370.5V346.5C483.085 355.991 484.096 360.551 486.5 365L481.5 370.5Z" fill="black"/>
<path d="M262.854 248.767C262.949 248.593 263.099 248.448 263.276 248.357C337.051 210.089 364.384 203.445 447.632 205.491C447.865 205.497 448.096 205.584 448.272 205.737L504.461 254.784C505.211 255.438 504.607 256.664 503.621 256.529C384.321 240.169 327.216 261.393 226.133 319.69C225.256 320.195 224.234 319.247 224.721 318.36L262.854 248.767Z" fill="#D52B1E"/>
<path d="M251.364 275.222C251.453 275.077 251.58 274.955 251.729 274.872C325.029 233.65 381.213 218.472 465.178 223.481C465.385 223.493 465.587 223.57 465.749 223.701L504.18 254.724C504.97 255.361 504.373 256.632 503.367 256.494C384.366 240.217 327.265 261.39 226.453 319.505C225.554 320.024 224.521 319.019 225.063 318.134L251.364 275.222Z" fill="#F9E300"/>
<path d="M242.873 291.69C242.957 291.565 243.068 291.46 243.198 291.383C323.676 243.952 403.05 224.188 478.763 236.462C478.919 236.487 479.066 236.549 479.193 236.642L503.781 254.644C504.621 255.258 504.034 256.585 503.004 256.445C384.367 240.276 327.275 261.407 226.751 319.334C225.834 319.862 224.793 318.811 225.38 317.93L242.873 291.69Z" fill="#007A33"/>
<path d="M568.896 176.744C569.944 195.405 567.725 208.325 559.613 218.173C550.755 228.927 534.354 236.666 505.148 243.276L498.051 238.206C501.045 233.415 503.487 229.127 505.72 225.289C508.338 220.79 510.655 216.939 513.312 213.431C518.526 206.548 525.192 200.79 538.264 194.721C551.654 188.503 556.941 185.778 560.661 183.236C562.534 181.957 563.99 180.737 565.767 179.273C566.663 178.535 567.669 177.71 568.896 176.744Z" stroke="black" stroke-width="6"/>
<path d="M615.142 263.314C595.284 283.604 575.501 287.732 557.503 283.555C538.269 279.09 520.508 265.007 506.547 249.202L506.547 247.181C517.913 241.994 526.763 238.85 535.523 237.359C544.697 235.797 553.952 236.015 566.093 237.805C577.002 239.413 585.749 245.731 594.45 252.022C598.709 255.103 603.021 258.213 607.417 260.448C609.892 261.706 612.46 262.722 615.142 263.314Z" stroke="black" stroke-width="6"/>
<path d="M501.188 241.788C503.59 243.68 505.15 245.996 505.81 248.107C506.474 250.232 506.173 251.885 505.348 252.933C504.94 253.451 504.744 253.429 504.732 253.429C504.585 253.44 504.17 253.393 503.331 252.92C502.515 252.46 501.562 251.751 500.393 250.809C499.303 249.932 497.909 248.756 496.546 247.682C495.183 246.608 493.713 245.529 492.605 244.676C491.415 243.76 490.502 243 489.864 242.314C489.208 241.609 489.065 241.217 489.041 241.071C489.039 241.062 488.967 240.878 489.378 240.356C490.203 239.308 491.74 238.629 493.961 238.776C496.168 238.922 498.785 239.896 501.188 241.788Z" stroke="black" stroke-width="5"/>
<path opacity="0.5" d="M266.5 249L291 237.5L250 305.5L231.5 313L266.5 249Z" fill="black"/>
<path d="M352.471 214.24C378.498 208.153 405.759 206.979 447.036 207.978L499.073 253.398C441.668 245.916 398.503 247.332 357.435 257.689C316.54 268.003 277.884 287.145 229.476 314.884L264.825 250.369C301.461 231.379 326.423 220.332 352.471 214.24Z" stroke="black" stroke-width="5"/>
<path d="M511.293 324.047C508.401 327.308 508.281 321.853 504.5 318.5C500.719 315.147 492.108 315.332 495 312.071C497.892 308.81 505.902 308.718 509.683 312.071C513.464 315.424 514.185 320.785 511.293 324.047Z" fill="#7F4731"/>
<path d="M422.275 322.859C428.486 323.424 456.707 311.097 480.953 316.011C486.303 316.349 490.233 313.326 485.931 310.675C474.636 303.712 424.562 319.149 422.275 322.859Z" fill="#6F3D26"/>
<path d="M302 376C306.999 375.543 319.97 376.946 324 377.5L321.5 382C321.155 383.886 308.911 382.155 302 376Z" fill="black"/>
<path d="M341.5 444.5C341.5 537 423.5 561 445 489" stroke="black" stroke-width="6"/>
<path d="M362 499.5C361 496.501 374.575 496.441 388.5 508.5C391.281 518.504 387.5 523.001 384.5 521.5C381.5 520 363 502.5 362 499.5Z" fill="#C22F31"/>
<path d="M387.5 508C386.5 505 412 508.5 411.001 514.998C410.003 521.496 398.5 525 395.5 523.5C392.5 522 388.5 511 387.5 508Z" fill="#BF2A2C"/>
<path d="M667.282 356.534C672.894 362.699 676.022 370.936 674.574 380.996C671.135 404.883 646.455 425.045 626.348 422.298C621.852 421.683 617.753 420.196 614.135 417.992C617.097 418.866 620.245 419.52 623.504 420.004C642.545 422.829 667.104 401.339 670.36 376.775C671.302 369.665 670.031 362.67 667.282 356.534Z" fill="black"/>
<path d="M640 351.5C651.542 351.5 659.431 354.646 662.938 360.796C659.189 357.119 652.838 355 643.862 355C628.398 355 612 363.284 612 372.998C612 382.712 621.157 391 636.621 391C643.404 391 650.08 389.02 655.439 385.979C649.245 391.237 640.81 395 632.5 395C616.484 395 607 384.985 607 373.247C607 361.509 623.984 351.5 640 351.5Z" fill="black"/>
<path d="M642.5 325C662.658 325 684 332.5 673.5 374.5C673.362 376.295 673.156 377.815 672.883 379.095L670.578 368.23C675.197 337.1 664.283 330.946 645 329.5C627 328.15 603.501 345.118 612.501 361.233C613.466 363.177 613.105 365.723 612.122 368.525C608.255 364.082 606 358.743 606 353C606 337.536 622.342 325 642.5 325Z" fill="black"/>
<path d="M627.309 314.324C635.954 299.649 652.301 293.254 663.821 300.04C674.797 306.507 677.431 322.607 670.177 336.806C669.101 335.618 667.864 334.512 666.491 333.501C671.903 322.047 670.266 309.67 662.112 304.486C653.002 298.695 639.211 304.077 631.309 316.506C628.145 321.483 626.405 326.836 626.041 331.837C624.629 332.663 623.325 333.58 622.144 334.575C621.752 328.083 623.419 320.927 627.309 314.324Z" fill="black"/>
<path d="M568.946 296.037C578.087 293.155 588.967 301.829 593.248 315.41C596.721 326.428 594.784 337.29 589.048 342.536C592.66 337.576 593.398 328.394 590.407 318.905C586.42 306.255 577.315 297.851 570.072 300.135C562.829 302.418 560.19 314.523 564.178 327.173C565.449 331.204 567.241 334.804 569.325 337.764C570.144 339.365 570.861 340.873 571.602 342.542C566.73 339.123 562.467 333.207 560.147 325.845C555.865 312.264 559.806 298.918 568.946 296.037Z" fill="black"/>
<path d="M584.616 400.394C580.914 394.054 578.726 391.022 574.213 388.442L577.06 386.466C580.489 391.014 582.097 394.146 584.616 400.394Z" fill="black"/>
<path d="M204.5 621C248.003 657.382 269.439 672.219 285 656C311.822 682.81 370.5 666.5 338.5 639.5C306.5 612.5 364.276 651 361.5 662.5C358.724 674 379.562 669.118 388 653C395.934 667.07 403 668 413 649.5L404.5 672L388 677.5L382 676.5L370.5 682L344 681L330.5 688L312 686.5L292.5 677.5L264.5 674L241.5 667.5L216.5 646L204.5 621Z" fill="#754C24"/>
<path d="M618 110C660.25 110 693 141.235 693 181C693 202.067 683.385 222.843 668.062 237.726L659.5 249.5L651 264.5L649 277.5L640 283.5L608 285.5L587 281L582 273L579 260L566.5 239.5L566.87 239.544C550.427 224.564 540 202.939 540 181C540 141.235 575.75 110 618 110Z" fill="#FEC410"/>
<path d="M612.326 110C649.233 110 676.5 140.892 676.5 179C676.5 200.73 667.202 220.764 652.367 233.971C652.454 233.99 652.499 234 652.5 234C638.202 244.164 633.993 273.5 631.5 283C629.007 292.5 606.297 283 596 283C585.703 283 598.5 259 569.5 234C568.182 232.864 567.157 231.829 566.397 230.893C553.459 217.755 545.5 199.104 545.5 179C545.5 140.892 575.419 110 612.326 110Z" fill="#FEF181"/>
<path d="M591.68 342.497C598.053 337.901 602.103 339.556 609.5 344.06L608.5 347.059C604.449 346.852 601.013 344.445 599.398 342.497C597.783 340.549 592.403 343.154 591.68 342.497Z" fill="black"/>
<path d="M604.164 285C602.734 255.938 605.117 235.895 599.874 226.374L587.959 203.325C583.669 194.305 594.441 181.679 607.023 197.312C605.117 187.29 619.415 180.275 622.752 197.312C625.135 188.292 644.677 185.787 640.387 203.325C637.813 213.847 627.518 224.871 625.135 230.884C624.345 232.877 622.752 268.297 622.752 285" stroke="#EEAA13" stroke-width="4"/>
<path d="M286.5 513.5C300.232 538.575 314.383 554.232 327.5 593.5L312.5 595C307.104 567.503 298.5 547 286.5 513.5Z" fill="#754C24"/>
<path d="M581 285L587 280.5L589.5 281.5L601 285H610.5L640 283L642.5 289L638 295L642.5 301L635 307L626.5 316L622.5 328L617.5 331.5L609.5 333.5L601.5 331.5L594.5 327L589.5 312L581 299L583 291L581 285Z" fill="url(#paint0_linear_264_4188)"/>
<path d="M586.644 282.609C586.218 281.546 586.543 280.848 587.684 280.94C594.262 281.469 618.486 285.473 631.244 283.99C631.435 283.968 631.616 283.921 631.796 283.85L641.988 279.836C643.328 279.309 644.285 281.165 643.077 281.95C643.026 281.983 642.977 282.02 642.932 282.061L635.654 288.573C634.253 289.826 632.493 290.613 630.623 290.804C616.74 292.225 607.025 292.428 593.497 289.539C590.664 288.934 588.362 286.905 587.286 284.215L586.644 282.609Z" fill="url(#paint1_linear_264_4188)"/>
<path d="M586.215 281.536C586.073 281.182 586.147 280.886 586.528 280.883C590.626 280.848 617.545 285.583 631.244 283.99C631.435 283.968 631.616 283.921 631.796 283.85L641.988 279.836C643.328 279.309 644.285 281.165 643.077 281.95C643.026 281.983 642.977 282.02 642.932 282.061L633.979 290.072C633.667 290.35 633.272 290.525 632.857 290.57C616.716 292.306 606.385 292.628 590.496 288.863C589.556 288.64 588.787 287.968 588.429 287.072L586.215 281.536Z" fill="url(#paint2_linear_264_4188)"/>
<path d="M589.021 294.185C587.099 292.477 587.43 291.525 589.944 292.061C598.134 293.809 617.163 298.41 628.5 297L637.384 295.223C638.124 295.075 638.837 294.817 639.5 294.456L643 292.5L632.831 299.279C631.628 300.081 630.24 300.581 628.803 300.745C614.469 302.382 611.47 303.413 597.169 300.026C595.749 299.69 594.43 298.993 593.34 298.024L589.021 294.185Z" fill="url(#paint3_linear_264_4188)"/>
<path d="M585.021 303.769C583.099 302.061 583.43 301.109 585.944 301.645C594.134 303.393 613.163 307.994 624.5 306.584L634.5 304.584L642.842 302.539C642.935 302.516 643 302.433 643 302.337C643 302.183 642.837 302.082 642.699 302.152L628.459 309.347C627.494 309.834 626.447 310.143 625.373 310.264C610.545 311.938 607.658 313.041 593.169 309.61C591.749 309.274 590.43 308.577 589.34 307.608L585.021 303.769Z" fill="url(#paint4_linear_264_4188)"/>
<path d="M592.333 317.694C591.785 316.579 592.098 315.839 593.33 315.994C598.36 316.63 612.795 319.57 624.531 318.854C625.387 318.802 625.572 317.691 624.793 317.33L623.958 316.944C623.595 316.776 623.207 317.122 623.334 317.501C623.422 317.764 623.722 317.889 623.97 317.765L624.444 317.528C625.185 317.157 625.998 317.882 625.715 318.66L624.898 320.907C624.654 321.576 624.041 322.049 623.333 322.13C608.914 323.771 610.211 324.975 597.683 321.982C595.353 321.426 593.39 319.843 592.333 317.694Z" fill="url(#paint5_linear_264_4188)"/>
<path d="M584.5 280.5C580 283.5 580 289.757 586 292.007C582.001 290.507 579.5 301.507 586 302.007" stroke="black" stroke-width="3"/>
<path d="M639.848 283.078C644.348 286.078 644.348 291.578 637.848 295.578C641.848 294.078 644.5 304 639.5 305.5" stroke="black" stroke-width="3"/>
<path d="M591.5 317C594 334.5 614 340 626 324.5" stroke="black" stroke-width="3"/>
<path d="M634 305C614.02 309.5 600.091 311.016 581 303L584.5 300C602.811 306.182 615.765 306.118 634 305Z" fill="black"/>
<path d="M630.498 315.067C633.306 317.447 612.559 324.066 590 317L589 312.5C606.62 320.008 627.69 312.687 630.498 315.067Z" fill="black"/>
<path d="M637 295.437C617.02 299.937 603.091 301.452 584 293.437L586 290.5C604.311 296.682 618.765 296.554 637 295.437Z" fill="black"/>
<path d="M583 275.003C583 288.003 635.145 287.986 645.5 281.003C654 272.503 648.248 271.77 652.999 261.503C668.5 228.003 684 233.503 690.999 197.003C699.644 151.917 674.5 110 615.5 110" stroke="black" stroke-width="4"/>
<path d="M649.573 275C649.573 287.999 597.427 287.982 587.073 281C578.573 272.5 584.324 271.767 579.573 261.499C564.073 228 548.573 233.5 541.573 196.999C532.928 151.914 559 110 618 110" stroke="black" stroke-width="4"/>
<path d="M280.5 501C295.15 529.948 303.43 545.625 315.5 596H307.5C301.462 557.691 294.364 537.207 280.5 501Z" fill="black"/>
<path d="M325.728 630.13C326.627 630.419 327.551 630.71 328.5 630.999C353.999 642.999 355.977 669.876 343.713 682.498C331.51 695.056 290.419 691.041 283.603 663.914C298.279 686.112 331.925 689.262 341.5 679.604C354.409 664.332 342.166 641.466 325.728 630.13Z" fill="black"/>
<path d="M361.627 619C362.579 619.323 363.557 619.648 364.562 619.971C391.574 633.39 393.669 663.447 380.677 677.562C373.548 685.305 357.115 687.412 342.596 682.659C344.029 681.419 345.284 679.942 346.384 678.082C359.687 681.843 372.802 680.215 378.333 674.325C392.008 657.247 379.04 631.677 361.627 619Z" fill="black"/>
<path d="M335.5 591C378.854 591 414 616.967 414 649C414 673.272 397.637 683.152 377.309 678.467L380.365 672.674C394.301 676.75 404.921 673.556 409 656.882C416 628.263 378.959 595 334.5 595C315.631 595 296.657 599.481 281.066 607.21C295.179 597.172 314.364 591 335.5 591Z" fill="black"/>
<path d="M194 535.5C191.482 604.101 211.807 674.867 290.074 673.611L296.964 680.944C296.81 680.962 296.656 680.981 296.501 681C214.001 681 192.017 627.422 190.351 563.081C190.081 552.628 191.417 543.382 194.036 535.223C194.023 535.315 194.012 535.407 194 535.5Z" fill="black"/>
<path d="M634.58 128.788C635.216 130.904 634.818 131.849 632.57 132.525C630.322 133.201 626.644 131.914 626.008 129.799C625.372 127.683 626.104 126.115 628.352 125.439C630.6 124.764 633.944 126.673 634.58 128.788Z" fill="#FFFEFE"/>
<path d="M565.937 170.583C562.307 171.274 559.086 168.154 559.968 164.565C566.631 137.449 585.505 123.217 611.497 120.854C615.398 120.499 618.156 124.364 616.869 128.063C616.054 130.407 613.809 131.907 611.34 132.153C595.214 133.763 578.036 147.001 570.078 167.072C569.368 168.863 567.831 170.222 565.937 170.583Z" fill="#FEFEFE"/>
</g>
<defs>
<linearGradient id="paint0_linear_264_4188" x1="642.5" y1="307.25" x2="580" y2="307.25" gradientUnits="userSpaceOnUse">
<stop stop-color="#47453B"/>
<stop offset="0.461586" stop-color="#ADA890"/>
<stop offset="1" stop-color="#504D42"/>
</linearGradient>
<linearGradient id="paint1_linear_264_4188" x1="635.056" y1="287.903" x2="585.906" y2="287.903" gradientUnits="userSpaceOnUse">
<stop offset="0.120217" stop-color="#858277"/>
<stop offset="0.505643" stop-color="#CCC5B2"/>
<stop offset="0.750067" stop-color="#878478"/>
</linearGradient>
<linearGradient id="paint2_linear_264_4188" x1="635.056" y1="287.903" x2="585.906" y2="287.903" gradientUnits="userSpaceOnUse">
<stop offset="0.120217" stop-color="#858277"/>
<stop offset="0.505643" stop-color="#CCC5B2"/>
<stop offset="0.750067" stop-color="#878478"/>
</linearGradient>
<linearGradient id="paint3_linear_264_4188" x1="635.056" y1="298.403" x2="585.906" y2="298.403" gradientUnits="userSpaceOnUse">
<stop offset="0.120217" stop-color="#858277"/>
<stop offset="0.505643" stop-color="#CCC5B2"/>
<stop offset="0.750067" stop-color="#878478"/>
</linearGradient>
<linearGradient id="paint4_linear_264_4188" x1="631.056" y1="307.987" x2="581.906" y2="307.987" gradientUnits="userSpaceOnUse">
<stop offset="0.120217" stop-color="#858277"/>
<stop offset="0.505643" stop-color="#CCC5B2"/>
<stop offset="0.750067" stop-color="#878478"/>
</linearGradient>
<linearGradient id="paint5_linear_264_4188" x1="634.056" y1="319.987" x2="584.906" y2="319.987" gradientUnits="userSpaceOnUse">
<stop offset="0.120217" stop-color="#858277"/>
<stop offset="0.505643" stop-color="#CCC5B2"/>
<stop offset="0.750067" stop-color="#878478"/>
</linearGradient>
<clipPath id="clip0_264_4188">
<rect width="706" height="816" fill="white"/>
</clipPath>
</defs>
</svg>
