<svg width="706" height="816" viewBox="0 0 706 816" fill="none" xmlns="http://www.w3.org/2000/svg">
<g clip-path="url(#clip0_264_4339)">
<path d="M499 456.5L510.5 454L534.5 442.5L555.5 424L571.5 400L576 372L574.5 357L566 338L560.5 319.5L564 304L572 300L578.5 302L584.5 308L589.5 317L593.5 326.5V337L589 345.5C595.379 343.026 597.815 342.327 599 343L607.5 348L622.5 334L633.5 312.5L651.5 302.5H662.5L669.5 312.5L672.5 324L668 337L672.5 344.5L674.5 357.5L672.5 370.5V386.5L654 414.5L640 456.5L615 502L585.5 535L554.5 560.5L537.5 512.5L525.5 490.5L512.5 470L499 456.5Z" fill="#936632"/>
<ellipse cx="365.5" cy="666.5" rx="256.5" ry="27.5" fill="black" fill-opacity="0.34"/>
<path d="M552 558.5C588.75 546.74 648.813 465.297 648 417.5L635.5 423C633.635 470.178 574.046 546.907 552 558.5Z" fill="#754C24"/>
<path d="M267.844 255.414C296.844 210.414 364.274 184.817 408 192.286C406.39 200.994 409.076 200.39 400.844 205.914C419.825 199.768 425.081 201.832 451.5 199.999C443.138 216.64 444.716 219.667 426.844 222.914C555 232.786 641.5 417.786 502.5 446.787C499.211 447.473 496.021 448.128 492.927 448.76C543.249 500.928 573.863 588.853 553.5 624.786L540.5 643.286C470.333 694.382 361.266 684.109 211.5 659.286C161.941 639.014 153.423 633.924 157 626L150 619.287L141 578.287L146 531.787L163.5 471.786L179 434.286C179.015 434.28 179.682 434.02 180.942 433.546L180.344 430.914C180.448 430.681 238.87 300.373 267.844 255.414Z" fill="#936632"/>
<path d="M550.5 563.5C607.63 523.427 634.761 478.017 650.835 416" stroke="black" stroke-width="5"/>
<path d="M501.5 457C584.5 425.999 585 371 565.5 335.5" stroke="black" stroke-width="5"/>
<path d="M60.2702 516.284C74.5935 505.007 134.666 482.498 138.5 440C140.182 421.35 135.7 410.2 126.5 393" stroke="black" stroke-width="5"/>
<path d="M44.6814 202.077C124.717 34.6582 210.181 135.077 263.181 210.577L188.525 292.205L90.1816 565.077C90.1816 565.077 -35.3546 369.496 44.6814 202.077Z" fill="#6D351B"/>
<path d="M344 450C375.315 462.159 394.279 466.769 444 450C450.175 500.755 440.958 518.765 404 534C351.83 520.338 346.594 496.683 344 450Z" fill="#070707"/>
<path d="M382 463C407.927 463.945 424.466 456.963 450.127 442C469.933 442.079 475.113 448.586 489.5 448.5V484C476.008 488.695 450.036 494.313 444.5 488C416.5 500 385.373 499.5 382 489C378.932 465.733 376.761 480.358 382 463Z" fill="#FCFCF7"/>
<path d="M350 496C368.845 486.564 377.466 488.338 388 509C387.681 502.153 386.786 498.327 385 491.5L405 499C414.637 503.005 420.497 507.412 420 527L399.5 533L378 529.5L360.5 514.5L350 496Z" fill="#B12527"/>
<path d="M484 373C507.761 350.712 526.079 335.807 516 308C458.184 300.515 427.699 307.656 399.5 329.5C410.473 348.212 424.462 358.091 484 373Z" fill="#6A341B"/>
<path d="M278 237.5C191.476 390.967 109.821 518.547 156.5 628.5C125.167 609.413 99.185 581.923 78.4692 549.414C97.4525 442.803 119.727 375.926 153.451 321.634C143.551 315.665 137 305.295 137 293.5C137 274.998 153.118 260 173 260C181.116 260 188.603 262.5 194.624 266.716C213.185 245.677 234.425 225.166 259 203L278 237.5ZM78.4692 549.414C78.4641 549.443 78.4596 549.471 78.4545 549.5C78.4363 549.435 78.418 549.37 78.3998 549.305C78.423 549.341 78.446 549.378 78.4692 549.414ZM145.5 108C94.1872 261.262 33.269 387.613 78.3998 549.305C-23.4465 389.335 2.17016 108 145.5 108Z" fill="#4C280E"/>
<path opacity="0.9" d="M264.5 271.5C264.5 290.002 255.5 283.5 245 315C222.909 315 205 302.002 205 283.5C205 264.998 222.909 250 245 250C267.091 250 264.5 252.998 264.5 271.5Z" fill="#A77A36"/>
<path d="M263 257C268.972 236.487 342.5 174.5 407.083 192.679C404.687 201.744 402.069 202.583 393.001 208C416.253 199.787 428.416 198.424 449.001 200C447.055 213.503 440.221 222.19 419 224.5C598.887 239.847 631.489 486.63 446.5 442" stroke="black" stroke-width="6"/>
<path d="M328 382C290.164 495.219 480.908 480.99 483.496 372.84M483.496 372.84C483.496 372.84 399.405 353.868 400.997 330C402.59 306.132 505.474 302.084 516.5 309C527.526 315.917 511.24 354.634 483.496 372.84Z" stroke="black" stroke-width="6"/>
<path d="M275.177 269.529C233.5 208 169.5 291 233.5 316" stroke="black" stroke-width="6"/>
<path d="M264.43 282.686C248.03 254.678 209.5 286.5 249.5 306" stroke="black" stroke-width="6"/>
<path d="M557 606.5C568.446 569.651 530.056 478.861 490.435 452.113L490.435 465.5C528.012 494.088 560.148 581.792 557 606.5Z" fill="#754C24"/>
<path d="M229.5 316C233.537 318.042 152.218 550.412 227 661L181.5 648.5L164 637L147.5 616L140 579L147.5 519L162.077 465.5L203 371.5L228.5 317.5L229.5 316Z" fill="#754C24"/>
<path d="M173.5 438C161.508 546.314 159.262 602.069 192 651.5L166.5 637L147 613.5L140 564L151 511L173.5 438Z" fill="#56381C"/>
<path d="M232.5 662.761C205.229 656.367 183.636 648.865 172 641.5C117.5 607 134.5 499 230.501 316.044" stroke="black" stroke-width="6"/>
<path d="M383 678C455.791 677.587 527.824 665.376 551 626" stroke="black" stroke-width="6"/>
<path d="M489.001 447.501C527.28 469.292 581 588 550 627.5" stroke="black" stroke-width="6"/>
<path d="M380.326 463.234C380.326 463.234 379.664 483.876 385 493C390.336 502.124 433.704 493.94 438 488C442.296 482.06 440.5 445 440.5 445" stroke="black" stroke-width="6"/>
<path d="M490.032 449C490.032 449 492.364 464.396 490.032 478.5C487.701 492.605 446.726 493.688 442.499 487.5C438.273 481.312 442.5 444 442.5 444" stroke="black" stroke-width="6"/>
<path d="M278.5 237.5C55.0223 -153.768 -117.5 453 164.5 636" stroke="black" stroke-width="6"/>
<path d="M331.5 245.127C331.5 245.127 323.5 241 312.5 246.5C301.5 252 304.5 265.127 304.5 265.127C309.762 253.401 315.773 249.084 331.5 245.127Z" fill="#352314"/>
<path d="M304.72 265.586C308.77 249.638 330.502 244.58 332.502 246.499C329.993 241.501 300.331 241.186 304.72 265.586Z" stroke="#110000" stroke-width="6"/>
<circle cx="335" cy="304" r="24" fill="#00020B" stroke="#1D0500" stroke-width="6"/>
<circle cx="461" cy="279" r="19" fill="#00020B" stroke="#1D0500" stroke-width="6"/>
<circle cx="326.5" cy="292.5" r="13.5" fill="#D9D9D9"/>
<circle cx="453" cy="271" r="11" fill="#D9D9D9"/>
<circle cx="360.5" cy="402.5" r="3.5" fill="#160D0C"/>
<circle cx="390.5" cy="399.5" r="3.5" fill="#160D0C"/>
<circle cx="412.5" cy="408.5" r="3.5" fill="#160D0C"/>
<circle cx="502.5" cy="392.5" r="3.5" fill="#160D0C"/>
<circle cx="528.5" cy="395.5" r="3.5" fill="#160D0C"/>
<circle cx="509.5" cy="409.5" r="3.5" fill="#160D0C"/>
<circle cx="494.5" cy="427.5" r="3.5" fill="#160D0C"/>
<circle cx="412.5" cy="431.5" r="3.5" fill="#160D0C"/>
<circle cx="379.5" cy="425.5" r="3.5" fill="#160D0C"/>
<path d="M86.6971 271.602C124.657 228.086 148.113 211.974 192.5 193C148.526 217.57 125.047 234.297 86.6971 271.602Z" stroke="black" stroke-width="4"/>
<path d="M71.8593 380.251C109.819 336.735 178.113 267.474 222.5 248.5C178.526 273.07 110.209 342.946 71.8593 380.251Z" stroke="black" stroke-width="4"/>
<path d="M77.9287 484.353C115.888 440.837 162.5 369.5 210 348.5C156 383 116.279 447.048 77.9287 484.353Z" stroke="black" stroke-width="4"/>
<path d="M98.4685 570.33C136.428 526.814 133.5 514 154.5 499C140.5 508 136.818 533.025 98.4685 570.33Z" stroke="black" stroke-width="4"/>
<path d="M157 186.842C196.079 229.355 192 217.5 218.5 260C181.5 209.715 189.863 229.061 157 186.842Z" stroke="black" stroke-width="4"/>
<path d="M122.5 241C161.58 283.513 182.5 306 209 348.5C172 298.215 155.363 283.218 122.5 241Z" stroke="black" stroke-width="4"/>
<path d="M84.9999 483.615C124.079 526.128 117 505.5 143.5 548C106.5 497.715 117.863 525.833 84.9999 483.615Z" stroke="black" stroke-width="4"/>
<path d="M88.0001 304.615C134.5 343 159 364.978 181.5 409.5C150 357.5 129.5 350 88.0001 304.615Z" stroke="black" stroke-width="4"/>
<path d="M74 372C129.724 418.725 158 466.5 160 473.5C162 480.5 116.008 401.232 74 372Z" stroke="black" stroke-width="4"/>
<path d="M473 369.5C470.241 357.35 444.03 337.546 439 337.5C445.473 340.284 467.314 360.777 464 367.5" stroke="black" stroke-width="2"/>
<path d="M483 371C479.239 361.193 483.35 336.172 485.5 332C482.155 338.717 482.363 362.827 489 367" stroke="black" stroke-width="2"/>
<path d="M442 338C459.235 349.675 467.872 356.228 472.5 368L465 366C458.815 353.192 452.843 347.687 442 338Z" fill="black"/>
<path d="M482.5 372.5V348.5C484.085 357.991 485.096 362.551 487.5 367L482.5 372.5Z" fill="black"/>
<path d="M512.293 326.047C509.401 329.308 509.281 323.853 505.5 320.5C501.719 317.147 493.108 317.332 496 314.071C498.892 310.81 506.902 310.718 510.683 314.071C514.464 317.424 515.185 322.785 512.293 326.047Z" fill="#7F4731"/>
<path d="M423.275 324.859C429.486 325.424 457.707 313.097 481.953 318.011C487.303 318.349 491.233 315.326 486.931 312.675C475.636 305.712 425.562 321.149 423.275 324.859Z" fill="#6F3D26"/>
<path d="M303 378C307.999 377.543 320.97 378.946 325 379.5L322.5 384C322.155 385.886 309.911 384.155 303 378Z" fill="black"/>
<path d="M342.5 446.5C342.5 539 424.5 563 446 491" stroke="black" stroke-width="6"/>
<path d="M363 501.5C362 498.501 375.575 498.441 389.5 510.5C392.281 520.504 388.5 525.001 385.5 523.5C382.5 522 364 504.5 363 501.5Z" fill="#C22F31"/>
<path d="M388.5 510C387.5 507 413 510.5 412.001 516.998C411.003 523.496 399.5 527 396.5 525.5C393.5 524 389.5 513 388.5 510Z" fill="#BF2A2C"/>
<path d="M668.282 358.534C673.894 364.699 677.022 372.936 675.574 382.996C672.135 406.883 647.455 427.045 627.348 424.298C622.852 423.683 618.753 422.196 615.135 419.992C618.097 420.866 621.245 421.52 624.504 422.004C643.545 424.829 668.104 403.339 671.36 378.775C672.302 371.665 671.031 364.67 668.282 358.534Z" fill="black"/>
<path d="M641 353.5C652.542 353.5 660.431 356.646 663.938 362.796C660.189 359.119 653.838 357 644.862 357C629.398 357 613 365.284 613 374.998C613 384.712 622.157 393 637.621 393C644.404 393 651.08 391.02 656.439 387.979C650.245 393.237 641.81 397 633.5 397C617.484 397 608 386.985 608 375.247C608 363.509 624.984 353.5 641 353.5Z" fill="black"/>
<path d="M643.5 327C663.658 327 685 334.5 674.5 376.5C674.362 378.295 674.156 379.815 673.883 381.095L671.578 370.23C676.197 339.1 665.283 332.946 646 331.5C628 330.15 604.501 347.118 613.501 363.233C614.466 365.177 614.105 367.723 613.122 370.525C609.255 366.082 607 360.743 607 355C607 339.536 623.342 327 643.5 327Z" fill="black"/>
<path d="M628.309 316.324C636.954 301.649 653.3 295.254 664.821 302.04C675.797 308.507 678.431 324.607 671.177 338.806C670.101 337.618 668.865 336.512 667.491 335.501C672.904 324.047 671.266 311.67 663.112 306.486C654.002 300.695 640.211 306.077 632.309 318.506C629.145 323.483 627.405 328.836 627.04 333.837C625.629 334.663 624.324 335.58 623.144 336.575C622.751 330.083 624.419 322.928 628.309 316.324Z" fill="black"/>
<path d="M569.946 298.037C579.087 295.155 589.967 303.829 594.248 317.41C597.721 328.428 595.784 339.29 590.048 344.536C593.66 339.576 594.398 330.394 591.407 320.905C587.42 308.255 578.315 299.851 571.072 302.135C563.829 304.418 561.19 316.523 565.178 329.173C566.449 333.204 568.241 336.804 570.325 339.764C571.144 341.365 571.861 342.873 572.602 344.542C567.73 341.123 563.467 335.207 561.147 327.845C556.865 314.264 560.806 300.918 569.946 298.037Z" fill="black"/>
<path d="M585.616 402.394C581.914 396.054 579.726 393.022 575.213 390.442L578.06 388.466C581.489 393.014 583.097 396.146 585.616 402.394Z" fill="black"/>
<path d="M205.5 623C249.003 659.382 270.439 674.219 286 658C312.822 684.81 371.5 668.5 339.5 641.5C307.5 614.5 365.276 653 362.5 664.5C359.724 676 380.562 671.118 389 655C396.934 669.07 404 670 414 651.5L405.5 674L389 679.5L383 678.5L371.5 684L345 683L331.5 690L313 688.5L293.5 679.5L265.5 676L242.5 669.5L217.5 648L205.5 623Z" fill="#754C24"/>
<path d="M619 112C661.25 112 694 143.235 694 183C694 204.067 684.385 224.843 669.062 239.726L660.5 251.5L652 266.5L650 279.5L641 285.5L609 287.5L588 283L583 275L580 262L567.5 241.5L567.87 241.544C551.427 226.564 541 204.939 541 183C541 143.235 576.75 112 619 112Z" fill="#FEC410"/>
<path d="M613.326 112C650.233 112 677.5 142.892 677.5 181C677.5 202.73 668.202 222.764 653.367 235.971C653.454 235.99 653.499 236 653.5 236C639.202 246.164 634.993 275.5 632.5 285C630.007 294.5 607.297 285 597 285C586.703 285 599.5 261 570.5 236C569.182 234.864 568.157 233.829 567.397 232.893C554.459 219.755 546.5 201.104 546.5 181C546.5 142.892 576.419 112 613.326 112Z" fill="#FEF181"/>
<path d="M592.68 344.497C599.053 339.901 603.103 341.556 610.5 346.06L609.5 349.059C605.449 348.852 602.013 346.445 600.398 344.497C598.783 342.549 593.403 345.154 592.68 344.497Z" fill="black"/>
<path d="M605.164 287C603.734 257.938 606.117 237.895 600.874 228.374L588.959 205.325C584.669 196.305 595.441 183.679 608.023 199.312C606.117 189.29 620.415 182.275 623.752 199.312C626.135 190.292 645.677 187.787 641.387 205.325C638.813 215.847 628.518 226.871 626.135 232.884C625.345 234.877 623.752 270.297 623.752 287" stroke="#EEAA13" stroke-width="4"/>
<path d="M287.5 515.5C301.232 540.575 315.383 556.232 328.5 595.5L313.5 597C308.104 569.503 299.5 549 287.5 515.5Z" fill="#754C24"/>
<path d="M582 287L588 282.5L590.5 283.5L602 287H611.5L641 285L643.5 291L639 297L643.5 303L636 309L627.5 318L623.5 330L618.5 333.5L610.5 335.5L602.5 333.5L595.5 329L590.5 314L582 301L584 293L582 287Z" fill="url(#paint0_linear_264_4339)"/>
<path d="M587.644 284.609C587.218 283.546 587.543 282.848 588.684 282.94C595.262 283.469 619.486 287.473 632.244 285.99C632.435 285.968 632.616 285.921 632.796 285.85L642.988 281.836C644.328 281.309 645.285 283.165 644.077 283.95C644.026 283.983 643.977 284.02 643.932 284.061L636.654 290.573C635.253 291.826 633.493 292.613 631.623 292.804C617.74 294.225 608.025 294.428 594.497 291.539C591.664 290.934 589.362 288.905 588.286 286.215L587.644 284.609Z" fill="url(#paint1_linear_264_4339)"/>
<path d="M587.215 283.536C587.073 283.182 587.147 282.886 587.528 282.883C591.626 282.848 618.545 287.583 632.244 285.99C632.435 285.968 632.616 285.921 632.796 285.85L642.988 281.836C644.328 281.309 645.285 283.165 644.077 283.95C644.026 283.983 643.977 284.02 643.932 284.061L634.979 292.072C634.667 292.35 634.272 292.525 633.857 292.57C617.716 294.306 607.385 294.628 591.496 290.863C590.556 290.64 589.787 289.968 589.429 289.072L587.215 283.536Z" fill="url(#paint2_linear_264_4339)"/>
<path d="M590.021 296.185C588.099 294.477 588.43 293.525 590.944 294.061C599.134 295.809 618.163 300.41 629.5 299L638.384 297.223C639.124 297.075 639.837 296.817 640.5 296.456L644 294.5L633.831 301.279C632.628 302.081 631.24 302.581 629.803 302.745C615.469 304.382 612.47 305.413 598.169 302.026C596.749 301.69 595.43 300.993 594.34 300.024L590.021 296.185Z" fill="url(#paint3_linear_264_4339)"/>
<path d="M586.021 305.769C584.099 304.061 584.43 303.109 586.944 303.645C595.134 305.393 614.163 309.994 625.5 308.584L635.5 306.584L643.842 304.539C643.935 304.516 644 304.433 644 304.337C644 304.183 643.837 304.082 643.699 304.152L629.459 311.347C628.494 311.834 627.447 312.143 626.373 312.264C611.545 313.938 608.658 315.041 594.169 311.61C592.749 311.274 591.43 310.577 590.34 309.608L586.021 305.769Z" fill="url(#paint4_linear_264_4339)"/>
<path d="M593.333 319.694C592.785 318.579 593.098 317.839 594.33 317.994C599.36 318.63 613.795 321.57 625.531 320.854C626.387 320.802 626.572 319.691 625.793 319.33L624.958 318.944C624.595 318.776 624.207 319.122 624.334 319.501C624.422 319.764 624.722 319.889 624.97 319.765L625.444 319.528C626.185 319.157 626.998 319.882 626.715 320.66L625.898 322.907C625.654 323.576 625.041 324.049 624.333 324.13C609.914 325.771 611.211 326.975 598.683 323.982C596.353 323.426 594.39 321.843 593.333 319.694Z" fill="url(#paint5_linear_264_4339)"/>
<path d="M585.5 282.5C581 285.5 581 291.757 587 294.007C583.001 292.507 580.5 303.507 587 304.007" stroke="black" stroke-width="3"/>
<path d="M640.848 285.078C645.348 288.078 645.348 293.578 638.848 297.578C642.848 296.078 645.5 306 640.5 307.5" stroke="black" stroke-width="3"/>
<path d="M592.5 319C595 336.5 615 342 627 326.5" stroke="black" stroke-width="3"/>
<path d="M635 307C615.02 311.5 601.091 313.016 582 305L585.5 302C603.811 308.182 616.765 308.118 635 307Z" fill="black"/>
<path d="M631.498 317.067C634.306 319.447 613.559 326.066 591 319L590 314.5C607.62 322.008 628.69 314.687 631.498 317.067Z" fill="black"/>
<path d="M638 297.437C618.02 301.937 604.091 303.452 585 295.437L587 292.5C605.311 298.682 619.765 298.554 638 297.437Z" fill="black"/>
<path d="M584 277.003C584 290.003 636.145 289.986 646.5 283.003C655 274.503 649.248 273.77 653.999 263.503C669.5 230.003 685 235.503 691.999 199.003C700.644 153.917 675.5 112 616.5 112" stroke="black" stroke-width="4"/>
<path d="M650.573 277C650.573 289.999 598.427 289.982 588.073 283C579.573 274.5 585.324 273.767 580.573 263.499C565.073 230 549.573 235.5 542.573 198.999C533.928 153.914 560 112 619 112" stroke="black" stroke-width="4"/>
<path d="M281.5 503C296.15 531.948 304.43 547.625 316.5 598H308.5C302.462 559.691 295.364 539.207 281.5 503Z" fill="black"/>
<path d="M326.728 632.13C327.627 632.419 328.551 632.71 329.5 632.999C354.999 644.999 356.977 671.876 344.713 684.498C332.51 697.056 291.419 693.041 284.603 665.914C299.279 688.112 332.925 691.262 342.5 681.604C355.409 666.332 343.166 643.466 326.728 632.13Z" fill="black"/>
<path d="M362.627 621C363.579 621.323 364.557 621.648 365.562 621.971C392.574 635.39 394.669 665.447 381.677 679.562C374.548 687.305 358.115 689.412 343.596 684.659C345.029 683.419 346.284 681.942 347.384 680.082C360.687 683.843 373.802 682.215 379.333 676.325C393.008 659.247 380.04 633.677 362.627 621Z" fill="black"/>
<path d="M336.5 593C379.854 593 415 618.967 415 651C415 675.272 398.637 685.152 378.309 680.467L381.365 674.674C395.301 678.75 405.921 675.556 410 658.882C417 630.263 379.959 597 335.5 597C316.631 597 297.657 601.481 282.066 609.21C296.179 599.172 315.364 593 336.5 593Z" fill="black"/>
<path d="M194.999 537.5C192.482 606.101 212.807 676.865 291.073 675.61L297.963 682.945C297.81 682.963 297.656 682.982 297.5 683C215.001 683 193.016 629.423 191.351 565.082C191.08 554.629 192.417 545.383 195.036 537.224C195.023 537.316 195.012 537.409 194.999 537.5Z" fill="black"/>
<path d="M635.58 130.788C636.216 132.904 635.818 133.849 633.57 134.525C631.322 135.201 627.644 133.914 627.008 131.799C626.372 129.683 627.104 128.115 629.352 127.439C631.6 126.764 634.944 128.673 635.58 130.788Z" fill="#FFFEFE"/>
<path d="M566.937 172.583C563.307 173.274 560.086 170.154 560.968 166.565C567.631 139.449 586.505 125.217 612.497 122.854C616.398 122.499 619.156 126.364 617.869 130.063C617.054 132.407 614.809 133.907 612.34 134.153C596.214 135.763 579.036 149.001 571.078 169.072C570.368 170.863 568.831 172.222 566.937 172.583Z" fill="#FEFEFE"/>
</g>
<defs>
<linearGradient id="paint0_linear_264_4339" x1="643.5" y1="309.25" x2="581" y2="309.25" gradientUnits="userSpaceOnUse">
<stop stop-color="#47453B"/>
<stop offset="0.461586" stop-color="#ADA890"/>
<stop offset="1" stop-color="#504D42"/>
</linearGradient>
<linearGradient id="paint1_linear_264_4339" x1="636.056" y1="289.903" x2="586.906" y2="289.903" gradientUnits="userSpaceOnUse">
<stop offset="0.120217" stop-color="#858277"/>
<stop offset="0.505643" stop-color="#CCC5B2"/>
<stop offset="0.750067" stop-color="#878478"/>
</linearGradient>
<linearGradient id="paint2_linear_264_4339" x1="636.056" y1="289.903" x2="586.906" y2="289.903" gradientUnits="userSpaceOnUse">
<stop offset="0.120217" stop-color="#858277"/>
<stop offset="0.505643" stop-color="#CCC5B2"/>
<stop offset="0.750067" stop-color="#878478"/>
</linearGradient>
<linearGradient id="paint3_linear_264_4339" x1="636.056" y1="300.403" x2="586.906" y2="300.403" gradientUnits="userSpaceOnUse">
<stop offset="0.120217" stop-color="#858277"/>
<stop offset="0.505643" stop-color="#CCC5B2"/>
<stop offset="0.750067" stop-color="#878478"/>
</linearGradient>
<linearGradient id="paint4_linear_264_4339" x1="632.056" y1="309.987" x2="582.906" y2="309.987" gradientUnits="userSpaceOnUse">
<stop offset="0.120217" stop-color="#858277"/>
<stop offset="0.505643" stop-color="#CCC5B2"/>
<stop offset="0.750067" stop-color="#878478"/>
</linearGradient>
<linearGradient id="paint5_linear_264_4339" x1="635.056" y1="321.987" x2="585.906" y2="321.987" gradientUnits="userSpaceOnUse">
<stop offset="0.120217" stop-color="#858277"/>
<stop offset="0.505643" stop-color="#CCC5B2"/>
<stop offset="0.750067" stop-color="#878478"/>
</linearGradient>
<clipPath id="clip0_264_4339">
<rect width="706" height="816" fill="white"/>
</clipPath>
</defs>
</svg>
