<svg width="680" height="579" viewBox="0 0 680 579" fill="none" xmlns="http://www.w3.org/2000/svg">
<path d="M543.854 332.795C539.584 334.996 537.114 336.15 532.389 337.875C535.248 340.428 536.941 341.585 540.06 343.132C542.658 339 543.477 336.774 543.854 332.795Z" fill="#FEC410"/>
<path d="M539.588 343.297C542.279 343.414 540.697 343.433 547.541 346.331C544.727 350.548 546.005 354.799 542.665 358.115L538.32 353.28L536.359 349.199L539.588 343.297Z" fill="#D01F17"/>
<path d="M553.431 328.377L550.551 326.208L544.16 332.158L546.452 337.182L548.057 338.739L550.913 339.327L552.138 336.778L554.473 334.37L553.431 328.377Z" fill="#D01F17"/>
<path d="M539.588 343.297C542.279 343.414 540.697 343.433 547.541 346.331C544.727 350.548 546.005 354.799 542.665 358.115L538.32 353.28L536.359 349.199L539.588 343.297Z" fill="#D01F17"/>
<path d="M537.511 341.907L532.554 338.346L532.769 341.98L535.06 347.005L536.194 348.727L538.529 346.319L540.226 343.604L539.423 342.826L537.511 341.907Z" fill="#D01F17"/>
<path d="M544.16 332.158C543.464 336.924 542.656 339.375 540.06 343.132L547.542 346.337L550.913 339.327C547.319 338.804 545.914 337.078 544.16 332.158Z" fill="#007A33"/>
<path d="M551.384 339.161C549.356 340.933 551.078 339.798 547.542 346.337C552.374 347.873 554.056 348.292 558.487 351.845L558.861 345.356L556.955 341.447L554.216 338.169L551.384 339.161Z" fill="#FEC410"/>
<path d="M560.926 352.774C557.901 353.397 556.023 356.426 552.556 363.657C556.758 366.185 559.133 367.378 563.389 368.866L564.07 361.739L560.926 352.774Z" fill="#D01F17"/>
<path d="M540.918 357.666C543.9 356.862 546.206 358.752 552.554 363.651C549.938 367.799 551.256 370.441 548.124 373.684L543.117 366.961L540.918 357.666Z" fill="#0C6933"/>
<path d="M557.739 351.239L553.584 348.457L547.377 345.865L543.443 357.312L548.4 360.872L552.555 363.654L556.397 356.478L559.344 352.796L557.739 351.239Z" fill="#007A33"/>
<path d="M562.751 368.556C561.498 369.853 562.57 368.552 559.014 375.514C561.933 377.39 564.595 380.617 568.962 381.738C569.303 378.296 567.558 377.872 567.427 374.335C565.631 370.726 565.528 369.931 562.751 368.556Z" fill="#007A33"/>
<path d="M562.279 368.722L552.72 364.126L549.822 370.971L554.283 373.115L558.909 375.732L562.279 368.722Z" fill="#FEC410"/>
<path d="M549.987 371.442C551.734 371.89 552.206 371.725 558.882 375.792C557.378 378.92 556.196 383.018 553.064 386.261C550.97 383.507 549.49 382.108 549.016 379.252C547.707 375.625 548.342 374.068 549.987 371.442Z" fill="#D01F17"/>
<path d="M559.074 376.204L553.535 386.094L562.316 391.492L568.493 381.909L559.074 376.204Z" fill="#FEC410"/>
<path d="M569.067 382.126C566.267 384.653 563.353 389.539 562.788 391.327C562.222 393.115 561.092 398.199 564.044 400.954C567.598 400.367 569.95 397.797 572.984 396.229C572.459 389.849 571.688 387.342 569.067 382.126Z" fill="#D01F17"/>
<path d="M553.064 386.262C556.416 388.266 556.416 388.266 562.954 391.799C560.812 394.62 564.492 399.208 563.572 401.12C560.045 401.85 558.119 401.945 554.724 401.573C552.919 395.431 552.494 392.071 553.064 386.262Z" fill="#007A33"/>
<path d="M574.093 396.37L572.206 397.032L569.069 398.662L564.209 401.425L557.414 401.689L553.002 402.706L551.188 408.111L553.786 412.498L566.881 410.556L575.846 407.412L579.289 405.145L578.389 398.043L574.093 396.37Z" fill="#FEC410"/>
<path d="M600.326 425.851L600.418 421.58L595.362 411.696L580.564 405.758L571.599 408.901L565.631 411.524L554.895 412.639L543.577 427.205L538.558 440.091L540.991 444.007L537.945 482.164L543.405 497.734L551.499 499.665L560.415 493.359L566.647 497.533L575.943 495.333L577.898 488.819L581.605 493.347L588.756 495.609L593.425 490.792L595.098 486.497L600.503 488.311L612.348 487.336L615.718 480.326L620.105 477.728L625.767 475.743L628.427 463.684L600.326 425.851Z" fill="#4E91B2"/>
<path d="M587.834 426.565C589.68 427.526 617.885 464.758 618.654 462.38C619.424 460.002 601.121 428.822 602.899 428.657C604.678 428.493 619.664 449.271 619.664 449.271L629.536 463.825L627.042 476.356L623.126 478.788L616.331 479.052L610.209 461.593C610.209 461.593 585.987 425.604 587.834 426.565Z" fill="#007A33"/>
<path d="M579.54 431.549C581.238 432.754 604.083 473.495 605.171 471.244C606.259 468.994 591.946 438.756 593.73 438.836C595.514 438.916 607.569 460.072 607.569 460.072L614.356 479.123L611.69 483.721L605.984 488.405L596.538 487.582L596.489 484.15L594.087 471.883C594.087 471.883 577.843 430.345 579.54 431.549Z" fill="#FEC410"/>
<path d="M580.255 440.306C579.4 442.205 584.787 478.901 582.628 480.32C580.47 481.739 570.036 451.516 568.602 450.22C567.169 448.925 572.744 472.611 572.744 472.611L578.693 491.764L583.32 494.38L590.612 495.532L596.647 487.058L592.511 475.262C592.511 475.262 581.109 438.408 580.255 440.306Z" fill="#D01F17"/>
<path d="M567.254 444.864C566.4 446.763 566.285 484.413 564.208 483.022C562.131 481.631 559.174 448.308 557.676 449.28C556.177 450.252 556.486 474.6 556.486 474.6L560.273 494.466L564.9 497.082L572.192 498.234L578.227 489.76L574.091 477.964C574.091 477.964 568.108 442.966 567.254 444.864Z" fill="#FEC410"/>
<path d="M556.61 441.709C555.756 443.607 547.818 485.029 545.659 486.447C543.501 487.866 540.997 454.602 539.508 450.355C538.019 446.109 537.259 478.696 537.259 478.696L541.724 497.891L546.351 500.508L550.428 500.047L559.678 493.185L555.569 476.516C555.569 476.516 557.465 439.811 556.61 441.709Z" fill="#007A33"/>
<path d="M578.511 405.948C600.253 413.84 603.214 419.315 601.6 426.464C637.829 471.909 631.857 476.119 615.205 478.78" stroke="black" stroke-width="5"/>
<path d="M554.092 411.861C542.04 431.602 536.375 439.572 542.1 444.148C532.025 503.868 548.27 505.566 559.802 494.634" stroke="black" stroke-width="5"/>
<path d="M594.486 487.773C594.933 486.025 589.106 487.54 604.584 486.35C620.062 485.159 614.211 467.474 577.574 416.875C580.439 416.392 620.62 470.13 618.408 480.443C616.196 490.756 605.249 493.348 594.486 487.773Z" fill="black" stroke="black"/>
<path d="M578.204 488.182C580.802 492.569 583.19 492.625 583.19 492.625C600.045 495.014 596.344 476.087 573.873 422.185C576.587 422.362 602.947 480.464 596.124 490.325C589.301 500.186 579.932 497.643 578.204 488.182Z" fill="black" stroke="black"/>
<path d="M577.898 488.82C576.828 493.77 571.082 494.826 571.082 494.826C556.383 498.482 555.201 481.196 560.147 422.459C557.84 423.231 550.529 486.877 559.237 495.363C567.946 503.849 578.953 498.644 577.898 488.82Z" fill="black" stroke="black"/>
<path d="M594.626 486.662C594.806 490.496 589.344 492.753 589.344 492.753C579.465 497.96 575.439 484.106 567.722 439.932C566.21 440.895 573.166 489.094 581.064 493.867C588.963 498.64 597.272 493.729 594.626 486.662Z" fill="black" stroke="black"/>
<path d="M569.296 382.688C560.295 376.535 551.586 370.541 546.495 370.549" stroke="black"/>
<path d="M562.316 391.492C553.389 386.997 557.799 389.25 550.82 384.396" stroke="black"/>
<path d="M554.167 335.007C551.001 338.163 546.075 347.49 542.714 361.276" stroke="black"/>
<path d="M536.831 349.033C538.339 344.266 545.814 336.879 543.664 330.745" stroke="black"/>
<path d="M554.216 338.169C549.72 340.583 546.052 339.513 543.939 330.65" stroke="black"/>
<path d="M559.773 352.508C556.608 355.664 551.553 363.113 548.192 376.899" stroke="black"/>
<path d="M563.149 363.647C563.777 368.22 559.086 376.132 552.309 388.643" stroke="black"/>
<path d="M568.186 382.546C560.98 392.111 561.095 395.409 564.044 400.954" stroke="black"/>
<path d="M553.449 400.96C562.818 403.503 569.399 399.606 573.744 395.373" stroke="black"/>
<path d="M553.16 412.224C564.501 412.721 573.129 408.652 578.567 406.106" stroke="black" stroke-width="2"/>
<path d="M563.857 368.693C558.107 367.859 550.109 361.838 539.926 354.836M559.179 352.323C550.996 345.043 539.307 345.516 533.024 338.181" stroke="black"/>
<path d="M553.247 336.919L552.304 337.25L551.856 338.996L553.272 338.5L553.578 337.863L553.247 336.919Z" fill="#007A33"/>
<path d="M532.011 334.831C529.982 340.974 530.117 342.826 534.423 346.698C536.241 355.262 537.792 355.349 541.555 357.974C541.029 363.739 542.731 368.935 546.85 373.073C546.684 379.021 546.538 380.531 551.814 387.229C550.598 392.933 550.355 395.158 553.921 400.795C550.22 402.443 547.324 408.114 553.976 414.552" stroke="black" stroke-width="5"/>
<path d="M549.088 323.542C555.722 325.498 556.949 330.852 555.135 336.257C558.995 342.561 561.433 343.543 560.263 350.884C564.275 355.058 565.272 362.09 564.639 367.895C568.484 372.437 569.705 373.996 569.768 382.521C574.28 386.217 575.189 388.671 574.4 395.733C579.304 397.86 580.943 402.115 579.033 408.945" stroke="black" stroke-width="5"/>
<path d="M552.709 327.674C550.464 336.22 535.682 337.861 529.005 336.107C522.328 334.352 531.743 333.555 533.988 325.009C545.131 316.046 543.032 306.706 549.709 308.46C556.386 310.214 554.954 319.127 552.709 327.674Z" fill="#0C6933"/>
<path d="M192.209 397.674C196.966 398.338 199.679 398.609 204.709 398.674C202.856 402.03 201.64 403.681 199.209 406.174C195.39 403.134 193.881 401.304 192.209 397.674Z" fill="#FEC410"/>
<path d="M199.709 406.173C197.209 407.174 198.708 406.668 193.208 411.668C197.259 414.716 197.46 419.15 201.709 421.174L204.209 415.174L204.709 410.674L199.709 406.173Z" fill="#D01F17"/>
<path d="M181.709 396.674L183.709 393.674L191.709 397.174L191.209 402.674L190.209 404.674L187.709 406.174L185.709 404.174L182.709 402.674L181.709 396.674Z" fill="#D01F17"/>
<path d="M199.709 406.173C197.209 407.174 198.708 406.668 193.208 411.668C197.259 414.716 197.46 419.15 201.709 421.174L204.209 415.174L204.709 410.674L199.709 406.173Z" fill="#D01F17"/>
<path d="M201.209 404.174L204.709 399.174L205.709 402.674L205.209 408.174L204.709 410.174L201.709 408.674L199.209 406.674L199.709 405.674L201.209 404.174Z" fill="#D01F17"/>
<path d="M191.709 397.174C193.943 401.442 195.516 403.487 199.209 406.174L193.209 411.674L187.709 406.174C190.927 404.492 191.682 402.397 191.709 397.174Z" fill="#007A33"/>
<path d="M187.209 406.173C189.709 407.174 187.709 406.673 193.209 411.673C189.158 414.722 187.709 415.674 184.703 420.493L182.203 414.493L182.709 410.174L184.209 406.174L187.209 406.173Z" fill="#FEC410"/>
<path d="M182.709 422.177C185.77 421.764 188.545 424 194.209 429.677C191.08 433.453 189.233 435.364 185.709 438.177L182.709 431.677V422.177Z" fill="#D01F17"/>
<path d="M203.209 420.173C200.129 420.401 198.578 422.947 194.209 429.671C198.05 432.72 197.68 435.649 201.709 437.673L204.209 429.672L203.209 420.173Z" fill="#0C6933"/>
<path d="M185.209 419.674L188.209 415.674L193.209 411.174L200.709 420.674L197.209 425.674L194.209 429.674L188.209 424.174L184.209 421.674L185.209 419.674Z" fill="#007A33"/>
<path d="M186.209 437.674C187.82 438.482 186.379 437.61 192.038 443.003C189.904 445.74 188.46 449.665 184.709 452.168C183.249 449.033 184.756 448.055 183.709 444.674C184.209 440.674 184.044 439.89 186.209 437.674Z" fill="#007A33"/>
<path d="M186.709 437.674L194.209 430.174L199.209 435.674L195.709 439.174L192.209 443.174L186.709 437.674Z" fill="#FEC410"/>
<path d="M199.209 436.174C197.709 437.175 197.209 437.175 192.255 443.222C194.709 445.676 197.18 449.152 201.209 451.176C202.274 447.885 203.208 446.074 202.709 443.222C202.745 439.367 201.63 438.108 199.209 436.174Z" fill="#D01F17"/>
<path d="M192.209 443.674L200.709 451.174L194.209 459.174L185.209 452.174L192.209 443.674Z" fill="#FEC410"/>
<path d="M184.739 452.569C188.218 454.027 192.584 457.674 193.709 459.174C194.834 460.674 197.583 465.098 195.709 468.674C192.161 469.296 189.091 467.649 185.709 467.174C184.093 460.979 183.991 458.358 184.739 452.569Z" fill="#D01F17"/>
<path d="M201.209 451.177C198.709 454.177 198.709 454.177 193.709 459.675C196.663 461.628 194.709 467.175 196.209 468.675C199.779 468.197 201.628 467.649 204.709 466.175C204.379 459.781 203.669 456.47 201.209 451.177Z" fill="#007A33"/>
<path d="M184.709 467.674H186.709L190.209 468.174L195.709 469.174L202.209 467.174L206.709 466.674L210.209 471.174L209.209 476.174L196.209 478.674H186.709L182.709 477.674L181.209 470.674L184.709 467.674Z" fill="#FEC410"/>
<path d="M169.709 504.174L168.209 500.174L169.709 489.174L181.709 478.674H191.209L197.709 479.174L208.209 476.674L223.709 486.674L232.709 497.174L231.709 501.674L247.209 536.674V553.174L240.209 557.674L229.709 554.674L225.209 560.674L215.709 561.674L211.709 556.174L209.709 561.674L203.709 566.174L197.709 563.174L194.709 559.674L190.209 563.174L178.709 566.174L173.209 560.674L168.209 559.674H162.209L155.709 549.174L169.709 504.174Z" fill="#4E91B2"/>
<path d="M181.734 500.714C180.309 502.233 166.013 546.699 164.5 544.71C162.986 542.72 169.942 507.241 168.209 507.674C166.476 508.107 159.209 532.674 159.209 532.674L154.709 549.674L161.209 560.674L165.709 561.674L172.209 559.674L172.209 541.173C172.209 541.173 183.158 499.196 181.734 500.714Z" fill="#007A33"/>
<path d="M191.209 502.674C190.006 504.372 181.928 550.377 180.157 548.613C178.386 546.85 181.887 513.579 180.23 514.245C178.572 514.911 174.197 538.864 174.197 538.864L174.096 559.088L178.133 562.544L185.068 565.076L193.709 561.174L192.62 557.92L190.828 545.549C190.828 545.549 192.412 500.975 191.209 502.674Z" fill="#FEC410"/>
<path d="M193.433 511.174C194.867 512.682 201.927 549.094 204.433 549.719C206.939 550.344 206.785 518.37 207.709 516.674C208.633 514.977 211.209 539.174 211.209 539.174L211.933 559.216L208.433 563.216L201.933 566.716L193.433 560.716V548.216C193.433 548.216 191.998 509.665 193.433 511.174Z" fill="#D01F17"/>
<path d="M207.209 511.173C208.643 512.682 221.209 548.173 222.709 546.174C224.209 544.174 215.974 511.749 217.709 512.171C219.445 512.592 227.209 535.671 227.209 535.671L230.209 555.671L226.709 559.671L220.209 563.171L211.709 557.171V544.671C211.709 544.671 205.775 509.665 207.209 511.173Z" fill="#FEC410"/>
<path d="M216.209 504.674C217.643 506.182 238.84 542.644 241.347 543.269C243.853 543.893 235.209 511.674 235.209 507.174C235.209 502.674 246.709 533.174 246.709 533.174L248.847 552.766L245.347 556.766L241.347 557.68L230.347 554.266L228.709 537.176C228.709 537.176 214.775 503.165 216.209 504.674Z" fill="#007A33"/>
<path d="M221.709 59.673L231.209 63.1721L226.209 67.1738L218.209 70.1738L208.209 72.1738L196.211 71.7163L193.709 66.6738L196.709 59.173L202.709 56.673L214.709 58.173L221.709 59.673Z" fill="#D01F17"/>
<path d="M209.629 74.4335L214.709 74.1738L210.709 78.1738L207.312 81.3625L200.875 82.7436L193.17 82.5216L191.596 79.2218L193.572 74.2691L197.443 72.5855L205.142 73.4931L209.629 74.4335Z" fill="#F7BF19"/>
<path d="M229.709 50.174L240.709 58.6742L233.209 63.1742L228.209 59.6742L205.209 56.6742L202.709 50.6743L212.709 44.6766L219.709 45.6738L229.709 50.174Z" fill="#4E91B2"/>
<path d="M229.709 29.6738L240.209 31.1738V54.6738L219.709 44.1738V36.1738L229.709 29.6738Z" fill="#D01F17"/>
<path d="M240.709 43.6743L241.709 58.1741L251.171 54.617L252.709 50.1738L256.709 42.1738L261.209 31.1743L255.709 25.1739L247.27 27.2825L241.709 31.1743L240.709 43.6743Z" fill="#F7BF19"/>
<path d="M275.247 30.8721L281.209 38.0608L282.709 44.1738L252.209 54.1738L259.167 38.0608L265.209 32.1738L275.247 30.8721Z" fill="#D01F17"/>
<path d="M192.209 96.6737L203.209 85.1737L226.914 66.9536L258.454 52.9456L284.709 44.6501L305.709 43.6737L332.6 44.6501L346.709 47.1732L358.709 51.6732L363.209 53.1728L367.358 54.6728L380.709 59.6728L376.704 58.6728L370.709 58.6728L356.709 59.6728L338.209 61.6728L299.709 69.4712L258.454 81.8378L224.209 100.673L201.596 115.415L182.709 128.673L166.209 141.173L170.709 130.174L176.709 118.674L192.209 96.6737Z" fill="#D01F17"/>
<path d="M164.209 143.174L175.709 133.673L201.709 113.674L235.209 92.1738L267.709 78.6738L290.209 71.6738L321.709 65.4258L364.209 58.8813L376.209 58.8809L386.709 63.1734L409.209 73.8406L431.209 88.1734L422.209 82.6734H403.209H378.709L345.709 85.9954L305.209 94.1734L246.709 117.317L209.709 140.692L183.709 161.673L166.209 176.689L151.709 189.673V185.173L154.209 173.673L164.209 143.174Z" fill="#F7BF19"/>
<path d="M149.209 248.674L174.709 218.674L202.709 191.174L235.709 167.674L269.209 149.174L321.709 128.674L379.709 117.674H424.209L474.709 126.174L503.209 165.174L532.709 220.674L548.709 261.174L556.209 302.674L550.209 322.674L534.709 329.674L514.709 331.174L499.709 319.674L485.209 288.674L466.209 248.674L455.209 234.174L442.709 223.174L424.709 211.674L409.209 206.174L384.209 201.674L350.709 203.174L320.709 209.674L288.709 222.674L259.709 238.174L237.209 256.674L231.709 296.174V331.674V358.674L228.209 375.674L222.709 387.674L208.209 395.674H193.209L173.209 382.674L164.709 367.674L157.709 347.174L151.709 296.174L148.209 265.174L149.209 248.674Z" fill="#D01F17"/>
<path d="M152.209 191.674L170.209 175.174L198.709 150.174L247.709 118.674L280.709 103.674L308.209 94.6738L335.709 87.6738L380.709 83.1738L423.709 84.1738L432.209 89.6738L456.709 108.174L473.209 123.674L426.209 116.674H398.209L366.709 118.674L333.209 125.674L303.209 131.674L271.209 145.174L239.709 162.674L210.709 184.174L177.209 213.674L150.209 249.174H147.709L146.709 232.174L147.709 205.174L152.209 191.674Z" fill="#4E91B2"/>
<path d="M146.209 255.674C207.841 156.699 365.157 90.741 475.709 127.674" stroke="black" stroke-width="5"/>
<path d="M251.709 54.6733C262.209 20.1738 279.709 28.6731 282.709 46.1725" stroke="black" stroke-width="5"/>
<path d="M241.209 56.664C232.209 9.16945 269.709 26.6738 259.209 38.1742" stroke="black" stroke-width="5"/>
<path d="M220.07 45.674C210.312 31.9294 238.709 20.6739 240.709 34.1742" stroke="black" stroke-width="5"/>
<path d="M242.514 59.1328C242.514 59.1328 224.092 40.5754 211.709 45.1713C206.361 47.1564 194.209 56.6724 210.709 56.6738C227.209 56.6753 233.208 64.1776 233.208 64.1776" stroke="black" stroke-width="5"/>
<path d="M203.709 55.1042C203.049 55.2485 202.4 55.4365 201.764 55.6725C196.416 57.6575 185.709 72.6723 202.209 72.6737C218.709 72.6752 225.709 68.6736 225.709 68.6736" stroke="black" stroke-width="5"/>
<path d="M216.709 74.1737C216.709 74.1737 206.823 83.5949 199.266 84.385C191.709 85.175 190.469 72.8098 197.209 71.6753" stroke="black" stroke-width="5"/>
<path d="M183.709 478.174C165.803 492.815 164.82 498.962 168.709 505.174C149.558 560.047 156.587 562.044 173.181 559.045" stroke="black" stroke-width="5"/>
<path d="M208.709 475.674C226.615 490.315 234.598 495.962 230.709 502.174C259.977 555.196 245.209 562.174 230.709 555.674" stroke="black" stroke-width="5"/>
<path d="M195.709 560.676C194.709 559.174 200.709 558.676 185.709 562.674C170.709 566.672 170.378 548.047 188.209 488.176C185.346 488.668 165.209 552.674 170.709 561.674C176.209 570.674 187.397 569.498 195.709 560.676Z" fill="black" stroke="black"/>
<path d="M211.209 555.674C210.209 560.674 207.974 561.516 207.974 561.516C192.859 569.348 190.088 550.263 193.458 491.962C190.956 493.027 185.306 556.578 195.008 563.626C204.709 570.674 212.709 565.174 211.209 555.674Z" fill="black" stroke="black"/>
<path d="M211.709 556.175C214.356 560.492 220.129 559.588 220.129 559.588C235.209 558.174 230.605 541.471 206.502 487.679C208.935 487.643 236.894 545.285 231.484 556.175C226.074 567.065 213.964 565.795 211.709 556.175Z" fill="black" stroke="black"/>
<path d="M195.209 559.674C196.308 563.351 202.209 563.674 202.209 563.674C213.254 565.319 212.469 550.913 205.135 506.674C206.881 507.082 216.265 554.868 210.391 561.986C204.517 569.103 195.051 567.218 195.209 559.674Z" fill="black" stroke="black"/>
<path d="M521.709 330.674C533.914 345.767 558.814 335.464 554.209 306.174" stroke="black" stroke-width="5"/>
<path d="M184.709 453.175C191.167 444.391 197.402 435.852 202.209 434.175" stroke="black"/>
<path d="M194.209 459.174C201.146 451.978 197.729 455.563 202.709 448.673" stroke="black"/>
<path d="M183.209 403.174C187.24 405.104 194.975 412.276 202.709 424.174" stroke="black"/>
<path d="M204.209 410.674C201.209 406.674 191.71 402.177 191.71 395.677" stroke="black"/>
<path d="M184.209 406.174C189.25 406.964 192.358 404.741 191.419 395.678" stroke="black"/>
<path d="M183.709 421.544C187.74 423.475 194.975 428.832 202.709 440.729" stroke="black"/>
<path d="M184.209 433.173C185.13 437.696 192.174 443.61 202.709 453.174" stroke="black"/>
<path d="M185.709 452.674C195.674 459.316 196.657 462.466 195.709 468.674" stroke="black"/>
<path d="M205.709 465.174C197.709 470.674 190.209 469.174 184.709 466.617" stroke="black"/>
<path d="M209.709 475.709C199.172 479.93 189.683 478.945 183.709 478.342" stroke="black" stroke-width="2"/>
<path d="M185.21 438.169C190.361 435.479 195.917 427.151 203.209 417.174M184.209 421.173C189.522 411.595 200.709 408.174 204.21 399.173" stroke="black"/>
<path d="M184.709 404.674H185.709L186.709 406.174H185.209L184.709 405.674V404.674Z" fill="#007A33"/>
<path d="M242.578 104.137L253.189 105.558L248.489 114.411L237.709 113.269L242.578 104.137Z" fill="#D01F17" fill-opacity="0.35"/>
<path d="M249.587 87.0056L259.403 91.279L252.458 98.5058L242.403 94.4555L249.587 87.0056Z" fill="#D01F17" fill-opacity="0.35"/>
<path d="M225.66 101.146L236.258 102.663L231.478 111.473L220.709 110.234L225.66 101.146Z" fill="#D01F17" fill-opacity="0.35"/>
<path d="M218.198 119.968L228.904 119.831L225.54 129.273L214.709 129.711L218.198 119.968Z" fill="#D01F17" fill-opacity="0.35"/>
<path d="M203.341 116.987L214.047 117.008L210.546 126.399L199.709 126.678L203.341 116.987Z" fill="#D01F17" fill-opacity="0.35"/>
<path d="M193.13 135.958L203.834 135.746L200.537 145.212L189.709 145.726L193.13 135.958Z" fill="#D01F17" fill-opacity="0.35"/>
<path d="M176.746 135.904L187.434 135.275L184.509 144.861L173.709 145.798L176.746 135.904Z" fill="#D01F17" fill-opacity="0.35"/>
<path d="M169.192 156.821L179.829 155.6L177.44 165.334L166.709 166.868L169.192 156.821Z" fill="#D01F17" fill-opacity="0.35"/>
<path d="M161.209 146.6L168.829 146.6L166.44 156.334L158.709 156.334L161.209 146.6Z" fill="#D01F17" fill-opacity="0.35"/>
<path d="M277.574 79.2985L287.561 83.1559L280.926 90.668L270.709 87.0435L277.574 79.2985Z" fill="#D01F17" fill-opacity="0.35"/>
<path d="M304.933 69.3231L313.994 75.0258L306.04 81.1245L296.709 75.6065L304.933 69.3231Z" fill="#D01F17" fill-opacity="0.35"/>
<path d="M331.933 63.3231L340.994 69.0258L333.04 75.1245L323.709 69.6065L331.933 63.3231Z" fill="#D01F17" fill-opacity="0.35"/>
<path d="M345.933 72.3231L354.994 78.0258L347.04 84.1245L337.709 78.6065L345.933 72.3231Z" fill="#D01F17" fill-opacity="0.35"/>
<path d="M358.933 60.3231L367.994 66.0258L360.04 72.1245L350.709 66.6065L358.933 60.3231Z" fill="#D01F17" fill-opacity="0.35"/>
<path d="M371.933 70.3231L380.994 76.0258L373.04 82.1245L363.709 76.6065L371.933 70.3231Z" fill="#D01F17" fill-opacity="0.35"/>
<path d="M393.933 68.3231L402.994 74.0258L395.04 80.1245L385.709 74.6065L393.933 68.3231Z" fill="#D01F17" fill-opacity="0.35"/>
<path d="M377.209 59.1734L387.709 64.6042L382.039 70.1221L372.708 64.6041L377.209 59.1734Z" fill="#D01F17" fill-opacity="0.35"/>
<path d="M319.593 77.3262L328.94 82.5474L321.315 89.0536L311.709 84.0309L319.593 77.3262Z" fill="#D01F17" fill-opacity="0.35"/>
<path d="M266.25 92.2805L276.387 95.7248L270.066 103.503L259.709 100.301L266.25 92.2805Z" fill="#D01F17" fill-opacity="0.35"/>
<path d="M294.24 84.3222L303.841 89.0587L296.56 95.9462L286.709 91.4212L294.24 84.3222Z" fill="#D01F17" fill-opacity="0.35"/>
<path d="M148.709 196.674C211.274 121.474 317.198 74.2984 426.709 84.6741" stroke="black" stroke-width="5"/>
<path d="M162.209 143.174C231.393 84.7863 275.86 68.5326 377.209 58.1743" stroke="black" stroke-width="5"/>
<path d="M204.058 395.676C208.005 400.802 208.491 402.595 205.709 407.674C206.827 416.357 205.392 416.952 202.709 420.674C205.114 425.941 205.227 431.407 202.709 436.675C204.834 442.233 205.471 443.61 202.709 451.676C205.744 456.656 206.709 458.675 205.209 465.175C209.247 465.505 213.857 469.899 209.709 478.176" stroke="black" stroke-width="5"/>
<path d="M184.208 390.674C178.595 394.715 179.209 400.174 182.709 404.674C181.152 411.9 179.176 413.633 182.709 420.174C180.304 425.441 181.69 432.406 184.208 437.674C182.083 443.233 181.447 445.108 184.208 453.174C181.173 458.154 181.127 460.771 184.208 467.174C180.284 470.804 180.146 475.362 184.208 481.174" stroke="black" stroke-width="5"/>
<path d="M288.709 177.174L316.709 165.174L359.209 155.674L404.709 151.674L437.709 154.174L469.709 165.174L488.209 176.674L505.209 191.674L523.209 211.174L540.209 250.674L550.209 291.674L547.209 310.174L534.709 321.174H523.209L505.209 313.674L492.209 296.674L485.709 271.174L461.209 224.174L427.709 203.174L376.209 194.674L329.209 203.174L310.709 209.674L272.209 227.674L238.709 251.174L253.709 209.674L269.709 191.674L288.709 177.174Z" fill="#500F0C"/>
<path d="M241.209 249.674C241.209 249.674 292.209 201.175 345.709 193.674C382.792 188.474 409.87 184.915 452.709 212.174C491.209 236.673 495.709 300.015 506.209 307.674C516.709 315.333 524.908 316.681 533.209 311.674C543.276 305.602 548.209 265.174 548.209 265.174C548.209 265.174 559.209 305.674 552.209 316.674C544.156 329.329 531.434 330.003 524.209 331.174C516.984 332.346 502.209 325.674 502.209 320.674L495.709 311.674L486.209 291.174L476.209 266.674L460.709 238.674L436.209 217.174L414.709 208.174L388.209 201.174L345.709 205.174L311.709 212.174L280.709 225.174L241.209 249.674Z" fill="#BD1710"/>
<path d="M237.709 261.173C240.876 238.663 355.209 176.156 427.709 214.164C500.209 252.172 475.709 349.672 539.209 328.172C571.587 317.209 544.209 247.674 544.209 247.674" stroke="black" stroke-width="5"/>
<path d="M157.709 339.674C164.209 383.674 223.709 398.794 223.709 347.581C223.709 296.367 218.7 239.502 256.758 190.339C294.816 141.176 387.209 132.175 444.209 145.174C501.209 158.173 548.209 247.174 548.209 290.676C548.209 334.177 519.709 320.176 519.709 320.176" stroke="#F7BF19" stroke-width="5"/>
<path d="M508.209 194.674C482.709 166.174 456.209 155.674 416.209 152.174C376.209 148.674 297.209 160.174 263.709 198.174C230.209 236.174 234.709 296.174 234.709 352.674C234.709 409.174 170.709 413.674 158.709 347.674C146.709 281.674 144.709 274.674 147.209 212.174C149.709 149.674 181.695 84.2318 248.709 55.6741C316.067 26.97 376.418 50.8637 437.209 91.6743C503.322 136.058 549.242 256.795 546.709 256.174" stroke="black" stroke-width="5"/>
<path d="M519.709 320.175C519.709 320.175 548.209 334.177 548.209 290.675C548.209 247.173 501.209 158.173 444.209 145.174" stroke="#F7BF19" stroke-width="5"/>
</svg>
