<svg width="680" height="816" viewBox="0 0 680 816" fill="none" xmlns="http://www.w3.org/2000/svg">
<g clip-path="url(#clip0_264_3485)">
<path d="M571.145 357.121C566.875 359.322 564.405 360.476 559.68 362.201C562.539 364.754 564.232 365.911 567.351 367.458C569.949 363.327 570.768 361.1 571.145 357.121Z" fill="#FEC410"/>
<path d="M566.879 367.623C569.57 367.74 567.988 367.759 574.832 370.657C572.018 374.875 573.295 379.125 569.955 382.441L565.611 377.606L563.65 373.525L566.879 367.623Z" fill="#D01F17"/>
<path d="M580.722 352.703L577.842 350.534L571.451 356.484L573.743 361.509L575.348 363.065L578.204 363.653L579.429 361.104L581.764 358.696L580.722 352.703Z" fill="#D01F17"/>
<path d="M566.879 367.623C569.57 367.74 567.988 367.759 574.832 370.657C572.018 374.875 573.295 379.125 569.955 382.441L565.611 377.606L563.65 373.525L566.879 367.623Z" fill="#D01F17"/>
<path d="M564.802 366.233L559.845 362.673L560.059 366.306L562.351 371.331L563.485 373.053L565.819 370.645L567.517 367.93L566.714 367.152L564.802 366.233Z" fill="#D01F17"/>
<path d="M571.451 356.484C570.755 361.251 569.947 363.701 567.351 367.458L574.833 370.663L578.204 363.653C574.61 363.131 573.205 361.404 571.451 356.484Z" fill="#007A33"/>
<path d="M578.675 363.488C576.647 365.259 578.369 364.125 574.833 370.663C579.665 372.199 581.347 372.618 585.778 376.171L586.152 369.682L584.246 365.774L581.506 362.495L578.675 363.488Z" fill="#FEC410"/>
<path d="M588.217 377.1C585.192 377.723 583.314 380.752 579.847 387.983C584.049 390.511 586.424 391.704 590.68 393.192L591.361 386.065L588.217 377.1Z" fill="#D01F17"/>
<path d="M568.209 381.993C571.191 381.189 573.497 383.078 579.845 387.978C577.229 392.126 578.547 394.767 575.415 398.01L570.408 391.287L568.209 381.993Z" fill="#0C6933"/>
<path d="M585.03 375.565L580.875 372.783L574.668 370.191L570.734 381.638L575.691 385.198L579.846 387.98L583.688 380.805L586.635 377.122L585.03 375.565Z" fill="#007A33"/>
<path d="M590.042 392.882C588.789 394.179 589.861 392.878 586.305 399.84C589.224 401.717 591.886 404.943 596.253 406.064C596.594 402.622 594.849 402.198 594.717 398.661C592.922 395.052 592.819 394.257 590.042 392.882Z" fill="#007A33"/>
<path d="M589.57 393.048L580.011 388.452L577.112 395.297L581.573 397.441L586.2 400.058L589.57 393.048Z" fill="#FEC410"/>
<path d="M577.278 395.769C579.025 396.216 579.496 396.051 586.173 400.118C584.669 403.246 583.487 407.344 580.355 410.587C578.261 407.834 576.781 406.434 576.307 403.578C574.998 399.952 575.633 398.394 577.278 395.769Z" fill="#D01F17"/>
<path d="M586.365 400.53L580.826 410.42L589.607 415.818L595.784 406.235L586.365 400.53Z" fill="#FEC410"/>
<path d="M596.358 406.452C593.558 408.98 590.644 413.865 590.079 415.653C589.513 417.441 588.383 422.525 591.335 425.28C594.889 424.693 597.241 422.123 600.275 420.555C599.75 414.175 598.979 411.668 596.358 406.452Z" fill="#D01F17"/>
<path d="M580.355 410.588C583.707 412.592 583.707 412.592 590.245 416.125C588.103 418.947 591.783 423.535 590.863 425.446C587.336 426.176 585.41 426.271 582.014 425.899C580.21 419.757 579.784 416.397 580.355 410.588Z" fill="#007A33"/>
<path d="M601.384 420.696L599.497 421.358L596.359 422.988L591.5 425.752L584.704 426.015L580.293 427.032L578.479 432.437L581.077 436.824L594.172 434.882L603.137 431.738L606.58 429.471L605.68 422.369L601.384 420.696Z" fill="#FEC410"/>
<path d="M627.617 450.177L627.709 445.906L622.653 436.022L607.855 430.084L598.89 433.228L592.922 435.85L582.186 436.965L570.868 451.531L565.849 464.417L568.282 468.333L565.236 506.49L570.696 522.061L578.79 523.991L587.706 517.686L593.938 521.859L603.234 519.659L605.188 513.145L608.896 517.674L616.047 519.935L620.716 515.118L622.389 510.823L627.794 512.637L639.638 511.663L643.009 504.653L647.396 502.054L653.058 500.069L655.718 488.01L627.617 450.177Z" fill="#4E91B2"/>
<path d="M615.125 450.891C616.971 451.853 645.176 489.084 645.945 486.706C646.715 484.328 628.412 453.148 630.19 452.984C631.969 452.819 646.955 473.597 646.955 473.597L656.827 488.151L654.333 500.682L650.417 503.115L643.622 503.378L637.5 485.92C637.5 485.92 613.278 449.93 615.125 450.891Z" fill="#007A33"/>
<path d="M606.831 455.876C608.529 457.081 631.374 497.821 632.462 495.571C633.55 493.32 619.237 463.082 621.021 463.162C622.805 463.242 634.86 484.398 634.86 484.398L641.647 503.449L638.981 508.047L633.275 512.731L623.829 511.908L623.78 508.476L621.378 496.209C621.378 496.209 605.134 454.671 606.831 455.876Z" fill="#FEC410"/>
<path d="M607.545 464.633C606.691 466.531 612.077 503.227 609.919 504.646C607.761 506.065 597.327 475.842 595.893 474.547C594.46 473.252 600.035 496.937 600.035 496.937L605.984 516.09L610.61 518.706L617.902 519.859L623.938 511.384L619.802 499.588C619.802 499.588 608.4 462.734 607.545 464.633Z" fill="#D01F17"/>
<path d="M594.545 469.19C593.691 471.089 593.576 508.739 591.499 507.348C589.422 505.958 586.465 472.634 584.966 473.606C583.468 474.578 583.777 498.926 583.777 498.926L587.564 518.792L592.19 521.408L599.482 522.56L605.518 514.086L601.382 502.29C601.382 502.29 595.399 467.292 594.545 469.19Z" fill="#FEC410"/>
<path d="M583.901 466.035C583.047 467.933 575.109 509.355 572.95 510.774C570.792 512.192 568.288 478.928 566.799 474.681C565.31 470.435 564.55 503.022 564.55 503.022L569.015 522.217L573.642 524.834L577.719 524.373L586.969 517.511L582.86 500.842C582.86 500.842 584.756 464.137 583.901 466.035Z" fill="#007A33"/>
<path d="M605.802 430.274C627.544 438.166 630.505 443.641 628.891 450.79C665.12 496.235 659.148 500.445 642.496 503.106" stroke="black" stroke-width="5"/>
<path d="M581.383 436.187C569.33 455.929 563.666 463.899 569.391 468.474C559.316 528.194 575.561 529.892 587.093 518.96" stroke="black" stroke-width="5"/>
<path d="M621.776 512.099C622.224 510.351 616.396 511.867 631.875 510.676C647.353 509.485 641.502 491.8 604.865 441.202C607.73 440.718 647.911 494.456 645.699 504.769C643.487 515.082 632.54 517.674 621.776 512.099Z" fill="black" stroke="black"/>
<path d="M605.495 512.508C608.093 516.895 610.481 516.951 610.481 516.951C627.336 519.34 623.635 500.413 601.164 446.511C603.878 446.689 630.238 504.79 623.415 514.651C616.592 524.512 607.223 521.969 605.495 512.508Z" fill="black" stroke="black"/>
<path d="M605.189 513.146C604.119 518.096 598.373 519.152 598.373 519.152C583.674 522.808 582.492 505.522 587.438 446.785C585.131 447.557 577.82 511.203 586.528 519.689C595.237 528.175 606.244 522.971 605.189 513.146Z" fill="black" stroke="black"/>
<path d="M621.917 510.988C622.097 514.822 616.635 517.079 616.635 517.079C606.756 522.286 602.73 508.432 595.013 464.258C593.5 465.221 600.457 513.42 608.355 518.193C616.253 522.966 624.563 518.055 621.917 510.988Z" fill="black" stroke="black"/>
<path d="M596.587 407.014C587.586 400.862 578.877 394.867 573.786 394.875" stroke="black"/>
<path d="M589.607 415.819C580.68 411.323 585.09 413.576 578.111 408.722" stroke="black"/>
<path d="M581.457 359.333C578.292 362.489 573.366 371.816 570.005 385.603" stroke="black"/>
<path d="M564.122 373.359C565.63 368.592 573.105 361.206 570.954 355.071" stroke="black"/>
<path d="M581.507 362.495C577.011 364.909 573.343 363.839 571.23 354.976" stroke="black"/>
<path d="M587.064 376.834C583.899 379.99 578.844 387.439 575.483 401.226" stroke="black"/>
<path d="M590.44 387.973C591.068 392.546 586.377 400.458 579.6 412.969" stroke="black"/>
<path d="M595.477 406.872C588.271 416.437 588.386 419.735 591.335 425.28" stroke="black"/>
<path d="M580.74 425.286C590.109 427.829 596.69 423.932 601.034 419.699" stroke="black"/>
<path d="M580.451 436.551C591.792 437.047 600.42 432.978 605.858 430.432" stroke="black" stroke-width="2"/>
<path d="M591.148 393.019C585.398 392.185 577.4 386.165 567.216 379.162M586.469 376.649C578.287 369.369 566.598 369.842 560.315 362.507" stroke="black"/>
<path d="M580.538 361.245L579.595 361.576L579.147 363.322L580.563 362.826L580.869 362.189L580.538 361.245Z" fill="#007A33"/>
<path d="M559.302 359.157C557.273 365.3 557.408 367.152 561.714 371.025C563.532 379.588 565.083 379.675 568.846 382.3C568.32 388.065 570.022 393.261 574.141 397.399C573.974 403.348 573.829 404.857 579.104 411.555C577.888 417.259 577.646 419.484 581.212 425.121C577.511 426.769 574.615 432.44 581.267 438.879" stroke="black" stroke-width="5"/>
<path d="M576.379 347.868C583.013 349.824 584.24 355.179 582.426 360.583C586.286 366.887 588.724 367.869 587.554 375.21C591.566 379.385 592.563 386.417 591.93 392.221C595.775 396.763 596.996 398.322 597.059 406.847C601.571 410.543 602.48 412.997 601.691 420.059C606.595 422.186 608.234 426.441 606.324 433.271" stroke="black" stroke-width="5"/>
<path d="M582.5 346.5C582.5 355.337 572.904 359.5 566 359.5C559.096 359.5 568 356.337 568 347.5C576.5 336 572.096 327.5 579 327.5C585.903 327.5 582.5 337.663 582.5 346.5Z" fill="#0C6933"/>
<ellipse cx="369.5" cy="709.5" rx="256.5" ry="27.5" fill="black" fill-opacity="0.34"/>
<path d="M272 191C301 146 373.274 119.531 417 127C415.39 135.708 413.233 135.976 405 141.5C423.981 135.354 435.081 135.333 461.5 133.5C453.138 150.141 448.873 155.253 431 158.5C544.316 173.917 647.967 313.284 525.5 383.5C523.458 384.67 521.472 385.817 519.54 386.939C593.645 439.713 601.304 505.99 538.5 517L504 691C433.833 742.097 366.266 743.823 216.5 719L171 601.5V484C171.039 483.978 184.781 476.284 206.921 464.978L184.5 366.5C184.57 366.344 243.017 235.973 272 191Z" fill="#936632"/>
<path d="M60.5001 169.5C107 32.9999 189 23.8554 272.5 146L193 229L81.5001 529C81.5001 529 14.0001 306 60.5001 169.5Z" fill="#6D351B"/>
<path d="M537 534C577.513 566.879 566.291 609.682 516.519 651.4C525.927 645.295 537.201 641 547.5 641C570.972 641 593.5 656 596 676C596 690.126 586.051 704.79 552.878 712.001C552.753 712.166 552.628 712.333 552.5 712.5L550.225 712.554C548.54 712.887 546.799 713.204 545 713.5C542.504 713.5 539.98 713.274 537.461 712.855L468 714.5L537 534Z" fill="#936632"/>
<path d="M401 410C426.927 410.945 441.339 403.963 467 389C486.806 389.079 496.613 389.086 511 389L509.5 434C495.5 444 485.113 447.08 462 441C434 453 431.151 456.481 397.5 444.5C394.432 421.233 395.761 427.358 401 410Z" fill="#FCFCF7"/>
<path d="M494 308C517.761 285.712 528.579 272.807 518.5 245C460.684 237.515 437.699 242.656 409.5 264.5C420.473 283.212 434.462 293.091 494 308Z" fill="#6A341B"/>
<path d="M537 534C532.881 584.79 516.5 609 495 652.5C473.5 696 484 714 484 714H462.5C470.642 688.193 466.81 676.429 444 660.5C495.425 623.482 510.48 591.434 537 534Z" fill="#784F26"/>
<path d="M147 59.5C95.6666 212.824 41.766 341.215 87.0005 503C106.636 392.695 130.273 318.744 166.388 258.226C154.867 252.639 147 241.425 147 228.5C147 209.998 163.118 195 183 195C191.693 195 199.665 197.867 205.886 202.64C224.22 180.619 245.069 159.585 269 138L288 172.5C155 352.5 117 554 188.5 697C15.5005 608.5 -35.4994 145.5 147 59.5Z" fill="#4C280E"/>
<path d="M242 252C242 252 286 225.5 270 223.5C254 221.5 168.5 499.5 299.5 521V536.5C304.364 521.823 209 563 200.5 617.5C192 672 233 719 261 725.5C289 732 217.5 729.5 191.5 698.5C173.136 660.489 164.941 636.396 157.5 596C151.959 521.382 153.725 475.495 177.5 376.5C211.532 297.44 222.057 276.502 242 252Z" fill="#754C24"/>
<path d="M529.544 451.147C516.26 456.755 507 469.367 507 484.029C507 503.066 522.61 518.647 542.369 519.927C539.372 520.627 536.233 521 533 521C512.013 521 495 505.33 495 486.001C495 467.745 510.177 452.756 529.544 451.147Z" fill="#865723"/>
<path d="M334.5 332.5H342.5C340.827 374.093 348 400 385 409C342.5 409 325.5 387 334.5 332.5Z" fill="#826026"/>
<path d="M273 192C278.972 171.487 352.5 109.5 417.083 127.679C414.687 136.744 412.069 137.582 403.001 142.999C426.253 134.787 438.416 133.424 459.001 135C457.055 148.502 450.221 157.19 429 159.5C598.977 180.774 645.476 399.98 463 389.5" stroke="black" stroke-width="6"/>
<path d="M346 330C317.57 450.489 506.604 428.714 493.496 307.84M493.496 307.84C493.496 307.84 408.497 288.5 410.997 265C413.497 241.5 507.997 238.5 517.996 245C527.994 251.501 521.24 289.634 493.496 307.84Z" stroke="black" stroke-width="6"/>
<path d="M285.177 204.529C243.5 143 179.5 226 243.5 251" stroke="black" stroke-width="6"/>
<g filter="url(#filter0_d_264_3485)">
<path d="M304.217 444.498C302.72 445.207 302.081 446.996 302.79 448.493C303.499 449.99 305.288 450.629 306.785 449.92L305.501 447.209L304.217 444.498ZM225 410.999L222.01 410.756C219.441 442.35 231.358 475.52 250.998 497.856C270.669 520.227 298.607 532.181 327.68 519.759L326.501 517L325.322 514.241C299.395 525.319 274.082 515.023 255.503 493.894C236.893 472.729 225.559 441.149 227.99 411.242L225 410.999ZM326.501 517L327.68 519.759C342.018 513.632 350.629 504.686 354.556 494.753C358.47 484.854 357.585 474.34 353.622 465.334C345.785 447.524 325.193 434.563 304.217 444.498L305.501 447.209L306.785 449.92C323.81 441.856 341.218 452.041 348.13 467.751C351.542 475.505 352.22 484.345 348.977 492.547C345.747 500.715 338.484 508.618 325.322 514.241L326.501 517Z" fill="black"/>
</g>
<path d="M274.43 217.686C258.03 189.678 219.5 221.5 259.5 241" stroke="black" stroke-width="6"/>
<path d="M240.501 251.044C101.5 462.499 154.41 713.718 229.057 722.527C303.704 731.337 388.125 744.675 450.057 719.027C511.989 693.379 396.499 589 331.001 688.999" stroke="black" stroke-width="6"/>
<path d="M199.256 618.522C287 446 452.499 574 374.502 651.5" stroke="#010101" stroke-width="6"/>
<path d="M510.998 655C564.998 623 580.5 557.5 535.998 531.5" stroke="#010101" stroke-width="6"/>
<path d="M460 712.5C667.499 733.998 595.5 617.5 527 643.5" stroke="#010101" stroke-width="6"/>
<path d="M440.76 658.156C466.5 658.156 537.5 564.5 537.5 519.5" stroke="black" stroke-width="6"/>
<path d="M511.5 386C530.551 398.721 545.161 432.947 545.5 456.5" stroke="black" stroke-width="6"/>
<path d="M547.5 454.5C495 443.5 493.998 533.496 551.998 515.496C609.999 497.497 573.967 411.816 514.5 386.5" stroke="black" stroke-width="6" stroke-linecap="round"/>
<path d="M398.926 408.734C398.926 408.734 393.59 436.876 398.926 446C404.262 455.124 454.704 448.44 459 442.5C463.296 436.56 463.5 389.5 463.5 389.5" stroke="black" stroke-width="6"/>
<path d="M509 386.5C509 386.5 511.332 415.396 509 429.5C506.669 443.605 468.847 448.688 464.621 442.5C460.394 436.312 464.621 386.919 464.621 386.919" stroke="black" stroke-width="6"/>
<path d="M288.5 172.5C65.0223 -218.768 -107.5 519 199.5 703.999" stroke="black" stroke-width="6"/>
<path d="M314.72 212.585C318.77 196.637 340.502 191.579 342.502 193.499C339.993 188.5 310.331 188.185 314.72 212.585Z" stroke="#110000" stroke-width="6"/>
<circle cx="345" cy="239" r="24" fill="#00020B" stroke="#1D0500" stroke-width="6"/>
<circle cx="471" cy="214" r="19" fill="#00020B" stroke="#1D0500" stroke-width="6"/>
<circle cx="336.5" cy="227.5" r="13.5" fill="#D9D9D9"/>
<circle cx="463" cy="206" r="11" fill="#D9D9D9"/>
<circle cx="376.5" cy="351.5" r="4.5" fill="#160D0C"/>
<circle cx="407.5" cy="346.5" r="4.5" fill="#160D0C"/>
<circle cx="430.5" cy="355.5" r="4.5" fill="#160D0C"/>
<circle cx="512.5" cy="331.5" r="4.5" fill="#160D0C"/>
<circle cx="540.5" cy="335.5" r="4.5" fill="#160D0C"/>
<circle cx="520.5" cy="350.5" r="4.5" fill="#160D0C"/>
<circle cx="507.5" cy="368.5" r="4.5" fill="#160D0C"/>
<circle cx="431.5" cy="378.5" r="4.5" fill="#160D0C"/>
<circle cx="397.5" cy="373.5" r="4.5" fill="#160D0C"/>
<path d="M404.463 693.602C403.579 692.201 403.997 690.348 405.398 689.464C406.799 688.579 408.652 688.997 409.536 690.398L407 692L404.463 693.602ZM408 731L405.16 730.034C410.659 713.872 409.795 702.044 404.463 693.602L407 692L409.536 690.398C416.205 700.956 416.657 714.872 410.84 731.966L408 731Z" fill="black"/>
<path d="M434.127 692.362C433.651 690.775 434.551 689.103 436.138 688.627C437.725 688.15 439.397 689.051 439.874 690.638L437 691.5L434.127 692.362ZM437 724L434.062 723.395C435.8 714.95 436.496 709.582 436.438 705.164C436.381 700.816 435.592 697.246 434.127 692.362L437 691.5L439.874 690.638C441.408 695.754 442.37 699.934 442.437 705.086C442.504 710.168 441.7 716.05 439.939 724.605L437 724Z" fill="black"/>
<path d="M96.6971 206.602C134.657 163.086 158.113 146.974 202.5 128C158.526 152.57 135.047 169.297 96.6971 206.602Z" stroke="black" stroke-width="4"/>
<path d="M81.8593 315.251C119.819 271.735 188.113 202.474 232.5 183.5C188.526 208.07 120.209 277.946 81.8593 315.251Z" stroke="black" stroke-width="4"/>
<path d="M87.9287 419.353C125.888 375.837 172.5 304.5 220 283.5C166 318 126.279 382.048 87.9287 419.353Z" stroke="black" stroke-width="4"/>
<path d="M108.468 505.33C146.428 461.814 143.5 449 164.5 434C150.5 443 146.818 468.025 108.468 505.33Z" stroke="black" stroke-width="4"/>
<path d="M167 121.842C206.079 164.355 202 152.5 228.5 195C191.5 144.715 199.863 164.061 167 121.842Z" stroke="black" stroke-width="4"/>
<path d="M132.5 176C171.58 218.513 192.5 241 219 283.5C182 233.215 165.363 218.218 132.5 176Z" stroke="black" stroke-width="4"/>
<path d="M94.9999 418.615C134.079 461.128 130 444 156.5 486.5C119.5 436.215 127.863 460.833 94.9999 418.615Z" stroke="black" stroke-width="4"/>
<path d="M98.0001 239.615C144.5 278 169 299.978 191.5 344.5C160 292.5 139.5 285 98.0001 239.615Z" stroke="black" stroke-width="4"/>
<path d="M84 307C139.724 353.725 168 401.5 170 408.5C172 415.5 126.008 336.232 84 307Z" stroke="black" stroke-width="4"/>
<path d="M483 304.5C480.241 292.349 454.03 272.546 449 272.5C455.473 275.283 477.314 295.777 474 302.5" stroke="black" stroke-width="2"/>
<path d="M493 306C489.239 296.193 493.35 271.172 495.5 267C492.155 273.717 492.363 297.827 499 302" stroke="black" stroke-width="2"/>
<path d="M334.5 329.5C339.373 329.577 344.54 329.431 348.964 330.37" stroke="black" stroke-width="6"/>
<path d="M452 273C469.235 284.675 477.872 291.228 482.5 303L475 301C468.815 288.192 462.843 282.687 452 273Z" fill="black"/>
<path d="M492.5 307.5V283.5C494.085 292.991 495.096 297.551 497.5 302L492.5 307.5Z" fill="black"/>
<path d="M514.553 263.805C511.662 267.066 510.506 262.194 506.725 258.841C502.944 255.488 497.969 254.924 500.861 251.663C503.753 248.402 509.162 248.476 512.943 251.829C516.724 255.182 517.445 260.543 514.553 263.805Z" fill="#7F4731"/>
<path d="M432 257.684C436.12 260.611 464 251.198 491 254.684C496.316 255.37 500.436 252.611 496.316 249.684C485.5 241.998 434.525 254.131 432 257.684Z" fill="#6F3D26"/>
<path d="M212.5 403C217.257 403.664 219.97 403.936 225 404C223.146 407.356 221.931 409.007 219.5 411.5C215.681 408.46 214.172 406.63 212.5 403Z" fill="#FEC410"/>
<path d="M220 411.499C217.5 412.5 218.999 411.994 213.499 416.994C217.55 420.042 217.751 424.476 222 426.5L224.5 420.5L225 416L220 411.499Z" fill="#D01F17"/>
<path d="M202 402L204 399L212 402.5L211.5 408L210.5 410L208 411.5L206 409.5L203 408L202 402Z" fill="#D01F17"/>
<path d="M220 411.499C217.5 412.5 218.999 411.994 213.499 416.994C217.55 420.042 217.751 424.476 222 426.5L224.5 420.5L225 416L220 411.499Z" fill="#D01F17"/>
<path d="M221.5 409.5L225 404.5L226 408L225.5 413.5L225 415.5L222 414L219.5 412L220 411L221.5 409.5Z" fill="#D01F17"/>
<path d="M212 402.5C214.234 406.768 215.807 408.813 219.5 411.5L213.5 417L208 411.5C211.218 409.818 211.973 407.723 212 402.5Z" fill="#007A33"/>
<path d="M207.5 411.5C210 412.5 208 411.999 213.5 416.999C209.449 420.048 208 421 204.994 425.819L202.494 419.819L203 415.5L204.5 411.5L207.5 411.5Z" fill="#FEC410"/>
<path d="M203 427.503C206.061 427.09 208.836 429.326 214.5 435.003C211.371 438.779 209.524 440.69 206 443.503L203 437.003V427.503Z" fill="#D01F17"/>
<path d="M223.5 425.499C220.42 425.727 218.869 428.273 214.5 434.997C218.341 438.046 217.971 440.975 222 442.999L224.5 434.998L223.5 425.499Z" fill="#0C6933"/>
<path d="M205.5 425L208.5 421L213.5 416.5L221 426L217.5 431L214.5 435L208.5 429.5L204.5 427L205.5 425Z" fill="#007A33"/>
<path d="M206.5 443C208.111 443.809 206.67 442.936 212.329 448.329C210.195 451.066 208.75 454.991 205 457.494C203.54 454.359 205.047 453.381 204 450C204.5 446 204.335 445.216 206.5 443Z" fill="#007A33"/>
<path d="M207 443L214.5 435.5L219.5 441L216 444.5L212.5 448.5L207 443Z" fill="#FEC410"/>
<path d="M219.5 441.5C218 442.501 217.5 442.501 212.546 448.548C215 451.002 217.471 454.478 221.5 456.502C222.565 453.211 223.498 451.4 223 448.549C223.036 444.693 221.921 443.434 219.5 441.5Z" fill="#D01F17"/>
<path d="M212.5 449L221 456.5L214.5 464.5L205.5 457.5L212.5 449Z" fill="#FEC410"/>
<path d="M205.03 457.896C208.509 459.354 212.875 463 214 464.5C215.125 466 217.874 470.424 216 474C212.452 474.622 209.382 472.976 206 472.5C204.384 466.305 204.282 463.684 205.03 457.896Z" fill="#D01F17"/>
<path d="M221.5 456.503C219 459.503 219 459.503 214 465.001C216.954 466.955 215 472.501 216.5 474.001C220.07 473.523 221.919 472.975 225 471.501C224.67 465.108 223.96 461.796 221.5 456.503Z" fill="#007A33"/>
<path d="M205 473H207L210.5 473.5L216 474.5L222.5 472.5L227 472L230.5 476.5L229.5 481.5L216.5 484H207L203 483L201.5 476L205 473Z" fill="#FEC410"/>
<path d="M190 509.5L188.5 505.5L190 494.5L202 484H211.5L218 484.5L228.5 482L244 492L253 502.5L252 507L267.5 542V558.5L260.5 563L250 560L245.5 566L236 567L232 561.5L230 567L224 571.5L218 568.5L215 565L210.5 568.5L199 571.5L193.5 566L188.5 565H182.5L176 554.5L190 509.5Z" fill="#4E91B2"/>
<path d="M202.025 506.041C200.6 507.559 186.304 552.026 184.791 550.036C183.277 548.047 190.233 512.567 188.5 513C186.767 513.433 179.5 538 179.5 538L175 555L181.5 566L186 567L192.5 565L192.5 546.5C192.5 546.5 203.449 504.523 202.025 506.041Z" fill="#007A33"/>
<path d="M211.5 508C210.297 509.699 202.219 555.703 200.448 553.94C198.676 552.176 202.178 518.905 200.521 519.571C198.863 520.237 194.488 544.19 194.488 544.19L194.387 564.414L198.424 567.871L205.359 570.403L214 566.5L212.911 563.246L211.118 550.875C211.118 550.875 212.703 506.301 211.5 508Z" fill="#FEC410"/>
<path d="M213.724 516.5C215.158 518.009 222.217 554.42 224.724 555.045C227.23 555.67 227.076 523.696 228 522C228.924 520.304 231.5 544.5 231.5 544.5L232.224 564.542L228.724 568.542L222.224 572.042L213.724 566.042V553.542C213.724 553.542 212.289 514.991 213.724 516.5Z" fill="#D01F17"/>
<path d="M227.5 516.5C228.934 518.008 241.5 553.5 243 551.5C244.5 549.5 236.264 517.075 238 517.497C239.736 517.919 247.5 540.997 247.5 540.997L250.5 560.997L247 564.997L240.5 568.497L232 562.497V549.997C232 549.997 226.066 514.991 227.5 516.5Z" fill="#FEC410"/>
<path d="M236.5 510C237.934 511.509 259.131 547.97 261.637 548.595C264.144 549.219 255.5 517 255.5 512.5C255.5 508 267 538.5 267 538.5L269.137 558.092L265.637 562.092L261.637 563.006L250.637 559.592L249 542.502C249 542.502 235.066 508.491 236.5 510Z" fill="#007A33"/>
<path d="M242 69.9992L251.5 73.4983L246.5 77.5L238.5 80.5L228.5 82.5L216.502 82.0424L214 77L217 69.4992L223 66.9992L235 68.4992L242 69.9992Z" fill="#D01F17"/>
<path d="M229.92 84.7597L235 84.5L231 88.5L227.603 91.6887L221.166 93.0698L213.461 92.8478L211.887 89.548L213.863 84.5953L217.734 82.9116L225.433 83.8192L229.92 84.7597Z" fill="#F7BF19"/>
<path d="M250 60.5002L261 69.0004L253.5 73.5004L248.5 70.0004L225.5 67.0004L223 61.0005L233 55.0028L240 56L250 60.5002Z" fill="#4E91B2"/>
<path d="M250 40L260.5 41.5V65L240 54.5V46.5L250 40Z" fill="#D01F17"/>
<path d="M261 54.0005L262 68.5003L271.462 64.9432L273 60.5L277 52.5L281.5 41.5004L276 35.5L267.561 37.6086L262 41.5005L261 54.0005Z" fill="#F7BF19"/>
<path d="M295.538 41.1983L301.5 48.3869L303 54.5L272.5 64.5L279.458 48.3869L285.5 42.5L295.538 41.1983Z" fill="#D01F17"/>
<path d="M212.5 107L223.5 95.4999L247.205 77.2798L278.745 63.2717L305 54.9762L326 53.9999L352.891 54.9762L367 57.4994L379 61.9993L383.5 63.4989L387.649 64.9989L401 69.9989L396.995 68.9989L391 68.9989L377 69.9989L358.5 71.9989L320 79.7974L278.745 92.164L244.5 110.999L221.886 125.741L203 138.999L186.5 151.499L191 140.5L197 129L212.5 107Z" fill="#D01F17"/>
<path d="M184.5 153.5L196 144L222 124L255.5 102.5L288 89L310.5 82L342 75.7519L384.5 69.2074L396.5 69.207L407 73.4996L429.5 84.1668L451.5 98.4996L442.5 92.9996H423.5H399L366 96.3216L325.5 104.5L267 127.644L230 151.018L204 172L186.5 187.015L172 200V195.5L174.5 184L184.5 153.5Z" fill="#F7BF19"/>
<path d="M169.5 259L195 229L223 201.5L256 178L289.5 159.5L342 139L400 128H444.5L495 136.5L525.5 175.5L556 229L525.5 202L499 182L472 167L453 163L434.5 162H400L347.5 173L316 186L287.5 204.5L269 233L257.5 267L252 306.5V342V369L248.5 386L235 399L219 402L204 396.5L189 380L180.5 358L172 306.5L168.5 275.5L169.5 259Z" fill="#D01F17"/>
<path d="M172.5 202L190.5 185.5L219 160.5L268 129L301 114L328.5 105L356 98L401 93.5L444 94.5L452.5 100L477 118.5L493.5 134L446.5 127H418.5L387 129L353.5 136L323.5 142L291.5 155.5L260 173L231 194.5L197.5 224L170.5 255H169L170.5 245V221.5L172.5 202Z" fill="#4E91B2"/>
<path d="M169.5 262.5C231.132 163.525 385.447 101.067 496 138" stroke="black" stroke-width="5"/>
<path d="M272 64.9995C282.5 30.5 300 38.9992 303 56.4987" stroke="black" stroke-width="5"/>
<path d="M261.5 66.9901C252.5 19.4956 290 37 279.5 48.5004" stroke="black" stroke-width="5"/>
<path d="M240.361 56.0002C230.603 42.2556 259 31.0001 261 44.5004" stroke="black" stroke-width="5"/>
<path d="M262.805 69.459C262.805 69.459 244.383 50.9016 232 55.4975C226.652 57.4825 214.5 66.9985 231 67C247.5 67.0014 253.499 74.5038 253.499 74.5038" stroke="black" stroke-width="5"/>
<path d="M224 65.4304C223.34 65.5747 222.691 65.7627 222.055 65.9986C216.707 67.9836 206 82.9985 222.5 82.9999C239 83.0014 246 78.9997 246 78.9997" stroke="black" stroke-width="5"/>
<path d="M237 84.4999C237 84.4999 227.114 93.9211 219.557 94.7111C212 95.5012 210.76 83.136 217.5 82.0015" stroke="black" stroke-width="5"/>
<path d="M204 483.5C186.094 498.142 185.111 504.288 189 510.5C169.849 565.373 176.878 567.37 193.472 564.371" stroke="black" stroke-width="5"/>
<path d="M229 481C246.906 495.641 254.889 501.288 251 507.5C280.268 560.522 265.5 567.5 251 561" stroke="black" stroke-width="5"/>
<path d="M216 566.002C215 564.5 221 564.002 206 568C191 571.998 190.669 553.373 208.5 493.502C205.637 493.994 185.5 558 191 567C196.5 576 207.688 574.824 216 566.002Z" fill="black" stroke="black"/>
<path d="M231.5 561C230.5 566 228.265 566.843 228.265 566.843C213.15 574.674 210.379 555.589 213.749 497.288C211.247 498.353 205.597 561.904 215.299 568.952C225 576 233 570.5 231.5 561Z" fill="black" stroke="black"/>
<path d="M232 561.501C234.647 565.818 240.42 564.914 240.42 564.914C255.5 563.5 250.895 546.797 226.793 493.005C229.225 492.969 257.185 550.612 251.775 561.501C246.365 572.391 234.255 571.121 232 561.501Z" fill="black" stroke="black"/>
<path d="M215.5 565C216.599 568.677 222.5 569 222.5 569C233.545 570.645 232.76 556.239 225.426 512C227.172 512.408 236.556 560.194 230.682 567.312C224.808 574.429 215.342 572.544 215.5 565Z" fill="black" stroke="black"/>
<path d="M564 358C576.5 362 591.5 344.499 578 323.5" stroke="black" stroke-width="5"/>
<path d="M205 458.501C211.458 449.717 217.693 441.178 222.5 439.501" stroke="black"/>
<path d="M214.5 464.5C221.436 457.304 218.02 460.889 223 453.999" stroke="black"/>
<path d="M203.5 408.5C207.531 410.431 215.266 417.602 223 429.5" stroke="black"/>
<path d="M224.5 416C221.5 412 212.001 407.503 212.001 401.003" stroke="black"/>
<path d="M204.5 411.5C209.541 412.291 212.649 410.067 211.71 401.004" stroke="black"/>
<path d="M204 426.87C208.031 428.801 215.266 434.158 223 446.056" stroke="black"/>
<path d="M204.5 438.499C205.42 443.022 212.465 448.936 223 458.5" stroke="black"/>
<path d="M206 458C215.965 464.642 216.948 467.792 216 474" stroke="black"/>
<path d="M226 470.5C218 476 210.5 474.5 205 471.943" stroke="black"/>
<path d="M230 481.035C219.462 485.256 209.974 484.271 204 483.668" stroke="black" stroke-width="2"/>
<path d="M205.501 443.495C210.652 440.805 216.207 432.477 223.5 422.5M204.5 426.499C209.813 416.921 221 413.5 224.501 404.499" stroke="black"/>
<path d="M205 410H206L207 411.5H205.5L205 411V410Z" fill="#007A33"/>
<path d="M262.869 114.463L273.48 115.884L268.78 124.737L258 123.596L262.869 114.463Z" fill="#D01F17" fill-opacity="0.35"/>
<path d="M269.878 97.3317L279.694 101.605L272.749 108.832L262.694 104.782L269.878 97.3317Z" fill="#D01F17" fill-opacity="0.35"/>
<path d="M245.951 111.472L256.549 112.989L251.769 121.799L241 120.56L245.951 111.472Z" fill="#D01F17" fill-opacity="0.35"/>
<path d="M238.489 130.294L249.194 130.157L245.831 139.599L235 140.037L238.489 130.294Z" fill="#D01F17" fill-opacity="0.35"/>
<path d="M223.632 127.313L234.338 127.334L230.837 136.725L220 137.004L223.632 127.313Z" fill="#D01F17" fill-opacity="0.35"/>
<path d="M213.421 146.284L224.125 146.073L220.828 155.538L210 156.052L213.421 146.284Z" fill="#D01F17" fill-opacity="0.35"/>
<path d="M197.037 146.23L207.725 145.601L204.8 155.188L194 156.124L197.037 146.23Z" fill="#D01F17" fill-opacity="0.35"/>
<path d="M189.483 167.147L200.12 165.926L197.731 175.66L187 177.194L189.483 167.147Z" fill="#D01F17" fill-opacity="0.35"/>
<path d="M181.5 156.926L189.12 156.926L186.731 166.66L179 166.66L181.5 156.926Z" fill="#D01F17" fill-opacity="0.35"/>
<path d="M297.865 89.6246L307.852 93.4821L301.216 100.994L291 97.3697L297.865 89.6246Z" fill="#D01F17" fill-opacity="0.35"/>
<path d="M325.224 79.6493L334.285 85.3519L326.331 91.4507L317 85.9327L325.224 79.6493Z" fill="#D01F17" fill-opacity="0.35"/>
<path d="M352.224 73.6493L361.285 79.3519L353.331 85.4507L344 79.9327L352.224 73.6493Z" fill="#D01F17" fill-opacity="0.35"/>
<path d="M366.224 82.6493L375.285 88.3519L367.331 94.4507L358 88.9327L366.224 82.6493Z" fill="#D01F17" fill-opacity="0.35"/>
<path d="M379.224 70.6493L388.285 76.3519L380.331 82.4507L371 76.9327L379.224 70.6493Z" fill="#D01F17" fill-opacity="0.35"/>
<path d="M392.224 80.6493L401.285 86.3519L393.331 92.4507L384 86.9327L392.224 80.6493Z" fill="#D01F17" fill-opacity="0.35"/>
<path d="M414.224 78.6493L423.285 84.3519L415.331 90.4507L406 84.9327L414.224 78.6493Z" fill="#D01F17" fill-opacity="0.35"/>
<path d="M397.5 69.4996L408 74.9304L402.33 80.4483L392.999 74.9302L397.5 69.4996Z" fill="#D01F17" fill-opacity="0.35"/>
<path d="M339.884 87.6523L349.231 92.8736L341.606 99.3798L332 94.3571L339.884 87.6523Z" fill="#D01F17" fill-opacity="0.35"/>
<path d="M286.541 102.607L296.678 106.051L290.357 113.829L280 110.627L286.541 102.607Z" fill="#D01F17" fill-opacity="0.35"/>
<path d="M314.531 94.6483L324.132 99.3849L316.851 106.272L307 101.747L314.531 94.6483Z" fill="#D01F17" fill-opacity="0.35"/>
<path d="M181 351.5C185.5 388.5 244 409.118 244 357.905C244 306.692 238.991 249.826 277.049 200.663C315.107 151.5 420.974 140.53 459 150.5C497.026 160.47 502.981 172.772 524 200.663" stroke="#F7BF19" stroke-width="5"/>
<path d="M170.5 206.5C233.065 131.3 335.989 84.6214 445.5 94.9971" stroke="black" stroke-width="5"/>
<path d="M184 154.5C253.184 96.1126 294.151 78.8584 395.5 68.5001" stroke="black" stroke-width="5"/>
<path d="M269.98 66.2998C336.131 38.1104 395.514 61.3989 456.106 102.076C488.697 123.955 516.851 161.975 536.602 194.67C546.456 210.981 554.173 225.889 559.262 236.665C559.508 237.187 559.747 237.699 559.98 238.2C549.841 225.956 537.652 212.806 524.196 200.96C505.718 184.692 484.676 170.724 463.134 165.082C441.605 159.444 405.047 160.391 370.114 167.679C352.603 171.332 335.379 176.603 320.538 183.516C305.727 190.415 293.114 199.031 285.024 209.469C253.412 250.259 252.5 304.684 252.5 361C252.5 388.292 237.234 401.995 221.509 401.938C205.645 401.882 187.332 387.85 181.46 355.553C175.449 322.493 171.976 304.379 170.302 286.702C168.631 269.069 168.748 251.837 169.998 220.601C172.47 158.808 204.07 94.3871 269.98 66.2998Z" stroke="black" stroke-width="5"/>
<path d="M224.349 401.003C228.296 406.128 228.782 407.921 226 413C227.118 421.683 225.683 422.278 223 426C225.405 431.267 225.518 436.733 223 442.001C225.125 447.559 225.762 448.936 223 457.002C226.035 461.982 227 464.001 225.5 470.501C229.538 470.831 234.148 475.225 230 483.502" stroke="black" stroke-width="5"/>
<path d="M204.499 396C198.886 400.042 199.5 405.5 203 410C201.443 417.226 199.467 418.959 203 425.5C200.595 430.767 201.981 437.733 204.499 443.001C202.374 448.559 201.737 450.434 204.499 458.5C201.464 463.481 201.418 466.097 204.499 472.5C200.575 476.13 200.437 480.688 204.499 486.501" stroke="black" stroke-width="5"/>
</g>
<defs>
<filter id="filter0_d_264_3485" x="217.664" y="410.756" width="143.418" height="122.011" filterUnits="userSpaceOnUse" color-interpolation-filters="sRGB">
<feFlood flood-opacity="0" result="BackgroundImageFix"/>
<feColorMatrix in="SourceAlpha" type="matrix" values="0 0 0 0 0 0 0 0 0 0 0 0 0 0 0 0 0 0 127 0" result="hardAlpha"/>
<feOffset dy="4"/>
<feGaussianBlur stdDeviation="2"/>
<feComposite in2="hardAlpha" operator="out"/>
<feColorMatrix type="matrix" values="0 0 0 0 0 0 0 0 0 0 0 0 0 0 0 0 0 0 0.25 0"/>
<feBlend mode="normal" in2="BackgroundImageFix" result="effect1_dropShadow_264_3485"/>
<feBlend mode="normal" in="SourceGraphic" in2="effect1_dropShadow_264_3485" result="shape"/>
</filter>
<clipPath id="clip0_264_3485">
<rect width="680" height="816" fill="white"/>
</clipPath>
</defs>
</svg>
