<svg width="680" height="816" viewBox="0 0 680 816" fill="none" xmlns="http://www.w3.org/2000/svg">
<g clip-path="url(#clip0_264_4812)">
<rect x="490" y="211" width="13" height="11" fill="#007A33"/>
<ellipse cx="366" cy="676" rx="290" ry="38" fill="black" fill-opacity="0.34"/>
<path d="M506 218C540.792 211.592 537.444 186.919 613 236.5C576.843 256.479 546.812 274.93 506 218Z" fill="#F9E300"/>
<path d="M504 218C570.151 221.203 587.049 228.906 601.5 245C565.343 258.557 544.812 256.63 504 218Z" fill="#007A33"/>
<path d="M495.5 210C511 171.5 546.89 151.913 568.5 151C565 198.5 528.5 216.5 495.5 210Z" fill="#D52B1E"/>
<path d="M497 210C514 168.5 530.769 162.134 552 158C545.063 195.987 510 210 497 210Z" fill="#AE1A0E"/>
<path d="M259 224C288 179 360.274 152.531 404 160C402.39 168.708 400.233 168.976 392 174.5C410.981 168.354 422.081 168.333 448.5 166.5C440.138 183.141 435.872 188.253 418 191.5C531.316 206.917 634.967 346.285 512.5 416.5C508.968 418.525 505.603 420.477 502.397 422.359C560.902 465.145 517.178 542.567 512.552 517.142L472.94 659.938C405.246 699.273 354 689 196.5 689L141.586 583.791L158.002 491.738C158.081 491.702 170.02 486.369 189.463 478.399L171.5 399.5C171.5 399.5 230 269 259 224Z" fill="#936632"/>
<path d="M47.5001 202.5C94.0001 65.9999 176 56.8554 259.5 179L180 262L68.5001 562C68.5001 562 1.00006 339 47.5001 202.5Z" fill="#6D351B"/>
<path d="M388 443C413.927 443.945 428.339 436.963 454 422C473.806 422.079 483.613 422.086 498 422L496.5 467C482.5 477 472.113 480.08 449 474C421 486 418.151 489.481 384.5 477.5C381.432 454.233 382.761 460.358 388 443Z" fill="#FCFCF7"/>
<path d="M481 341C504.761 318.712 515.579 305.807 505.5 278C447.684 270.515 424.699 275.656 396.5 297.5C407.473 316.212 421.462 326.091 481 341Z" fill="#6A341B"/>
<path d="M139.5 90.5C93.8082 200.074 33.1025 340.584 74.0003 536C93.6357 425.695 117.274 351.744 153.389 291.226C141.868 285.639 134 274.425 134 261.5C134 242.999 150.118 228 170 228C178.692 228 186.665 230.867 192.886 235.64C211.22 213.619 232.069 192.585 256 171L275 205.5C142.001 385.5 155 510.5 169 671.5C-7.65213 586.64 -57.9928 176.228 139.5 90.5Z" fill="#4C280E"/>
<path d="M321.5 365.5H329.5C327.827 407.093 335 433 372 442C329.5 442 312.5 420 321.5 365.5Z" fill="#784F26"/>
<path opacity="0.9" d="M282 251.5C267.443 245.349 245.335 253.236 242 285C219.909 285 202 270.002 202 251.5C202 232.998 219.909 218 242 218C264.091 218 282 232.998 282 251.5Z" fill="#A77A36"/>
<path d="M384 463.502C388.217 462.24 388 634.002 388 634.002L339.5 604L333 580L345 585V576.5L341 561.5C384.368 514.386 379.783 464.763 384 463.502Z" fill="#784F26"/>
<path d="M496.5 423C496.5 406 558.342 551.709 546 549.999L473.782 527.191L470 508.54L476.982 512.425V505.82V502.707C502.213 466.093 496.5 440 496.5 423Z" fill="#784F26"/>
<path d="M282.5 216.5L469.5 202L514 233.5C400.371 213.232 334.698 226.296 236.5 289L219.5 294L282.5 216.5Z" fill="#826229"/>
<path d="M260 225C265.972 204.487 339.5 142.5 404.083 160.679C401.687 169.744 399.069 170.582 390.001 175.999C413.253 167.787 425.416 166.424 446.001 168C444.055 181.502 437.221 190.19 416 192.5C585.977 213.774 632.476 432.98 450 422.5" stroke="black" stroke-width="6"/>
<path d="M333 363C304.57 483.489 493.604 461.714 480.496 340.84M480.496 340.84C480.496 340.84 395.497 321.5 397.997 298C400.497 274.5 494.997 271.5 504.996 278C514.994 284.501 508.24 322.634 480.496 340.84Z" stroke="black" stroke-width="6"/>
<path d="M272.177 237.529C230.5 176 166.5 259 230.5 284" stroke="black" stroke-width="6"/>
<path d="M261.43 250.686C245.03 222.678 206.5 254.5 246.5 274" stroke="black" stroke-width="6"/>
<path d="M498.5 419C517.551 431.721 532.161 465.947 532.5 489.5" stroke="black" stroke-width="6"/>
<path d="M385.926 441.734C385.926 441.734 380.59 469.876 385.926 479C391.262 488.124 441.704 481.44 446 475.5C450.296 469.56 450.5 422.5 450.5 422.5" stroke="black" stroke-width="6"/>
<path d="M496 419.5C496 419.5 498.332 448.396 496 462.5C493.669 476.605 455.847 481.688 451.621 475.5C447.394 469.312 451.621 419.919 451.621 419.919" stroke="black" stroke-width="6"/>
<path d="M275.5 205.5C76.4999 -170 -155.5 498 188.5 683" stroke="black" stroke-width="6"/>
<path d="M328.5 213.127C328.5 213.127 320.5 209 309.5 214.5C298.5 220 301.5 233.127 301.5 233.127C306.762 221.401 312.773 217.084 328.5 213.127Z" fill="#352314"/>
<path d="M301.72 233.586C305.77 217.638 327.502 212.58 329.502 214.499C326.993 209.501 297.331 209.186 301.72 233.586Z" stroke="#110000" stroke-width="6"/>
<circle cx="332" cy="272" r="24" fill="#00020B" stroke="#1D0500" stroke-width="6"/>
<circle cx="458" cy="247" r="19" fill="#00020B" stroke="#1D0500" stroke-width="6"/>
<circle cx="323.5" cy="260.5" r="13.5" fill="#D9D9D9"/>
<circle cx="450" cy="239" r="11" fill="#D9D9D9"/>
<circle cx="362.5" cy="383.5" r="3.5" fill="#160D0C"/>
<circle cx="394.5" cy="379.5" r="4.5" fill="#160D0C"/>
<circle cx="415.5" cy="388.5" r="4.5" fill="#160D0C"/>
<circle cx="499.5" cy="364.5" r="4.5" fill="#160D0C"/>
<circle cx="527.5" cy="368.5" r="4.5" fill="#160D0C"/>
<circle cx="507.5" cy="383.5" r="4.5" fill="#160D0C"/>
<circle cx="494.5" cy="401.5" r="4.5" fill="#160D0C"/>
<circle cx="418.5" cy="411.5" r="4.5" fill="#160D0C"/>
<circle cx="384.5" cy="406.5" r="4.5" fill="#160D0C"/>
<path d="M83.6971 239.602C121.657 196.086 145.113 179.974 189.5 161C145.526 185.57 122.047 202.297 83.6971 239.602Z" stroke="black" stroke-width="4"/>
<path d="M68.8593 348.251C106.819 304.735 175.613 238.974 220 220C176.026 244.57 107.209 310.946 68.8593 348.251Z" stroke="black" stroke-width="4"/>
<path d="M74.9287 452.353C112.888 408.837 159.5 337.5 207 316.5C153 351 113.279 415.048 74.9287 452.353Z" stroke="black" stroke-width="4"/>
<path d="M95.4685 538.33C133.428 494.814 130.5 482 151.5 467C137.5 476 133.818 501.025 95.4685 538.33Z" stroke="black" stroke-width="4"/>
<path d="M154 154.842C193.079 197.355 189 185.5 215.5 228C178.5 177.715 186.863 197.061 154 154.842Z" stroke="black" stroke-width="4"/>
<path d="M119.5 209C158.58 251.513 179.5 274 206 316.5C169 266.215 152.363 251.218 119.5 209Z" stroke="black" stroke-width="4"/>
<path d="M81.9999 451.615C121.079 494.128 117 477 143.5 519.5C106.5 469.215 114.863 493.833 81.9999 451.615Z" stroke="black" stroke-width="4"/>
<path d="M85.0001 272.615C131.5 311 156 332.978 178.5 377.5C147 325.5 126.5 318 85.0001 272.615Z" stroke="black" stroke-width="4"/>
<path d="M71 340C126.724 386.725 155 434.5 157 441.5C159 448.5 113.008 369.232 71 340Z" stroke="black" stroke-width="4"/>
<path d="M470 337.5C467.241 325.349 441.03 305.546 436 305.5C442.473 308.283 464.314 328.777 461 335.5" stroke="black" stroke-width="2"/>
<path d="M480 339C476.239 329.193 480.35 304.172 482.5 300C479.155 306.717 479.363 330.827 486 335" stroke="black" stroke-width="2"/>
<path d="M228 283L251.5 270C181.611 460.621 149.197 558.589 290.001 613L327 684.5C327 684.5 243 702 190.5 684.5C138.001 667 98.5 483 228 283Z" fill="#784F26"/>
<path d="M449.5 673.5C387.568 699.148 269 695 205 689C141 683 88.5002 495.5 227.501 284.044" stroke="black" stroke-width="6"/>
<path d="M321.5 362.5C326.373 362.577 331.54 362.431 335.964 363.37" stroke="black" stroke-width="6"/>
<path d="M439 306C456.235 317.675 464.872 324.228 469.5 336L462 334C455.815 321.192 449.843 315.687 439 306Z" fill="black"/>
<path d="M479.5 340.5V316.5C481.085 325.991 482.096 330.551 484.5 335L479.5 340.5Z" fill="black"/>
<path d="M260.854 218.767C260.949 218.593 261.099 218.448 261.276 218.357C335.051 180.089 362.384 173.445 445.632 175.491C445.865 175.497 446.096 175.584 446.272 175.737L502.461 224.784C503.211 225.438 502.607 226.664 501.621 226.529C382.321 210.169 325.216 231.393 224.133 289.69C223.256 290.195 222.234 289.247 222.721 288.36L260.854 218.767Z" fill="#D52B1E"/>
<path d="M249.364 245.222C249.453 245.076 249.58 244.955 249.729 244.871C323.029 203.65 379.213 188.472 463.178 193.481C463.385 193.493 463.587 193.57 463.749 193.701L502.18 224.723C502.97 225.361 502.373 226.632 501.367 226.494C382.366 210.217 325.265 231.389 224.453 289.505C223.554 290.023 222.521 289.018 223.063 288.133L249.364 245.222Z" fill="#F9E300"/>
<path d="M240.873 261.69C240.957 261.565 241.068 261.46 241.198 261.383C321.676 213.952 401.05 194.188 476.763 206.462C476.919 206.487 477.066 206.549 477.193 206.642L501.781 224.644C502.621 225.258 502.034 226.585 501.004 226.445C382.367 210.276 325.275 231.407 224.751 289.334C223.834 289.862 222.793 288.811 223.38 287.93L240.873 261.69Z" fill="#007A33"/>
<path d="M566.896 146.744C567.944 165.405 565.725 178.325 557.613 188.173C548.755 198.927 532.354 206.666 503.148 213.276L496.051 208.206C499.045 203.415 501.487 199.127 503.72 195.289C506.338 190.79 508.655 186.939 511.312 183.431C516.526 176.548 523.192 170.79 536.264 164.721C549.654 158.503 554.941 155.778 558.661 153.236C560.534 151.957 561.99 150.737 563.767 149.273C564.663 148.535 565.669 147.71 566.896 146.744Z" stroke="black" stroke-width="6"/>
<path d="M613.142 233.314C593.284 253.604 573.501 257.732 555.503 253.555C536.269 249.09 518.508 235.007 504.547 219.202L504.547 217.181C515.913 211.994 524.763 208.85 533.523 207.359C542.697 205.797 551.952 206.015 564.093 207.805C575.002 209.413 583.749 215.731 592.45 222.022C596.709 225.103 601.021 228.213 605.417 230.448C607.892 231.706 610.46 232.722 613.142 233.314Z" stroke="black" stroke-width="6"/>
<path d="M499.188 211.788C501.59 213.68 503.15 215.996 503.81 218.107C504.474 220.232 504.173 221.885 503.348 222.933C502.94 223.451 502.744 223.429 502.732 223.429C502.585 223.44 502.17 223.393 501.331 222.92C500.515 222.46 499.562 221.751 498.393 220.809C497.303 219.932 495.909 218.756 494.546 217.682C493.183 216.608 491.713 215.529 490.605 214.676C489.415 213.76 488.502 213 487.864 212.314C487.208 211.609 487.065 211.217 487.041 211.071C487.039 211.062 486.967 210.878 487.378 210.356C488.203 209.308 489.74 208.629 491.961 208.776C494.168 208.922 496.785 209.896 499.188 211.788Z" stroke="black" stroke-width="5"/>
<path opacity="0.5" d="M264.5 219L289 207.5L248 275.5L229.5 283L264.5 219Z" fill="black"/>
<path d="M350.471 184.24C376.498 178.153 403.759 176.979 445.036 177.978L497.073 223.398C439.668 215.916 396.503 217.332 355.435 227.689C314.54 238.003 275.884 257.145 227.476 284.884L262.825 220.369C299.461 201.379 324.423 190.332 350.471 184.24Z" stroke="black" stroke-width="5"/>
<path d="M501.553 296.805C498.662 300.066 497.506 295.194 493.725 291.841C489.944 288.488 484.969 287.924 487.861 284.663C490.753 281.402 496.162 281.476 499.943 284.829C503.724 288.182 504.445 293.543 501.553 296.805Z" fill="#7F4731"/>
<path d="M419 290.684C423.12 293.611 451 284.198 478 287.684C483.316 288.37 487.436 285.611 483.316 282.684C472.5 274.998 421.525 287.131 419 290.684Z" fill="#6F3D26"/>
<path d="M259 470C256.167 483.833 262.5 528.788 296.5 536C344.241 546.127 349.658 573.928 344.6 583.965C344.319 584.523 343.596 584.609 343.147 584.176C339.023 580.201 321.523 563.433 325.5 569C330 575.3 350.3 605.3 331.5 614.5C312.895 623.605 317.24 616.974 323.309 611.666C323.434 611.557 323.533 611.425 323.575 611.265C324.742 606.791 315.123 592.941 309.337 588.377C308.606 587.8 308.024 588.478 308.6 589.21C316.856 599.694 334.231 611.431 307 617.5C288.917 621.531 239 614 210.5 578.5" stroke="black" stroke-width="6" stroke-linecap="round"/>
<path d="M479.7 594.129C480.569 594.051 481.444 594.049 482.313 594.123L608.938 604.917C619 605.775 625.357 616.128 621.57 625.488L608.204 658.524C606.155 663.588 601.515 667.138 596.092 667.791L341.537 698.433C338.867 698.754 336.159 698.351 333.697 697.267L217.136 645.917C202.952 639.668 206.405 618.635 221.843 617.25L479.7 594.129Z" fill="url(#paint0_linear_264_4812)" stroke="black" stroke-width="6"/>
<path d="M479.358 594.059C479.73 594.026 480.104 594.023 480.477 594.05L618.609 603.949C623.538 604.303 626.559 609.514 624.416 613.967L606.534 651.128C605.478 653.323 603.355 654.811 600.931 655.057L337.159 681.75C335.959 681.872 334.747 681.681 333.642 681.196L217.928 630.426C211.296 627.516 212.908 617.683 220.122 617.043L479.358 594.059Z" fill="#84AFAD" stroke="black" stroke-width="6"/>
<path d="M619.136 619.005L571.721 636.092L364.381 673.384L271.259 631.686L506.564 611.01L619.136 619.005Z" fill="#617473" stroke="black" stroke-width="6"/>
<path d="M656.775 457.347C667.334 456.806 675.123 467.067 671.765 477.092L617.259 639.791C615.424 645.268 610.607 649.205 604.874 649.913L348.869 681.529C339.574 682.677 332.151 673.917 334.811 664.937L389.26 481.066C391.066 474.967 396.522 470.67 402.875 470.345L656.775 457.347Z" fill="url(#paint1_linear_264_4812)" stroke="black" stroke-width="6"/>
<path d="M400.9 487.563C402 483.925 405.268 481.37 409.064 481.18L658.734 468.665C665.09 468.346 669.76 474.546 667.7 480.567L612.715 641.264C611.597 644.532 608.709 646.871 605.28 647.286L356.686 677.345C350.236 678.125 345.11 672.023 346.991 665.805L400.9 487.563Z" fill="#6D9390"/>
<path d="M298.5 629L339.5 646.5" stroke="#010101" stroke-width="5" stroke-linecap="round"/>
<path d="M344 636L293.5 641" stroke="#010101" stroke-width="5" stroke-linecap="round"/>
<path d="M340 646L313 649.364" stroke="#010101" stroke-width="5" stroke-linecap="round"/>
<path d="M326.5 627.5L342 635" stroke="#010101" stroke-width="5" stroke-linecap="round"/>
</g>
<defs>
<linearGradient id="paint0_linear_264_4812" x1="152" y1="646.5" x2="633.5" y2="646.5" gradientUnits="userSpaceOnUse">
<stop offset="0.225962" stop-color="#445255"/>
<stop offset="0.403846" stop-color="#5F8E8E"/>
<stop offset="0.658654" stop-color="#445255"/>
</linearGradient>
<linearGradient id="paint1_linear_264_4812" x1="504" y1="453" x2="447.5" y2="715.5" gradientUnits="userSpaceOnUse">
<stop stop-color="#AED7CD"/>
<stop offset="0.692308" stop-color="#5B716E"/>
</linearGradient>
<clipPath id="clip0_264_4812">
<rect width="680" height="816" fill="white"/>
</clipPath>
</defs>
</svg>
