<svg width="680" height="816" viewBox="0 0 680 816" fill="none" xmlns="http://www.w3.org/2000/svg">
<g clip-path="url(#clip0_264_4741)">
<ellipse cx="366" cy="670" rx="290" ry="38" fill="black" fill-opacity="0.34"/>
<path d="M259 218C288 173 360.274 146.531 404 154C402.39 162.708 400.233 162.976 392 168.5C410.981 162.354 422.081 162.333 448.5 160.5C440.138 177.141 435.872 182.253 418 185.5C531.316 200.917 634.967 340.285 512.5 410.5C508.968 412.525 505.603 414.477 502.397 416.359C560.902 459.145 517.178 536.567 512.552 511.142L472.94 653.938C405.246 693.273 354 683 196.5 683L141.586 577.791L158.002 485.738C158.081 485.702 170.02 480.369 189.463 472.399L171.5 393.5C171.5 393.5 230 263 259 218Z" fill="#936632"/>
<path d="M47.5001 196.5C94.0001 59.9999 176 50.8554 259.5 173L180 256L68.5001 556C68.5001 556 1.00005 333 47.5001 196.5Z" fill="#6D351B"/>
<path d="M388 437C413.927 437.945 428.339 430.963 454 416C473.806 416.079 483.613 416.086 498 416L496.5 461C482.5 471 472.113 474.08 449 468C421 480 418.151 483.481 384.5 471.5C381.432 448.233 382.761 454.358 388 437Z" fill="#FCFCF7"/>
<path d="M481 335C504.761 312.712 515.579 299.807 505.5 272C447.684 264.515 424.699 269.656 396.5 291.5C407.473 310.212 421.462 320.091 481 335Z" fill="#6A341B"/>
<path d="M139.5 84.5C93.8082 194.074 33.1025 334.584 74.0003 530C93.6358 419.695 117.274 345.744 153.389 285.226C141.868 279.639 134 268.425 134 255.5C134 236.999 150.118 222 170 222C178.692 222 186.665 224.867 192.886 229.64C211.22 207.619 232.069 186.585 256 165L275 199.5C142.001 379.5 155 504.5 169 665.5C-7.6521 580.64 -57.9927 170.228 139.5 84.5Z" fill="#4C280E"/>
<path d="M321.5 359.5H329.5C327.827 401.093 335 427 372 436C329.5 436 312.5 414 321.5 359.5Z" fill="#784F26"/>
<path opacity="0.9" d="M282 245.5C267.443 239.349 245.335 247.236 242 279C219.909 279 202 264.002 202 245.5C202 226.998 219.909 212 242 212C264.091 212 282 226.998 282 245.5Z" fill="#A77A36"/>
<path d="M384 457.502C388.217 456.24 388 628.002 388 628.002L339.5 598L333 574L345 579V570.5L341 555.5C384.368 508.386 379.783 458.763 384 457.502Z" fill="#784F26"/>
<path d="M496.5 417C496.5 400 558.342 545.709 546 543.999L473.782 521.191L470 502.54L476.982 506.425V499.82V496.707C502.213 460.093 496.5 434 496.5 417Z" fill="#784F26"/>
<path d="M260 219C265.972 198.487 339.5 136.5 404.083 154.679C401.687 163.744 399.069 164.582 390.001 169.999C413.253 161.787 425.416 160.424 446.001 162C444.055 175.502 437.221 184.19 416 186.5C585.977 207.774 632.476 426.98 450 416.5" stroke="black" stroke-width="6"/>
<path d="M333 357C304.57 477.489 493.604 455.714 480.496 334.84M480.496 334.84C480.496 334.84 395.497 315.5 397.997 292C400.497 268.5 494.997 265.5 504.996 272C514.994 278.501 508.24 316.634 480.496 334.84Z" stroke="black" stroke-width="6"/>
<path d="M272.177 231.529C230.5 170 166.5 253 230.5 278" stroke="black" stroke-width="6"/>
<path d="M261.43 244.686C245.03 216.678 206.5 248.5 246.5 268" stroke="black" stroke-width="6"/>
<path d="M498.5 413C517.551 425.721 532.161 459.947 532.5 483.5" stroke="black" stroke-width="6"/>
<path d="M385.926 435.734C385.926 435.734 380.59 463.876 385.926 473C391.262 482.124 441.704 475.44 446 469.5C450.296 463.56 450.5 416.5 450.5 416.5" stroke="black" stroke-width="6"/>
<path d="M496 413.5C496 413.5 498.332 442.396 496 456.5C493.669 470.605 455.847 475.688 451.621 469.5C447.394 463.312 451.621 413.919 451.621 413.919" stroke="black" stroke-width="6"/>
<path d="M275.5 199.5C76.4999 -176 -155.5 492 188.5 677" stroke="black" stroke-width="6"/>
<path d="M328.5 207.127C328.5 207.127 320.5 203 309.5 208.5C298.5 214 301.5 227.127 301.5 227.127C306.762 215.401 312.773 211.084 328.5 207.127Z" fill="#352314"/>
<path d="M301.72 227.586C305.77 211.638 327.502 206.58 329.502 208.499C326.993 203.501 297.331 203.186 301.72 227.586Z" stroke="#110000" stroke-width="6"/>
<circle cx="332" cy="266" r="24" fill="#00020B" stroke="#1D0500" stroke-width="6"/>
<circle cx="458" cy="241" r="19" fill="#00020B" stroke="#1D0500" stroke-width="6"/>
<circle cx="323.5" cy="254.5" r="13.5" fill="#D9D9D9"/>
<circle cx="450" cy="233" r="11" fill="#D9D9D9"/>
<circle cx="362.5" cy="377.5" r="3.5" fill="#160D0C"/>
<circle cx="394.5" cy="373.5" r="4.5" fill="#160D0C"/>
<circle cx="415.5" cy="382.5" r="4.5" fill="#160D0C"/>
<circle cx="499.5" cy="358.5" r="4.5" fill="#160D0C"/>
<circle cx="527.5" cy="362.5" r="4.5" fill="#160D0C"/>
<circle cx="507.5" cy="377.5" r="4.5" fill="#160D0C"/>
<circle cx="494.5" cy="395.5" r="4.5" fill="#160D0C"/>
<circle cx="418.5" cy="405.5" r="4.5" fill="#160D0C"/>
<circle cx="384.5" cy="400.5" r="4.5" fill="#160D0C"/>
<path d="M83.6971 233.602C121.657 190.086 145.113 173.974 189.5 155C145.526 179.57 122.047 196.297 83.6971 233.602Z" stroke="black" stroke-width="4"/>
<path d="M68.8593 342.251C106.819 298.735 175.613 232.974 220 214C176.026 238.57 107.209 304.946 68.8593 342.251Z" stroke="black" stroke-width="4"/>
<path d="M74.9287 446.353C112.888 402.837 159.5 331.5 207 310.5C153 345 113.279 409.048 74.9287 446.353Z" stroke="black" stroke-width="4"/>
<path d="M95.4685 532.33C133.428 488.814 130.5 476 151.5 461C137.5 470 133.818 495.025 95.4685 532.33Z" stroke="black" stroke-width="4"/>
<path d="M154 148.842C193.079 191.355 189 179.5 215.5 222C178.5 171.715 186.863 191.061 154 148.842Z" stroke="black" stroke-width="4"/>
<path d="M119.5 203C158.58 245.513 179.5 268 206 310.5C169 260.215 152.363 245.218 119.5 203Z" stroke="black" stroke-width="4"/>
<path d="M81.9999 445.615C121.079 488.128 117 471 143.5 513.5C106.5 463.215 114.863 487.833 81.9999 445.615Z" stroke="black" stroke-width="4"/>
<path d="M85.0001 266.615C131.5 305 156 326.978 178.5 371.5C147 319.5 126.5 312 85.0001 266.615Z" stroke="black" stroke-width="4"/>
<path d="M71 334C126.724 380.725 155 428.5 157 435.5C159 442.5 113.008 363.232 71 334Z" stroke="black" stroke-width="4"/>
<path d="M470 331.5C467.241 319.349 441.03 299.546 436 299.5C442.473 302.283 464.314 322.777 461 329.5" stroke="black" stroke-width="2"/>
<path d="M480 333C476.239 323.193 480.35 298.172 482.5 294C479.155 300.717 479.363 324.827 486 329" stroke="black" stroke-width="2"/>
<path d="M228 277L251.5 264C181.611 454.621 149.197 552.589 290.001 607L327 678.5C327 678.5 243 696 190.5 678.5C138.001 661 98.5 477 228 277Z" fill="#784F26"/>
<path d="M449.5 667.5C387.568 693.148 269 689 205 683C141 677 88.5002 489.5 227.501 278.044" stroke="black" stroke-width="6"/>
<path d="M321.5 356.5C326.373 356.577 331.54 356.431 335.964 357.37" stroke="black" stroke-width="6"/>
<path d="M439 300C456.235 311.675 464.872 318.228 469.5 330L462 328C455.815 315.192 449.843 309.687 439 300Z" fill="black"/>
<path d="M479.5 334.5V310.5C481.085 319.991 482.096 324.551 484.5 329L479.5 334.5Z" fill="black"/>
<path d="M501.553 290.805C498.662 294.066 497.506 289.194 493.725 285.841C489.944 282.488 484.969 281.924 487.861 278.663C490.753 275.402 496.162 275.476 499.943 278.829C503.724 282.182 504.445 287.543 501.553 290.805Z" fill="#7F4731"/>
<path d="M419 284.684C423.12 287.611 451 278.198 478 281.684C483.316 282.37 487.436 279.611 483.316 276.684C472.5 268.998 421.525 281.131 419 284.684Z" fill="#6F3D26"/>
<path d="M259 464C256.167 477.833 262.5 522.788 296.5 530C344.241 540.127 349.658 567.928 344.6 577.965C344.319 578.523 343.596 578.609 343.147 578.176C339.023 574.201 321.523 557.433 325.5 563C330 569.3 350.3 599.3 331.5 608.5C312.895 617.605 317.24 610.974 323.309 605.666C323.434 605.557 323.533 605.425 323.575 605.265C324.742 600.791 315.123 586.941 309.337 582.377C308.606 581.8 308.024 582.478 308.6 583.21C316.856 593.694 334.231 605.431 307 611.5C288.917 615.531 239 608 210.5 572.5" stroke="black" stroke-width="6" stroke-linecap="round"/>
<path d="M479.7 588.129C480.569 588.051 481.444 588.049 482.313 588.123L608.938 598.917C619 599.775 625.357 610.128 621.57 619.488L608.204 652.524C606.155 657.588 601.515 661.138 596.092 661.791L341.537 692.433C338.867 692.754 336.159 692.351 333.697 691.267L217.136 639.917C202.952 633.668 206.405 612.635 221.843 611.25L479.7 588.129Z" fill="url(#paint0_linear_264_4741)" stroke="black" stroke-width="6"/>
<path d="M479.358 588.059C479.73 588.026 480.104 588.023 480.477 588.05L618.609 597.949C623.538 598.303 626.559 603.514 624.416 607.967L606.534 645.128C605.478 647.323 603.355 648.811 600.931 649.057L337.159 675.75C335.959 675.872 334.747 675.681 333.642 675.196L217.928 624.426C211.296 621.516 212.908 611.683 220.122 611.043L479.358 588.059Z" fill="#84AFAD" stroke="black" stroke-width="6"/>
<path d="M619.136 613.005L571.721 630.092L364.381 667.384L271.259 625.686L506.564 605.01L619.136 613.005Z" fill="#617473" stroke="black" stroke-width="6"/>
<path d="M656.775 451.347C667.334 450.806 675.123 461.067 671.765 471.092L617.259 633.791C615.424 639.268 610.607 643.205 604.874 643.913L348.869 675.529C339.574 676.677 332.151 667.917 334.811 658.937L389.26 475.066C391.066 468.967 396.522 464.67 402.875 464.345L656.775 451.347Z" fill="url(#paint1_linear_264_4741)" stroke="black" stroke-width="6"/>
<path d="M400.9 481.563C402 477.925 405.268 475.37 409.064 475.18L658.734 462.665C665.09 462.346 669.76 468.546 667.7 474.567L612.715 635.264C611.597 638.532 608.709 640.871 605.28 641.286L356.686 671.345C350.236 672.125 345.11 666.023 346.991 659.805L400.9 481.563Z" fill="#6D9390"/>
<path d="M298.5 623L339.5 640.5" stroke="#010101" stroke-width="5" stroke-linecap="round"/>
<path d="M344 630L293.5 635" stroke="#010101" stroke-width="5" stroke-linecap="round"/>
<path d="M340 640L313 643.364" stroke="#010101" stroke-width="5" stroke-linecap="round"/>
<path d="M326.5 621.5L342 629" stroke="#010101" stroke-width="5" stroke-linecap="round"/>
</g>
<defs>
<linearGradient id="paint0_linear_264_4741" x1="152" y1="640.5" x2="633.5" y2="640.5" gradientUnits="userSpaceOnUse">
<stop offset="0.225962" stop-color="#445255"/>
<stop offset="0.403846" stop-color="#5F8E8E"/>
<stop offset="0.658654" stop-color="#445255"/>
</linearGradient>
<linearGradient id="paint1_linear_264_4741" x1="504" y1="447" x2="447.5" y2="709.5" gradientUnits="userSpaceOnUse">
<stop stop-color="#AED7CD"/>
<stop offset="0.692308" stop-color="#5B716E"/>
</linearGradient>
<clipPath id="clip0_264_4741">
<rect width="680" height="816" fill="white"/>
</clipPath>
</defs>
</svg>
