<svg width="680" height="816" viewBox="0 0 680 816" fill="none" xmlns="http://www.w3.org/2000/svg">
<g clip-path="url(#clip0_264_3362)">
<ellipse cx="386.5" cy="716.5" rx="256.5" ry="27.5" fill="black" fill-opacity="0.34"/>
<path d="M289 198C318 153 390.274 126.531 434 134C432.39 142.708 430.233 142.976 422 148.5C440.981 142.354 452.081 142.333 478.5 140.5C470.138 157.141 465.873 162.253 448 165.5C561.316 180.917 664.967 320.284 542.5 390.5C540.458 391.67 538.472 392.817 536.54 393.939C610.645 446.713 618.304 512.99 555.5 524L521 698C450.833 749.097 383.266 750.823 233.5 726L188 608.5V491C188.039 490.978 201.781 483.284 223.921 471.978L201.5 373.5C201.57 373.344 260.017 242.973 289 198Z" fill="#936632"/>
<path d="M77.5001 176.5C124 39.9999 206 30.8554 289.5 153L210 236L98.5001 536C98.5001 536 31.0001 313 77.5001 176.5Z" fill="#6D351B"/>
<path d="M554 541C594.513 573.879 583.291 616.682 533.519 658.4C542.927 652.295 554.201 648 564.5 648C587.972 648 610.5 663 613 683C613 697.126 603.051 711.79 569.878 719.001C569.753 719.166 569.628 719.333 569.5 719.5L567.225 719.554C565.54 719.887 563.799 720.204 562 720.5C559.504 720.5 556.98 720.274 554.461 719.855L485 721.5L554 541Z" fill="#936632"/>
<path d="M418 417C443.927 417.945 458.339 410.963 484 396C503.806 396.079 513.613 396.086 528 396L526.5 441C512.5 451 502.113 454.08 479 448C451 460 448.151 463.481 414.5 451.5C411.432 428.233 412.761 434.358 418 417Z" fill="#FCFCF7"/>
<path d="M511 315C534.761 292.712 545.579 279.807 535.5 252C477.684 244.515 454.699 249.656 426.5 271.5C437.473 290.212 451.462 300.091 511 315Z" fill="#6A341B"/>
<path d="M554 541C549.881 591.79 533.5 616 512 659.5C490.5 703 501 721 501 721H479.5C487.642 695.193 483.81 683.429 461 667.5C512.425 630.482 527.48 598.434 554 541Z" fill="#784F26"/>
<path d="M164 66.5C112.667 219.824 58.766 348.215 104 510C123.636 399.695 147.273 325.744 183.388 265.226C171.867 259.639 164 248.425 164 235.5C164 216.998 180.118 202 200 202C208.693 202 216.665 204.867 222.886 209.64C241.22 187.619 262.069 166.585 286 145L305 179.5C172 359.5 134 561 205.5 704C32.5005 615.5 -18.4994 152.5 164 66.5Z" fill="#4C280E"/>
<path d="M259 259C259 259 274.5 222.759 278 229C281.5 235.241 185.5 506.5 316.5 528V543.5C321.364 528.823 226 570 217.5 624.5C209 679 250 726 278 732.5C306 739 234.5 736.5 208.5 705.5C190.136 667.489 181.941 643.396 174.5 603C168.959 528.383 170.725 482.495 194.5 383.5C228.532 304.44 239.057 283.502 259 259Z" fill="#754C24"/>
<path d="M546.531 458.152C533.254 463.843 524 476.633 524 491.5C524 511.658 541.013 528 562 528C563.169 528 564.326 527.946 565.468 527.847C560.742 529.872 555.509 531 550 531C529.013 531 512 514.658 512 494.5C512 475.465 527.17 459.835 546.531 458.152Z" fill="#865723"/>
<path d="M351.5 339.5H359.5C357.827 381.093 365 407 402 416C359.5 416 342.5 394 351.5 339.5Z" fill="#826026"/>
<path opacity="0.9" d="M297.5 221C291.43 225.5 288 225.5 271 259C248.909 259 231 244.002 231 225.5C231 206.998 248.909 192 271 192C293.091 192 326.5 199.5 297.5 221Z" fill="#754C24"/>
<path d="M363 337C334.57 457.489 523.604 435.714 510.496 314.84M510.496 314.84C510.496 314.84 425.497 295.5 427.997 272C430.497 248.5 524.997 245.5 534.996 252C544.994 258.501 538.24 296.634 510.496 314.84Z" stroke="black" stroke-width="6"/>
<g filter="url(#filter0_d_264_3362)">
<path d="M321.217 451.498C319.72 452.207 319.081 453.996 319.79 455.493C320.499 456.99 322.288 457.629 323.785 456.92L322.501 454.209L321.217 451.498ZM242 417.999L239.01 417.756C236.441 449.35 248.358 482.52 267.998 504.856C287.669 527.227 315.607 539.181 344.68 526.759L343.501 524L342.322 521.241C316.395 532.319 291.082 522.023 272.503 500.894C253.893 479.729 242.559 448.149 244.99 418.242L242 417.999ZM343.501 524L344.68 526.759C359.018 520.632 367.629 511.686 371.556 501.753C375.47 491.854 374.585 481.34 370.622 472.334C362.785 454.524 342.193 441.563 321.217 451.498L322.501 454.209L323.785 456.92C340.81 448.856 358.218 459.041 365.13 474.751C368.542 482.505 369.22 491.345 365.977 499.547C362.747 507.715 355.484 515.618 342.322 521.241L343.501 524Z" fill="black"/>
</g>
<path d="M291.43 224.686C275.03 196.678 236.5 228.5 276.5 248" stroke="black" stroke-width="6"/>
<path d="M216.256 625.522C304 453 469.499 581 391.502 658.5" stroke="#010101" stroke-width="6"/>
<path d="M527.998 662C581.998 630 597.5 564.5 552.998 538.5" stroke="#010101" stroke-width="6"/>
<path d="M477 719.5C684.499 740.998 612.5 624.5 544 650.5" stroke="#010101" stroke-width="6"/>
<path d="M457.76 665.156C483.5 665.156 554.5 571.5 554.5 526.5" stroke="black" stroke-width="6"/>
<path d="M528.5 393C547.551 405.721 562.161 439.947 562.5 463.5" stroke="black" stroke-width="6"/>
<path d="M564.5 461.5C512 450.5 510.998 540.496 568.998 522.496C626.999 504.497 590.967 418.816 531.5 393.5" stroke="black" stroke-width="6" stroke-linecap="round"/>
<path d="M415.926 415.734C415.926 415.734 410.59 443.876 415.926 453C421.262 462.124 471.704 455.44 476 449.5C480.296 443.56 480.5 396.5 480.5 396.5" stroke="black" stroke-width="6"/>
<path d="M526 393.5C526 393.5 528.332 422.396 526 436.5C523.669 450.605 485.847 455.688 481.621 449.5C477.394 443.312 481.621 393.919 481.621 393.919" stroke="black" stroke-width="6"/>
<path d="M305.5 179.5C82.0223 -211.768 -90.5 526 216.5 710.999" stroke="black" stroke-width="6"/>
<path d="M331.72 224.585C335.77 208.637 357.502 203.579 359.502 205.499C356.993 200.5 327.331 200.185 331.72 224.585Z" stroke="#110000" stroke-width="6"/>
<circle cx="362" cy="246" r="24" fill="#00020B" stroke="#1D0500" stroke-width="6"/>
<circle cx="488" cy="221" r="19" fill="#00020B" stroke="#1D0500" stroke-width="6"/>
<circle cx="353.5" cy="234.5" r="13.5" fill="#D9D9D9"/>
<circle cx="480" cy="213" r="11" fill="#D9D9D9"/>
<circle cx="393.5" cy="358.5" r="4.5" fill="#160D0C"/>
<circle cx="424.5" cy="353.5" r="4.5" fill="#160D0C"/>
<circle cx="447.5" cy="362.5" r="4.5" fill="#160D0C"/>
<circle cx="529.5" cy="338.5" r="4.5" fill="#160D0C"/>
<circle cx="557.5" cy="342.5" r="4.5" fill="#160D0C"/>
<circle cx="537.5" cy="357.5" r="4.5" fill="#160D0C"/>
<circle cx="524.5" cy="375.5" r="4.5" fill="#160D0C"/>
<circle cx="448.5" cy="385.5" r="4.5" fill="#160D0C"/>
<circle cx="414.5" cy="380.5" r="4.5" fill="#160D0C"/>
<path d="M421.463 700.602C420.579 699.201 420.997 697.348 422.398 696.464C423.799 695.579 425.652 695.997 426.536 697.398L424 699L421.463 700.602ZM425 738L422.16 737.034C427.659 720.872 426.795 709.044 421.463 700.602L424 699L426.536 697.398C433.205 707.956 433.657 721.872 427.84 738.966L425 738Z" fill="black"/>
<path d="M451.127 699.362C450.651 697.775 451.551 696.103 453.138 695.627C454.725 695.15 456.397 696.051 456.874 697.638L454 698.5L451.127 699.362ZM454 731L451.062 730.395C452.8 721.95 453.496 716.582 453.438 712.164C453.381 707.816 452.592 704.246 451.127 699.362L454 698.5L456.874 697.638C458.408 702.754 459.37 706.934 459.437 712.086C459.504 717.168 458.7 723.05 456.939 731.605L454 731Z" fill="black"/>
<path d="M113.697 213.602C151.657 170.086 175.113 153.974 219.5 135C175.526 159.57 152.047 176.297 113.697 213.602Z" stroke="black" stroke-width="4"/>
<path d="M98.8593 322.251C136.819 278.735 205.113 209.474 249.5 190.5C205.526 215.07 137.209 284.946 98.8593 322.251Z" stroke="black" stroke-width="4"/>
<path d="M104.929 426.353C142.888 382.837 189.5 311.5 237 290.5C183 325 143.279 389.048 104.929 426.353Z" stroke="black" stroke-width="4"/>
<path d="M125.468 512.33C163.428 468.814 160.5 456 181.5 441C167.5 450 163.818 475.025 125.468 512.33Z" stroke="black" stroke-width="4"/>
<path d="M184 128.842C223.079 171.355 219 159.5 245.5 202C208.5 151.715 216.863 171.061 184 128.842Z" stroke="black" stroke-width="4"/>
<path d="M149.5 183C188.58 225.513 209.5 248 236 290.5C199 240.215 182.363 225.218 149.5 183Z" stroke="black" stroke-width="4"/>
<path d="M257.5 262.694L259 258.194L243 246.194L215 260.194L200.5 268.694L192.5 276.694L194.5 283.694L215 290.694L243 288.194L245.5 283.694L253 270.694L257.5 262.694Z" fill="#963D01"/>
<path d="M112 425.615C151.079 468.128 147 451 173.5 493.5C136.5 443.215 144.863 467.833 112 425.615Z" stroke="black" stroke-width="4"/>
<path d="M115 246.615C161.5 285 186 306.978 208.5 351.5C177 299.5 156.5 292 115 246.615Z" stroke="black" stroke-width="4"/>
<path d="M101 314C156.724 360.725 185 408.5 187 415.5C189 422.5 143.008 343.232 101 314Z" stroke="black" stroke-width="4"/>
<path d="M500 311.5C497.241 299.349 471.03 279.546 466 279.5C472.473 282.283 494.314 302.777 491 309.5" stroke="black" stroke-width="2"/>
<path d="M510 313C506.239 303.193 510.35 278.172 512.5 274C509.155 280.717 509.363 304.827 516 309" stroke="black" stroke-width="2"/>
<path d="M351.5 336.5C356.373 336.577 361.54 336.431 365.964 337.37" stroke="black" stroke-width="6"/>
<path d="M469 280C486.235 291.675 494.872 298.228 499.5 310L492 308C485.815 295.192 479.843 289.687 469 280Z" fill="black"/>
<path d="M247.5 244.695C226.5 244.697 214.5 263.692 219.5 270.191" stroke="black" stroke-width="5"/>
<path d="M509.5 314.5V290.5C511.085 299.991 512.096 304.551 514.5 309L509.5 314.5Z" fill="black"/>
<path d="M222.231 273.912C227.537 277.882 248.74 270.209 257.507 258.49C251.095 252.561 246.757 248.199 241.45 244.229C236.143 240.259 234.354 244.905 225.587 256.624C216.82 268.343 216.924 269.942 222.231 273.912Z" fill="#B25300"/>
<path d="M531.553 270.805C528.662 274.066 527.506 269.194 523.725 265.841C519.944 262.488 514.969 261.924 517.861 258.663C520.753 255.402 526.162 255.476 529.943 258.829C533.724 262.182 534.445 267.543 531.553 270.805Z" fill="#7F4731"/>
<path d="M449 264.684C453.12 267.611 481 258.198 508 261.684C513.316 262.37 517.436 259.611 513.316 256.684C502.5 248.998 451.525 261.131 449 264.684Z" fill="#6F3D26"/>
<path d="M302.177 211.53C260.5 150.001 196.5 233.002 260.5 258.002" stroke="black" stroke-width="6"/>
<path d="M463 170.694L498.5 162.694L542 159.194L565.5 164.194L591.5 171.694L593.5 180.194L573 192.694L541 204.694L525 195.194L497 179.194L463 170.694Z" fill="#963D01"/>
<path d="M544 177.307C544 185.805 532.136 192.694 517.5 192.694C507.5 183.078 486 176.83 486 168.332C486 159.834 502.864 161.921 517.5 161.921C532.136 161.921 544 168.81 544 177.307Z" fill="#B25300"/>
<path d="M303.5 179.194L342.5 167.194L407.5 153.694L427 159.194H448H477L494 156.194L514.5 151.194L530 140.694L549.5 141.694L576 147.194L592.5 154.194L599.5 165.694L595 177.194L589 171.694L559 161.694L520.5 160.694L485 164.694L450 171.694L403.75 185.694L357.5 199.694L321 213.194L264.5 234.194L214 259.194L188 278.194L182.5 268.694L187 254.694L200.5 237.194L227 216.694L249 208.194L274 191.194L303.5 179.194Z" fill="#BC5B00"/>
<path d="M445.793 162.763C449.269 171.71 390.896 168.101 314.94 198.214C238.984 228.326 193.669 272.579 190.193 263.632C186.717 254.685 239.726 211.245 310.308 183.391C380.89 155.537 442.317 153.816 445.793 162.763Z" fill="#E98F17"/>
<path d="M227.5 112.694L258.5 85.6943L279 74.6943L299.5 71.6943L320.5 69.1943L343 74.6943L360 80.1943L381 92.6943L391.5 105.194L363 112.694L317.5 127.694L276.5 142.694L215.5 173.194L200 182.694L203 163.194L209 145.694L227.5 112.694Z" fill="#F4AF43"/>
<path d="M374 102.694C380.491 118.644 353.5 109.193 309.52 131.693C250.5 147.694 215.491 193.143 209 177.194C202.509 161.244 233.027 102.151 273 87.1934C312.973 72.2357 367.509 86.7449 374 102.694Z" fill="#E49116"/>
<path d="M344.363 116.128C354 121.694 322.447 117.263 289.5 139.194C240.938 151.937 214.949 191.877 209.232 177.788C203.515 163.7 229 110.194 260 94.694C268.421 108.265 317.544 124.375 344.363 116.128Z" fill="#DD7D0A"/>
<path d="M333 49.6943L362 45.6943L387.5 48.6943L416.5 63.6943L418.5 68.1943L411.5 72.1943L401.5 79.6943L397 74.1943L385 68.1943L365 58.6943L338 56.6943H312.5L333 49.6943Z" fill="#E49936"/>
<path d="M418.5 64.82C412.5 74.82 405.5 72.6972 401.5 78.3189L391.5 71.6972L365.5 58.8197L331 54.6971L326 53.6962C346.46 55.1079 377.428 46.9389 418.074 65.5074C424.574 60.1007 417.5 66.2263 418.5 64.82Z" fill="#ED9319"/>
<path d="M383 42.1943L399.5 43.6943L419.5 46.6943L438 54.6943L441 58.1943L432.5 60.1943L420.5 68.1943L417.5 64.6943L407.5 58.1943L387.5 48.6943L381.5 47.6943L375.5 43.6943L383 42.1943Z" fill="#E49936"/>
<path d="M436 51.6955L440.5 54.7224C434.5 64.7224 425.455 57.4488 423.5 68.2213L415 60.1285L387.5 48.7222L368.5 46.6966L355 48.6023C378.617 46.7034 384.664 35.9914 420 60.1291C426.5 54.7224 435 53.1019 436 51.6955Z" fill="#ED9319"/>
<path d="M310 58.6943L339.5 56.6943L366 58.6943L396 73.6943L401 79.1943L393 88.6943L391 103.694L378.5 91.1943L362.5 80.6943L342.5 72.1943L313.5 69.6943L280.5 72.1943L310 58.6943Z" fill="#E49936"/>
<path d="M394 72.6952L401 76.6943C395 86.6943 392.955 91.9227 391 102.695L371 86.6943L342.5 72.6952L313.5 70.1943L283 72.6952C312.5 63.1943 348.257 58.9802 386.5 90.6952C387.025 83.1199 388.265 79.0978 394 72.6952Z" fill="#ED9319"/>
<path d="M399.5 79.6943L439 57.1943L476.5 46.1943L499.5 45.1943L521 51.6943L537.5 68.6943L546 91.1943L547 104.194L541 126.694L525.5 143.194L508 154.194L463.5 159.694H440L416 157.694L404 148.694L395 131.194L391 96.1943L399.5 79.6943Z" fill="url(#paint0_linear_264_3362)"/>
<path d="M535 133.694H542L543 140.194H532.5L535 133.694Z" fill="#E49116"/>
<path d="M338 166.195L407 154.195L401.5 143.695L338 163.194L338 166.195Z" fill="#AE5201"/>
<path opacity="0.4" d="M208.5 178.194L212.5 177.194L215.5 192.194L221.5 207.194L225 211.694L228 213.694V215.694L198.5 233.725L191.5 187.694L208.5 178.194Z" fill="#D9D9D9"/>
<path d="M261.5 150.194L322.5 125.694L390 106.194L393 125.694L400.5 144.694L366.5 153.194L335.5 163.694L304.5 176.694L277 189.694L271 165.194L261.5 150.194Z" fill="#453E37"/>
<path d="M264 156.652L323.347 131.92L383.5 114.694C383.5 114.694 385.219 125.492 387.824 131.92C390.137 137.627 395.5 145.694 395.5 145.694L363 153.562L335.237 165.487L306.885 176.971L276.5 191.133L270.5 165.487L264 156.652Z" fill="#35302B"/>
<path d="M197.5 190.694L212.5 182.193L215 193.563C215 193.563 214.895 193.266 217.5 199.694C219.813 205.402 222 208.694 222 208.694L224.5 211.694L227.885 214.194V216.971L203 231.194C203 231.194 200.076 220.007 199 212.694C197.747 204.175 197.5 190.694 197.5 190.694Z" fill="#35302B"/>
<path d="M212.5 170.694L233 157.694L252 150.694L260 148.694L270.5 164.694L275.5 191.694L252 204.694L227.5 214.694L216 193.694L212.5 170.694Z" fill="url(#paint1_linear_264_3362)"/>
<path d="M242 286.001C234 289.001 189 294.695 192.5 276.195C196 257.695 504.829 120.867 589.5 172.688C607.775 183.872 536.5 205.194 536.5 205.194" stroke="black" stroke-width="5"/>
<path d="M197 285.5C168.582 270.455 186.661 242.538 229 215.464" stroke="black" stroke-width="5"/>
<path d="M276 190.602C314.394 173.606 361.013 159.638 408.5 153.693" stroke="black" stroke-width="5"/>
<path d="M590 181.693C625 149.694 543.5 136.195 525.5 143.694" stroke="black" stroke-width="5"/>
<path d="M192.5 187.693C199.537 183.53 206.353 179.584 213 175.834" stroke="black" stroke-width="5"/>
<path d="M262.5 150.071C302.154 131.397 340.307 118.575 391 105.694" stroke="black" stroke-width="5"/>
<path d="M229 215.443C210.733 225.781 199.122 233.261 198.5 234.194C196.5 237.194 187.5 189.2 193.5 187.197" stroke="black" stroke-width="5"/>
<path d="M276 190.631C314.527 171.691 361.285 152.16 401.327 144.767" stroke="black" stroke-width="5"/>
<path d="M200.5 183.194C206 94.6941 311.986 27.4964 390.5 102.194" stroke="black" stroke-width="5"/>
<path d="M200.5 183.194C206 94.6941 311.986 27.4964 390.5 102.194" stroke="black" stroke-width="5"/>
<path d="M246 96.1947C242 96.195 329.5 18.1944 403.343 79.8945" stroke="black" stroke-width="5"/>
<path d="M277.5 74.194C281.5 71.1957 366.22 17.3764 420 67.6952" stroke="black" stroke-width="5"/>
<path d="M299 62.6943C304.747 60.8252 389.5 23.6943 442 57.1943" stroke="black" stroke-width="5"/>
<ellipse cx="491.5" cy="98.6943" rx="43.5" ry="44" fill="#5E5852"/>
<ellipse cx="490.5" cy="100.694" rx="58.5" ry="58" fill="url(#paint2_radial_264_3362)"/>
<path d="M525 98.6943C525 122.995 507.763 142.694 486.5 142.694C465.237 142.694 448 122.995 448 98.6943C448 74.3938 465.237 60.6943 486.5 60.6943C507.763 60.6943 519.5 70.1943 525 98.6943Z" fill="#F9D032"/>
<path d="M520 96.1334C520 116.878 507.464 133.694 492 133.694C476.536 133.694 464 116.878 464 96.1334C464 75.389 476.536 63.6943 492 63.6943C507.464 63.6943 516 71.8041 520 96.1334Z" fill="#FEF665"/>
<path d="M491.5 57.1943C514.117 57.1943 532.5 75.7475 532.5 98.6943C532.5 121.641 514.117 140.194 491.5 140.194C468.883 140.194 450.5 121.641 450.5 98.6943C450.5 75.7475 468.883 57.1943 491.5 57.1943Z" stroke="black" stroke-width="5"/>
<path d="M486.5 58.6943C506.456 58.6943 523 76.837 523 99.6943C523 122.552 506.456 140.694 486.5 140.694C466.544 140.694 450 122.552 450 99.6943C450 76.837 466.544 58.6943 486.5 58.6943Z" stroke="black" stroke-width="4"/>
<path d="M490.5 45.1943C521.448 45.1943 546.5 70.0627 546.5 100.694C546.5 131.326 521.448 156.194 490.5 156.194C459.552 156.194 434.5 131.326 434.5 100.694C434.5 70.0627 459.552 45.1943 490.5 45.1943Z" stroke="black" stroke-width="5"/>
<path d="M468.5 49.6943C430.5 57.1943 407.174 72.1943 410.5 108.194C414.935 156.194 452 165.694 490 156.194" stroke="black" stroke-width="5"/>
<path d="M439.468 58.2554C424.837 65.4485 419.502 65.6774 400.502 79.6774C381.502 93.6774 395.502 153.259 414.502 156.677C433.502 160.095 464 160.612 483 157.194" stroke="black" stroke-width="5"/>
<path d="M231.122 157.991C239.728 153.58 249.698 149.673 258.319 148.419C259.385 148.263 259.977 148.437 260.264 148.659C261.851 149.889 263.729 152.573 265.661 156.444C267.546 160.221 269.332 164.817 270.857 169.524C272.38 174.226 273.625 178.984 274.443 183.067C275.277 187.23 275.616 190.455 275.47 192.205C275.416 192.853 275.128 193.448 274.699 193.851C273.338 195.129 270.343 197.074 266.245 199.358C262.226 201.598 257.365 204.047 252.461 206.342C247.558 208.637 242.642 210.764 238.517 212.366C234.286 214.008 231.165 214.985 229.707 215.157C229.517 215.179 229.05 215.141 228.237 214.621C227.435 214.109 226.486 213.243 225.437 211.989C223.344 209.485 221.133 205.764 219.126 201.305C215.104 192.37 212.144 181.026 212.398 171.719C212.423 170.795 212.669 170.216 212.989 169.882C215.58 167.172 222.463 162.428 231.122 157.991Z" stroke="black" stroke-width="5"/>
<path d="M235.01 168.999C240.823 166.142 247.406 163.573 253.093 162.504C253.551 162.418 253.91 162.402 254.17 162.435C254.412 162.466 254.504 162.527 254.543 162.559C255.412 163.278 256.466 164.748 257.561 166.932C258.625 169.054 259.615 171.619 260.455 174.28C262.167 179.704 263.108 185.057 262.973 187.541C262.949 187.966 262.712 188.441 262.261 188.786C259.759 190.698 253.176 194.108 246.369 197.21C243.018 198.736 239.698 200.149 236.927 201.222C234.067 202.33 232.028 202.979 231.112 203.118C231.107 203.119 230.422 203.127 229.065 201.67C227.838 200.354 226.519 198.305 225.318 195.747C222.911 190.618 221.241 184.01 221.518 178.441C221.559 177.608 221.843 177.064 222.203 176.756C224.375 174.897 229.174 171.868 235.01 168.999Z" stroke="black" stroke-width="5"/>
<path d="M537.5 129.194C542.541 134.236 543.937 135.983 545 141.739" stroke="black" stroke-width="5"/>
<path d="M512.5 162.195C540.5 157.694 545.5 180.697 538.5 185.197" stroke="black" stroke-width="5"/>
<path d="M463 169.359C618.89 202.497 656.236 406.622 480 396.5" stroke="black" stroke-width="6"/>
<path d="M257.501 258.044C118.5 469.499 171.41 720.718 246.057 729.527C320.704 738.337 405.125 751.675 467.057 726.027C528.989 700.379 413.499 596 348.001 695.999" stroke="black" stroke-width="6"/>
</g>
<defs>
<filter id="filter0_d_264_3362" x="234.664" y="417.756" width="143.418" height="122.011" filterUnits="userSpaceOnUse" color-interpolation-filters="sRGB">
<feFlood flood-opacity="0" result="BackgroundImageFix"/>
<feColorMatrix in="SourceAlpha" type="matrix" values="0 0 0 0 0 0 0 0 0 0 0 0 0 0 0 0 0 0 127 0" result="hardAlpha"/>
<feOffset dy="4"/>
<feGaussianBlur stdDeviation="2"/>
<feComposite in2="hardAlpha" operator="out"/>
<feColorMatrix type="matrix" values="0 0 0 0 0 0 0 0 0 0 0 0 0 0 0 0 0 0 0.25 0"/>
<feBlend mode="normal" in2="BackgroundImageFix" result="effect1_dropShadow_264_3362"/>
<feBlend mode="normal" in="SourceGraphic" in2="effect1_dropShadow_264_3362" result="shape"/>
</filter>
<linearGradient id="paint0_linear_264_3362" x1="469" y1="45.1943" x2="469" y2="159.694" gradientUnits="userSpaceOnUse">
<stop offset="0.600962" stop-color="#38332B"/>
<stop offset="1" stop-color="#5D544A"/>
</linearGradient>
<linearGradient id="paint1_linear_264_3362" x1="256.352" y1="187.809" x2="282.648" y2="175.58" gradientUnits="userSpaceOnUse">
<stop offset="0.519231" stop-color="#3E382E"/>
<stop offset="1" stop-color="#BAAF9D"/>
</linearGradient>
<radialGradient id="paint2_radial_264_3362" cx="0" cy="0" r="1" gradientUnits="userSpaceOnUse" gradientTransform="translate(479.75 83.9443) rotate(133.39) scale(42.6278 42.9952)">
<stop stop-color="#EAE7E3"/>
<stop offset="1" stop-color="#5A5750"/>
</radialGradient>
<clipPath id="clip0_264_3362">
<rect width="680" height="816" fill="white"/>
</clipPath>
</defs>
</svg>
