<svg width="680" height="356" viewBox="0 0 680 356" fill="none" xmlns="http://www.w3.org/2000/svg">
<path d="M366.999 203.514C406.537 193.222 458.324 182.882 500.376 178.465C521.427 176.253 539.889 175.544 553.115 177.013C559.751 177.75 564.853 179.015 568.27 180.769C571.646 182.502 572.985 184.475 573.111 186.619C573.251 189.004 572.038 191.949 568.895 195.484C565.788 198.978 561.074 202.73 554.944 206.658C542.699 214.504 525.255 222.772 505.015 230.923C464.568 247.214 413.387 262.869 371.395 273.646C332.665 283.586 283.043 294.125 242.496 299.477C222.202 302.155 204.302 303.517 191.211 302.89C184.647 302.576 179.465 301.767 175.841 300.469C172.142 299.143 170.698 297.554 170.347 296.094C169.988 294.601 170.615 292.25 173.455 288.848C176.206 285.553 180.603 281.798 186.458 277.709C198.142 269.548 215.157 260.379 235.035 251.163C274.768 232.739 325.542 214.305 366.999 203.514Z" fill="#963D01" stroke="black" stroke-width="5"/>
<path d="M355.077 201.211C386.957 192.953 427.815 181.822 460.851 175.281C477.39 172.006 491.799 169.918 502.07 169.878C507.238 169.858 511.105 170.363 513.621 171.334C516.054 172.274 516.717 173.4 516.773 174.583C516.854 176.288 516.085 178.509 513.993 181.287C511.925 184.033 508.753 187.068 504.537 190.329C496.114 196.845 483.88 203.987 469.035 211.288C439.372 225.876 399.67 240.911 360.166 252.708C329.511 261.862 287.038 270.815 252.371 275.021C235.017 277.126 219.759 278.023 208.96 277.204C203.528 276.793 199.456 275.961 196.846 274.775C194.248 273.595 193.754 272.427 193.797 271.45L193.813 271.098L193.731 270.756C193.561 270.051 193.854 268.534 196.266 265.965C198.547 263.536 202.194 260.744 207.07 257.681C216.793 251.573 230.901 244.697 247.319 237.748C280.127 223.861 321.779 209.838 355.077 201.211Z" fill="#A74A00" stroke="black" stroke-width="5"/>
<path d="M281.5 192.194L320.5 180.194L385.5 166.694L405 172.194H426H455L472 169.194L492.5 164.194L508 153.694L527.5 154.694L554 160.194L570.5 167.194L577.5 178.694L573 190.194L567 184.694L537 174.694L498.5 173.694L463 177.694L428 184.694L381.75 198.694L335.5 212.694L299 226.194L242.5 247.194L192 272.194L166 291.194L160.5 281.694L165 267.694L178.5 250.194L205 229.694L227 221.194L252 204.194L281.5 192.194Z" fill="#BC5B00"/>
<path d="M423.793 175.763C427.269 184.71 368.896 181.101 292.94 211.213C216.984 241.326 171.669 285.579 168.193 276.632C164.717 267.685 217.726 224.245 288.308 196.391C358.89 168.537 420.317 166.816 423.793 175.763Z" fill="#E98F17"/>
<path d="M205.5 125.694L236.5 98.6941L257 87.6941L277.5 84.6941L298.5 82.1941L321 87.6941L338 93.1941L359 105.694L369.5 118.194L341 125.694L295.5 140.694L254.5 155.694L193.5 186.194L178 195.694L181 176.194L187 158.694L205.5 125.694Z" fill="#F4AF43"/>
<path d="M352 115.694C358.491 131.644 331.5 122.193 287.52 144.693C228.5 160.694 193.491 206.143 187 190.194C180.509 174.244 211.027 115.151 251 100.193C290.973 85.2354 345.509 99.7447 352 115.694Z" fill="#E49116"/>
<path d="M322.363 129.128C332 134.693 300.447 130.263 267.5 152.193C218.938 164.936 192.949 204.877 187.232 190.788C181.515 176.7 207 123.194 238 107.694C246.421 121.264 295.544 137.374 322.363 129.128Z" fill="#DD7D0A"/>
<path d="M311 62.6941L340 58.6941L365.5 61.6941L394.5 76.6941L396.5 81.1941L389.5 85.1941L379.5 92.6941L375 87.1941L363 81.1941L343 71.6941L316 69.6941H290.5L311 62.6941Z" fill="#E49936"/>
<path d="M396.5 77.8197C390.5 87.8197 383.5 85.6969 379.5 91.3186L369.5 84.6969L343.5 71.8195L309 67.6968L304 66.696C324.46 68.1076 355.428 59.9386 396.074 78.5072C402.574 73.1005 395.5 79.2261 396.5 77.8197Z" fill="#ED9319"/>
<path d="M361 55.1941L377.5 56.6941L397.5 59.6941L416 67.6941L419 71.1941L410.5 73.1941L398.5 81.1941L395.5 77.6941L385.5 71.1941L365.5 61.6941L359.5 60.6941L353.5 56.6941L361 55.1941Z" fill="#E49936"/>
<path d="M414 64.6953L418.5 67.7221C412.5 77.7221 403.455 70.4486 401.5 81.221L393 73.1282L365.5 61.7219L346.5 59.6964L333 61.602C356.617 59.7031 362.664 48.9911 398 73.1288C404.5 67.7221 413 66.1016 414 64.6953Z" fill="#ED9319"/>
<path d="M288 71.6941L317.5 69.6941L344 71.6941L374 86.6941L379 92.1941L371 101.694L369 116.694L356.5 104.194L340.5 93.6941L320.5 85.1941L291.5 82.6941L258.5 85.1941L288 71.6941Z" fill="#E49936"/>
<path d="M372 85.6949L379 89.6941C373 99.6941 370.955 104.922 369 115.695L349 99.694L320.5 85.6949L291.5 83.194L261 85.6949C290.5 76.194 326.257 71.98 364.5 103.695C365.025 96.1196 366.265 92.0975 372 85.6949Z" fill="#ED9319"/>
<path d="M377.5 92.6941L417 70.1941L454.5 59.1941L477.5 58.1941L499 64.6941L515.5 81.6941L524 104.194L525 117.194L519 139.694L503.5 156.194L486 167.194L441.5 172.694H418L394 170.694L382 161.694L373 144.194L369 109.194L377.5 92.6941Z" fill="url(#paint0_linear_264_2214)"/>
<path d="M513 146.694H520L521 153.194H510.5L513 146.694Z" fill="#E49116"/>
<path d="M316 179.194L385 167.195L379.5 156.694L316 176.194L316 179.194Z" fill="#AE5201"/>
<path opacity="0.4" d="M186.5 191.194L190.5 190.194L193.5 205.194L199.5 220.194L203 224.694L206 226.694V228.694L176.5 246.725L169.5 200.694L186.5 191.194Z" fill="#D9D9D9"/>
<path d="M239.5 163.194L300.5 138.694L368 119.194L371 138.694L378.5 157.694L344.5 166.194L313.5 176.694L282.5 189.694L255 202.694L249 178.194L239.5 163.194Z" fill="#453E37"/>
<path d="M242 169.652L301.347 144.92L361.5 127.694C361.5 127.694 363.219 138.492 365.824 144.92C368.137 150.627 373.5 158.694 373.5 158.694L341 166.562L313.237 178.487L284.885 189.971L254.5 204.133L248.5 178.487L242 169.652Z" fill="#35302B"/>
<path d="M175.5 203.694L190.5 195.193L193 206.563C193 206.563 192.895 206.266 195.5 212.694C197.813 218.401 200 221.694 200 221.694L202.5 224.694L205.885 227.194V229.971L181 244.194C181 244.194 178.076 233.007 177 225.694C175.747 217.174 175.5 203.694 175.5 203.694Z" fill="#35302B"/>
<path d="M190.5 183.694L211 170.694L230 163.694L238 161.694L248.5 177.694L253.5 204.694L230 217.694L205.5 227.694L194 206.694L190.5 183.694Z" fill="url(#paint1_linear_264_2214)"/>
<path d="M174.5 299.695C170.478 297.893 168.662 294.657 170.5 289.194C177.5 268.389 474.118 129.109 571.5 190" stroke="black" stroke-width="5"/>
<path d="M176 300.5C147.582 285.454 164.661 255.537 207 228.463" stroke="black" stroke-width="5"/>
<path d="M254 203.602C292.394 186.606 339.013 172.638 386.5 166.693" stroke="black" stroke-width="5"/>
<path d="M571 191.687C597.864 161.854 520.926 149.434 503.5 156.694" stroke="black" stroke-width="5"/>
<path d="M170.5 200.693C177.537 196.53 184.353 192.584 191 188.834" stroke="black" stroke-width="5"/>
<path d="M240.5 163.071C280.154 144.397 318.307 131.575 369 118.694" stroke="black" stroke-width="5"/>
<path d="M207 228.443C188.733 238.781 177.122 246.261 176.5 247.194C174.5 250.194 165.5 202.2 171.5 200.197" stroke="black" stroke-width="5"/>
<path d="M254 203.63C292.527 184.691 339.285 165.16 379.327 157.767" stroke="black" stroke-width="5"/>
<path d="M178.5 196.193C184 107.694 289.986 40.4962 368.5 115.194" stroke="black" stroke-width="5"/>
<path d="M178.5 196.193C184 107.694 289.986 40.4962 368.5 115.194" stroke="black" stroke-width="5"/>
<path d="M224 109.194C220 109.195 307.5 31.1942 381.343 92.8943" stroke="black" stroke-width="5"/>
<path d="M255.5 87.1937C259.5 84.1955 344.22 30.3762 398 80.695" stroke="black" stroke-width="5"/>
<path d="M277 75.6941C282.747 73.825 367.5 36.6941 420 70.1941" stroke="black" stroke-width="5"/>
<ellipse cx="469.5" cy="111.694" rx="43.5" ry="44" fill="#5E5852"/>
<ellipse cx="468.5" cy="113.694" rx="58.5" ry="58" fill="url(#paint2_radial_264_2214)"/>
<path d="M503 111.694C503 135.995 485.763 155.694 464.5 155.694C443.237 155.694 426 135.995 426 111.694C426 87.3936 443.237 73.6941 464.5 73.6941C485.763 73.6941 497.5 83.1941 503 111.694Z" fill="#F9D032"/>
<path d="M498 109.133C498 129.877 485.464 146.694 470 146.694C454.536 146.694 442 129.877 442 109.133C442 88.3888 454.536 76.6941 470 76.6941C485.464 76.6941 494 84.8039 498 109.133Z" fill="#FEF665"/>
<path d="M469.5 70.1941C492.117 70.1941 510.5 88.7473 510.5 111.694C510.5 134.641 492.117 153.194 469.5 153.194C446.883 153.194 428.5 134.641 428.5 111.694C428.5 88.7473 446.883 70.1941 469.5 70.1941Z" stroke="black" stroke-width="5"/>
<path d="M464.5 71.6941C484.456 71.6941 501 89.8368 501 112.694C501 135.551 484.456 153.694 464.5 153.694C444.544 153.694 428 135.551 428 112.694C428 89.8368 444.544 71.6941 464.5 71.6941Z" stroke="black" stroke-width="4"/>
<path d="M468.5 58.1941C499.448 58.1941 524.5 83.0625 524.5 113.694C524.5 144.326 499.448 169.194 468.5 169.194C437.552 169.194 412.5 144.326 412.5 113.694C412.5 83.0625 437.552 58.1941 468.5 58.1941Z" stroke="black" stroke-width="5"/>
<path d="M446.5 62.6941C408.5 70.1941 385.174 85.1941 388.5 121.194C392.935 169.194 430 178.694 468 169.194" stroke="black" stroke-width="5"/>
<path d="M417.468 71.2552C402.837 78.4482 397.502 78.6772 378.502 92.6772C359.502 106.677 373.502 166.259 392.502 169.677C411.502 173.095 442 173.612 461 170.194" stroke="black" stroke-width="5"/>
<path d="M209.122 170.99C217.728 166.58 227.698 162.673 236.319 161.418C237.385 161.263 237.977 161.436 238.264 161.659C239.851 162.889 241.729 165.573 243.661 169.444C245.546 173.221 247.332 177.817 248.857 182.524C250.38 187.226 251.625 191.983 252.443 196.067C253.277 200.23 253.616 203.455 253.47 205.204C253.416 205.852 253.128 206.448 252.699 206.851C251.338 208.129 248.343 210.073 244.245 212.357C240.226 214.597 235.365 217.046 230.461 219.342C225.558 221.637 220.642 223.764 216.517 225.365C212.286 227.008 209.165 227.985 207.707 228.156C207.517 228.179 207.05 228.141 206.237 227.621C205.435 227.108 204.486 226.243 203.437 224.988C201.344 222.484 199.133 218.764 197.126 214.305C193.104 205.37 190.144 194.025 190.398 184.719C190.423 183.795 190.669 183.216 190.989 182.882C193.58 180.172 200.463 175.428 209.122 170.99Z" stroke="black" stroke-width="5"/>
<path d="M213.01 181.999C218.823 179.142 225.406 176.573 231.093 175.503C231.551 175.417 231.91 175.402 232.17 175.435C232.412 175.465 232.504 175.527 232.543 175.559C233.412 176.278 234.466 177.748 235.561 179.932C236.625 182.054 237.615 184.618 238.455 187.279C240.167 192.704 241.108 198.056 240.973 200.541C240.949 200.966 240.712 201.44 240.261 201.785C237.759 203.697 231.176 207.108 224.369 210.209C221.018 211.736 217.698 213.149 214.927 214.222C212.067 215.33 210.028 215.979 209.112 216.118C209.107 216.119 208.422 216.127 207.065 214.67C205.838 213.353 204.519 211.305 203.318 208.747C200.911 203.618 199.241 197.01 199.518 191.44C199.559 190.608 199.843 190.064 200.203 189.755C202.375 187.897 207.174 184.867 213.01 181.999Z" stroke="black" stroke-width="5"/>
<path d="M515.5 142.194C520.541 147.236 521.937 148.983 523 154.738" stroke="black" stroke-width="5"/>
<defs>
<linearGradient id="paint0_linear_264_2214" x1="447" y1="58.1941" x2="447" y2="172.694" gradientUnits="userSpaceOnUse">
<stop offset="0.600962" stop-color="#38332B"/>
<stop offset="1" stop-color="#5D544A"/>
</linearGradient>
<linearGradient id="paint1_linear_264_2214" x1="234.352" y1="200.809" x2="260.648" y2="188.579" gradientUnits="userSpaceOnUse">
<stop offset="0.519231" stop-color="#3E382E"/>
<stop offset="1" stop-color="#BAAF9D"/>
</linearGradient>
<radialGradient id="paint2_radial_264_2214" cx="0" cy="0" r="1" gradientUnits="userSpaceOnUse" gradientTransform="translate(457.75 96.9441) rotate(133.39) scale(42.6278 42.9952)">
<stop stop-color="#EAE7E3"/>
<stop offset="1" stop-color="#5A5750"/>
</radialGradient>
</defs>
</svg>
