<svg width="680" height="618" viewBox="0 0 680 618" fill="none" xmlns="http://www.w3.org/2000/svg">
<path d="M298 450.5L331 433L362 425.5L394.5 422.5H425L449.5 425.5L475.5 435L502 450.5L527 473L553 513.5L542.5 528L532 532L427.5 469L394.5 460.5L360 462.5L326.5 469L275.5 489.5L261 499L270.5 479L298 450.5Z" fill="#423530"/>
<path d="M546 499.005C550.456 508.039 551.443 516.801 546 524C530.5 544.5 505.879 510.929 433.379 472.921C360.879 434.914 246.545 497.421 243.379 519.931" stroke="black" stroke-width="5"/>
<path d="M182.504 375.268L193.504 342.268L205.004 319.268L233.004 284.268L265.004 261.268L297.004 251.268L331.504 246.268H358.504L393.004 254.268L425.504 272.768L449.004 294.768L462.004 314.268L483.504 374.768L487.504 393.768L444.504 380.768L392.504 378.768L345.004 385.268L213.504 422.768L170.504 426.768L182.504 375.268Z" fill="#443632"/>
<path d="M270.196 259.481C252.643 283.866 241.344 302.894 234.286 321.979C227.36 340.71 224.504 359.543 223.879 383.622L233.438 381.129C231.729 333.088 250.253 300.608 280.984 258.042L270.196 259.481Z" fill="#7E8686" stroke="black" stroke-width="2"/>
<path d="M294.29 251.173C275.877 275.768 264.053 296.687 256.502 317.46C249.007 338.079 245.707 358.597 244.38 382.493L255.01 389.297C257.104 322.166 277.383 278.319 307.943 248.326L294.29 251.173Z" fill="#F79008" stroke="black" stroke-width="2"/>
<path d="M283.016 252.93C265.951 275.303 253.953 293.691 245.948 313.52C238.077 333.015 234.051 353.949 232.909 381.497L244.016 377.652C246.502 345.856 252.536 323.175 261.3 303.947C269.805 285.287 280.866 269.909 293.655 252.65L283.016 252.93Z" fill="#D22B15" stroke="black" stroke-width="2"/>
<path d="M327.506 61.2798L335.506 44.2798L349.506 34.7798L360.506 39.7798L363.506 57.2798V80.7798L377.506 76.2798L385.006 82.7798L382.506 97.7798L363.506 132.78L373.506 129.28L384.506 130.78L382.506 150.78L369.506 170.78H375.506L380.506 172.78L381.006 183.78L362.506 205.78L373.506 207.78L363.506 232.28L355.506 245.28L326.006 246.28L300.006 220.78L289.006 204.28L293.006 201.28L307.006 205.28L290.506 181.78L285.506 172.78L284.006 162.78L291.506 160.78L302.506 164.78L290.006 146.78L280.006 127.28L282.006 117.78L287.506 114.78L295.506 116.78L305.006 125.28L301.006 113.28L295.506 79.7798L298.006 65.2798L305.006 57.2798L311.506 65.2798L322.006 82.7798L327.506 61.2798Z" fill="#EC8907"/>
<path d="M335.006 88.7819L329.948 117.516L328.506 165.279L328.506 182.28L329.948 208.779L332.506 246.779L346.506 246.779L348.506 219.784L352.506 187.279L357.006 145.279L354.006 101.279L341.752 81.2794L335.006 88.7819Z" fill="#3C302D"/>
<path d="M442.496 168.985L454.508 167.279L461.496 167.279L469.496 172.28L469.496 182.28L460.496 190.78L449.996 194.28L455.996 197.28L459.496 206.78L454.996 212.78L443.996 213.78L429.496 212.78L435.496 219.78L433.496 228.78L421.996 234.28L403.496 231.28L406.496 238.235L408.496 244.28L406.496 248.78L395.006 250.159L391.496 251.78L386.496 251.78L374.496 250.159L354.996 245.78L362.996 232.28L372.496 216.779L372.496 210.28L370.996 206.778L359.496 206.778L362.996 204.778L366.496 198.03L370.996 195.279L374.496 191.779L381.496 182.779L381.996 176.279L379.996 170.779L382.496 164.279L387.996 158.779L392.996 154.731L397.496 153.97L403.496 157.279L406.496 168.279L414.496 160.526L426.496 151.565L435.496 150.279L440.496 158.779L434.496 169.779L442.496 168.985Z" fill="#D52E17"/>
<path d="M416.496 181.267L403.996 189.266L381.996 206.268L376.996 213.768L373.496 213.768L355.996 246.268L361.496 246.268L376.996 234.768L400.496 221.268L421.496 206.268L437.496 186.268L434.496 177.268L416.496 181.267Z" fill="#3E312E"/>
<path d="M158.301 168.101L146.186 167.45L138.5 170.285L131.692 173.741L127 182.785L131 188.785L142.274 191.384L158.301 194.285L149.675 199.785L144.668 207.236L149.675 212.82L161 215.285L194 216.285L202.594 218.285L196 222.785L196 227.785L198.748 231.785L200.213 233.941L208.5 233.941L220 233.941L230 234.784L239 233.941L244.285 233.941L234.5 241.285L239 246.785L258.501 250.284L280.501 250.284L302.001 248.784L326.501 244.78L309.501 229.78L297.501 217.28L289.001 202.78L292.501 202.78L294.501 200.28L290.501 193.779L283.501 194.778L282.001 203.123L280.001 197.778L271.001 184.778L261.501 173.278L253.001 174.28L250.5 182.784L244.285 176.513L237.5 168.192L228.5 161.285L217.661 152.786L210 150.787L205.5 151.787L203 156.787L207 167.287L188 156.787L172.718 149.349L161.5 151.787L159.402 157.758L166.34 168.192L158.301 168.101Z" fill="#3B71D1"/>
<path d="M187.004 176.269L218.004 181.768L255.004 194.268L295.472 213.082L308.504 230.268L325.004 247.268L298.504 248.768L292.004 241.768L264.504 223.268L237.004 210.268L187.004 196.769L175.004 179.768L187.004 176.269Z" fill="#433735"/>
<path d="M355.496 245.768C363.868 209.769 440.996 158.768 437.496 183.768C433.996 208.769 343.124 251.269 359.496 247.268" stroke="black" stroke-width="5"/>
<path d="M322.158 246.464C304.501 195.28 161.501 160.274 178.001 186.276C194.501 212.278 243.501 194.155 301.501 249.777" stroke="black" stroke-width="5"/>
<path d="M152.398 472.532L165.994 440.819L195.487 443.574L235.478 436.227L263.471 428.88L340.952 406.839L391.94 399.033H427.931L457.924 403.625L492.915 412.809L516.398 450.532L535.398 470.032L549.901 495.032L553 512.001L532.398 479.532L508.398 457.532L491.898 443.532L469.921 431.176L427.931 422.532L384.442 420.615L340.952 428.88L315.398 440.819L296.898 452.532L274.898 476.032L263.471 491.532L253.898 523.237L247.398 542.982L239.398 563.532L224.898 579.532L208.398 592.532L183.898 596.032L160.891 587.984L146.898 571.532L143.898 557.032L140.398 544.032V533.532L140.398 519.531L152.398 472.532Z" fill="#908D95"/>
<path d="M181.848 442.626L208.913 440.607L242.366 433.828L299.784 418.465L348.714 405.812L401.639 399.034L446.075 402.197L492.01 412.138L542.898 464.027L555.898 490.527L554.398 505.027L554.508 513.526L554.453 509.277L548.898 496.532L541.398 481.032L520.898 455.032L497.398 437.032L467.398 420.032L422.109 408.523H374.677L333.736 418.465L285.399 442.626L265.399 459.532L250.399 477.533L239.899 498.533L233.399 527.533L221.399 553.533L208.899 567.032L197.399 570.532L181.899 568.488L165.899 560.032L159.899 551.032L154.899 535.532L154.899 518.532L159.899 495.032L181.848 442.626Z" fill="#433632"/>
<path d="M396.729 341.629C423.957 340.966 448.072 345.739 476.848 353.783L481.198 375.937C452.54 365.715 428.583 360.632 401.604 361.438C373.389 362.28 342.041 369.555 298.722 383.827C255.335 398.122 236.693 404.788 222.811 407.759C209.713 410.562 201.013 410.045 179.135 409.384L184 388.636C204.207 387.955 211.343 388.696 223.202 386.165C235.33 383.577 252.67 377.531 295.307 363.07C337.925 348.614 369.021 342.304 396.729 341.629Z" fill="#4177D7" stroke="black" stroke-width="5"/>
<circle cx="252.001" cy="383.291" r="26.5" fill="#FB970D" stroke="black" stroke-width="5"/>
<circle cx="314.006" cy="357.291" r="26.5" fill="#0856CD" stroke="black" stroke-width="5"/>
<path d="M552 510.501C536.5 446.525 466.001 400.119 381.503 409.793C297.004 419.467 251.898 464.526 241.001 499.773C230.105 535.02 235.898 533.038 218.898 556.535C201.898 580.033 171.398 569.032 163.398 556.535C155.398 544.038 142.398 526.525 180.398 446.526" stroke="black" stroke-width="5"/>
<path d="M400.425 378.924C430.073 378.846 456.59 384.239 485.502 392.326L492.192 414.76C463.437 404.579 436.664 398.881 406.92 398.981C375.596 399.086 341.123 405.617 297.722 419.916C254.395 434.191 233.472 440.968 217.365 444.041C201.928 446.986 190.952 446.525 168.504 445.863V424.708C188.635 424.054 199.286 424.76 214.581 422.277C230.505 419.691 251.572 413.652 294.307 399.157C336.864 384.723 370.326 379.004 400.425 378.924Z" fill="#4179D8" stroke="black" stroke-width="5"/>
<path d="M165.833 446.794C127.335 518.732 139.047 558.033 151.898 579.032C164.749 600.031 203.898 603.283 226.398 579.032C248.898 554.781 255.898 512.525 255.898 512.525C255.898 512.525 272.503 435.495 374.503 423.79C476.503 412.084 526.897 459.528 551.398 512.523C554.897 512.522 571.017 479.264 496.003 418.288" stroke="black" stroke-width="5"/>
<path d="M354.644 246.481C371.141 260.106 381.244 271.073 388.023 282.397C394.621 293.42 398.104 304.845 401.22 319.528L392.399 317.979C390.386 302.938 385.991 290.802 378.384 279.389C371.041 268.37 360.732 258.066 346.789 246.481L354.644 246.481Z" fill="#7E8686" stroke="black" stroke-width="2"/>
<path d="M336.725 247.314C353.453 260.137 363.904 271.65 371.022 283.455C378.038 295.093 381.846 307.069 385.205 320.986L377.756 323.464C373.537 303.228 366.869 288.008 357.745 275.985C349.055 264.532 338.178 256.031 325.19 248.852L336.725 247.314Z" fill="#F79008" stroke="black" stroke-width="2"/>
<circle cx="392.006" cy="346.291" r="26.5" fill="#F79007" stroke="black" stroke-width="5"/>
<path d="M345.211 246.301C360.818 258.165 371.263 268.244 378.736 279.521C386.073 290.593 390.588 302.882 394.26 319.271L385.266 319.27C380.091 300.522 373.916 286.936 365.95 275.638C358.314 264.807 349.066 256.126 337.586 247.029L345.211 246.301Z" fill="#D22B15" stroke="black" stroke-width="2"/>
<path d="M374.506 249.769C374.506 249.769 415.229 254.651 408.506 240.771C405.542 234.65 403.506 232.269 403.506 232.269C403.506 232.269 434.038 237.683 434.506 223.778C434.705 217.833 430.506 213.269 430.506 213.269C430.506 213.269 459.506 218.53 459.506 205.778C459.506 197.278 450.506 194.769 450.506 194.769C450.506 194.769 470.006 185.269 470.006 178.778C470.006 160.17 434.506 170.06 434.506 170.06C434.506 170.06 443.52 160.295 438.506 154.278C428.506 142.278 405.506 168.269 405.506 168.269C405.506 168.269 407.006 154.278 399.006 154.278C386.84 154.278 379.506 171.268 379.506 171.268" stroke="black" stroke-width="5"/>
<path d="M305.506 248.768C305.506 248.768 225.321 257.534 236.506 239.77C241.438 231.937 248.006 232.27 248.006 232.27C248.006 232.27 197.112 241.961 195.506 225.77C194.82 218.848 209.506 216.27 209.506 216.27C209.506 216.27 146.216 221.214 145.506 206.27C145.033 196.309 165.506 195.77 165.506 195.77C165.506 195.77 126.693 191.865 126.331 184.259C125.295 162.453 177.006 169.27 177.006 169.27C177.006 169.27 143.506 153.769 165.506 151.769C187.506 149.769 209.506 169.27 209.506 169.27C209.506 169.27 196.006 154.769 209.506 151.769C223.006 148.769 251.506 184.259 251.506 184.259C251.506 184.259 248.506 172.769 257.006 172.769C265.506 172.769 282.006 202.769 282.006 202.769C282.045 190.104 286.556 190.999 297.006 200.769" stroke="black" stroke-width="5"/>
<path d="M355.006 245.769C382.525 201.276 374.419 202.35 355.878 209.77C386.405 184.765 385.507 174.27 377.507 171.27C369.507 168.269 363.007 178.767 363.007 178.767C363.007 178.767 398.163 137.976 380.507 129.267C372.959 125.543 363.007 135.267 363.007 135.267C363.007 135.267 397.089 84.9896 380.507 77.7667C369.454 72.9523 363.007 83.2667 363.007 83.2667C363.007 83.2667 367.007 41.6159 355.878 36.7687C331.682 26.2291 320.007 86.7687 320.007 86.7687C320.007 86.7687 309.436 42.3922 299.007 64.7687C288.578 87.1452 307.507 129.267 307.507 129.267C307.507 129.267 289.905 105.805 281.507 118.769C273.109 131.732 304.149 166.073 304.149 166.073C304.149 166.073 284.296 153.592 284.296 165.452C284.296 177.312 304.149 203.314 304.149 203.314C271.162 192.165 301.637 225.247 326.007 245.769" stroke="black" stroke-width="5"/>
<path d="M332.506 245.782C330.506 242.78 321.046 69.4879 344.506 83.7817C367.966 98.0755 345.006 240.782 345.006 244.786" stroke="black" stroke-width="5"/>
<path d="M164.502 448.266C174.232 445.232 172.003 251.661 331.003 246.273C490.004 240.885 481.844 414.521 497.002 418.76" stroke="black" stroke-width="5"/>
<circle cx="174.002" cy="403.291" r="26.5" fill="#0C52C7" stroke="black" stroke-width="5"/>
<circle cx="462.996" cy="349.291" r="26.5" fill="#D92813" stroke="black" stroke-width="5"/>
</svg>
