<svg width="703" height="1005" viewBox="0 0 703 1005" fill="none" xmlns="http://www.w3.org/2000/svg">
<g clip-path="url(#clip0_264_2876)">
<ellipse cx="365.5" cy="945.525" rx="256.5" ry="27.5" fill="black" fill-opacity="0.34"/>
<path d="M268 427.025C297 382.025 369.274 355.556 413 363.025C411.39 371.733 409.233 372.001 401 377.525C419.981 371.379 431.081 371.358 457.5 369.525C449.138 386.166 444.873 391.278 427 394.525C540.316 409.941 643.967 549.309 521.5 619.525C519.458 620.695 517.472 621.842 515.54 622.964C589.645 675.738 597.304 742.015 534.5 753.025L500 927.025C429.833 978.121 362.266 979.848 212.5 955.025L167 837.525V720.025C167.039 720.003 180.781 712.309 202.921 701.003L180.5 602.525C180.57 602.369 239.017 471.998 268 427.025Z" fill="#936632"/>
<path d="M56.5 405.525C103 269.025 185 259.88 268.5 382.025L189 465.025L77.5 765.025C77.5 765.025 10 542.025 56.5 405.525Z" fill="#6D351B"/>
<path d="M533 770.025C573.513 802.903 562.291 845.707 512.519 887.425C521.927 881.32 533.201 877.025 543.5 877.025C566.972 877.025 589.5 892.025 592 912.025C592 926.151 582.051 940.815 548.878 948.026C548.753 948.191 548.628 948.358 548.5 948.525L546.225 948.579C544.54 948.912 542.799 949.229 541 949.525C538.504 949.525 535.98 949.299 533.461 948.88L464 950.525L533 770.025Z" fill="#936632"/>
<path d="M397 646.025C422.927 646.97 437.339 639.988 463 625.025C482.806 625.104 492.613 625.111 507 625.025L505.5 670.025C491.5 680.025 481.113 683.105 458 677.025C430 689.025 427.151 692.506 393.5 680.525C390.432 657.258 391.761 663.383 397 646.025Z" fill="#FCFCF7"/>
<path d="M490 544.025C513.761 521.736 524.579 508.831 514.5 481.025C456.684 473.54 433.699 478.681 405.5 500.525C416.473 519.237 430.462 529.116 490 544.025Z" fill="#6A341B"/>
<path d="M533 770.025C528.881 820.815 512.5 845.025 491 888.525C469.5 932.025 480 950.025 480 950.025H458.5C466.642 924.218 462.81 912.454 440 896.525C491.425 859.507 506.48 827.459 533 770.025Z" fill="#784F26"/>
<path d="M143 295.525C91.6666 448.849 37.766 577.24 83.0005 739.025C102.636 628.72 126.273 554.769 162.388 494.25C150.867 488.664 143 477.45 143 464.525C143 446.023 159.118 431.025 179 431.025C187.693 431.025 195.665 433.892 201.886 438.665C220.22 416.644 241.069 395.61 265 374.025L284 408.525C151 588.525 113 790.025 184.5 933.025C11.5005 844.525 -39.4994 381.525 143 295.525Z" fill="#4C280E"/>
<path d="M238 488.025C238 488.025 282 461.525 266 459.525C250 457.525 164.5 735.525 295.5 757.025V772.525C300.364 757.848 205 799.025 196.5 853.525C188 908.025 229 955.025 257 961.525C285 968.025 213.5 965.525 187.5 934.525C169.136 896.514 160.941 872.421 153.5 832.025C147.959 757.407 149.725 711.52 173.5 612.525C207.532 533.465 218.057 512.527 238 488.025Z" fill="#754C24"/>
<path d="M525.531 687.177C512.254 692.868 503 705.658 503 720.525C503 740.683 520.013 757.025 541 757.025C542.169 757.025 543.326 756.971 544.468 756.872C539.742 758.897 534.509 760.025 529 760.025C508.013 760.025 491 743.683 491 723.525C491 704.49 506.17 688.86 525.531 687.177Z" fill="#865723"/>
<path d="M330.5 568.525H338.5C336.827 610.118 344 636.025 381 645.025C338.5 645.025 321.5 623.025 330.5 568.525Z" fill="#826026"/>
<ellipse opacity="0.9" cx="251" cy="454.525" rx="40" ry="33.5" fill="#A77A36"/>
<path d="M269 428.025C274.972 407.512 348.5 345.525 413.083 363.704C410.687 372.769 408.069 373.607 399.001 379.024C422.253 370.812 434.416 369.449 455.001 371.025C453.055 384.527 446.221 393.215 425 395.525C594.977 416.798 641.476 636.005 459 625.525" stroke="black" stroke-width="6"/>
<path d="M342 566.025C313.57 686.514 502.604 664.739 489.496 543.865M489.496 543.865C489.496 543.865 404.497 524.525 406.997 501.025C409.497 477.525 503.997 474.525 513.996 481.025C523.994 487.526 517.24 525.659 489.496 543.865Z" stroke="black" stroke-width="6"/>
<path d="M281.177 440.553C239.5 379.025 175.5 462.025 239.5 487.025" stroke="black" stroke-width="6"/>
<g filter="url(#filter0_d_264_2876)">
<path d="M300.217 680.522C298.72 681.232 298.081 683.02 298.79 684.518C299.499 686.015 301.288 686.654 302.785 685.945L301.501 683.234L300.217 680.522ZM221 647.024L218.01 646.781C215.441 678.375 227.358 711.545 246.998 733.881C266.669 756.252 294.607 768.206 323.68 755.783L322.501 753.025L321.322 750.266C295.395 761.344 270.082 751.047 251.503 729.919C232.893 708.754 221.559 677.173 223.99 647.267L221 647.024ZM322.501 753.025L323.68 755.783C338.018 749.657 346.629 740.711 350.556 730.778C354.47 720.879 353.585 710.365 349.622 701.359C341.785 683.549 321.193 670.588 300.217 680.522L301.501 683.234L302.785 685.945C319.81 677.881 337.218 688.066 344.13 703.775C347.542 711.53 348.22 720.369 344.977 728.572C341.747 736.74 334.484 744.642 321.322 750.266L322.501 753.025Z" fill="black"/>
</g>
<path d="M270.43 453.711C254.03 425.703 215.5 457.525 255.5 477.025" stroke="black" stroke-width="6"/>
<path d="M236.501 487.069C97.5004 698.524 150.41 949.743 225.057 958.552C299.704 967.362 384.125 980.7 446.057 955.052C507.989 929.404 392.499 825.025 327.001 925.024" stroke="black" stroke-width="6"/>
<path d="M195.256 854.547C283 682.025 448.499 810.025 370.502 887.525" stroke="#010101" stroke-width="6"/>
<path d="M506.998 891.025C560.998 859.024 576.5 793.525 531.998 767.525" stroke="#010101" stroke-width="6"/>
<path d="M456 948.525C663.499 970.023 591.5 853.525 523 879.525" stroke="#010101" stroke-width="6"/>
<path d="M436.76 894.181C462.5 894.181 533.5 800.525 533.5 755.525" stroke="black" stroke-width="6"/>
<path d="M507.5 622.025C526.551 634.746 541.161 668.972 541.5 692.525" stroke="black" stroke-width="6"/>
<path d="M543.5 690.525C491 679.525 489.998 769.52 547.998 751.521C605.999 733.521 569.967 647.841 510.5 622.525" stroke="black" stroke-width="6" stroke-linecap="round"/>
<path d="M394.926 644.759C394.926 644.759 389.59 672.901 394.926 682.025C400.262 691.149 450.704 684.465 455 678.525C459.296 672.585 459.5 625.525 459.5 625.525" stroke="black" stroke-width="6"/>
<path d="M505 622.525C505 622.525 507.332 651.421 505 665.525C502.669 679.629 464.847 684.713 460.621 678.525C456.394 672.337 460.621 622.944 460.621 622.944" stroke="black" stroke-width="6"/>
<path d="M284.5 408.525C61.0223 17.2572 -111.5 755.025 195.5 940.024" stroke="black" stroke-width="6"/>
<path d="M337.5 416.152C337.5 416.152 329.5 412.025 318.5 417.525C307.5 423.025 310.5 436.152 310.5 436.152C315.762 424.426 321.773 420.109 337.5 416.152Z" fill="#352314"/>
<path d="M313.72 447.61C317.77 431.662 339.502 426.604 341.502 428.524C338.993 423.525 309.331 423.21 313.72 447.61Z" stroke="#110000" stroke-width="6"/>
<circle cx="341" cy="475.025" r="24" fill="#00020B" stroke="#1D0500" stroke-width="6"/>
<circle cx="467" cy="450.025" r="19" fill="#00020B" stroke="#1D0500" stroke-width="6"/>
<circle cx="332.5" cy="463.525" r="13.5" fill="#D9D9D9"/>
<circle cx="459" cy="442.025" r="11" fill="#D9D9D9"/>
<circle cx="372.5" cy="587.525" r="4.5" fill="#160D0C"/>
<circle cx="403.5" cy="582.525" r="4.5" fill="#160D0C"/>
<circle cx="426.5" cy="591.525" r="4.5" fill="#160D0C"/>
<circle cx="508.5" cy="567.525" r="4.5" fill="#160D0C"/>
<circle cx="536.5" cy="571.525" r="4.5" fill="#160D0C"/>
<circle cx="516.5" cy="586.525" r="4.5" fill="#160D0C"/>
<circle cx="503.5" cy="604.525" r="4.5" fill="#160D0C"/>
<circle cx="427.5" cy="614.525" r="4.5" fill="#160D0C"/>
<circle cx="393.5" cy="609.525" r="4.5" fill="#160D0C"/>
<path d="M400.463 929.627C399.579 928.226 399.997 926.373 401.398 925.488C402.799 924.604 404.652 925.022 405.536 926.423L403 928.025L400.463 929.627ZM404 967.025L401.16 966.059C406.659 949.897 405.795 938.069 400.463 929.627L403 928.025L405.536 926.423C412.205 936.981 412.657 950.897 406.84 967.991L404 967.025Z" fill="black"/>
<path d="M430.127 928.387C429.651 926.8 430.551 925.128 432.138 924.651C433.725 924.175 435.397 925.076 435.874 926.663L433 927.525L430.127 928.387ZM433 960.025L430.062 959.42C431.8 950.975 432.496 945.606 432.438 941.189C432.381 936.841 431.592 933.271 430.127 928.387L433 927.525L435.874 926.663C437.408 931.779 438.37 935.959 438.437 941.11C438.504 946.193 437.7 952.075 435.939 960.63L433 960.025Z" fill="black"/>
<path d="M92.6971 442.627C130.657 399.111 154.113 382.999 198.5 364.025C154.526 388.595 131.047 405.322 92.6971 442.627Z" stroke="black" stroke-width="4"/>
<path d="M77.8593 551.276C115.819 507.76 184.113 438.499 228.5 419.525C184.526 444.095 116.209 513.971 77.8593 551.276Z" stroke="black" stroke-width="4"/>
<path d="M83.9287 655.378C121.888 611.862 168.5 540.525 216 519.525C162 554.025 122.279 618.073 83.9287 655.378Z" stroke="black" stroke-width="4"/>
<path d="M104.468 741.355C142.428 697.839 139.5 685.025 160.5 670.025C146.5 679.025 142.818 704.05 104.468 741.355Z" stroke="black" stroke-width="4"/>
<path d="M163 357.867C202.079 400.38 198 388.525 224.5 431.025C187.5 380.74 195.863 400.086 163 357.867Z" stroke="black" stroke-width="4"/>
<path d="M128.5 412.025C167.58 454.538 188.5 477.025 215 519.525C178 469.24 161.363 454.243 128.5 412.025Z" stroke="black" stroke-width="4"/>
<path d="M90.9999 654.64C130.079 697.153 126 680.025 152.5 722.525C115.5 672.24 123.863 696.858 90.9999 654.64Z" stroke="black" stroke-width="4"/>
<path d="M94.0001 475.64C140.5 514.025 165 536.003 187.5 580.525C156 528.525 135.5 521.025 94.0001 475.64Z" stroke="black" stroke-width="4"/>
<path d="M80 543.025C135.724 589.75 164 637.525 166 644.525C168 651.525 122.008 572.257 80 543.025Z" stroke="black" stroke-width="4"/>
<path d="M479 540.525C476.241 528.374 450.03 508.571 445 508.525C451.473 511.308 473.314 531.801 470 538.525" stroke="black" stroke-width="2"/>
<path d="M489 542.025C485.239 532.218 489.35 507.197 491.5 503.025C488.155 509.742 488.363 533.852 495 538.025" stroke="black" stroke-width="2"/>
<path d="M330.5 565.525C335.373 565.602 340.54 565.456 344.964 566.395" stroke="black" stroke-width="6"/>
<path d="M448 509.025C465.235 520.7 473.872 527.253 478.5 539.025L471 537.025C464.815 524.217 458.843 518.712 448 509.025Z" fill="black"/>
<path d="M488.5 543.525V519.525C490.085 529.016 491.096 533.576 493.5 538.025L488.5 543.525Z" fill="black"/>
<path d="M510.553 499.83C507.662 503.091 506.506 498.219 502.725 494.866C498.944 491.513 493.969 490.949 496.861 487.688C499.753 484.426 505.162 484.501 508.943 487.854C512.724 491.207 513.445 496.568 510.553 499.83Z" fill="#7F4731"/>
<path d="M428 493.709C432.12 496.636 460 487.223 487 490.709C492.316 491.395 496.436 488.636 492.316 485.709C481.5 478.023 430.525 490.155 428 493.709Z" fill="#6F3D26"/>
<path d="M195.606 356.269L206.606 323.269L218.106 300.269L246.106 265.269L278.106 242.269L310.106 232.269L344.606 227.269H371.606L406.106 235.269L438.606 253.769L462.106 275.769L475.106 295.269L496.606 355.769L500.606 374.769L457.606 361.769L405.606 359.769L358.106 366.269L226.606 403.769L183.606 407.769L195.606 356.269Z" fill="#443632"/>
<path d="M283.299 240.481C265.746 264.866 254.446 283.895 247.389 302.98C240.462 321.711 237.607 340.543 236.981 364.622L246.54 362.129C244.831 314.088 263.355 281.609 294.086 239.042L283.299 240.481Z" fill="#7E8686" stroke="black" stroke-width="2"/>
<path d="M307.393 232.173C288.98 256.768 277.156 277.688 269.604 298.46C262.109 319.079 258.81 339.597 257.483 363.493L268.112 370.297C270.207 303.166 290.485 259.319 321.045 229.327L307.393 232.173Z" fill="#F79008" stroke="black" stroke-width="2"/>
<path d="M296.119 233.93C279.053 256.303 267.055 274.691 259.05 294.52C251.18 314.016 247.153 334.949 246.011 362.497L257.119 358.652C259.604 326.857 265.638 304.176 274.402 284.947C282.907 266.287 293.968 250.909 306.757 233.65L296.119 233.93Z" fill="#D22B15" stroke="black" stroke-width="2"/>
<path d="M340.609 42.2789L348.609 25.2789L362.609 15.7789L373.609 20.7789L376.609 38.2789V61.7789L390.609 57.2789L398.109 63.7789L395.609 78.7789L376.609 113.779L386.609 110.279L397.609 111.779L395.609 131.779L382.609 151.779H388.609L393.609 153.779L394.109 164.779L375.609 186.779L386.609 188.779L376.609 213.279L368.609 226.279L339.109 227.279L313.109 201.779L302.109 185.279L306.109 182.279L320.109 186.279L303.609 162.779L298.609 153.779L297.109 143.779L304.609 141.779L315.609 145.779L303.109 127.779L293.109 108.279L295.109 98.7789L300.609 95.7789L308.609 97.7789L318.109 106.279L314.109 94.2789L308.609 60.7789L311.109 46.2789L318.109 38.2789L324.609 46.2789L335.109 63.7789L340.609 42.2789Z" fill="#EC8907"/>
<path d="M348.109 69.781L343.05 98.515L341.609 146.279L341.609 163.279L343.05 189.779L345.609 227.779L359.609 227.779L361.609 200.783L365.609 168.279L370.109 126.279L367.109 82.2786L354.854 62.2785L348.109 69.781Z" fill="#3C302D"/>
<path d="M455.6 149.984L467.612 148.278L474.6 148.278L482.6 153.279L482.6 163.279L473.6 171.779L463.1 175.279L469.1 178.279L472.6 187.779L468.1 193.779L457.1 194.779L442.6 193.779L448.6 200.779L446.6 209.779L435.1 215.279L416.6 212.279L419.6 219.234L421.6 225.279L419.6 229.779L408.11 231.158L404.6 232.779L399.6 232.779L387.6 231.158L368.1 226.779L376.1 213.279L385.6 197.778L385.6 191.279L384.1 187.778L372.6 187.778L376.1 185.778L379.6 179.029L384.1 176.278L387.6 172.778L394.6 163.778L395.1 157.278L393.1 151.778L395.6 145.278L401.1 139.778L406.1 135.73L410.6 134.969L416.6 138.278L419.6 149.278L427.6 141.525L439.6 132.564L448.6 131.278L453.6 139.778L447.6 150.778L455.6 149.984Z" fill="#D52E17"/>
<path d="M429.6 162.268L417.1 170.266L395.1 187.269L390.1 194.769L386.6 194.769L369.1 227.269L374.6 227.269L390.1 215.769L413.6 202.269L434.6 187.269L450.6 167.269L447.6 158.268L429.6 162.268Z" fill="#3E312E"/>
<path d="M171.404 149.1L159.289 148.449L151.604 151.284L144.795 154.74L140.104 163.784L144.104 169.784L155.377 172.383L171.404 175.284L162.778 180.784L157.771 188.235L162.778 193.819L174.104 196.284L207.104 197.284L215.697 199.284L209.104 203.784L209.104 208.784L211.852 212.784L213.316 214.94L221.604 214.94L233.104 214.94L243.104 215.784L252.104 214.94L257.389 214.94L247.604 222.284L252.104 227.784L271.604 231.284L293.604 231.284L315.104 229.784L339.604 225.779L322.604 210.779L310.604 198.279L302.104 183.779L305.604 183.779L307.604 181.279L303.604 174.778L296.604 175.777L295.104 184.122L293.104 178.777L284.104 165.777L274.604 154.277L266.104 155.279L263.604 163.784L257.389 157.512L250.604 149.191L241.604 142.284L230.764 133.785L223.103 131.786L218.603 132.786L216.103 137.786L220.103 148.286L201.103 137.786L185.822 130.348L174.603 132.786L172.505 138.757L179.443 149.191L171.404 149.1Z" fill="#3B71D1"/>
<path d="M200.107 157.269L231.107 162.769L268.107 175.269L308.575 194.082L321.607 211.269L338.107 228.269L311.607 229.769L305.107 222.769L277.607 204.269L250.107 191.269L200.107 177.769L188.107 160.769L200.107 157.269Z" fill="#433735"/>
<path d="M368.6 226.768C376.972 190.769 454.1 139.768 450.6 164.768C447.1 189.769 356.228 232.27 372.6 228.269" stroke="black" stroke-width="5"/>
<path d="M335.262 227.463C317.604 176.279 174.605 141.273 191.104 167.275C207.604 193.277 256.604 175.154 314.604 230.777" stroke="black" stroke-width="5"/>
<path d="M165.501 453.53L179.097 421.817L208.59 424.572L248.58 417.225L276.574 409.878L354.055 387.837L405.043 380.031H441.034L471.027 384.623L506.018 393.807L529.5 431.53L548.5 451.03L563.004 476.03L569.001 495.03L545.501 460.53L521.501 438.53L505.001 424.53L483.024 412.174L441.034 403.53L397.544 401.613L354.055 409.878L328.501 421.817L310.001 433.53L288.001 457.03L276.574 472.53L267.001 504.235L260.501 523.98L252.501 544.53L238.001 560.53L221.501 573.53L197.001 577.03L173.994 568.982L160.001 552.53L157.001 538.03L153.501 525.03V514.53L153.5 500.529L165.501 453.53Z" fill="#908D95"/>
<path d="M194.95 423.624L222.016 421.605L255.468 414.827L312.886 399.463L361.817 386.81L414.741 380.032L459.178 383.195L505.112 393.136L556 445.025L569 471.525L567.5 486.025L567.611 494.525L578.001 537.03L575.013 516.951L562.001 477.53L554.501 462.03L534.001 436.03L510.501 418.03L480.501 401.03L435.212 389.521H387.78L346.838 399.463L298.501 423.624L278.501 440.53L263.501 458.531L253.001 479.531L246.501 508.531L234.501 534.531L222.001 548.03L210.501 551.53L195.001 549.486L179.001 541.03L173.001 532.03L168.001 516.53L168.001 499.53L173.001 476.03L194.95 423.624Z" fill="#433632"/>
<path d="M409.832 322.627C437.059 321.964 461.174 326.737 489.95 334.781L494.301 356.935C465.642 346.713 441.686 341.63 414.706 342.436C386.491 343.278 355.143 350.554 311.824 364.825C268.438 379.12 249.796 385.786 235.913 388.757C222.816 391.56 214.115 391.043 192.237 390.382L197.103 369.634C217.309 368.953 224.445 369.694 236.305 367.163C248.432 364.576 265.773 358.529 308.409 344.068C351.028 329.612 382.123 323.302 409.832 322.627Z" fill="#4177D7" stroke="black" stroke-width="5"/>
<circle cx="265.104" cy="364.289" r="26.5" fill="#FB970D" stroke="black" stroke-width="5"/>
<circle cx="327.109" cy="338.289" r="26.5" fill="#0856CD" stroke="black" stroke-width="5"/>
<path d="M576.106 542.791C570.5 433.024 479.104 381.117 394.606 390.791C310.107 400.465 265.001 445.524 254.104 480.771C243.208 516.018 249.001 514.036 232.001 537.533C215.001 561.031 184.501 550.03 176.501 537.533C168.501 525.036 155.501 507.523 193.501 427.524" stroke="black" stroke-width="5"/>
<path d="M413.527 359.922C443.176 359.844 469.693 365.237 498.604 373.324L505.295 395.758C476.54 385.577 449.766 379.879 420.022 379.979C388.698 380.084 354.226 386.615 310.824 400.914C267.497 415.189 246.574 421.966 230.468 425.039C215.031 427.984 204.055 427.523 181.606 426.861V405.706C201.738 405.052 212.389 405.758 227.684 403.275C243.608 400.689 264.674 394.65 307.409 380.156C349.967 365.721 383.429 360.002 413.527 359.922Z" fill="#4179D8" stroke="black" stroke-width="5"/>
<path d="M178.936 427.792C140.438 499.73 152.15 539.031 165.001 560.03C177.852 581.029 217.001 584.281 239.501 560.03C262.001 535.779 269.001 493.523 269.001 493.523C269.001 493.523 285.606 416.493 387.606 404.788C489.606 393.082 540 440.526 564.501 493.522C568 493.521 584.119 460.262 509.106 399.286" stroke="black" stroke-width="5"/>
<path d="M367.747 227.481C384.243 241.106 394.347 252.073 401.125 263.398C407.723 274.421 411.206 285.846 414.322 300.528L405.502 298.98C403.488 283.938 399.093 271.802 391.486 260.389C384.143 249.371 373.834 239.066 359.891 227.482L367.747 227.481Z" fill="#7E8686" stroke="black" stroke-width="2"/>
<path d="M349.827 228.315C366.555 241.137 377.007 252.65 384.124 264.455C391.14 276.093 394.949 288.069 398.307 301.986L390.858 304.464C386.639 284.228 379.971 269.009 370.847 256.985C362.157 245.533 351.28 237.032 338.293 229.852L349.827 228.315Z" fill="#F79008" stroke="black" stroke-width="2"/>
<circle cx="405.109" cy="327.289" r="26.5" fill="#F79007" stroke="black" stroke-width="5"/>
<path d="M358.313 227.301C373.92 239.165 384.365 249.245 391.838 260.521C399.176 271.594 403.69 283.883 407.362 300.272L398.368 300.271C393.194 281.522 387.018 267.936 379.053 256.638C371.417 245.807 362.169 237.126 350.688 228.029L358.313 227.301Z" fill="#D22B15" stroke="black" stroke-width="2"/>
<path d="M387.609 230.769C387.609 230.769 428.331 235.652 421.609 221.771C418.644 215.65 416.609 213.269 416.609 213.269C416.609 213.269 447.141 218.683 447.608 204.778C447.808 198.833 443.609 194.269 443.609 194.269C443.609 194.269 472.608 199.53 472.608 186.778C472.608 178.278 463.609 175.769 463.609 175.769C463.609 175.769 483.108 166.269 483.108 159.778C483.108 141.17 447.608 151.06 447.608 151.06C447.608 151.06 456.622 141.295 451.608 135.278C441.608 123.278 418.609 149.269 418.609 149.269C418.609 149.269 420.108 135.278 412.108 135.278C399.942 135.278 392.609 152.269 392.609 152.269" stroke="black" stroke-width="5"/>
<path d="M318.609 229.768C318.609 229.768 238.423 238.535 249.608 220.77C254.54 212.938 261.108 213.27 261.108 213.27C261.108 213.27 210.214 222.962 208.608 206.77C207.922 199.848 222.608 197.27 222.608 197.27C222.608 197.27 159.318 202.214 158.608 187.27C158.135 177.31 178.608 176.77 178.608 176.77C178.608 176.77 139.795 172.866 139.433 165.259C138.397 143.453 190.108 150.27 190.108 150.27C190.108 150.27 156.608 134.769 178.608 132.769C200.608 130.769 222.608 150.27 222.608 150.27C222.608 150.27 209.108 135.769 222.608 132.769C236.108 129.769 264.608 165.259 264.608 165.259C264.608 165.259 261.608 153.769 270.108 153.769C278.608 153.769 295.108 183.769 295.108 183.769C295.147 171.104 299.658 172 310.109 181.769" stroke="black" stroke-width="5"/>
<path d="M368.109 226.769C395.627 182.276 387.522 183.35 368.981 190.77C399.508 165.766 398.609 155.27 390.609 152.27C382.609 149.27 376.109 159.767 376.109 159.767C376.109 159.767 411.265 118.976 393.609 110.267C386.061 106.544 376.109 116.267 376.109 116.267C376.109 116.267 410.192 65.9898 393.609 58.7669C382.556 53.9525 376.109 64.2669 376.109 64.2669C376.109 64.2669 380.109 22.6162 368.981 17.7689C344.784 7.22931 333.109 67.7689 333.109 67.7689C333.109 67.7689 322.538 23.3924 312.109 45.7689C301.68 68.1454 320.609 110.267 320.609 110.267C320.609 110.267 303.007 86.8057 294.609 99.7689C286.211 112.732 317.251 147.073 317.251 147.073C317.251 147.073 297.398 134.592 297.398 146.452C297.398 158.312 317.251 184.314 317.251 184.314C284.264 173.165 314.739 206.248 339.109 226.77" stroke="black" stroke-width="5"/>
<path d="M345.609 226.781C343.609 223.779 334.148 50.487 357.609 64.7808C381.069 79.0746 358.109 221.781 358.109 225.785" stroke="black" stroke-width="5"/>
<path d="M177.605 429.266C187.335 426.232 185.106 232.661 344.106 227.273C503.107 221.885 494.947 395.521 510.105 399.761" stroke="black" stroke-width="5"/>
<circle cx="187.105" cy="384.289" r="26.5" fill="#0C52C7" stroke="black" stroke-width="5"/>
<circle cx="476.1" cy="330.289" r="26.5" fill="#D92813" stroke="black" stroke-width="5"/>
</g>
<defs>
<filter id="filter0_d_264_2876" x="213.664" y="646.781" width="143.418" height="122.011" filterUnits="userSpaceOnUse" color-interpolation-filters="sRGB">
<feFlood flood-opacity="0" result="BackgroundImageFix"/>
<feColorMatrix in="SourceAlpha" type="matrix" values="0 0 0 0 0 0 0 0 0 0 0 0 0 0 0 0 0 0 127 0" result="hardAlpha"/>
<feOffset dy="4"/>
<feGaussianBlur stdDeviation="2"/>
<feComposite in2="hardAlpha" operator="out"/>
<feColorMatrix type="matrix" values="0 0 0 0 0 0 0 0 0 0 0 0 0 0 0 0 0 0 0.25 0"/>
<feBlend mode="normal" in2="BackgroundImageFix" result="effect1_dropShadow_264_2876"/>
<feBlend mode="normal" in="SourceGraphic" in2="effect1_dropShadow_264_2876" result="shape"/>
</filter>
<clipPath id="clip0_264_2876">
<rect width="703" height="1005" fill="white"/>
</clipPath>
</defs>
</svg>
