<svg width="680" height="816" viewBox="0 0 680 816" fill="none" xmlns="http://www.w3.org/2000/svg">
<g clip-path="url(#clip0_264_3687)">
<ellipse cx="384.5" cy="716.5" rx="256.5" ry="27.5" fill="black" fill-opacity="0.34"/>
<path d="M287 198C316 153 388.274 126.531 432 134C430.39 142.708 428.233 142.976 420 148.5C438.981 142.354 450.081 142.333 476.5 140.5C468.138 157.141 463.873 162.253 446 165.5C559.316 180.917 662.967 320.284 540.5 390.5C538.458 391.67 536.472 392.817 534.54 393.939C608.645 446.713 616.304 512.99 553.5 524L519 698C448.833 749.097 381.266 750.823 231.5 726L186 608.5V491C186.039 490.978 199.781 483.284 221.921 471.978L199.5 373.5C199.57 373.344 258.017 242.973 287 198Z" fill="#936632"/>
<path d="M75.5001 176.5C122 39.9999 204 30.8554 287.5 153L208 236L96.5001 536C96.5001 536 29.0001 313 75.5001 176.5Z" fill="#6D351B"/>
<path d="M552 541C592.513 573.879 581.291 616.682 531.519 658.4C540.927 652.295 552.201 648 562.5 648C585.972 648 608.5 663 611 683C611 697.126 601.051 711.79 567.878 719.001C567.753 719.166 567.628 719.333 567.5 719.5L565.225 719.554C563.54 719.887 561.799 720.204 560 720.5C557.504 720.5 554.98 720.274 552.461 719.855L483 721.5L552 541Z" fill="#936632"/>
<path d="M416 417C441.927 417.945 456.339 410.963 482 396C501.806 396.079 511.613 396.086 526 396L524.5 441C510.5 451 500.113 454.08 477 448C449 460 446.151 463.481 412.5 451.5C409.432 428.233 410.761 434.358 416 417Z" fill="#FCFCF7"/>
<path d="M226.5 226.503L537.311 163.361L548.665 200.024C403.16 184.371 270.726 249.82 262 255.003C253.274 260.186 226.5 226.503 226.5 226.503Z" fill="#754C24"/>
<path d="M509 315C532.761 292.712 543.579 279.807 533.5 252C475.684 244.515 452.699 249.656 424.5 271.5C435.473 290.212 449.462 300.091 509 315Z" fill="#6A341B"/>
<path d="M552 541C547.881 591.79 531.5 616 510 659.5C488.5 703 499 721 499 721H477.5C485.642 695.193 481.81 683.429 459 667.5C510.425 630.482 525.48 598.434 552 541Z" fill="#784F26"/>
<path d="M162 66.5C110.667 219.824 56.766 348.215 102 510C121.636 399.695 145.273 325.744 181.388 265.226C169.867 259.639 162 248.425 162 235.5C162 216.998 178.118 202 198 202C206.693 202 214.665 204.867 220.886 209.64C239.22 187.619 260.069 166.585 284 145L303 179.5C170 359.5 132 561 203.5 704C30.5005 615.5 -20.4994 152.5 162 66.5Z" fill="#4C280E"/>
<path d="M258.5 255C258.5 255 301 232.5 285 230.5C269 228.5 183.5 506.5 314.5 528V543.5C319.364 528.823 224 570 215.5 624.5C207 679 248 726 276 732.5C304 739 232.5 736.5 206.5 705.5C188.136 667.489 179.941 643.396 172.5 603C166.959 528.382 168.725 482.495 192.5 383.5C226.532 304.44 238.557 279.502 258.5 255Z" fill="#754C24"/>
<path d="M544.531 458.152C531.254 463.843 522 476.633 522 491.5C522 511.658 539.013 528 560 528C561.169 528 562.326 527.946 563.468 527.847C558.742 529.872 553.509 531 548 531C527.013 531 510 514.658 510 494.5C510 475.465 525.17 459.835 544.531 458.152Z" fill="#865723"/>
<path d="M349.5 339.5H357.5C355.827 381.093 363 407 400 416C357.5 416 340.5 394 349.5 339.5Z" fill="#826026"/>
<path d="M361 337C332.57 457.489 521.604 435.714 508.496 314.84M508.496 314.84C508.496 314.84 423.497 295.5 425.997 272C428.497 248.5 522.997 245.5 532.996 252C542.994 258.501 536.24 296.634 508.496 314.84Z" stroke="black" stroke-width="6"/>
<path d="M300.177 211.529C258.5 150 194.5 233 258.5 258" stroke="black" stroke-width="6"/>
<g filter="url(#filter0_d_264_3687)">
<path d="M319.217 451.498C317.72 452.207 317.081 453.996 317.79 455.493C318.499 456.99 320.288 457.629 321.785 456.92L320.501 454.209L319.217 451.498ZM240 417.999L237.01 417.756C234.441 449.35 246.358 482.52 265.998 504.856C285.669 527.227 313.607 539.181 342.68 526.759L341.501 524L340.322 521.241C314.395 532.319 289.082 522.023 270.503 500.894C251.893 479.729 240.559 448.149 242.99 418.242L240 417.999ZM341.501 524L342.68 526.759C357.018 520.632 365.629 511.686 369.556 501.753C373.47 491.854 372.585 481.34 368.622 472.334C360.785 454.524 340.193 441.563 319.217 451.498L320.501 454.209L321.785 456.92C338.81 448.856 356.218 459.041 363.13 474.751C366.542 482.505 367.22 491.345 363.977 499.547C360.747 507.715 353.484 515.618 340.322 521.241L341.501 524Z" fill="black"/>
</g>
<path d="M289.43 224.686C273.03 196.678 234.5 228.5 274.5 248" stroke="black" stroke-width="6"/>
<path d="M147.5 183C186.58 225.513 207.5 248 234 290.5C197 240.215 180.363 225.218 147.5 183Z" stroke="black" stroke-width="4"/>
<path d="M113 246.615C159.5 285 184 306.978 206.5 351.5C175 299.5 154.5 292 113 246.615Z" stroke="black" stroke-width="4"/>
<path d="M255.501 258.044C116.5 469.499 169.41 720.718 244.057 729.527C318.704 738.337 403.125 751.675 465.057 726.027C526.989 700.379 411.499 596 346.001 695.999" stroke="black" stroke-width="6"/>
<path d="M214.256 625.522C302 453 467.499 581 389.502 658.5" stroke="#010101" stroke-width="6"/>
<path d="M525.998 662C579.998 630 595.5 564.5 550.998 538.5" stroke="#010101" stroke-width="6"/>
<path d="M475 719.5C682.499 740.998 610.5 624.5 542 650.5" stroke="#010101" stroke-width="6"/>
<path d="M131.5 213L165 205.5L212.5 197.5L239.5 194.5L222 205.5L212.5 217.5L207.5 215.5L201 217.5L198.5 222.5L196.5 227.5L165 239L162 242.5L169 246L164 252.5L165.5 258L171 261L173.5 266H176.5L179.5 271.5L185.5 268.5L189 273.5L193 271.5L198 270L202 273.5L205.5 270H211L212 265L213 263.5L217.5 264.265L218.5 254L215.5 247.5L209 234L214 220.5L238 206.5L248 217.5L246 237L237.5 222.5L238 205.5L275 194.5L322.5 187L332.5 190L337.5 186.5L368 180L379 180.5L454.5 168L559 158.5L615 157L671 158.5L698 166.5L705 175.5L692.5 190L666.5 202L645.5 207.5L619.5 213L587.5 217.5L555.5 219.5L535.5 204L514 191.5L472.5 187.5L430.5 189.5L380 197L335.5 208L249.5 235.5L246 237L239.5 251L222 255.5L219 262L212 267.5L207.5 270L205 266L201.5 272L200 271L199.5 265L195.5 270L189 272L186.5 266L179.5 270L178 265.5L174.5 265L172.5 261.5L161 260L106 257.5L90 254.5L76 246L78 237.5L95.5 224.5L131.5 213Z" fill="#0D0B08"/>
<path d="M455.76 665.156C481.5 665.156 552.5 571.5 552.5 526.5" stroke="black" stroke-width="6"/>
<path d="M526.5 393C545.551 405.721 560.161 439.947 560.5 463.5" stroke="black" stroke-width="6"/>
<path d="M562.5 461.5C510 450.5 508.998 540.496 566.998 522.496C624.999 504.497 588.967 418.816 529.5 393.5" stroke="black" stroke-width="6" stroke-linecap="round"/>
<path d="M413.926 415.734C413.926 415.734 408.59 443.876 413.926 453C419.262 462.124 469.704 455.44 474 449.5C478.296 443.56 478.5 396.5 478.5 396.5" stroke="black" stroke-width="6"/>
<path d="M524 393.5C524 393.5 526.332 422.396 524 436.5C521.669 450.605 483.847 455.688 479.621 449.5C475.394 443.312 479.621 393.919 479.621 393.919" stroke="black" stroke-width="6"/>
<path d="M303.5 179.5C80.0223 -211.768 -93.9999 525.5 213 710.5" stroke="black" stroke-width="6"/>
<circle cx="360" cy="246" r="24" fill="#00020B" stroke="#1D0500" stroke-width="6"/>
<circle cx="486" cy="221" r="19" fill="#00020B" stroke="#1D0500" stroke-width="6"/>
<circle cx="351.5" cy="234.5" r="13.5" fill="#D9D9D9"/>
<circle cx="478" cy="213" r="11" fill="#D9D9D9"/>
<circle cx="391.5" cy="358.5" r="4.5" fill="#160D0C"/>
<circle cx="422.5" cy="353.5" r="4.5" fill="#160D0C"/>
<circle cx="445.5" cy="362.5" r="4.5" fill="#160D0C"/>
<circle cx="527.5" cy="338.5" r="4.5" fill="#160D0C"/>
<circle cx="555.5" cy="342.5" r="4.5" fill="#160D0C"/>
<circle cx="535.5" cy="357.5" r="4.5" fill="#160D0C"/>
<circle cx="522.5" cy="375.5" r="4.5" fill="#160D0C"/>
<circle cx="446.5" cy="385.5" r="4.5" fill="#160D0C"/>
<circle cx="412.5" cy="380.5" r="4.5" fill="#160D0C"/>
<path d="M419.463 700.602C418.579 699.201 418.997 697.348 420.398 696.464C421.799 695.579 423.652 695.997 424.536 697.398L422 699L419.463 700.602ZM423 738L420.16 737.034C425.659 720.872 424.795 709.044 419.463 700.602L422 699L424.536 697.398C431.205 707.956 431.657 721.872 425.84 738.966L423 738Z" fill="black"/>
<path d="M449.127 699.362C448.651 697.775 449.551 696.103 451.138 695.627C452.725 695.15 454.397 696.051 454.874 697.638L452 698.5L449.127 699.362ZM452 731L449.062 730.395C450.8 721.95 451.496 716.582 451.438 712.164C451.381 707.816 450.592 704.246 449.127 699.362L452 698.5L454.874 697.638C456.408 702.754 457.37 706.934 457.437 712.086C457.504 717.168 456.7 723.05 454.939 731.605L452 731Z" fill="black"/>
<path d="M111.697 213.602C149.657 170.086 173.113 153.974 217.5 135C173.526 159.57 150.047 176.297 111.697 213.602Z" stroke="black" stroke-width="4"/>
<path d="M96.8593 322.251C134.819 278.735 203.113 209.474 247.5 190.5C203.526 215.07 135.209 284.946 96.8593 322.251Z" stroke="black" stroke-width="4"/>
<path d="M102.929 426.353C140.888 382.837 187.5 311.5 235 290.5C181 325 141.279 389.048 102.929 426.353Z" stroke="black" stroke-width="4"/>
<path d="M123.468 512.33C161.428 468.814 158.5 456 179.5 441C165.5 450 161.818 475.025 123.468 512.33Z" stroke="black" stroke-width="4"/>
<path d="M182 128.842C221.079 171.355 217 159.5 243.5 202C206.5 151.715 214.863 171.061 182 128.842Z" stroke="black" stroke-width="4"/>
<path d="M110 425.615C149.079 468.128 145 451 171.5 493.5C134.5 443.215 142.863 467.833 110 425.615Z" stroke="black" stroke-width="4"/>
<path d="M99 314C154.724 360.725 183 408.5 185 415.5C187 422.5 141.008 343.232 99 314Z" stroke="black" stroke-width="4"/>
<path d="M498 311.5C495.241 299.349 469.03 279.546 464 279.5C470.473 282.283 492.314 302.777 489 309.5" stroke="black" stroke-width="2"/>
<path d="M508 313C504.239 303.193 508.35 278.172 510.5 274C507.155 280.717 507.363 304.827 514 309" stroke="black" stroke-width="2"/>
<path d="M349.5 336.5C354.373 336.577 359.54 336.431 363.964 337.37" stroke="black" stroke-width="6"/>
<path d="M467 280C484.235 291.675 492.872 298.228 497.5 310L490 308C483.815 295.192 477.843 289.687 467 280Z" fill="black"/>
<path d="M507.5 314.5V290.5C509.085 299.991 510.096 304.551 512.5 309L507.5 314.5Z" fill="black"/>
<path d="M529.553 270.805C526.662 274.066 525.506 269.194 521.725 265.841C517.944 262.488 512.969 261.924 515.861 258.663C518.753 255.402 524.162 255.476 527.943 258.829C531.724 262.182 532.445 267.543 529.553 270.805Z" fill="#7F4731"/>
<path d="M447 264.684C451.12 267.611 479 258.198 506 261.684C511.316 262.37 515.436 259.611 511.316 256.684C500.5 248.998 449.525 261.131 447 264.684Z" fill="#6F3D26"/>
<path d="M232.869 102.728C317.944 82.5175 348.8 65.9525 495.419 70.2277L508.398 79.228L519.38 105.228L528.869 144.225L512.392 139.556L501.909 144.056L491.426 139.556L479.945 144.056L470.959 139.556L458.979 142.225L445.001 140.556L435.517 144.225L417.546 140.556L399.575 148.056L387.095 145.225L374.615 151.225L362.635 149.225L351.653 154.725L342.168 152.725L326.194 158.725L318.207 158.225L308.722 161.225L300.735 160.225L294.745 164.725H283.264L269.786 171.725L261.799 170.225L255.309 174.225L246.324 173.225L238.337 179.725L228.353 178.725L218.369 184.225L223.369 114.228L232.869 102.728Z" fill="#3B3431"/>
<path d="M230.869 115.226C235.268 91.0653 489.869 55.2287 504.869 87.7261C519.869 120.223 523.369 147.726 523.369 147.726L226.869 185.726C226.869 185.726 226.47 139.387 230.869 115.226Z" fill="#120F0D"/>
<path d="M264.369 99.7295C294.369 87.6358 491.508 55.0542 505.708 87.6369C519.908 120.22 523.369 147.726 523.369 147.726L264.369 177.729C264.369 177.729 234.369 111.823 264.369 99.7295Z" fill="#1C1816"/>
<path d="M299.869 92.7276C325.369 83.2285 490.772 55.4753 503.369 88.229C515.966 120.983 523.369 147.724 523.369 147.724L334.369 168.728C334.369 168.728 274.369 102.227 299.869 92.7276Z" fill="#1D1A17"/>
<path d="M352.991 102.2C354.258 78.3735 491.869 55.7292 503.869 89.7283C515.869 123.728 525.369 151.229 525.369 151.229L354.164 172.148C354.164 172.148 351.725 126.027 352.991 102.2Z" fill="#201B19"/>
<path d="M391.369 93.7309C391.661 71.3289 498.869 59.2312 509.369 91.23C519.869 123.229 524.869 145.73 524.869 145.73L428.369 136.73C428.369 136.73 391.077 116.133 391.369 93.7309Z" fill="#2E2A26"/>
<path d="M228.869 177.73L237.869 179.23L248.369 172.73L255.369 174.73L261.369 170.73L269.369 171.73L282.369 166.23L294.369 164.73L301.869 160.23L308.869 162.23L316.869 158.229L326.369 158.729L338.869 153.229L351.869 153.729L362.869 149.229L374.869 151.229L385.869 144.729L398.869 147.229L405.869 144.729L418.369 141.229L435.869 144.729L445.369 139.729L458.869 142.729L468.369 138.838L481.869 142.729L491.369 138.838L502.369 142.229L516.369 140.229L529.369 144.229L531.369 164.729L395.869 170.73L307.369 179.23L221.369 195.229L219.369 184.729L228.869 177.73Z" fill="#E4A54B"/>
<path d="M234.496 241.423C373.623 191.048 442.154 176.035 539.496 195.423" stroke="black" stroke-width="6"/>
<path d="M229.316 183.56L238.258 184.306L248.909 179.768L255.842 180.894L261.935 178.113L269.893 178.557L283.012 174.609L295.027 173.309L302.631 170.161L309.564 171.287L317.653 168.453L327.121 168.53L339.741 164.594L352.701 164.578L363.798 161.338L375.721 162.332L386.87 157.781L399.778 159.076L406.83 157.252L419.397 154.627L436.769 156.459L446.382 152.931L459.775 154.54L469.359 151.739L482.729 153.932L492.312 151.131L503.2 153.063L517.225 151.382L530.093 153.66L533.369 162.332C486.935 162.255 455.21 168.834 396.163 174.559C377.485 181.725 350.355 181.471 307.618 182.469L221.369 195.229L219.651 188.4L229.316 183.56Z" fill="#AC7528"/>
<path d="M219.34 186.984C346.077 156.363 414.276 145.579 527.437 148.505L529.869 156.729C412.647 154.871 342.282 165.957 219.34 195.729L219.34 186.984Z" fill="#782016"/>
<path d="M248.869 191.729C146.226 207.858 74.598 225.535 76.3974 242.135C87.4863 265.12 160.652 265.892 246.831 251.331" stroke="black" stroke-width="5"/>
<path d="M214.859 230.229C210.871 237.229 205.105 234.729 205.105 234.729C198.785 234.729 193.662 230.252 193.662 224.729C193.662 219.206 198.785 214.729 205.105 214.729C211.425 214.729 218.847 223.229 214.859 230.229Z" fill="#E69D44"/>
<path d="M441.869 158.543L441.835 158.361C441.549 156.837 441.859 155.848 442.386 155.126C442.962 154.337 443.961 153.647 445.4 153.097C448.308 151.986 452.243 151.729 455.369 151.729C458.254 151.729 459.985 152.66 460.531 153.408C460.74 153.695 460.784 153.941 460.697 154.25C460.588 154.639 460.208 155.31 459.133 156.156C456.478 158.245 455.647 158.81 454.787 159.054C454.374 159.171 453.876 159.23 453.005 159.244C452.082 159.26 451.038 159.229 449.369 159.229C447.675 159.229 446.203 159.377 444.997 159.511C443.721 159.653 442.916 159.754 442.298 159.74C442.142 159.736 442.034 159.724 441.963 159.713C441.925 159.575 441.869 159.281 441.869 158.729V158.543Z" fill="#EDA445" stroke="black" stroke-width="4"/>
<path d="M438.012 166.544L437.977 166.362C437.629 164.506 437.753 163.535 437.936 163.059C438.065 162.725 438.252 162.532 438.721 162.374C439.305 162.178 440.164 162.104 441.412 162.119C442.016 162.127 442.651 162.152 443.348 162.178C444.033 162.203 444.766 162.229 445.511 162.229H445.512C447.223 162.229 449.052 162.026 450.679 161.84C452.371 161.647 453.803 161.478 454.936 161.478C455.36 161.478 455.681 161.502 455.915 161.54C455.858 161.72 455.758 161.979 455.581 162.334C454.171 165.155 453.069 166.153 451.916 166.634C450.568 167.196 448.821 167.231 445.512 167.231C443.818 167.231 442.345 167.377 441.139 167.512C439.864 167.654 439.059 167.756 438.44 167.741C438.284 167.738 438.177 167.725 438.106 167.714C438.068 167.576 438.012 167.282 438.012 166.731V166.544Z" fill="#EDA445" stroke="black" stroke-width="4"/>
<path d="M455.89 165.157L455.861 164.989C455.656 163.807 455.824 162.943 456.144 162.267C456.477 161.564 457.04 160.933 457.812 160.344C458.589 159.752 459.511 159.253 460.483 158.792C460.967 158.563 461.441 158.353 461.913 158.143C462.088 158.065 462.265 157.984 462.441 157.905C462.733 158.048 463.118 158.264 463.559 158.583C464.663 159.381 466.168 160.849 467.465 163.484C467.915 164.396 467.949 164.834 467.945 164.979C467.87 165.026 467.698 165.11 467.342 165.191C466.631 165.352 465.642 165.393 464.418 165.373C463.349 165.356 461.833 165.278 460.727 165.278C459.467 165.278 458.374 165.397 457.5 165.502C456.739 165.594 456.258 165.655 455.901 165.671C455.895 165.579 455.89 165.466 455.89 165.329V165.157Z" fill="#EDA445" stroke="black" stroke-width="4"/>
<path d="M210.105 217.169C205.612 218.82 203.369 228.73 204.869 227.229C205.677 223.511 198.841 218.144 194.37 225.17" stroke="black" stroke-width="3"/>
<path d="M194.369 228.729L199.869 233.229L206.369 234.729L209.369 235.229L216.369 246.229L219.869 258.229L218.869 262.729L216.369 265.229L213.369 263.229L211.869 258.729L210.869 259.729L209.369 269.229L206.369 271.729L203.869 271.229L201.869 269.229L200.369 273.229L196.869 274.229L196.369 270.229L198.369 263.229L195.369 267.229L191.369 272.229L186.869 274.229L185.369 271.229V267.229L182.369 269.229L177.369 272.229L175.369 270.729V265.229L172.869 266.729H170.369L169.869 263.229L170.869 259.729L173.369 252.729L166.869 257.729L162.369 256.229L161.869 253.729L163.369 251.229L167.869 247.729L173.369 244.729L166.869 246.729L159.869 244.729V241.729L167.869 236.729L194.369 228.729Z" fill="#E69D44"/>
<path d="M205.869 233.229C205.025 228.221 198.917 223.8 195.749 228.941" stroke="black" stroke-width="3"/>
<path d="M214.867 225.221C208.289 217.624 201.307 224.761 206.869 234.232" stroke="black" stroke-width="3"/>
<path d="M182.369 262.229C185.869 267.093 194.222 257.116 189.133 263.505C184.044 269.894 177.893 273.459 175.394 271.469C172.895 269.478 174.995 262.685 180.084 256.297C185.173 249.908 178.369 260.229 182.369 262.229Z" fill="#773A0D"/>
<path d="M184.346 259.748C188.519 263.768 191.481 260.557 189.777 262.697C188.072 264.837 184.665 264.958 182.166 262.968C179.667 260.977 179.023 257.629 180.728 255.489C182.432 253.349 180.73 257.265 184.346 259.748Z" fill="#CE8034"/>
<path d="M197.284 256.299C194.105 263.649 192.643 260.996 190.869 260.229C189.793 255.67 192.69 257.079 195.869 249.729C199.048 242.379 200.039 232.309 201.813 233.076C203.587 233.844 200.463 248.949 197.284 256.299Z" fill="#C9893C"/>
<path d="M182.369 262.231C185.869 267.096 194.222 257.119 189.133 263.507C184.044 269.896 177.893 273.462 175.394 271.471C172.895 269.481 174.995 262.688 180.084 256.299C185.173 249.911 178.369 260.231 182.369 262.231Z" fill="#C9893C"/>
<path d="M200.614 233.177C199.12 242.359 196.285 251.892 190.369 259.228" stroke="#060606" stroke-width="4" stroke-linecap="round"/>
<path d="M216.869 247.729C219.31 255.066 219.179 264.293 217.869 264.729C212.369 267.729 217.31 260.066 214.869 252.729C212.429 245.392 206.931 234.954 208.241 234.518C209.551 234.082 214.429 240.393 216.869 247.729Z" fill="#C9893C"/>
<path d="M210.445 262.41C209.999 267.089 206.459 271.687 205.193 271.566C203.927 271.446 207.181 267.497 207.628 262.818C207.628 255.229 210.603 250.108 211.869 250.229C213.135 250.35 210.892 257.731 210.445 262.41Z" fill="#C9893C"/>
<path d="M169.515 252.244C166.593 255.926 162.365 256.518 161.369 255.727C160.373 254.937 162.447 253.911 165.369 250.229C170.869 244.229 176.345 242.011 177.341 242.802C178.337 243.592 172.436 248.562 169.515 252.244Z" fill="#C9893C"/>
<path d="M210.445 262.41C209.999 267.089 206.459 271.687 205.193 271.566C203.927 271.446 207.181 267.497 207.628 262.818C207.628 255.229 210.603 250.108 211.869 250.229C213.135 250.35 210.892 257.731 210.445 262.41Z" fill="#C9893C"/>
<path d="M205.387 259.729C210.113 260.686 211.719 245.101 210.869 252.729C210.019 260.358 208.098 271.406 205.387 271.716C202.675 272.027 201.167 266.094 202.017 258.465C202.868 250.836 201.577 261.02 205.387 259.729Z" fill="#CE8034"/>
<path d="M199.809 268.469C202.199 269.818 205.036 261.917 203.613 265.773C202.19 269.629 199.763 275.09 198.283 274.767C196.803 274.445 196.756 271.057 198.179 267.201C199.602 263.345 197.62 268.465 199.809 268.469Z" fill="#CE8034"/>
<path d="M207.369 247.728C207.369 254.355 206.526 259.727 204.869 259.727C201.424 257.866 202.547 247.29 203.869 240.729C205.191 234.168 203.212 234.229 204.869 234.229C206.526 234.229 207.369 241.102 207.369 247.728Z" fill="#FDC571"/>
<path d="M205.784 234.793C210.244 256.875 205.784 265.229 202.869 255.729" stroke="black" stroke-width="4" stroke-linecap="round"/>
<path d="M203.869 234.23C204.869 238.73 203.353 247.056 200.869 253.229" stroke="black" stroke-width="4" stroke-linecap="round"/>
<ellipse cx="180.108" cy="237.621" rx="17.5" ry="3.5" transform="rotate(-26.3022 180.108 237.621)" fill="#CA8534"/>
<ellipse cx="186.525" cy="244.302" rx="17.5" ry="3.90024" transform="rotate(-47.7355 186.525 244.302)" fill="#B9792D"/>
<path d="M198.369 232.727C185.691 257.775 170.611 265.59 172.369 255.229" stroke="black" stroke-width="4" stroke-linecap="round"/>
<path d="M196.597 231.751C186.163 238.386 191.29 233.131 177.369 247.728" stroke="black" stroke-width="4" stroke-linecap="round"/>
<path d="M204.981 217.229C207.215 217.229 210.073 218.826 211.958 221.453C213.794 224.012 214.285 226.926 212.861 229.418C211.183 232.356 209.343 233.035 208.147 233.189C207.483 233.274 206.897 233.21 206.48 233.123C206.274 233.081 206.118 233.035 206.027 233.005C205.982 232.99 205.954 232.98 205.944 232.976L205.498 232.782H204.981C199.516 232.782 195.69 228.989 195.69 225.006C195.69 221.023 199.516 217.229 204.981 217.229ZM205.955 232.98C205.957 232.981 205.96 232.982 205.963 232.984C205.965 232.984 205.967 232.985 205.968 232.986L205.97 232.987H205.969L205.947 232.977C205.949 232.978 205.952 232.978 205.955 232.98Z" stroke="black" stroke-width="5"/>
<path d="M194.869 228.728C194.869 228.728 152.869 239.229 160.369 244.729C167.869 250.229 177.369 241.727 177.369 241.727C177.369 241.727 162.869 249.727 161.869 254.227C160.869 258.727 169.501 259.439 174.369 250.727C170.266 258.038 168.869 265.727 170.869 266.727C172.869 267.727 173.837 266.921 175.869 264.727C175.869 264.727 173.369 272.727 177.369 272.227C181.369 271.727 182.245 268.875 185.369 266.727C185.091 270.985 184.869 274.227 187.869 274.227C190.869 274.227 196.321 267.426 199.869 258.727C196.364 268.83 194.869 273.226 197.869 274.227C200.869 275.229 200.905 270.969 202.869 264.727C202.341 269.952 202.702 271.883 205.369 272.227C211.09 271.08 210.429 262.136 211.369 250.727C212.407 261.692 213.869 266.727 217.369 264.727C220.869 262.727 219.703 247.935 208.869 234.227" stroke="black" stroke-width="4"/>
<path d="M213.369 214.729L227.869 200.229L251.869 191.729L294.369 181.233L354.369 170.233L376.869 162.233L391.369 150.733L405.369 139.733L417.369 136.233L427.369 135.237L441.869 137.236L454.369 144.235L454.369 148.236C454.369 148.236 429.869 131.229 411.369 144.235C392.869 157.242 380.142 171.488 349.369 178.729C315.369 186.729 299.274 184.482 267.869 191.729C241.869 197.729 213.369 214.729 213.369 214.729Z" fill="#E4A54B"/>
<path d="M408.869 164.229L425.369 158.229L432.869 170.229L390.869 176.729L387.869 174.229L408.869 164.229Z" fill="#AA7933"/>
<path d="M432.837 149.729C435.326 149.729 438.652 150.006 440.777 150.724C441.522 150.976 441.888 151.206 442.05 151.331C441.984 151.444 441.862 151.619 441.633 151.865C440.3 153.294 439.484 155.22 438.896 157.051C438.306 158.885 437.854 160.942 437.426 162.64C436.971 164.444 436.543 165.842 436.009 166.777C435.51 167.65 435.162 167.729 434.889 167.729C432.922 167.729 430.685 166.792 428.92 165.221C427.152 163.647 426.116 161.676 426.116 159.828C426.116 157.655 426.898 155.004 428.242 152.93C429.611 150.819 431.258 149.729 432.837 149.729Z" fill="#EDA445" stroke="black" stroke-width="4"/>
<path d="M471 167.672C602.13 156.68 699.919 155.131 702 174.323C703.602 189.101 639 217.323 554 221.823" stroke="black" stroke-width="5"/>
<path d="M382.869 179.229C418.833 171.639 440.374 169.103 474.869 166.729" stroke="black" stroke-width="5"/>
<path d="M359.369 181.229C372.265 181.391 380.369 183.227 386.869 176.227C393.369 169.226 421.369 158.229 425.869 158.229" stroke="black" stroke-width="5"/>
<path d="M222.369 183.229C225.869 180.229 231.258 176.804 237.869 178.899C247.752 171.979 251.55 171.16 255.369 174.398C259.664 170.024 262.729 168.997 270.369 171.897C280.824 163.97 285.986 163.777 294.869 165.396C299.391 160.032 302.544 159.168 309.369 161.897C313.828 158.204 316.969 156.879 326.369 158.897C340.016 150.926 344.793 151.734 352.369 154.898C359.424 149.205 363.603 146.515 375.369 151.398C382.38 144.545 387.418 143.19 399.369 147.398C410.662 141.939 422.869 136.399 435.869 145.397C437.369 139.899 446.145 138.601 458.869 141.897C469.499 136.709 473.091 137.9 481.869 143.461C491.791 136.085 495.81 138.57 502.869 143.461C514.073 135.343 520.472 139.889 529.369 145.397" stroke="black" stroke-width="4"/>
<path d="M215.91 220.066L230.183 204.184L254.097 195.165L296.532 184.269L356.51 173.141L378.93 164.65L393.259 152.111L407.096 140.119L419.067 136.445L429.079 135.523L443.662 138.022L456.331 146.054L456.407 150.511C456.407 150.511 433.38 137.968 415.067 152.111C396.754 166.254 382.386 175.023 351.654 182.512C317.7 190.787 301.512 187.981 270.147 195.465C244.179 201.662 215.91 220.066 215.91 220.066Z" fill="#AA7933"/>
<path d="M213.779 217.219L228.168 202.048L252.127 193.296L294.595 182.605L354.585 171.543L377.046 163.305L391.462 151.299L405.383 139.817L417.369 136.233L427.375 135.273L441.915 137.515L454.498 145.016L454.534 149.238C454.534 149.238 429.842 131.065 411.433 144.624C393.024 158.183 375.122 170.867 344.369 178.229C310.391 186.362 275.087 189.505 269.869 190.729C243.885 196.824 213.779 217.219 213.779 217.219Z" fill="#E4A54B"/>
<path d="M211.871 215.806C219.389 205.514 231.168 198.037 247.67 192.219C264.887 186.149 286.989 181.972 314.212 178.205C341.362 174.448 354.999 172.168 364.737 168.355C374.596 164.494 380.459 159.044 391.95 149.666C406.052 138.157 419.723 134.22 431.211 135.355C441.281 136.35 449.886 141.257 455.89 148.764L443.725 150.271C443.377 149.98 442.942 149.645 442.416 149.298C440.937 148.325 438.747 147.253 435.809 146.727C429.874 145.665 421.344 146.902 409.961 154.663C398.672 162.36 392.072 168.449 380.385 173.833C368.783 179.178 352.197 183.763 321.546 187.75C290.819 191.747 271.857 194.743 256.376 199.381C241.473 203.846 229.871 209.812 214.168 219.465L211.871 215.806Z" stroke="black" stroke-width="5"/>
<path d="M336.421 176.055C337.079 177.704 336.909 180.576 335.541 183.82C334.799 185.581 334.24 186.922 333.733 187.963C333.214 189.029 332.85 189.56 332.577 189.824C332.401 189.994 332.321 190.014 332.146 190.01C331.826 190.004 331.247 189.874 330.181 189.4C328.734 188.757 328.071 187.635 327.906 185.988C327.729 184.224 328.17 182.023 328.942 179.788C329.422 178.397 329.549 177.299 329.564 176.415C329.57 175.999 329.551 175.625 329.543 175.396L329.543 175.393C329.915 175.227 330.594 174.996 331.837 174.666C333.45 174.237 334.478 174.357 335.099 174.614C335.678 174.854 336.121 175.302 336.421 176.055Z" fill="#EDA445" stroke="black" stroke-width="4"/>
<path d="M323.588 186.368L323.4 186.331C318.969 185.447 317.488 180.741 319.585 177.394C320.89 175.312 322.046 174.113 323.047 173.581C323.877 173.139 324.715 173.083 325.871 173.719C326.46 174.044 326.757 174.38 326.923 174.688C327.096 175.008 327.205 175.44 327.194 176.061C327.17 177.391 326.614 179.15 325.683 181.428C325.178 182.664 324.844 183.78 324.583 184.687C324.326 185.578 324.17 186.131 324.009 186.532C323.94 186.509 323.859 186.479 323.765 186.44L323.588 186.368Z" fill="#EDA445" stroke="black" stroke-width="4"/>
<path d="M220.869 194.729C220.869 194.729 219.052 131.228 224.369 110.896C229.687 90.5645 488.869 48.3947 507.369 78.3973C525.869 108.4 531.369 163.229 531.369 163.229" stroke="black" stroke-width="5"/>
<path d="M518.5 191.825C623.129 254.74 629.923 405.226 478 396.5" stroke="black" stroke-width="6"/>
</g>
<defs>
<filter id="filter0_d_264_3687" x="232.664" y="417.756" width="143.418" height="122.011" filterUnits="userSpaceOnUse" color-interpolation-filters="sRGB">
<feFlood flood-opacity="0" result="BackgroundImageFix"/>
<feColorMatrix in="SourceAlpha" type="matrix" values="0 0 0 0 0 0 0 0 0 0 0 0 0 0 0 0 0 0 127 0" result="hardAlpha"/>
<feOffset dy="4"/>
<feGaussianBlur stdDeviation="2"/>
<feComposite in2="hardAlpha" operator="out"/>
<feColorMatrix type="matrix" values="0 0 0 0 0 0 0 0 0 0 0 0 0 0 0 0 0 0 0.25 0"/>
<feBlend mode="normal" in2="BackgroundImageFix" result="effect1_dropShadow_264_3687"/>
<feBlend mode="normal" in="SourceGraphic" in2="effect1_dropShadow_264_3687" result="shape"/>
</filter>
<clipPath id="clip0_264_3687">
<rect width="680" height="816" fill="white"/>
</clipPath>
</defs>
</svg>
