<svg width="680" height="356" viewBox="0 0 680 356" fill="none" xmlns="http://www.w3.org/2000/svg">
<path d="M357.352 179.821C443.84 170.07 522.534 165.081 579.835 164.891C608.502 164.796 631.729 165.902 647.874 168.19C655.967 169.337 662.137 170.763 666.289 172.415C668.368 173.242 669.807 174.074 670.716 174.856C671.612 175.626 671.835 176.203 671.876 176.563L671.895 176.732L671.936 176.896C672.861 180.552 671.94 184.158 668.88 187.914C665.756 191.75 660.49 195.605 653.084 199.418C638.294 207.034 615.767 214.092 587.337 220.656C530.538 233.771 450.912 244.758 364.369 254.516L364.32 254.521L364.271 254.529C277.883 267.761 199.688 272.619 142.709 270.252C114.199 269.068 91.1297 266.079 75.0368 261.486C66.9803 259.187 60.8224 256.527 56.6248 253.596C52.4255 250.664 50.4661 247.67 50.1334 244.72C50.093 244.361 50.1799 243.76 50.8744 242.829C51.581 241.882 52.7928 240.771 54.6318 239.528C58.3044 237.046 63.9942 234.357 71.6228 231.528C86.8411 225.883 109.222 219.877 137.177 213.83C193.053 201.744 270.854 189.573 357.352 179.821Z" fill="#0D0B08" stroke="black" stroke-width="5"/>
<path d="M353.75 216.666C414.165 209.855 468.979 204.905 508.758 202.406C528.655 201.156 544.748 200.521 555.887 200.57C561.471 200.595 565.727 200.792 568.569 201.15C569.523 201.27 570.258 201.402 570.799 201.532C570.487 201.815 570.007 202.174 569.293 202.593C567.007 203.932 563.188 205.401 557.836 206.956C547.199 210.048 531.221 213.283 511.209 216.603C471.221 223.238 415.498 230.156 355.058 236.97L355.036 236.972L355.013 236.976C294.507 244.904 240.026 249.793 200.561 251.457C180.815 252.29 164.896 252.311 153.883 251.516C148.356 251.117 144.19 250.521 141.428 249.765C140.78 249.587 140.244 249.408 139.805 249.237C140.157 249.091 140.562 248.934 141.025 248.767C143.711 247.802 147.809 246.687 153.239 245.449C164.071 242.981 179.881 240.095 199.537 236.962C238.831 230.699 293.33 223.478 353.75 216.666Z" fill="#060605" stroke="black" stroke-width="5"/>
<path d="M206.518 108.728C291.593 88.5175 322.449 71.9525 469.068 76.2277L482.047 85.228L493.03 111.228L502.518 150.225L486.041 145.556L475.558 150.056L465.075 145.556L453.594 150.056L444.608 145.556L432.628 148.225L418.65 146.556L409.166 150.225L391.195 146.556L373.224 154.056L360.744 151.225L348.265 157.225L336.284 155.225L325.302 160.725L315.817 158.725L299.843 164.725L291.856 164.225L282.372 167.225L274.384 166.225L268.394 170.725H256.913L243.435 177.725L235.448 176.225L228.958 180.225L219.973 179.225L211.986 185.725L202.002 184.725L192.018 190.225L197.018 120.228L206.518 108.728Z" fill="#3B3431"/>
<path d="M204.518 121.226C208.917 97.0653 463.518 61.2287 478.518 93.7261C493.518 126.223 497.018 153.726 497.018 153.726L200.518 191.726C200.518 191.726 200.12 145.387 204.518 121.226Z" fill="#120F0D"/>
<path d="M238.018 105.73C268.018 93.6358 465.157 61.0542 479.357 93.6369C493.558 126.22 497.018 153.726 497.018 153.726L238.018 183.729C238.018 183.729 208.018 117.823 238.018 105.73Z" fill="#1C1816"/>
<path d="M273.518 98.7276C299.018 89.2285 464.421 61.4753 477.018 94.229C489.615 126.983 497.018 153.724 497.018 153.724L308.018 174.728C308.018 174.728 248.018 108.227 273.518 98.7276Z" fill="#1D1A17"/>
<path d="M326.64 108.2C327.907 84.3735 465.518 61.7292 477.518 95.7283C489.518 129.728 499.018 157.229 499.018 157.229L327.813 178.148C327.813 178.148 325.374 132.027 326.64 108.2Z" fill="#201B19"/>
<path d="M365.018 99.7309C365.31 77.3289 472.518 65.2312 483.018 97.23C493.518 129.229 498.518 151.73 498.518 151.73L402.018 142.73C402.018 142.73 364.726 122.133 365.018 99.7309Z" fill="#2E2A26"/>
<path d="M202.518 183.73L211.518 185.23L222.018 178.73L229.018 180.73L235.018 176.73L243.018 177.73L256.018 172.23L268.018 170.73L275.518 166.23L282.518 168.23L290.518 164.229L300.018 164.729L312.518 159.229L325.518 159.729L336.518 155.229L348.518 157.229L359.518 150.729L372.518 153.229L379.518 150.729L392.018 147.229L409.518 150.729L419.018 145.729L432.518 148.729L442.018 144.838L455.518 148.729L465.018 144.838L476.018 148.229L490.018 146.229L503.018 150.229L503.018 168L369.518 176.73L281.018 185.23L195.018 201.229L193.018 190.729L202.518 183.73Z" fill="#E4A54B"/>
<path d="M202.965 189.56L211.907 190.306L222.558 185.768L229.491 186.894L235.584 184.113L243.542 184.557L256.661 180.609L268.676 179.309L276.28 176.161L283.213 177.287L291.302 174.453L300.77 174.53L313.39 170.594L326.35 170.578L337.447 167.338L349.37 168.332L360.519 163.781L373.427 165.076L380.479 163.252L393.046 160.627L410.418 162.459L420.031 158.931L433.424 160.54L443.008 157.739L456.378 159.932L465.961 157.131L476.849 159.063L490.874 157.382L503.742 159.66L507.018 168.332C460.584 168.255 428.859 174.834 369.812 180.559C351.134 187.725 324.004 187.471 281.267 188.469L195.018 201.229L193.3 194.4L202.965 189.56Z" fill="#AC7528"/>
<path d="M192.989 192.984C319.726 162.363 387.925 151.579 501.086 154.505L503.518 162.729C386.297 160.871 315.931 171.957 192.989 201.729L192.989 192.984Z" fill="#782016"/>
<path d="M192.649 202.5C201.646 200.972 216.078 198.504 225.649 197" stroke="black" stroke-width="5"/>
<path d="M188.508 236.229C184.52 243.229 178.754 240.729 178.754 240.729C172.434 240.729 167.311 236.252 167.311 230.729C167.311 225.206 172.434 220.729 178.754 220.729C185.074 220.729 192.496 229.229 188.508 236.229Z" fill="#E69D44"/>
<path d="M415.518 164.543L415.484 164.361C415.198 162.837 415.508 161.848 416.035 161.126C416.611 160.337 417.61 159.647 419.049 159.097C421.957 157.986 425.892 157.729 429.018 157.729C431.903 157.729 433.634 158.66 434.18 159.408C434.39 159.695 434.433 159.941 434.346 160.25C434.237 160.639 433.857 161.31 432.782 162.156C430.127 164.245 429.296 164.81 428.436 165.054C428.023 165.171 427.525 165.23 426.654 165.244C425.731 165.26 424.687 165.229 423.018 165.229C421.324 165.229 419.852 165.377 418.646 165.511C417.37 165.653 416.565 165.754 415.947 165.74C415.791 165.736 415.683 165.724 415.612 165.713C415.574 165.575 415.518 165.281 415.518 164.729V164.543Z" fill="#EDA445" stroke="black" stroke-width="4"/>
<path d="M411.661 172.544L411.626 172.362C411.278 170.506 411.402 169.535 411.585 169.059C411.714 168.725 411.901 168.532 412.37 168.374C412.954 168.178 413.813 168.104 415.061 168.119C415.665 168.127 416.3 168.152 416.997 168.178C417.682 168.203 418.415 168.229 419.16 168.229H419.161C420.872 168.229 422.701 168.026 424.328 167.84C426.02 167.647 427.452 167.478 428.585 167.478C429.009 167.478 429.33 167.502 429.564 167.54C429.507 167.72 429.407 167.979 429.23 168.334C427.82 171.155 426.718 172.153 425.565 172.634C424.217 173.196 422.47 173.231 419.161 173.231C417.467 173.231 415.994 173.377 414.788 173.512C413.513 173.654 412.708 173.756 412.089 173.741C411.933 173.738 411.826 173.725 411.755 173.714C411.717 173.576 411.661 173.282 411.661 172.731V172.544Z" fill="#EDA445" stroke="black" stroke-width="4"/>
<path d="M429.539 171.157L429.51 170.989C429.305 169.807 429.473 168.943 429.793 168.267C430.127 167.564 430.689 166.933 431.461 166.344C432.238 165.752 433.161 165.253 434.132 164.792C434.616 164.563 435.09 164.353 435.562 164.143C435.737 164.065 435.914 163.984 436.09 163.905C436.382 164.048 436.767 164.264 437.208 164.583C438.312 165.381 439.817 166.849 441.115 169.484C441.564 170.396 441.598 170.834 441.594 170.979C441.519 171.026 441.348 171.11 440.991 171.191C440.28 171.352 439.291 171.393 438.067 171.373C436.998 171.356 435.482 171.278 434.376 171.278C433.116 171.278 432.023 171.397 431.149 171.502C430.388 171.594 429.907 171.655 429.55 171.671C429.544 171.579 429.539 171.466 429.539 171.329V171.157Z" fill="#EDA445" stroke="black" stroke-width="4"/>
<path d="M183.754 223.169C179.261 224.82 177.018 234.73 178.518 233.229C179.326 229.511 172.49 224.144 168.019 231.17" stroke="black" stroke-width="3"/>
<path d="M168.018 234.729L173.518 239.229L180.018 240.729L183.018 241.229L190.018 252.229L193.518 264.229L192.518 268.729L190.018 271.229L187.018 269.229L185.518 264.729L184.518 265.729L183.018 275.229L180.018 277.729L177.518 277.229L175.518 275.229L174.018 279.229L170.518 280.229L170.018 276.229L172.018 269.229L169.018 273.229L165.018 278.229L160.518 280.229L159.018 277.229V273.229L156.018 275.229L151.018 278.229L149.018 276.729V271.229L146.518 272.729H144.018L143.518 269.229L144.518 265.729L147.018 258.729L140.518 263.729L136.018 262.229L135.518 259.729L137.018 257.229L141.518 253.729L147.018 250.729L140.518 252.729L133.518 250.729V247.729L141.518 242.729L168.018 234.729Z" fill="#E69D44"/>
<path d="M179.518 239.229C178.674 234.221 172.566 229.8 169.398 234.941" stroke="black" stroke-width="3"/>
<path d="M188.516 231.221C181.938 223.624 174.956 230.761 180.518 240.232" stroke="black" stroke-width="3"/>
<path d="M156.018 268.229C159.518 273.093 167.871 263.116 162.782 269.505C157.693 275.894 151.542 279.459 149.043 277.469C146.544 275.478 148.644 268.685 153.733 262.297C158.822 255.908 152.018 266.229 156.018 268.229Z" fill="#773A0D"/>
<path d="M157.995 265.748C162.168 269.768 165.13 266.557 163.426 268.697C161.721 270.837 158.314 270.958 155.815 268.968C153.316 266.977 152.672 263.629 154.377 261.489C156.081 259.349 154.379 263.265 157.995 265.748Z" fill="#CE8034"/>
<path d="M170.933 262.299C167.754 269.649 166.292 266.996 164.518 266.229C163.442 261.67 166.339 263.079 169.518 255.729C172.697 248.379 173.688 238.309 175.462 239.076C177.236 239.844 174.112 254.949 170.933 262.299Z" fill="#C9893C"/>
<path d="M156.018 268.231C159.518 273.096 167.871 263.119 162.782 269.507C157.693 275.896 151.542 279.462 149.043 277.471C146.544 275.481 148.644 268.688 153.733 262.299C158.822 255.911 152.018 266.231 156.018 268.231Z" fill="#C9893C"/>
<path d="M174.263 239.177C172.769 248.359 169.934 257.892 164.018 265.228" stroke="#060606" stroke-width="4" stroke-linecap="round"/>
<path d="M190.518 253.729C192.959 261.066 192.828 270.293 191.518 270.729C186.018 273.729 190.959 266.066 188.518 258.729C186.078 251.392 180.58 240.954 181.89 240.518C183.201 240.082 188.078 246.393 190.518 253.729Z" fill="#C9893C"/>
<path d="M184.094 268.41C183.648 273.089 180.108 277.687 178.842 277.566C177.576 277.446 180.831 273.497 181.277 268.818C181.277 261.229 184.253 256.108 185.518 256.229C186.784 256.35 184.541 263.731 184.094 268.41Z" fill="#C9893C"/>
<path d="M143.164 258.244C140.242 261.926 136.014 262.518 135.018 261.727C134.022 260.937 136.096 259.911 139.018 256.229C144.518 250.229 149.994 248.011 150.99 248.802C151.986 249.592 146.086 254.562 143.164 258.244Z" fill="#C9893C"/>
<path d="M184.094 268.41C183.648 273.089 180.108 277.687 178.842 277.566C177.576 277.446 180.831 273.497 181.277 268.818C181.277 261.229 184.253 256.108 185.518 256.229C186.784 256.35 184.541 263.731 184.094 268.41Z" fill="#C9893C"/>
<path d="M179.036 265.729C183.762 266.686 185.369 251.101 184.518 258.729C183.668 266.358 181.747 277.406 179.036 277.716C176.325 278.027 174.816 272.094 175.666 264.465C176.517 256.836 175.226 267.02 179.036 265.729Z" fill="#CE8034"/>
<path d="M173.458 274.469C175.848 275.818 178.685 267.917 177.262 271.773C175.839 275.629 173.412 281.09 171.932 280.767C170.452 280.445 170.405 277.057 171.828 273.201C173.251 269.345 171.269 274.465 173.458 274.469Z" fill="#CE8034"/>
<path d="M181.018 253.728C181.018 260.355 180.175 265.727 178.518 265.727C175.073 263.866 176.196 253.29 177.518 246.729C178.84 240.168 176.861 240.229 178.518 240.229C180.175 240.229 181.018 247.102 181.018 253.728Z" fill="#FDC571"/>
<path d="M179.433 240.793C183.893 262.875 179.433 271.229 176.518 261.729" stroke="black" stroke-width="4" stroke-linecap="round"/>
<path d="M177.518 240.23C178.518 244.73 177.002 253.056 174.518 259.229" stroke="black" stroke-width="4" stroke-linecap="round"/>
<ellipse cx="153.757" cy="243.621" rx="17.5" ry="3.5" transform="rotate(-26.3022 153.757 243.621)" fill="#CA8534"/>
<ellipse cx="160.174" cy="250.302" rx="17.5" ry="3.90024" transform="rotate(-47.7355 160.174 250.302)" fill="#B9792D"/>
<path d="M172.018 238.727C159.34 263.775 144.26 271.59 146.018 261.229" stroke="black" stroke-width="4" stroke-linecap="round"/>
<path d="M170.246 237.751C159.812 244.386 164.939 239.131 151.018 253.728" stroke="black" stroke-width="4" stroke-linecap="round"/>
<path d="M178.63 223.229C180.864 223.229 183.722 224.826 185.608 227.453C187.443 230.012 187.934 232.926 186.51 235.418C184.832 238.356 182.993 239.035 181.796 239.189C181.132 239.274 180.546 239.21 180.129 239.123C179.923 239.081 179.767 239.035 179.676 239.005C179.631 238.99 179.603 238.98 179.593 238.976L179.148 238.782H178.63C173.165 238.782 169.339 234.989 169.339 231.006C169.339 227.023 173.165 223.229 178.63 223.229ZM179.604 238.98C179.606 238.981 179.609 238.982 179.612 238.984C179.614 238.984 179.616 238.985 179.617 238.986L179.619 238.987H179.618L179.596 238.977C179.598 238.978 179.601 238.978 179.604 238.98Z" stroke="black" stroke-width="5"/>
<path d="M168.518 234.728C168.518 234.728 126.518 245.229 134.018 250.729C141.518 256.229 151.018 247.727 151.018 247.727C151.018 247.727 136.518 255.727 135.518 260.227C134.518 264.727 143.15 265.439 148.018 256.727C143.915 264.038 142.518 271.727 144.518 272.727C146.518 273.727 147.487 272.921 149.518 270.727C149.518 270.727 147.018 278.727 151.018 278.227C155.018 277.727 155.894 274.875 159.018 272.727C158.74 276.985 158.518 280.227 161.518 280.227C164.518 280.227 169.97 273.426 173.518 264.727C170.013 274.83 168.518 279.226 171.518 280.227C174.518 281.229 174.554 276.969 176.518 270.727C175.99 275.952 176.351 277.883 179.018 278.227C184.739 277.08 184.079 268.136 185.018 256.727C186.056 267.692 187.518 272.727 191.018 270.727C194.518 268.727 193.352 253.935 182.518 240.227" stroke="black" stroke-width="4"/>
<path d="M187.018 220.729L201.518 206.229L225.518 197.729L268.018 187.233L328.018 176.233L350.518 168.233L365.018 156.733L379.018 145.733L391.018 142.233L401.018 141.237L415.518 143.236L428.018 150.235L428.018 154.236C428.018 154.236 403.518 137.229 385.018 150.235C366.518 163.242 353.791 177.488 323.018 184.729C289.018 192.729 272.923 190.482 241.518 197.729C215.518 203.729 187.018 220.729 187.018 220.729Z" fill="#E4A54B"/>
<path d="M382.518 170.229L399.018 164.229L406.518 176.229L364.518 182.729L361.518 180.229L382.518 170.229Z" fill="#AA7933"/>
<path d="M406.486 155.729C408.975 155.729 412.301 156.006 414.426 156.724C415.171 156.976 415.537 157.206 415.699 157.331C415.634 157.444 415.511 157.619 415.282 157.865C413.949 159.294 413.133 161.22 412.545 163.051C411.955 164.885 411.503 166.942 411.075 168.64C410.62 170.444 410.193 171.842 409.658 172.777C409.159 173.65 408.811 173.729 408.538 173.729C406.571 173.729 404.334 172.792 402.569 171.221C400.801 169.647 399.765 167.676 399.765 165.828C399.766 163.655 400.547 161.004 401.891 158.93C403.26 156.819 404.907 155.729 406.486 155.729Z" fill="#EDA445" stroke="black" stroke-width="4"/>
<path d="M444.149 173C465.267 171.23 488.021 168.734 507.149 167.5" stroke="black" stroke-width="5"/>
<path d="M356.518 185.229C392.482 177.639 414.023 175.103 448.518 172.729" stroke="black" stroke-width="5"/>
<path d="M333.018 187.229C345.914 187.391 354.018 189.227 360.518 182.227C367.018 175.226 395.018 164.229 399.518 164.229" stroke="black" stroke-width="5"/>
<path d="M196.018 189.229C199.518 186.229 204.907 182.804 211.518 184.899C221.401 177.979 225.199 177.16 229.018 180.398C233.313 176.024 236.378 174.997 244.018 177.897C254.473 169.97 259.635 169.777 268.518 171.396C273.04 166.032 276.193 165.168 283.018 167.897C287.477 164.204 290.618 162.879 300.018 164.897C313.665 156.926 318.442 157.734 326.018 160.898C333.073 155.205 337.252 152.515 349.018 157.398C356.029 150.545 361.068 149.19 373.018 153.398C384.311 147.939 396.518 142.399 409.518 151.397C411.018 145.899 419.794 144.601 432.518 147.897C443.148 142.709 446.74 143.9 455.518 149.461C465.44 142.085 469.459 144.57 476.518 149.461C487.722 141.343 494.121 145.889 503.018 151.397" stroke="black" stroke-width="4"/>
<path d="M189.559 226.066L203.832 210.184L227.746 201.165L270.181 190.269L330.16 179.141L352.579 170.65L366.908 158.111L380.745 146.119L392.716 142.445L402.728 141.523L417.311 144.022L429.98 152.054L430.056 156.511C430.056 156.511 407.029 143.968 388.716 158.111C370.403 172.254 356.035 181.023 325.303 188.512C291.349 196.787 275.161 193.981 243.796 201.465C217.828 207.662 189.559 226.066 189.559 226.066Z" fill="#AA7933"/>
<path d="M187.428 223.219L201.817 208.048L225.776 199.296L268.244 188.605L328.234 177.543L350.695 169.305L365.111 157.299L379.032 145.817L391.018 142.233L401.024 141.273L415.564 143.515L428.147 151.016L428.183 155.238C428.183 155.238 403.491 137.065 385.082 150.624C366.673 164.183 348.771 176.867 318.018 184.229C284.04 192.362 248.736 195.505 243.518 196.729C217.534 202.824 187.428 223.219 187.428 223.219Z" fill="#E4A54B"/>
<path d="M185.52 221.806C193.038 211.514 204.817 204.037 221.319 198.219C238.536 192.149 260.638 187.972 287.861 184.205C315.011 180.448 328.648 178.168 338.386 174.355C348.245 170.494 354.108 165.044 365.599 155.666C379.701 144.157 393.372 140.22 404.86 141.355C414.93 142.35 423.535 147.257 429.539 154.764L417.374 156.271C417.026 155.98 416.591 155.645 416.065 155.298C414.586 154.325 412.396 153.253 409.458 152.727C403.523 151.665 394.993 152.902 383.61 160.663C372.321 168.36 365.721 174.449 354.034 179.833C342.433 185.178 325.846 189.763 295.196 193.75C264.468 197.747 245.506 200.743 230.026 205.381C215.122 209.846 203.52 215.812 187.817 225.465L185.52 221.806Z" stroke="black" stroke-width="5"/>
<path d="M310.07 182.055C310.728 183.704 310.558 186.576 309.19 189.82C308.448 191.581 307.889 192.922 307.382 193.963C306.863 195.029 306.499 195.56 306.226 195.824C306.05 195.994 305.97 196.014 305.795 196.01C305.475 196.004 304.896 195.874 303.831 195.4C302.383 194.757 301.72 193.635 301.555 191.988C301.379 190.224 301.819 188.023 302.591 185.788C303.071 184.397 303.198 183.299 303.213 182.415C303.219 181.999 303.2 181.625 303.192 181.396L303.193 181.393C303.564 181.227 304.243 180.996 305.486 180.666C307.099 180.237 308.128 180.357 308.748 180.614C309.327 180.854 309.77 181.302 310.07 182.055Z" fill="#EDA445" stroke="black" stroke-width="4"/>
<path d="M297.237 192.368L297.049 192.331C292.618 191.447 291.137 186.741 293.234 183.394C294.539 181.312 295.695 180.113 296.696 179.581C297.527 179.139 298.364 179.083 299.52 179.719C300.109 180.044 300.406 180.38 300.572 180.688C300.745 181.008 300.854 181.44 300.843 182.061C300.819 183.391 300.263 185.15 299.332 187.428C298.827 188.664 298.493 189.78 298.232 190.687C297.976 191.578 297.819 192.131 297.658 192.532C297.589 192.509 297.508 192.479 297.414 192.44L297.237 192.368Z" fill="#EDA445" stroke="black" stroke-width="4"/>
<path d="M194.518 200.729C194.518 200.729 192.701 137.228 198.018 116.896C203.336 96.5645 462.518 54.3947 481.018 84.3973C499.518 114.4 505.018 169.229 505.018 169.229" stroke="black" stroke-width="5"/>
</svg>
