<svg width="2191" height="1001" viewBox="0 0 2191 1001" fill="none" xmlns="http://www.w3.org/2000/svg">
<g clip-path="url(#clip0_71_4929)">
<rect width="2191" height="1001" fill="#181B21"/>
<path d="M1745.98 796.638L1837.28 593.734H1874.38L1965.98 796.638H1926.56L1848.01 613.735H1863.08L1784.82 796.638H1745.98ZM1788.01 749.68L1798.15 720.114H1907.72L1917.86 749.68H1788.01Z" fill="#FDFCFB"/>
<path d="M1682.11 796.638V593.734H1719.79V796.638H1682.11Z" fill="#FDFCFB"/>
<path d="M1535.19 796.638L1446.49 593.734H1487.36L1566.49 777.217H1543.01L1623.01 593.734H1660.7L1572.29 796.638H1535.19Z" fill="#FDFCFB"/>
<path d="M1384.04 796.638V593.734H1421.72V796.638H1384.04Z" fill="#FDFCFB"/>
<path d="M1210.52 796.638V593.734H1248.2V764.753H1354.29V796.638H1210.52Z" fill="#FDFCFB"/>
<path d="M1061.59 799.536C1045.74 799.536 1031.15 796.927 1017.82 791.71C1004.48 786.492 992.888 779.246 983.033 769.97C973.177 760.501 965.544 749.487 960.133 736.926C954.723 724.172 952.017 710.259 952.017 695.186C952.017 680.113 954.723 666.296 960.133 653.735C965.544 640.982 973.177 629.967 983.033 620.691C992.888 611.222 1004.48 603.879 1017.82 598.662C1031.15 593.444 1045.64 590.835 1061.3 590.835C1077.14 590.835 1091.63 593.444 1104.77 598.662C1118.11 603.879 1129.7 611.222 1139.56 620.691C1149.41 629.967 1157.05 640.982 1162.46 653.735C1167.87 666.296 1170.57 680.113 1170.57 695.186C1170.57 710.259 1167.87 724.172 1162.46 736.926C1157.05 749.68 1149.41 760.695 1139.56 769.97C1129.7 779.246 1118.11 786.492 1104.77 791.71C1091.63 796.927 1077.24 799.536 1061.59 799.536ZM1061.3 766.492C1071.54 766.492 1081.01 764.753 1089.7 761.274C1098.4 757.796 1105.93 752.868 1112.31 746.491C1118.69 739.921 1123.62 732.385 1127.09 723.882C1130.77 715.186 1132.6 705.621 1132.6 695.186C1132.6 684.751 1130.77 675.282 1127.09 666.779C1123.62 658.083 1118.69 650.547 1112.31 644.17C1105.93 637.6 1098.4 632.576 1089.7 629.097C1081.01 625.619 1071.54 623.88 1061.3 623.88C1051.05 623.88 1041.58 625.619 1032.89 629.097C1024.39 632.576 1016.85 637.6 1010.28 644.17C1003.9 650.547 998.878 658.083 995.207 666.779C991.728 675.282 989.989 684.751 989.989 695.186C989.989 705.428 991.728 714.896 995.207 723.592C998.878 732.288 1003.9 739.921 1010.28 746.491C1016.66 752.868 1024.19 757.796 1032.89 761.274C1041.58 764.753 1051.05 766.492 1061.3 766.492Z" fill="#FDFCFB"/>
<path d="M746 796.638V593.734H841.075C865.423 593.734 883.974 598.565 896.728 608.227C909.482 617.696 915.859 630.45 915.859 646.489C915.859 657.31 913.347 666.586 908.323 674.316C903.299 681.852 896.535 687.746 888.033 691.997C879.723 696.055 870.641 698.084 860.785 698.084L866.003 687.649C877.404 687.649 887.646 689.775 896.728 694.026C905.811 698.084 912.961 704.075 918.178 711.998C923.589 719.921 926.294 729.776 926.294 741.564C926.294 758.956 919.628 772.482 906.294 782.145C892.96 791.807 873.153 796.638 846.872 796.638H746ZM783.682 767.072H844.553C858.66 767.072 869.481 764.753 877.018 760.115C884.554 755.477 888.322 748.037 888.322 737.796C888.322 727.747 884.554 720.404 877.018 715.766C869.481 710.935 858.66 708.519 844.553 708.519H780.783V679.243H837.017C850.157 679.243 860.206 676.924 867.162 672.287C874.312 667.649 877.887 660.692 877.887 651.417C877.887 641.948 874.312 634.894 867.162 630.257C860.206 625.619 850.157 623.3 837.017 623.3H783.682V767.072Z" fill="#FDFCFB"/>
<path d="M1873.24 516.701C1857.39 516.701 1842.22 514.479 1827.73 510.034C1813.24 505.396 1801.74 499.502 1793.24 492.352L1806.28 463.076C1814.4 469.453 1824.44 474.767 1836.43 479.019C1848.41 483.27 1860.68 485.396 1873.24 485.396C1883.87 485.396 1892.47 484.236 1899.04 481.917C1905.61 479.598 1910.44 476.507 1913.53 472.642C1916.62 468.584 1918.17 464.043 1918.17 459.018C1918.17 452.835 1915.94 447.907 1911.5 444.235C1907.06 440.37 1901.26 437.375 1894.11 435.25C1887.15 432.931 1879.33 430.805 1870.63 428.873C1862.13 426.94 1853.53 424.718 1844.83 422.206C1836.33 419.5 1828.5 416.119 1821.35 412.061C1814.4 407.809 1808.7 402.205 1804.25 395.249C1799.81 388.292 1797.58 379.403 1797.58 368.581C1797.58 357.566 1800.48 347.518 1806.28 338.436C1812.27 329.16 1821.26 321.817 1833.24 316.406C1845.41 310.802 1860.77 308 1879.33 308C1891.5 308 1903.58 309.546 1915.56 312.638C1927.54 315.73 1937.97 320.174 1946.86 325.971L1934.98 355.248C1925.9 349.837 1916.52 345.875 1906.86 343.363C1897.2 340.658 1887.92 339.305 1879.04 339.305C1868.6 339.305 1860.1 340.561 1853.53 343.073C1847.15 345.586 1842.42 348.871 1839.32 352.929C1836.43 356.987 1834.98 361.625 1834.98 366.842C1834.98 373.026 1837.1 378.05 1841.35 381.915C1845.8 385.587 1851.5 388.485 1858.46 390.611C1865.61 392.736 1873.53 394.862 1882.22 396.988C1890.92 398.92 1899.52 401.142 1908.02 403.655C1916.72 406.167 1924.54 409.452 1931.5 413.51C1938.65 417.568 1944.35 423.075 1948.6 430.032C1953.05 436.989 1955.27 445.781 1955.27 456.41C1955.27 467.231 1952.27 477.28 1946.28 486.555C1940.49 495.638 1931.5 502.981 1919.33 508.585C1907.15 513.995 1891.79 516.701 1873.24 516.701Z" fill="#FDFCFB"/>
<path d="M1564.53 513.802L1655.83 310.899H1692.94L1784.53 513.802H1745.11L1666.56 330.899H1681.63L1603.37 513.802H1564.53ZM1606.56 466.845L1616.7 437.279H1726.27L1736.42 466.845H1606.56Z" fill="#FDFCFB"/>
<path d="M1381.21 513.802V310.899H1464.69C1482.66 310.899 1498.02 313.797 1510.77 319.595C1523.72 325.392 1533.67 333.701 1540.63 344.523C1547.59 355.344 1551.07 368.195 1551.07 383.074C1551.07 397.954 1547.59 410.805 1540.63 421.626C1533.67 432.254 1523.72 440.467 1510.77 446.264C1498.02 451.868 1482.66 454.67 1464.69 454.67H1402.08L1418.89 437.569V513.802H1381.21ZM1513.96 513.802L1462.66 440.177H1502.95L1554.54 513.802H1513.96ZM1418.89 441.627L1402.08 423.655H1462.95C1479.57 423.655 1492.03 420.08 1500.34 412.93C1508.84 405.78 1513.09 395.828 1513.09 383.074C1513.09 370.127 1508.84 360.175 1500.34 353.219C1492.03 346.262 1479.57 342.784 1462.95 342.784H1402.08L1418.89 324.232V441.627Z" fill="#FDFCFB"/>
<path d="M1160.7 513.802V310.899H1255.77C1280.12 310.899 1298.67 315.73 1311.42 325.392C1324.18 334.861 1330.55 347.615 1330.55 363.654C1330.55 374.475 1328.04 383.751 1323.02 391.48C1317.99 399.017 1311.23 404.911 1302.73 409.162C1294.42 413.22 1285.34 415.249 1275.48 415.249L1280.7 404.814C1292.1 404.814 1302.34 406.94 1311.42 411.191C1320.51 415.249 1327.66 421.24 1332.87 429.163C1338.28 437.085 1340.99 446.941 1340.99 458.728C1340.99 476.12 1334.32 489.647 1320.99 499.309C1307.66 508.971 1287.85 513.802 1261.57 513.802H1160.7ZM1198.38 484.236H1259.25C1273.36 484.236 1284.18 481.917 1291.71 477.28C1299.25 472.642 1303.02 465.202 1303.02 454.96C1303.02 444.912 1299.25 437.569 1291.71 432.931C1284.18 428.1 1273.36 425.684 1259.25 425.684H1195.48V396.408H1251.71C1264.85 396.408 1274.9 394.089 1281.86 389.451C1289.01 384.814 1292.58 377.857 1292.58 368.581C1292.58 359.112 1289.01 352.059 1281.86 347.421C1274.9 342.784 1264.85 340.465 1251.71 340.465H1198.38V484.236Z" fill="#FDFCFB"/>
<path d="M1001.29 395.249H1102.17V426.264H1001.29V395.249ZM1004.19 482.207H1118.69V513.802H966.51V310.899H1114.63V342.494H1004.19V482.207Z" fill="#FDFCFB"/>
<path d="M746 513.802V310.899H841.075C865.423 310.899 883.974 315.73 896.728 325.392C909.482 334.861 915.859 347.615 915.859 363.654C915.859 374.475 913.347 383.751 908.323 391.48C903.299 399.017 896.535 404.911 888.033 409.162C879.723 413.22 870.641 415.249 860.785 415.249L866.003 404.814C877.404 404.814 887.646 406.94 896.728 411.191C905.811 415.249 912.961 421.24 918.178 429.163C923.589 437.085 926.294 446.941 926.294 458.728C926.294 476.12 919.628 489.647 906.294 499.309C892.96 508.971 873.153 513.802 846.872 513.802H746ZM783.682 484.236H844.553C858.66 484.236 869.481 481.917 877.018 477.28C884.554 472.642 888.322 465.202 888.322 454.96C888.322 444.912 884.554 437.569 877.018 432.931C869.481 428.1 858.66 425.684 844.553 425.684H780.783V396.408H837.017C850.157 396.408 860.206 394.089 867.162 389.451C874.312 384.814 877.887 377.857 877.887 368.581C877.887 359.112 874.312 352.059 867.162 347.421C860.206 342.784 850.157 340.465 837.017 340.465H783.682V484.236Z" fill="#FDFCFB"/>
<rect x="538" y="270" width="13" height="11" fill="#007A33"/>
<ellipse cx="404.5" cy="801.5" rx="256.5" ry="27.5" fill="black" fill-opacity="0.34"/>
<path d="M554 277C588.792 270.592 585.444 245.919 661 295.5C624.843 315.479 594.812 333.93 554 277Z" fill="#F9E300"/>
<path d="M552 277C618.151 280.203 635.049 287.906 649.5 304C613.343 317.557 592.812 315.63 552 277Z" fill="#007A33"/>
<path d="M543.5 269C559 230.5 594.89 210.913 616.5 210C613 257.5 576.5 275.5 543.5 269Z" fill="#D52B1E"/>
<path d="M545 269C562 227.5 578.769 221.134 600 217C593.063 254.987 558 269 545 269Z" fill="#AE1A0E"/>
<path fill-rule="evenodd" clip-rule="evenodd" d="M307 283C336 238 408.274 211.531 452 219C450.39 227.708 448.233 227.976 440 233.5C458.981 227.354 470.081 227.333 496.5 225.5C488.138 242.141 483.873 247.253 466 250.5C579.316 265.917 682.967 405.285 560.5 475.5C558.458 476.671 556.472 477.817 554.54 478.939C628.645 531.713 636.304 597.99 573.5 609L539 783C468.833 834.097 401.266 835.823 251.5 811L206 693.5V576C206.039 575.978 219.781 568.285 241.921 556.978L219.5 458.5C219.57 458.344 278.017 327.973 307 283Z" fill="#936632"/>
<path d="M95.5001 261.5C142 125 224 115.855 307.5 238L228 321L116.5 621C116.5 621 49.0001 398 95.5001 261.5Z" fill="#6D351B"/>
<path d="M572 626C612.513 658.879 601.291 701.682 551.519 743.4C560.927 737.295 572.201 733 582.5 733C605.972 733 628.5 748 631 768C631 782.126 621.051 796.79 587.878 804.001C587.753 804.166 587.628 804.333 587.5 804.5L585.225 804.554C583.54 804.887 581.799 805.204 580 805.5C577.504 805.5 574.98 805.274 572.461 804.855L503 806.5L572 626Z" fill="#936632"/>
<path d="M436 502C461.927 502.945 476.339 495.963 502 481C521.806 481.079 531.613 481.086 546 481L544.5 526C530.5 536 520.113 539.08 497 533C469 545 466.151 548.481 432.5 536.5C429.432 513.233 430.761 519.358 436 502Z" fill="#FCFCF7"/>
<path d="M529 400C552.761 377.712 563.579 364.807 553.5 337C495.684 329.515 472.699 334.656 444.5 356.5C455.473 375.212 469.462 385.091 529 400Z" fill="#6A341B"/>
<path d="M572 626C567.881 676.79 551.5 701 530 744.5C508.5 788 519 806 519 806H497.5C505.642 780.193 501.81 768.429 479 752.5C530.425 715.482 545.48 683.434 572 626Z" fill="#784F26"/>
<path fill-rule="evenodd" clip-rule="evenodd" d="M182 151.5C130.667 304.824 76.766 433.215 122 595C141.636 484.695 165.273 410.744 201.388 350.226C189.867 344.639 182 333.425 182 320.5C182 301.998 198.118 287 218 287C226.693 287 234.665 289.867 240.886 294.64C259.22 272.619 280.069 251.585 304 230L323 264.5C190 444.5 152 646 223.5 789C50.5005 700.5 -0.499405 237.5 182 151.5Z" fill="#4C280E"/>
<path d="M277 344C277 344 321 317.5 305 315.5C289 313.5 203.5 591.5 334.5 613V628.5C339.364 613.823 244 655 235.5 709.5C227 764 268 811 296 817.5C324 824 252.5 821.5 226.5 790.5C208.136 752.489 199.941 728.396 192.5 688C186.959 613.382 188.725 567.495 212.5 468.5C246.532 389.44 257.057 368.502 277 344Z" fill="#754C24"/>
<path d="M564.531 543.152C551.254 548.843 542 561.633 542 576.5C542 596.658 559.013 613 580 613C581.169 613 582.326 612.946 583.468 612.847C578.742 614.872 573.509 616 568 616C547.013 616 530 599.658 530 579.5C530 560.465 545.17 544.835 564.531 543.152Z" fill="#865723"/>
<path d="M369.5 424.5H377.5C375.827 466.093 383 492 420 501C377.5 501 360.5 479 369.5 424.5Z" fill="#826026"/>
<ellipse opacity="0.9" cx="290" cy="310.5" rx="40" ry="33.5" fill="#A77A36"/>
<path d="M330.5 275.5L517.5 261L562 292.5C448.371 272.232 382.698 285.296 284.5 348L267.5 353L330.5 275.5Z" fill="#826229"/>
<path d="M308 284C313.972 263.487 387.5 201.5 452.083 219.679C449.687 228.744 447.069 229.582 438.001 234.999C461.253 226.787 473.416 225.424 494.001 227C492.055 240.502 485.221 249.19 464 251.5C633.977 272.774 680.476 491.98 498 481.5" stroke="black" stroke-width="6"/>
<path d="M381 422C352.57 542.489 541.604 520.714 528.496 399.84M528.496 399.84C528.496 399.84 443.497 380.5 445.997 357C448.497 333.5 542.997 330.5 552.996 337C562.994 343.501 556.24 381.634 528.496 399.84Z" stroke="black" stroke-width="6"/>
<path d="M320.177 296.528C278.5 235 214.5 318 278.5 343" stroke="black" stroke-width="6"/>
<g filter="url(#filter0_d_71_4929)">
<path d="M339.217 536.498C337.72 537.207 337.081 538.996 337.79 540.493C338.499 541.99 340.288 542.629 341.785 541.92L340.501 539.209L339.217 536.498ZM260 502.999L257.01 502.756C254.441 534.35 266.358 567.52 285.998 589.856C305.669 612.228 333.607 624.181 362.68 611.759L361.501 609L360.322 606.241C334.395 617.32 309.082 607.023 290.503 585.894C271.893 564.729 260.559 533.149 262.99 503.242L260 502.999ZM361.501 609L362.68 611.759C377.018 605.632 385.629 596.686 389.556 586.753C393.47 576.854 392.585 566.34 388.622 557.334C380.785 539.524 360.193 526.563 339.217 536.498L340.501 539.209L341.785 541.92C358.81 533.857 376.218 544.041 383.13 559.751C386.542 567.505 387.22 576.345 383.977 584.547C380.747 592.715 373.484 600.618 360.322 606.241L361.501 609Z" fill="black"/>
</g>
<path d="M309.43 309.686C293.03 281.678 254.5 313.5 294.5 333" stroke="black" stroke-width="6"/>
<path d="M275.501 343.044C136.5 554.499 189.41 805.718 264.057 814.528C338.704 823.337 423.125 836.676 485.057 811.027C546.989 785.379 431.499 681 366.001 781" stroke="black" stroke-width="6"/>
<path d="M234.256 710.522C322 538 487.499 665.999 409.502 743.5" stroke="#010101" stroke-width="6"/>
<path d="M545.998 747C599.998 714.999 615.5 649.5 570.998 623.5" stroke="#010101" stroke-width="6"/>
<path d="M495 804.5C702.499 825.998 630.5 709.5 562 735.5" stroke="#010101" stroke-width="6"/>
<path d="M475.76 750.156C501.5 750.156 572.5 656.5 572.5 611.5" stroke="black" stroke-width="6"/>
<path d="M546.5 478C565.551 490.721 580.161 524.947 580.5 548.5" stroke="black" stroke-width="6"/>
<path d="M582.5 546.5C530 535.5 528.998 625.496 586.998 607.496C644.999 589.497 608.967 503.816 549.5 478.5" stroke="black" stroke-width="6" stroke-linecap="round"/>
<path d="M433.926 500.734C433.926 500.734 428.59 528.876 433.926 538C439.262 547.124 489.704 540.44 494 534.5C498.296 528.56 498.5 481.5 498.5 481.5" stroke="black" stroke-width="6"/>
<path d="M544 478.5C544 478.5 546.332 507.395 544 521.5C541.669 535.604 503.847 540.688 499.621 534.5C495.394 528.312 499.621 478.919 499.621 478.919" stroke="black" stroke-width="6"/>
<path d="M323.5 264.5C100.022 -126.768 -72.5 611 234.5 795.999" stroke="black" stroke-width="6"/>
<path d="M376.5 272.127C376.5 272.127 368.5 268 357.5 273.5C346.5 279 349.5 292.127 349.5 292.127C354.762 280.401 360.773 276.084 376.5 272.127Z" fill="#352314"/>
<path d="M349.72 292.586C353.77 276.638 375.502 271.58 377.502 273.499C374.993 268.501 345.331 268.186 349.72 292.586Z" stroke="#110000" stroke-width="6"/>
<circle cx="380" cy="331" r="24" fill="#00020B" stroke="#1D0500" stroke-width="6"/>
<circle cx="506" cy="306" r="19" fill="#00020B" stroke="#1D0500" stroke-width="6"/>
<circle cx="371.5" cy="319.5" r="13.5" fill="#D9D9D9"/>
<circle cx="498" cy="298" r="11" fill="#D9D9D9"/>
<circle cx="411.5" cy="443.5" r="4.5" fill="#160D0C"/>
<circle cx="442.5" cy="438.5" r="4.5" fill="#160D0C"/>
<circle cx="465.5" cy="447.5" r="4.5" fill="#160D0C"/>
<circle cx="547.5" cy="423.5" r="4.5" fill="#160D0C"/>
<circle cx="575.5" cy="427.5" r="4.5" fill="#160D0C"/>
<circle cx="555.5" cy="442.5" r="4.5" fill="#160D0C"/>
<circle cx="542.5" cy="460.5" r="4.5" fill="#160D0C"/>
<circle cx="466.5" cy="470.5" r="4.5" fill="#160D0C"/>
<circle cx="432.5" cy="465.5" r="4.5" fill="#160D0C"/>
<path d="M439.463 785.602C438.579 784.201 438.997 782.348 440.398 781.464C441.799 780.579 443.652 780.997 444.536 782.398L442 784L439.463 785.602ZM443 823L440.16 822.034C445.659 805.872 444.795 794.044 439.463 785.602L442 784L444.536 782.398C451.205 792.956 451.657 806.872 445.84 823.966L443 823Z" fill="black"/>
<path d="M469.127 784.362C468.651 782.775 469.551 781.103 471.138 780.627C472.725 780.15 474.397 781.051 474.874 782.638L472 783.5L469.127 784.362ZM472 816L469.062 815.395C470.8 806.95 471.496 801.582 471.438 797.164C471.381 792.816 470.592 789.246 469.127 784.362L472 783.5L474.874 782.638C476.408 787.754 477.37 791.934 477.437 797.086C477.504 802.168 476.7 808.05 474.939 816.605L472 816Z" fill="black"/>
<path d="M131.697 298.602C169.657 255.086 193.113 238.974 237.5 220C193.526 244.57 170.047 261.297 131.697 298.602Z" stroke="black" stroke-width="4"/>
<path d="M116.859 407.251C154.819 363.735 223.113 294.474 267.5 275.5C223.526 300.07 155.209 369.946 116.859 407.251Z" stroke="black" stroke-width="4"/>
<path d="M122.929 511.353C160.888 467.837 207.5 396.5 255 375.5C201 410 161.279 474.048 122.929 511.353Z" stroke="black" stroke-width="4"/>
<path d="M143.468 597.33C181.428 553.814 178.5 541 199.5 526C185.5 535 181.818 560.025 143.468 597.33Z" stroke="black" stroke-width="4"/>
<path d="M202 213.842C241.079 256.355 237 244.5 263.5 287C226.5 236.715 234.863 256.061 202 213.842Z" stroke="black" stroke-width="4"/>
<path d="M167.5 268C206.58 310.513 227.5 333 254 375.5C217 325.215 200.363 310.218 167.5 268Z" stroke="black" stroke-width="4"/>
<path d="M130 510.615C169.079 553.128 165 536 191.5 578.5C154.5 528.215 162.863 552.833 130 510.615Z" stroke="black" stroke-width="4"/>
<path d="M133 331.615C179.5 370 204 391.978 226.5 436.5C195 384.5 174.5 377 133 331.615Z" stroke="black" stroke-width="4"/>
<path d="M119 399C174.724 445.726 203 493.5 205 500.5C207 507.5 161.008 428.232 119 399Z" stroke="black" stroke-width="4"/>
<path d="M518 396.5C515.241 384.349 489.03 364.546 484 364.5C490.473 367.283 512.314 387.777 509 394.5" stroke="black" stroke-width="2"/>
<path d="M528 398C524.239 388.193 528.35 363.172 530.5 359C527.155 365.717 527.363 389.827 534 394" stroke="black" stroke-width="2"/>
<path d="M369.5 421.5C374.373 421.577 379.54 421.431 383.964 422.37" stroke="black" stroke-width="6"/>
<path d="M487 365C504.235 376.675 512.872 383.228 517.5 395L510 393C503.815 380.192 497.843 374.687 487 365Z" fill="black"/>
<path d="M527.5 399.5V375.5C529.085 384.991 530.096 389.551 532.5 394L527.5 399.5Z" fill="black"/>
<path d="M308.854 277.767C308.949 277.593 309.099 277.448 309.276 277.357C383.051 239.089 410.384 232.445 493.632 234.491C493.865 234.497 494.096 234.584 494.272 234.737L550.461 283.784C551.211 284.438 550.607 285.664 549.621 285.529C430.321 269.169 373.216 290.393 272.133 348.69C271.256 349.195 270.234 348.247 270.721 347.36L308.854 277.767Z" fill="#D52B1E"/>
<path d="M297.364 304.222C297.453 304.076 297.58 303.955 297.729 303.871C371.029 262.65 427.213 247.472 511.178 252.481C511.385 252.493 511.587 252.57 511.749 252.701L550.18 283.723C550.97 284.361 550.373 285.632 549.367 285.494C430.366 269.217 373.265 290.389 272.453 348.505C271.554 349.023 270.521 348.018 271.063 347.133L297.364 304.222Z" fill="#F9E300"/>
<path d="M288.873 320.69C288.957 320.565 289.068 320.46 289.198 320.383C369.676 272.952 449.05 253.188 524.763 265.462C524.919 265.487 525.066 265.549 525.193 265.642L549.781 283.643C550.621 284.258 550.034 285.585 549.004 285.444C430.367 269.276 373.275 290.407 272.751 348.333C271.834 348.862 270.793 347.81 271.38 346.93L288.873 320.69Z" fill="#007A33"/>
<path d="M614.896 205.744C615.944 224.405 613.725 237.325 605.613 247.173C596.755 257.927 580.354 265.666 551.148 272.276L544.051 267.206C547.045 262.415 549.487 258.127 551.72 254.289C554.338 249.79 556.655 245.939 559.312 242.431C564.526 235.548 571.192 229.79 584.264 223.721C597.654 217.503 602.941 214.778 606.661 212.236C608.534 210.957 609.99 209.737 611.767 208.273C612.663 207.535 613.669 206.71 614.896 205.744Z" stroke="black" stroke-width="6"/>
<path d="M661.142 292.314C641.284 312.604 621.501 316.732 603.503 312.555C584.269 308.09 566.508 294.007 552.547 278.202L552.547 276.181C563.913 270.994 572.763 267.85 581.523 266.359C590.697 264.797 599.952 265.015 612.093 266.805C623.002 268.413 631.749 274.731 640.45 281.022C644.709 284.103 649.021 287.213 653.417 289.448C655.892 290.706 658.46 291.722 661.142 292.314Z" stroke="black" stroke-width="6"/>
<path d="M547.188 270.788C549.59 272.68 551.15 274.996 551.81 277.107C552.474 279.232 552.173 280.885 551.348 281.933C550.94 282.451 550.744 282.429 550.732 282.429C550.585 282.44 550.17 282.393 549.331 281.92C548.515 281.46 547.562 280.751 546.393 279.81C545.303 278.932 543.909 277.756 542.546 276.682C541.183 275.608 539.713 274.529 538.605 273.676C537.415 272.76 536.502 272 535.864 271.314C535.208 270.609 535.065 270.217 535.041 270.071C535.039 270.063 534.967 269.878 535.378 269.356C536.203 268.308 537.74 267.629 539.961 267.776C542.168 267.922 544.785 268.896 547.188 270.788Z" stroke="black" stroke-width="5"/>
<path opacity="0.5" d="M312.5 278L337 266.5L296 334.5L277.5 342L312.5 278Z" fill="black"/>
<path d="M398.471 243.24C424.498 237.153 451.759 235.979 493.036 236.978L545.073 282.398C487.668 274.916 444.503 276.332 403.435 286.689C362.54 297.003 323.884 316.145 275.476 343.884L310.825 279.369C347.461 260.379 372.423 249.332 398.471 243.24Z" stroke="black" stroke-width="5"/>
<path d="M549.553 355.805C546.662 359.066 545.506 354.194 541.725 350.841C537.944 347.488 532.969 346.924 535.861 343.663C538.753 340.402 544.162 340.476 547.943 343.829C551.724 347.182 552.445 352.544 549.553 355.805Z" fill="#7F4731"/>
<path d="M467 349.684C471.12 352.611 499 343.198 526 346.684C531.316 347.37 535.436 344.611 531.316 341.684C520.5 333.998 469.525 346.131 467 349.684Z" fill="#6F3D26"/>
</g>
<defs>
<filter id="filter0_d_71_4929" x="252.664" y="502.756" width="143.418" height="122.011" filterUnits="userSpaceOnUse" color-interpolation-filters="sRGB">
<feFlood flood-opacity="0" result="BackgroundImageFix"/>
<feColorMatrix in="SourceAlpha" type="matrix" values="0 0 0 0 0 0 0 0 0 0 0 0 0 0 0 0 0 0 127 0" result="hardAlpha"/>
<feOffset dy="4"/>
<feGaussianBlur stdDeviation="2"/>
<feComposite in2="hardAlpha" operator="out"/>
<feColorMatrix type="matrix" values="0 0 0 0 0 0 0 0 0 0 0 0 0 0 0 0 0 0 0.25 0"/>
<feBlend mode="normal" in2="BackgroundImageFix" result="effect1_dropShadow_71_4929"/>
<feBlend mode="normal" in="SourceGraphic" in2="effect1_dropShadow_71_4929" result="shape"/>
</filter>
<clipPath id="clip0_71_4929">
<rect width="2191" height="1001" fill="white"/>
</clipPath>
</defs>
</svg>
